<svg width="322" height="486" viewBox="0 0 322 486" fill="none" xmlns="http://www.w3.org/2000/svg">
<rect y="9" width="295" height="468" fill="white"/>
<path d="M295 23H317C319.761 23 322 25.2386 322 28V43C322 45.7614 319.761 48 317 48H295V23Z" fill="white"/>
<path d="M295 55H317C319.761 55 322 57.2386 322 60V75C322 77.7614 319.761 80 317 80H295V55Z" fill="white"/>
<path d="M295 87H317C319.761 87 322 89.2386 322 92V107C322 109.761 319.761 112 317 112H295V87Z" fill="white"/>
<path d="M295 119H317C319.761 119 322 121.239 322 124V139C322 141.761 319.761 144 317 144H295V119Z" fill="white"/>
<path d="M295 151H317C319.761 151 322 153.239 322 156V171C322 173.761 319.761 176 317 176H295V151Z" fill="white"/>
<path d="M295 183H317C319.761 183 322 185.239 322 188V203C322 205.761 319.761 208 317 208H295V183Z" fill="white"/>
<path d="M295 215H317C319.761 215 322 217.239 322 220V235C322 237.761 319.761 240 317 240H295V215Z" fill="white"/>
<path d="M295 247H317C319.761 247 322 249.239 322 252V267C322 269.761 319.761 272 317 272H295V247Z" fill="white"/>
<path d="M295 279H317C319.761 279 322 281.239 322 284V299C322 301.761 319.761 304 317 304H295V279Z" fill="white"/>
<path d="M295 311H317C319.761 311 322 313.239 322 316V331C322 333.761 319.761 336 317 336H295V311Z" fill="white"/>
<path d="M295 343H317C319.761 343 322 345.239 322 348V363C322 365.761 319.761 368 317 368H295V343Z" fill="white"/>
<path d="M295 375H317C319.761 375 322 377.239 322 380V395C322 397.761 319.761 400 317 400H295V375Z" fill="white"/>
<path d="M295 407H317C319.761 407 322 409.239 322 412V427C322 429.761 319.761 432 317 432H295V407Z" fill="white"/>
<path d="M295 439H317C319.761 439 322 441.239 322 444V459C322 461.761 319.761 464 317 464H295V439Z" fill="white"/>
<path d="M311.07 31.978C310.608 31.978 310.258 32.118 310.034 32.384C308.886 32.454 307.206 32.51 306.436 32.482C305.862 32.454 305.344 32.44 304.728 32.328C304.532 32.3 304.462 32.51 304.602 32.804C304.7 33.028 304.882 33.28 305.176 33.434C305.4 33.56 305.764 33.658 306.086 33.588C306.31 33.532 306.506 33.434 306.702 33.406C307.458 33.308 308.494 33.238 309.978 33.266C309.992 34.554 309.852 36.15 309.6 37.564C309.502 38.082 309.502 38.404 309.754 38.502C310.062 38.628 310.552 38.404 311.056 37.732C311.882 36.612 312.372 35.058 312.372 33.196C312.372 32.37 311.854 31.978 311.07 31.978Z" fill="#0B0B0B"/>
<path d="M311.504 69.85C311.308 69.85 311.098 69.906 310.902 69.962C310.72 70.018 310.538 70.116 310.356 70.172C310.216 70.214 310.076 70.242 309.936 70.256C309.796 70.27 309.642 70.27 309.502 70.284C309.446 70.284 309.236 70.298 309.04 70.298H307.696C307.444 70.298 307.318 70.158 307.318 69.934V66.252C307.318 66.028 307.304 65.818 307.136 65.636C306.688 65.132 305.512 65.062 304.938 65.216C304.602 65.3 304.504 65.622 304.588 65.818C304.658 66 304.812 66.14 304.938 66.35C305.036 66.518 305.106 66.672 305.106 66.938V69.78C305.106 70.69 305.792 71.11 306.954 71.11H311.91C312.344 71.11 312.568 70.858 312.596 70.648C312.652 70.186 312.218 69.85 311.504 69.85Z" fill="#0B0B0B"/>
<path d="M311.28 100.934C311.084 100.934 310.888 100.976 310.692 101.032C310.51 101.088 310.328 101.186 310.146 101.242C310.006 101.284 309.852 101.312 309.712 101.326C309.572 101.34 309.418 101.34 309.278 101.354C309.222 101.354 309.194 101.368 308.998 101.368H307.696C307.444 101.368 307.318 101.228 307.318 101.004V97.224H311.42C311.84 97.224 312.078 97 312.092 96.804C312.12 96.342 311.728 96.09 311.014 96.09C310.818 96.09 310.622 96.132 310.426 96.188C310.244 96.244 310.076 96.314 309.894 96.37C309.754 96.412 309.628 96.44 309.488 96.454C309.348 96.468 309.208 96.468 309.068 96.482H308.634H307.234C306.646 96.062 305.33 96.09 304.868 96.272C304.49 96.426 304.49 96.664 304.588 96.86C304.686 97.042 304.826 97.182 304.938 97.35C305.036 97.504 305.106 97.672 305.106 97.938V100.78C305.106 101.69 305.792 102.11 306.954 102.11H311.686C312.12 102.11 312.344 101.9 312.372 101.69C312.428 101.228 311.994 100.934 311.28 100.934Z" fill="#0B0B0B"/>
<path d="M311.574 133.074C311.378 133.074 311.168 133.13 310.972 133.186C310.79 133.242 310.608 133.34 310.426 133.396C310.286 133.438 310.146 133.452 310.006 133.466C309.866 133.48 309.712 133.494 309.572 133.508C309.516 133.508 309.082 133.522 308.886 133.522H307.836C307.584 133.522 307.458 133.424 307.458 133.228V131.604H311.392C311.812 131.604 312.064 131.45 312.078 131.142C312.092 130.848 311.896 130.694 311.574 130.638C311.756 130.26 311.938 129.84 312.064 129.56C312.106 129.462 312.176 129.21 312.176 129.042C312.176 128.286 311.714 127.908 310.916 127.908C310.44 127.908 310.048 128.076 309.824 128.356C308.872 128.398 307.906 128.426 306.926 128.412C306.352 128.398 305.834 128.37 305.218 128.258C305.022 128.23 304.952 128.44 305.092 128.734C305.19 128.958 305.386 129.126 305.68 129.28C305.918 129.392 306.268 129.504 306.59 129.434C306.814 129.378 306.996 129.266 307.192 129.238C308.032 129.112 308.914 129.042 309.894 129.056V130.876H307.374C306.744 130.554 305.386 130.624 304.994 130.736C304.672 130.82 304.616 131.086 304.742 131.31C304.84 131.478 304.952 131.548 305.092 131.716C305.204 131.842 305.246 132.024 305.246 132.22V133.116C305.246 133.83 305.946 134.25 307.108 134.25H311.98C312.414 134.25 312.638 134.04 312.666 133.83C312.722 133.368 312.288 133.074 311.574 133.074Z" fill="#0B0B0B"/>
<path d="M312.33 161.294C312.33 160.426 311.854 160.02 311 160.02C310.426 160.02 310.076 160.174 309.81 160.412H306.926C306.282 160.076 305.148 160.104 304.7 160.272C304.308 160.426 304.294 160.664 304.406 160.86C304.504 161.042 304.658 161.182 304.77 161.35C304.882 161.504 304.952 161.7 304.966 161.952L305.106 166.222C305.12 166.46 305.386 166.614 305.862 166.572C306.282 166.544 306.674 166.404 307.066 166.11H311.49C311.91 166.11 312.176 165.956 312.19 165.648C312.204 165.34 311.98 165.186 311.658 165.13C311.854 164.122 312.148 162.596 312.288 161.686C312.316 161.546 312.33 161.42 312.33 161.294ZM307.136 165.368V161.154H309.88V165.368H307.136Z" fill="#0B0B0B"/>
<path d="M311.952 192.384C311.462 191.866 310.37 191.642 309.74 191.74C309.362 191.796 309.32 192.244 309.418 192.44C309.502 192.622 309.642 192.804 309.754 193.014C309.852 193.182 309.908 193.336 309.908 193.602V194.078H307.108V193.238C307.108 193.014 307.094 192.804 306.926 192.622C306.478 192.118 305.302 192.034 304.728 192.188C304.392 192.272 304.294 192.608 304.378 192.804C304.448 192.986 304.602 193.126 304.728 193.336C304.826 193.504 304.896 193.658 304.896 193.924V197.956C304.896 198.236 305.106 198.418 305.638 198.376C306.17 198.334 306.604 198.18 306.856 197.886H309.908V198.026C309.908 198.306 310.132 198.488 310.664 198.446C311.518 198.376 312.12 198.026 312.12 197.228V193C312.12 192.776 312.106 192.552 311.952 192.384ZM307.108 197.144V194.82H309.908V197.144H307.108Z" fill="#0B0B0B"/>
<path d="M312.722 229.116C312.708 228.92 312.666 228.696 312.568 228.542C312.022 227.66 310.51 227.002 309.278 226.806C309.446 226.554 309.6 226.302 309.698 226.078C309.978 225.476 310.146 224.888 309.768 224.496C309.46 224.174 308.858 223.908 308.13 223.838C307.654 223.796 307.332 223.894 307.234 224.132C307.066 224.524 307.584 224.874 307.472 225.266C307.08 226.554 306.016 228.276 304.644 229.662C304.392 229.914 304.21 230.152 304.308 230.306C304.434 230.488 304.728 230.558 305.19 230.334C306.674 229.634 308.144 228.304 309.04 227.128C309.964 227.758 310.132 228.374 310.37 229.354C310.51 229.942 310.986 230.39 311.602 230.362C312.26 230.334 312.75 229.774 312.722 229.116Z" fill="#0B0B0B"/>
<path d="M309.208 256.37C309.292 256.272 309.334 256.174 309.292 256.034C309.222 255.768 308.662 255.544 308.06 255.586C307.99 255.586 307.92 255.6 307.864 255.628C307.78 255.67 307.752 255.768 307.738 255.852C307.724 255.964 307.808 256.062 307.864 256.146C307.906 256.216 307.962 256.286 307.99 256.356C305.862 256.524 304.742 257.784 304.742 259.394C304.742 261.13 306.058 262.46 308.508 262.46C310.958 262.46 312.274 261.13 312.274 259.394C312.274 257.826 311.21 256.594 309.208 256.37ZM308.508 261.718C307.444 261.718 306.954 261.004 306.954 259.394C306.954 257.784 307.444 257.07 308.508 257.07C309.572 257.07 310.062 257.784 310.062 259.394C310.062 261.004 309.572 261.718 308.508 261.718Z" fill="#0B0B0B"/>
<path d="M312.624 294.116C312.61 293.92 312.54 293.696 312.456 293.542C311.966 292.688 310.482 292.184 309.292 292.03C309.642 291.442 309.922 290.812 310.062 290.154C310.538 290.168 311.07 290.182 311.672 290.224C312.078 290.252 312.358 290.056 312.372 289.79C312.4 289.398 312.036 289.09 311.462 289.09C311.196 289.09 310.902 289.146 310.706 289.216C310.51 289.286 310.37 289.342 310.076 289.37C309.446 289.426 308.256 289.454 307.08 289.426C306.492 289.412 305.89 289.384 305.288 289.244C305.022 289.188 304.952 289.398 305.064 289.664C305.162 289.888 305.386 290.14 305.736 290.308C306.016 290.448 306.436 290.518 306.758 290.406C306.954 290.336 307.094 290.294 307.36 290.266C307.43 290.252 307.514 290.252 307.598 290.238C307.304 291.722 306.17 293.528 304.756 294.69C304.476 294.914 304.336 295.152 304.42 295.306C304.518 295.502 304.826 295.53 305.302 295.348C306.716 294.816 308.13 293.752 309.068 292.394C309.838 292.856 310.034 293.444 310.258 294.354C310.398 294.942 310.874 295.39 311.49 295.362C312.148 295.334 312.652 294.774 312.624 294.116Z" fill="#0B0B0B"/>
<path d="M312.61 326.088C312.582 325.906 312.498 325.71 312.386 325.556C311.812 324.814 310.44 324.534 309.362 324.478C309.67 324.016 309.894 323.54 310.048 323.036C310.524 323.05 311.07 323.064 311.672 323.106C312.078 323.134 312.358 322.938 312.372 322.672C312.4 322.28 312.036 321.972 311.462 321.972C311.196 321.972 310.902 322.042 310.706 322.112C310.51 322.182 310.37 322.224 310.076 322.252C309.446 322.308 308.256 322.336 307.08 322.308C306.492 322.294 305.89 322.266 305.288 322.126C305.022 322.07 304.952 322.28 305.064 322.546C305.162 322.77 305.386 323.022 305.736 323.19C306.016 323.33 306.436 323.4 306.758 323.288C306.954 323.218 307.094 323.176 307.36 323.148C307.43 323.134 307.5 323.134 307.584 323.12C307.22 324.38 306.016 325.92 304.784 326.76C304.49 326.956 304.336 327.096 304.392 327.264C304.476 327.502 304.812 327.53 305.302 327.39C306.786 326.984 308.186 326.032 309.11 324.828C309.894 325.15 310.132 325.738 310.384 326.55C310.552 327.096 311.07 327.474 311.658 327.39C312.274 327.292 312.708 326.704 312.61 326.088ZM307.934 321.538C308.27 321.846 308.592 321.916 308.97 321.902C309.488 321.888 309.894 321.44 309.88 320.922C309.866 320.404 309.418 319.998 308.9 320.012C308.746 320.012 308.592 320.054 308.466 320.124C308.13 320.32 307.948 320.46 307.598 320.278C307.486 320.222 307.36 320.278 307.374 320.46C307.388 320.684 307.5 321.132 307.934 321.538Z" fill="#0B0B0B"/>
<path d="M311.07 352.978C310.608 352.978 310.258 353.118 310.034 353.384C308.9 353.454 307.262 353.51 306.506 353.482C305.932 353.454 305.428 353.44 304.812 353.328C304.616 353.3 304.532 353.51 304.672 353.804C304.784 354.028 304.952 354.21 305.246 354.364C305.47 354.49 305.834 354.588 306.156 354.518C306.38 354.462 306.576 354.35 306.772 354.322C307.528 354.224 308.522 354.168 309.978 354.196C309.978 354.672 309.95 355.19 309.922 355.722C308.956 355.876 307.864 356.002 307.066 356.044C306.338 356.072 305.778 356.058 305.372 355.988C304.882 355.904 304.966 356.24 305.092 356.492C305.19 356.702 305.442 357.01 305.82 357.178C306.086 357.29 306.366 357.304 306.702 357.22C306.926 357.164 307.192 357.052 307.388 357.01C308.214 356.842 309.082 356.548 309.88 356.296C309.824 357.052 309.726 357.836 309.6 358.564C309.502 359.082 309.502 359.404 309.754 359.502C310.062 359.628 310.552 359.404 311.056 358.732C311.882 357.612 312.372 356.058 312.372 354.196C312.372 353.37 311.854 352.978 311.07 352.978Z" fill="#0B0B0B"/>
<path d="M311.28 389.934C311.084 389.934 310.888 389.976 310.692 390.032C310.51 390.088 310.328 390.186 310.146 390.242C310.006 390.284 309.852 390.312 309.712 390.326C309.572 390.34 309.418 390.34 309.278 390.354C309.222 390.354 309.194 390.368 308.998 390.368H307.696C307.444 390.368 307.318 390.228 307.318 390.004V388.506H310.958C311.378 388.506 311.63 388.296 311.644 388.1C311.672 387.638 311.336 387.428 310.846 387.428C310.65 387.428 310.454 387.442 310.258 387.498C310.076 387.554 309.936 387.596 309.754 387.652C309.614 387.694 309.516 387.722 309.376 387.736C309.236 387.75 309.124 387.75 308.984 387.764H308.564H307.318V386.154H311.42C311.84 386.154 312.078 385.93 312.092 385.734C312.12 385.272 311.728 385.02 311.014 385.02C310.818 385.02 310.622 385.062 310.426 385.118C310.244 385.174 310.076 385.244 309.894 385.3C309.754 385.342 309.628 385.356 309.488 385.37L309.068 385.412H308.634H307.234C306.646 384.992 305.33 385.02 304.868 385.202C304.49 385.356 304.49 385.594 304.588 385.79C304.686 385.972 304.826 386.098 304.938 386.266C305.036 386.42 305.106 386.602 305.106 386.868V389.78C305.106 390.69 305.792 391.11 306.954 391.11H311.686C312.12 391.11 312.344 390.9 312.372 390.69C312.428 390.228 311.994 389.934 311.28 389.934Z" fill="#0B0B0B"/>
<path d="M305.526 418.308C305.806 418.448 306.24 418.518 306.562 418.406C306.758 418.336 306.884 418.294 307.15 418.266C307.878 418.168 309.306 418.07 311.616 418.224C312.022 418.252 312.302 418.056 312.316 417.79C312.344 417.398 311.98 417.09 311.406 417.09C311.14 417.09 310.846 417.146 310.65 417.216C310.454 417.286 310.314 417.342 310.02 417.37C309.39 417.426 308.06 417.454 306.884 417.426C306.296 417.412 305.694 417.384 305.092 417.244C304.826 417.188 304.742 417.398 304.854 417.664C304.952 417.888 305.176 418.14 305.526 418.308ZM305.904 420.548C305.876 420.66 305.876 420.772 305.89 420.898C305.946 421.542 306.52 422.018 307.164 421.962C307.808 421.906 308.284 421.332 308.228 420.688C308.214 420.52 308.186 420.436 308.158 420.324C308.06 419.974 307.78 419.568 307.388 419.26C307.08 419.022 306.73 418.854 306.38 418.784C306.17 418.742 306.016 418.854 306.1 419.078C306.198 419.316 306.212 419.54 306.184 419.736C306.142 420.03 305.974 420.212 305.904 420.548ZM311.924 421.962C311.644 421.962 311.322 422.032 311.126 422.102C310.93 422.172 310.776 422.214 310.468 422.242C310.44 422.242 310.412 422.256 310.384 422.256C310.594 421.78 311.07 420.674 311.35 419.778C311.406 419.582 311.49 419.176 311.196 418.952C310.72 418.588 309.866 418.476 309.292 418.504C308.83 418.532 308.732 418.882 308.816 419.078C308.928 419.302 309.026 419.4 309.124 419.624C309.236 419.862 309.25 420.072 309.25 420.38C309.25 420.87 309.166 421.892 309.124 422.312C308.186 422.34 307.038 422.34 306.492 422.326C305.876 422.312 305.246 422.298 304.616 422.158C304.336 422.102 304.266 422.312 304.378 422.578C304.476 422.802 304.714 423.068 305.078 423.236C305.372 423.376 305.82 423.432 306.156 423.32C306.366 423.25 306.52 423.208 306.786 423.18C307.402 423.096 309.852 422.97 312.148 423.096C312.568 423.124 312.862 422.928 312.876 422.662C312.904 422.27 312.526 421.962 311.924 421.962Z" fill="#0B0B0B"/>
<path d="M307.668 449.454C308.004 449.762 308.326 449.832 308.704 449.818C309.222 449.804 309.628 449.356 309.614 448.838C309.6 448.32 309.152 447.914 308.634 447.928C308.48 447.928 308.326 447.984 308.2 448.054C307.864 448.25 307.696 448.376 307.346 448.194C307.234 448.138 307.094 448.194 307.108 448.376C307.122 448.6 307.234 449.048 307.668 449.454ZM312.092 449.86C311.826 449.86 311.518 449.916 311.322 449.986C311.126 450.056 310.986 450.126 310.692 450.14C309.698 450.21 307.038 450.224 305.862 450.196C305.274 450.182 304.672 450.154 304.07 450.014C303.804 449.958 303.734 450.168 303.846 450.434C303.944 450.658 304.154 450.91 304.504 451.078C304.784 451.218 305.218 451.288 305.54 451.176C305.736 451.106 305.862 451.064 306.128 451.036C307.094 450.924 309.894 450.84 312.302 450.994C312.708 451.022 312.988 450.826 313.002 450.56C313.03 450.168 312.666 449.86 312.092 449.86ZM308.508 451.33C306.702 451.33 305.442 451.974 305.442 453.5C305.442 455.026 306.702 455.684 308.508 455.684C310.314 455.684 311.574 455.026 311.574 453.5C311.574 451.974 310.314 451.33 308.508 451.33ZM308.508 454.942C307.906 454.942 307.542 454.606 307.542 453.5C307.542 452.394 307.906 452.072 308.508 452.072C309.11 452.072 309.46 452.394 309.46 453.5C309.46 454.606 309.11 454.942 308.508 454.942Z" fill="#0B0B0B"/>
<g filter="url(#filter0_d_527_5314)">
<path d="M16 9L16 477" stroke="#ECEBE8"/>
</g>
<defs>
<filter id="filter0_d_527_5314" x="6.5" y="0" width="19" height="486" filterUnits="userSpaceOnUse" color-interpolation-filters="sRGB">
<feFlood flood-opacity="0" result="BackgroundImageFix"/>
<feColorMatrix in="SourceAlpha" type="matrix" values="0 0 0 0 0 0 0 0 0 0 0 0 0 0 0 0 0 0 127 0" result="hardAlpha"/>
<feOffset/>
<feGaussianBlur stdDeviation="4.5"/>
<feComposite in2="hardAlpha" operator="out"/>
<feColorMatrix type="matrix" values="0 0 0 0 0.516667 0 0 0 0 0.513351 0 0 0 0 0.501597 0 0 0 1 0"/>
<feBlend mode="normal" in2="BackgroundImageFix" result="effect1_dropShadow_527_5314"/>
<feBlend mode="normal" in="SourceGraphic" in2="effect1_dropShadow_527_5314" result="shape"/>
</filter>
</defs>
</svg>
