<svg width="15" height="15" viewBox="0 0 15 15" fill="none" xmlns="http://www.w3.org/2000/svg">
<mask id="mask0_366_4299" style="mask-type:alpha" maskUnits="userSpaceOnUse" x="0" y="0" width="15" height="15">
<rect width="15" height="15" fill="#D9D9D9"/>
</mask>
<g mask="url(#mask0_366_4299)">
<path d="M4.375 13.125C4.03125 13.125 3.73708 13.0027 3.4925 12.7581C3.2475 12.5131 3.125 12.2188 3.125 11.875V3.75C2.94792 3.75 2.79938 3.69021 2.67938 3.57062C2.55979 3.45062 2.5 3.30208 2.5 3.125C2.5 2.94792 2.55979 2.79938 2.67938 2.67938C2.79938 2.55979 2.94792 2.5 3.125 2.5H5.625C5.625 2.32292 5.685 2.17437 5.805 2.05437C5.92458 1.93479 6.07292 1.875 6.25 1.875H8.75C8.92708 1.875 9.07563 1.93479 9.19563 2.05437C9.31521 2.17437 9.375 2.32292 9.375 2.5H11.875C12.0521 2.5 12.2004 2.55979 12.32 2.67938C12.44 2.79938 12.5 2.94792 12.5 3.125C12.5 3.30208 12.44 3.45062 12.32 3.57062C12.2004 3.69021 12.0521 3.75 11.875 3.75V11.875C11.875 12.2188 11.7527 12.5131 11.5081 12.7581C11.2631 13.0027 10.9688 13.125 10.625 13.125H4.375ZM4.375 3.75V11.875H10.625V3.75H4.375ZM5.625 10C5.625 10.1771 5.685 10.3254 5.805 10.445C5.92458 10.565 6.07292 10.625 6.25 10.625C6.42708 10.625 6.57563 10.565 6.69563 10.445C6.81521 10.3254 6.875 10.1771 6.875 10V5.625C6.875 5.44792 6.81521 5.29937 6.69563 5.17937C6.57563 5.05979 6.42708 5 6.25 5C6.07292 5 5.92458 5.05979 5.805 5.17937C5.685 5.29937 5.625 5.44792 5.625 5.625V10ZM8.125 10C8.125 10.1771 8.185 10.3254 8.305 10.445C8.42458 10.565 8.57292 10.625 8.75 10.625C8.92708 10.625 9.07563 10.565 9.19563 10.445C9.31521 10.3254 9.375 10.1771 9.375 10V5.625C9.375 5.44792 9.31521 5.29937 9.19563 5.17937C9.07563 5.05979 8.92708 5 8.75 5C8.57292 5 8.42458 5.05979 8.305 5.17937C8.185 5.29937 8.125 5.44792 8.125 5.625V10Z" fill="#FF2424" fill-opacity="0.78"/>
</g>
</svg>
