<svg width="16" height="16" viewBox="0 0 16 16" fill="none" xmlns="http://www.w3.org/2000/svg">
<path d="M6.66634 4H10.6663M6.66634 9.33333H10.6663M6.66634 6.66667H14.6663M6.66634 12H14.6663M1.99967 6.66667H3.33301C3.7012 6.66667 3.99967 6.36819 3.99967 6V4.66667C3.99967 4.29848 3.7012 4 3.33301 4H1.99967C1.63148 4 1.33301 4.29848 1.33301 4.66667V6C1.33301 6.36819 1.63148 6.66667 1.99967 6.66667ZM1.99967 12H3.33301C3.7012 12 3.99967 11.7015 3.99967 11.3333V10C3.99967 9.63181 3.7012 9.33333 3.33301 9.33333H1.99967C1.63148 9.33333 1.33301 9.63181 1.33301 10V11.3333C1.33301 11.7015 1.63148 12 1.99967 12Z" stroke="#818181" stroke-width="1.5" stroke-linecap="round"/>
</svg>
