<svg width="16" height="16" viewBox="0 0 16 16" fill="none" xmlns="http://www.w3.org/2000/svg">
<path d="M6.66732 4H10.6673M6.66732 9.33333H10.6673M6.66732 6.66667H14.6673M6.66732 12H14.6673M2.00065 6.66667H3.33398C3.70217 6.66667 4.00065 6.36819 4.00065 6V4.66667C4.00065 4.29848 3.70217 4 3.33398 4H2.00065C1.63246 4 1.33398 4.29848 1.33398 4.66667V6C1.33398 6.36819 1.63246 6.66667 2.00065 6.66667ZM2.00065 12H3.33398C3.70217 12 4.00065 11.7015 4.00065 11.3333V10C4.00065 9.63181 3.70217 9.33333 3.33398 9.33333H2.00065C1.63246 9.33333 1.33398 9.63181 1.33398 10V11.3333C1.33398 11.7015 1.63246 12 2.00065 12Z" stroke="#2B787D" stroke-width="1.5" stroke-linecap="round"/>
</svg>
