<svg width="16" height="18" viewBox="0 0 16 18" fill="none" xmlns="http://www.w3.org/2000/svg">
<path d="M13 17.3333C12.3056 17.3333 11.7153 17.0902 11.2292 16.6041C10.7431 16.118 10.5 15.5277 10.5 14.8333C10.5 14.7361 10.5069 14.6352 10.5208 14.5308C10.5347 14.4269 10.5556 14.3333 10.5833 14.25L4.70833 10.8333C4.47222 11.0416 4.20833 11.2047 3.91667 11.3225C3.625 11.4408 3.31944 11.5 3 11.5C2.30556 11.5 1.71528 11.2569 1.22917 10.7708C0.743056 10.2847 0.5 9.6944 0.5 8.99996C0.5 8.30551 0.743056 7.71524 1.22917 7.22913C1.71528 6.74301 2.30556 6.49996 3 6.49996C3.31944 6.49996 3.625 6.55885 3.91667 6.67663C4.20833 6.79496 4.47222 6.95829 4.70833 7.16663L10.5833 3.74996C10.5556 3.66663 10.5347 3.57301 10.5208 3.46913C10.5069 3.36468 10.5 3.26385 10.5 3.16663C10.5 2.47218 10.7431 1.8819 11.2292 1.39579C11.7153 0.909682 12.3056 0.666626 13 0.666626C13.6944 0.666626 14.2847 0.909682 14.7708 1.39579C15.2569 1.8819 15.5 2.47218 15.5 3.16663C15.5 3.86107 15.2569 4.45135 14.7708 4.93746C14.2847 5.42357 13.6944 5.66663 13 5.66663C12.6806 5.66663 12.375 5.60746 12.0833 5.48913C11.7917 5.37135 11.5278 5.20829 11.2917 4.99996L5.41667 8.41663C5.44444 8.49996 5.46528 8.59357 5.47917 8.69746C5.49306 8.8019 5.5 8.90274 5.5 8.99996C5.5 9.09718 5.49306 9.19774 5.47917 9.30163C5.46528 9.40607 5.44444 9.49996 5.41667 9.58329L11.2917 13C11.5278 12.7916 11.7917 12.6283 12.0833 12.51C12.375 12.3922 12.6806 12.3333 13 12.3333C13.6944 12.3333 14.2847 12.5763 14.7708 13.0625C15.2569 13.5486 15.5 14.1388 15.5 14.8333C15.5 15.5277 15.2569 16.118 14.7708 16.6041C14.2847 17.0902 13.6944 17.3333 13 17.3333ZM13 3.99996C13.2361 3.99996 13.4339 3.92024 13.5933 3.76079C13.7533 3.60079 13.8333 3.40274 13.8333 3.16663C13.8333 2.93051 13.7533 2.73246 13.5933 2.57246C13.4339 2.41302 13.2361 2.33329 13 2.33329C12.7639 2.33329 12.5661 2.41302 12.4067 2.57246C12.2467 2.73246 12.1667 2.93051 12.1667 3.16663C12.1667 3.40274 12.2467 3.60079 12.4067 3.76079C12.5661 3.92024 12.7639 3.99996 13 3.99996ZM3 9.83329C3.23611 9.83329 3.43417 9.75329 3.59417 9.59329C3.75361 9.43385 3.83333 9.23607 3.83333 8.99996C3.83333 8.76385 3.75361 8.56579 3.59417 8.40579C3.43417 8.24635 3.23611 8.16663 3 8.16663C2.76389 8.16663 2.56583 8.24635 2.40583 8.40579C2.24639 8.56579 2.16667 8.76385 2.16667 8.99996C2.16667 9.23607 2.24639 9.43385 2.40583 9.59329C2.56583 9.75329 2.76389 9.83329 3 9.83329ZM13 15.6666C13.2361 15.6666 13.4339 15.5866 13.5933 15.4266C13.7533 15.2672 13.8333 15.0694 13.8333 14.8333C13.8333 14.5972 13.7533 14.3994 13.5933 14.24C13.4339 14.08 13.2361 14 13 14C12.7639 14 12.5661 14.08 12.4067 14.24C12.2467 14.3994 12.1667 14.5972 12.1667 14.8333C12.1667 15.0694 12.2467 15.2672 12.4067 15.4266C12.5661 15.5866 12.7639 15.6666 13 15.6666Z" fill="#005686"/>
</svg>
