<svg width="16" height="16" viewBox="0 0 16 16" fill="none" xmlns="http://www.w3.org/2000/svg">
<rect width="16" height="16" fill="white"/>
<rect width="16" height="16" fill="url(#paint0_radial_1023_5411)"/>
<rect width="16" height="16" fill="url(#paint1_radial_1023_5411)"/>
<rect width="16" height="16" fill="url(#paint2_radial_1023_5411)"/>
<rect width="16" height="16" fill="url(#paint3_radial_1023_5411)" fill-opacity="0.6"/>
<path d="M11.0372 9.87802C10.9258 9.58907 10.8913 9.25991 11.0196 8.97739C10.8014 9.02457 10.5747 8.8884 10.4639 8.70452C10.3531 8.52011 10.3356 8.29924 10.339 8.08749C10.3446 7.73688 10.4 7.38735 10.5029 7.05069C10.5391 7.08983 10.5753 7.12896 10.6115 7.16863C10.5481 6.68562 10.9614 6.28194 11.1994 5.85093C11.568 5.1835 11.5154 4.34559 11.148 3.67762C10.7805 3.00966 10.1258 2.50681 9.39372 2.2141C9.46778 2.17336 9.51922 2.09724 9.5277 2.01629C9.29196 2.13584 9.0059 2.07311 8.74189 2.03612C7.54789 1.86994 6.35617 2.30363 5.2662 2.79576C5.31255 2.71964 5.35835 2.64298 5.4047 2.56685C5.14239 2.65906 4.93378 2.87832 4.86368 3.13564C4.80036 3.00591 4.63132 2.93193 4.48603 2.96999C4.63754 3.02896 4.74835 3.17209 4.76305 3.32649L4.72121 3.31684C4.64828 3.38117 4.57479 3.44604 4.50695 3.51519C4.17453 3.85453 3.97723 4.31879 4.0021 4.78197C4.02698 5.24515 4.28308 5.69921 4.69521 5.9501C4.64263 5.86379 4.62454 5.75872 4.64546 5.66061C4.6839 5.85629 4.90438 5.97208 4.98749 6.15489C5.0672 6.33126 5.00558 6.5339 4.93604 6.71403C4.84559 6.94723 4.74326 7.17667 4.62906 7.40022C4.60701 7.44364 4.58384 7.48868 4.58101 7.53639C4.57309 7.67791 4.73195 7.76959 4.8699 7.82373C5.00784 7.87787 5.17009 7.95561 5.1814 8.0966C5.18818 8.18345 5.13334 8.2778 5.17857 8.35338C5.22662 8.43326 5.36117 8.44238 5.39735 8.52761C5.42393 8.59087 5.38039 8.66217 5.39001 8.72918C5.40527 8.83801 5.54095 8.88679 5.61218 8.97364C5.70772 9.08997 5.6755 9.2583 5.72977 9.39608C5.79252 9.55476 5.96778 9.65554 6.14473 9.67859C6.32168 9.70218 6.50146 9.6609 6.67162 9.6089C6.78526 9.57406 6.89945 9.53385 7.01874 9.53439C7.13803 9.53492 7.26579 9.58639 7.31554 9.68932C7.3619 9.78528 7.33081 9.89785 7.3489 10.0019C7.36077 10.0694 7.39299 10.1332 7.40034 10.2018C7.40769 10.2726 7.38677 10.345 7.34268 10.4023L7.35003 10.4045C5.99322 11.8942 5.62632 12.21 4.76361 14H13C12.6461 12.7418 12.2277 11.7908 11.503 10.6854C11.3317 10.4243 11.1491 10.1654 11.0377 9.87641L11.0372 9.87802Z" fill="white"/>
<defs>
<radialGradient id="paint0_radial_1023_5411" cx="0" cy="0" r="1" gradientUnits="userSpaceOnUse" gradientTransform="translate(12.5294 5.36008) rotate(128.762) scale(13.6565 10.6672)">
<stop stop-color="#90C849" stop-opacity="0.73"/>
<stop offset="1" stop-color="#94E230" stop-opacity="0"/>
</radialGradient>
<radialGradient id="paint1_radial_1023_5411" cx="0" cy="0" r="1" gradientUnits="userSpaceOnUse" gradientTransform="translate(14.5939 14.6897) rotate(-177.43) scale(14.6086 7.40379)">
<stop stop-color="#FFD874"/>
<stop offset="1" stop-color="#FFD874" stop-opacity="0"/>
</radialGradient>
<radialGradient id="paint2_radial_1023_5411" cx="0" cy="0" r="1" gradientUnits="userSpaceOnUse" gradientTransform="translate(3.2 15.0345) rotate(-79.6543) scale(12.6891 12.4868)">
<stop stop-color="#FF5A96" stop-opacity="0.61"/>
<stop offset="1" stop-color="#FF5A96" stop-opacity="0"/>
</radialGradient>
<radialGradient id="paint3_radial_1023_5411" cx="0" cy="0" r="1" gradientUnits="userSpaceOnUse" gradientTransform="translate(3.34545) rotate(14.8047) scale(14.8443 9.0786)">
<stop stop-color="#0038FF"/>
<stop offset="1" stop-color="#0038FF" stop-opacity="0"/>
</radialGradient>
</defs>
</svg>
