<svg width="55" height="76" viewBox="0 0 55 76" fill="none" xmlns="http://www.w3.org/2000/svg">
<g filter="url(#filter0_i_596_5333)">
<path d="M42.7598 49.5987C42.0948 47.7795 41.8889 45.7072 42.6552 43.9285C41.3522 44.2255 39.9985 43.3682 39.3369 42.2106C38.6753 41.0495 38.5706 39.659 38.5909 38.3258C38.6246 36.1185 38.9554 33.9179 39.5698 31.7983C39.7859 32.0447 40.0019 32.2911 40.218 32.5408C39.8399 29.4999 42.3075 26.9584 43.7287 24.2448C45.9296 20.0428 45.6157 14.7674 43.4215 10.562C41.2273 6.35665 37.3182 3.19078 32.9467 1.34797C33.3889 1.09146 33.6961 0.61219 33.7468 0.102547C32.3391 0.855199 30.631 0.46031 29.0546 0.227426C21.9251 -0.818861 14.8092 1.91161 8.30084 5.00997C8.57764 4.53071 8.85107 4.04806 9.12788 3.5688C7.56156 4.14932 6.31593 5.52974 5.89735 7.1498C5.51927 6.33302 4.50994 5.86725 3.64239 6.10689C4.54707 6.47815 5.20871 7.37931 5.29647 8.35134L5.04667 8.29059C4.61121 8.69561 4.17237 9.104 3.76729 9.53939C1.78238 11.6758 0.604269 14.5987 0.752799 17.5148C0.901329 20.4309 2.43052 23.2896 4.89139 24.8692C4.57745 24.3258 4.46943 23.6643 4.59433 23.0466C4.82388 24.2785 6.14039 25.0076 6.63662 26.1585C7.11259 27.2689 6.74464 28.5447 6.32943 29.6787C5.78932 31.1469 5.17832 32.5915 4.49644 33.9989C4.36478 34.2723 4.22638 34.5558 4.2095 34.8562C4.16224 35.7472 5.11081 36.3243 5.93448 36.6652C6.75815 37.0061 7.72697 37.4955 7.79448 38.3832C7.83499 38.9299 7.50755 39.524 7.7776 39.9999C8.06454 40.5028 8.86795 40.5601 9.08399 41.0968C9.24265 41.495 8.98272 41.9439 9.04011 42.3658C9.13125 43.051 9.94142 43.3581 10.3668 43.9049C10.9372 44.6373 10.7448 45.6971 11.0689 46.5645C11.4436 47.5635 12.4901 48.198 13.5467 48.3431C14.6032 48.4917 15.6767 48.2318 16.6928 47.9044C17.3713 47.685 18.0532 47.4319 18.7655 47.4352C19.4777 47.4386 20.2406 47.7626 20.5377 48.4107C20.8145 49.0148 20.6288 49.7236 20.7369 50.3784C20.8078 50.8036 21.0002 51.2053 21.0441 51.6373C21.0879 52.0828 20.963 52.5384 20.6997 52.8996L20.7436 52.9131C12.642 62.2925 10.4511 64.2805 5.29985 75.55H54.4802C52.3671 67.6286 49.869 61.6411 45.5414 54.6816C44.5186 53.0379 43.4282 51.4078 42.7632 49.5886L42.7598 49.5987Z" fill="white"/>
<path d="M42.7598 49.5987C42.0948 47.7795 41.8889 45.7072 42.6552 43.9285C41.3522 44.2255 39.9985 43.3682 39.3369 42.2106C38.6753 41.0495 38.5706 39.659 38.5909 38.3258C38.6246 36.1185 38.9554 33.9179 39.5698 31.7983C39.7859 32.0447 40.0019 32.2911 40.218 32.5408C39.8399 29.4999 42.3075 26.9584 43.7287 24.2448C45.9296 20.0428 45.6157 14.7674 43.4215 10.562C41.2273 6.35665 37.3182 3.19078 32.9467 1.34797C33.3889 1.09146 33.6961 0.61219 33.7468 0.102547C32.3391 0.855199 30.631 0.46031 29.0546 0.227426C21.9251 -0.818861 14.8092 1.91161 8.30084 5.00997C8.57764 4.53071 8.85107 4.04806 9.12788 3.5688C7.56156 4.14932 6.31593 5.52974 5.89735 7.1498C5.51927 6.33302 4.50994 5.86725 3.64239 6.10689C4.54707 6.47815 5.20871 7.37931 5.29647 8.35134L5.04667 8.29059C4.61121 8.69561 4.17237 9.104 3.76729 9.53939C1.78238 11.6758 0.604269 14.5987 0.752799 17.5148C0.901329 20.4309 2.43052 23.2896 4.89139 24.8692C4.57745 24.3258 4.46943 23.6643 4.59433 23.0466C4.82388 24.2785 6.14039 25.0076 6.63662 26.1585C7.11259 27.2689 6.74464 28.5447 6.32943 29.6787C5.78932 31.1469 5.17832 32.5915 4.49644 33.9989C4.36478 34.2723 4.22638 34.5558 4.2095 34.8562C4.16224 35.7472 5.11081 36.3243 5.93448 36.6652C6.75815 37.0061 7.72697 37.4955 7.79448 38.3832C7.83499 38.9299 7.50755 39.524 7.7776 39.9999C8.06454 40.5028 8.86795 40.5601 9.08399 41.0968C9.24265 41.495 8.98272 41.9439 9.04011 42.3658C9.13125 43.051 9.94142 43.3581 10.3668 43.9049C10.9372 44.6373 10.7448 45.6971 11.0689 46.5645C11.4436 47.5635 12.4901 48.198 13.5467 48.3431C14.6032 48.4917 15.6767 48.2318 16.6928 47.9044C17.3713 47.685 18.0532 47.4319 18.7655 47.4352C19.4777 47.4386 20.2406 47.7626 20.5377 48.4107C20.8145 49.0148 20.6288 49.7236 20.7369 50.3784C20.8078 50.8036 21.0002 51.2053 21.0441 51.6373C21.0879 52.0828 20.963 52.5384 20.6997 52.8996L20.7436 52.9131C12.642 62.2925 10.4511 64.2805 5.29985 75.55H54.4802C52.3671 67.6286 49.869 61.6411 45.5414 54.6816C44.5186 53.0379 43.4282 51.4078 42.7632 49.5886L42.7598 49.5987Z" fill="url(#paint0_radial_596_5333)"/>
<path d="M42.7598 49.5987C42.0948 47.7795 41.8889 45.7072 42.6552 43.9285C41.3522 44.2255 39.9985 43.3682 39.3369 42.2106C38.6753 41.0495 38.5706 39.659 38.5909 38.3258C38.6246 36.1185 38.9554 33.9179 39.5698 31.7983C39.7859 32.0447 40.0019 32.2911 40.218 32.5408C39.8399 29.4999 42.3075 26.9584 43.7287 24.2448C45.9296 20.0428 45.6157 14.7674 43.4215 10.562C41.2273 6.35665 37.3182 3.19078 32.9467 1.34797C33.3889 1.09146 33.6961 0.61219 33.7468 0.102547C32.3391 0.855199 30.631 0.46031 29.0546 0.227426C21.9251 -0.818861 14.8092 1.91161 8.30084 5.00997C8.57764 4.53071 8.85107 4.04806 9.12788 3.5688C7.56156 4.14932 6.31593 5.52974 5.89735 7.1498C5.51927 6.33302 4.50994 5.86725 3.64239 6.10689C4.54707 6.47815 5.20871 7.37931 5.29647 8.35134L5.04667 8.29059C4.61121 8.69561 4.17237 9.104 3.76729 9.53939C1.78238 11.6758 0.604269 14.5987 0.752799 17.5148C0.901329 20.4309 2.43052 23.2896 4.89139 24.8692C4.57745 24.3258 4.46943 23.6643 4.59433 23.0466C4.82388 24.2785 6.14039 25.0076 6.63662 26.1585C7.11259 27.2689 6.74464 28.5447 6.32943 29.6787C5.78932 31.1469 5.17832 32.5915 4.49644 33.9989C4.36478 34.2723 4.22638 34.5558 4.2095 34.8562C4.16224 35.7472 5.11081 36.3243 5.93448 36.6652C6.75815 37.0061 7.72697 37.4955 7.79448 38.3832C7.83499 38.9299 7.50755 39.524 7.7776 39.9999C8.06454 40.5028 8.86795 40.5601 9.08399 41.0968C9.24265 41.495 8.98272 41.9439 9.04011 42.3658C9.13125 43.051 9.94142 43.3581 10.3668 43.9049C10.9372 44.6373 10.7448 45.6971 11.0689 46.5645C11.4436 47.5635 12.4901 48.198 13.5467 48.3431C14.6032 48.4917 15.6767 48.2318 16.6928 47.9044C17.3713 47.685 18.0532 47.4319 18.7655 47.4352C19.4777 47.4386 20.2406 47.7626 20.5377 48.4107C20.8145 49.0148 20.6288 49.7236 20.7369 50.3784C20.8078 50.8036 21.0002 51.2053 21.0441 51.6373C21.0879 52.0828 20.963 52.5384 20.6997 52.8996L20.7436 52.9131C12.642 62.2925 10.4511 64.2805 5.29985 75.55H54.4802C52.3671 67.6286 49.869 61.6411 45.5414 54.6816C44.5186 53.0379 43.4282 51.4078 42.7632 49.5886L42.7598 49.5987Z" fill="url(#paint1_radial_596_5333)"/>
<path d="M42.7598 49.5987C42.0948 47.7795 41.8889 45.7072 42.6552 43.9285C41.3522 44.2255 39.9985 43.3682 39.3369 42.2106C38.6753 41.0495 38.5706 39.659 38.5909 38.3258C38.6246 36.1185 38.9554 33.9179 39.5698 31.7983C39.7859 32.0447 40.0019 32.2911 40.218 32.5408C39.8399 29.4999 42.3075 26.9584 43.7287 24.2448C45.9296 20.0428 45.6157 14.7674 43.4215 10.562C41.2273 6.35665 37.3182 3.19078 32.9467 1.34797C33.3889 1.09146 33.6961 0.61219 33.7468 0.102547C32.3391 0.855199 30.631 0.46031 29.0546 0.227426C21.9251 -0.818861 14.8092 1.91161 8.30084 5.00997C8.57764 4.53071 8.85107 4.04806 9.12788 3.5688C7.56156 4.14932 6.31593 5.52974 5.89735 7.1498C5.51927 6.33302 4.50994 5.86725 3.64239 6.10689C4.54707 6.47815 5.20871 7.37931 5.29647 8.35134L5.04667 8.29059C4.61121 8.69561 4.17237 9.104 3.76729 9.53939C1.78238 11.6758 0.604269 14.5987 0.752799 17.5148C0.901329 20.4309 2.43052 23.2896 4.89139 24.8692C4.57745 24.3258 4.46943 23.6643 4.59433 23.0466C4.82388 24.2785 6.14039 25.0076 6.63662 26.1585C7.11259 27.2689 6.74464 28.5447 6.32943 29.6787C5.78932 31.1469 5.17832 32.5915 4.49644 33.9989C4.36478 34.2723 4.22638 34.5558 4.2095 34.8562C4.16224 35.7472 5.11081 36.3243 5.93448 36.6652C6.75815 37.0061 7.72697 37.4955 7.79448 38.3832C7.83499 38.9299 7.50755 39.524 7.7776 39.9999C8.06454 40.5028 8.86795 40.5601 9.08399 41.0968C9.24265 41.495 8.98272 41.9439 9.04011 42.3658C9.13125 43.051 9.94142 43.3581 10.3668 43.9049C10.9372 44.6373 10.7448 45.6971 11.0689 46.5645C11.4436 47.5635 12.4901 48.198 13.5467 48.3431C14.6032 48.4917 15.6767 48.2318 16.6928 47.9044C17.3713 47.685 18.0532 47.4319 18.7655 47.4352C19.4777 47.4386 20.2406 47.7626 20.5377 48.4107C20.8145 49.0148 20.6288 49.7236 20.7369 50.3784C20.8078 50.8036 21.0002 51.2053 21.0441 51.6373C21.0879 52.0828 20.963 52.5384 20.6997 52.8996L20.7436 52.9131C12.642 62.2925 10.4511 64.2805 5.29985 75.55H54.4802C52.3671 67.6286 49.869 61.6411 45.5414 54.6816C44.5186 53.0379 43.4282 51.4078 42.7632 49.5886L42.7598 49.5987Z" fill="url(#paint2_radial_596_5333)"/>
</g>
<defs>
<filter id="filter0_i_596_5333" x="0.740234" y="0" width="54.7402" height="76.55" filterUnits="userSpaceOnUse" color-interpolation-filters="sRGB">
<feFlood flood-opacity="0" result="BackgroundImageFix"/>
<feBlend mode="normal" in="SourceGraphic" in2="BackgroundImageFix" result="shape"/>
<feColorMatrix in="SourceAlpha" type="matrix" values="0 0 0 0 0 0 0 0 0 0 0 0 0 0 0 0 0 0 127 0" result="hardAlpha"/>
<feOffset dx="1" dy="1"/>
<feGaussianBlur stdDeviation="2.5"/>
<feComposite in2="hardAlpha" operator="arithmetic" k2="-1" k3="1"/>
<feColorMatrix type="matrix" values="0 0 0 0 0 0 0 0 0 0 0 0 0 0 0 0 0 0 0.5 0"/>
<feBlend mode="normal" in2="shape" result="effect1_innerShadow_596_5333"/>
</filter>
<radialGradient id="paint0_radial_596_5333" cx="0" cy="0" r="1" gradientUnits="userSpaceOnUse" gradientTransform="translate(42.2666 21.167) rotate(86.1665) scale(65.7649 69.1548)">
<stop stop-color="#9BDBFF"/>
<stop offset="1" stop-color="#C9F2FF" stop-opacity="0"/>
</radialGradient>
<radialGradient id="paint1_radial_596_5333" cx="0" cy="0" r="1" gradientUnits="userSpaceOnUse" gradientTransform="translate(15.7223 46.2418) rotate(40.3007) scale(47.83 45.0738)">
<stop stop-color="#FFA5E6"/>
<stop offset="1" stop-color="#FFABDD" stop-opacity="0"/>
</radialGradient>
<radialGradient id="paint2_radial_596_5333" cx="0" cy="0" r="1" gradientUnits="userSpaceOnUse" gradientTransform="translate(49.7576 71.1538) rotate(-109.736) scale(31.8291 44.0301)">
<stop stop-color="#B78BFF" stop-opacity="0.6"/>
<stop offset="1" stop-color="#9A5CFF" stop-opacity="0"/>
</radialGradient>
</defs>
</svg>
