<svg width="55" height="76" viewBox="0 0 55 76" fill="none" xmlns="http://www.w3.org/2000/svg">
<g filter="url(#filter0_i_758_5373)">
<path d="M52.0592 68.8469C51.9061 68.7075 51.4467 68.3234 51.3208 67.6946C51.1439 66.8244 51.8244 66.0596 52.0932 65.22C52.5321 63.8569 51.8482 62.3681 51.035 61.2464C50.2217 60.1247 49.218 59.0811 48.8675 57.6875C47.9011 53.8567 52.2497 50.76 52.5117 46.7898C52.7023 43.8836 50.6777 41.4532 48.8165 39.4103C46.9552 37.3674 44.9647 34.8792 45.2437 31.9797C45.407 30.2802 46.3393 28.8151 47.0743 27.3161C47.8127 25.8171 48.3775 23.9985 47.7718 22.4281C47.3567 21.3506 46.4652 20.6028 45.9174 19.6C44.7741 17.5096 45.3219 14.8073 44.8319 12.4211C44.3113 9.88529 42.6372 7.839 40.8236 6.20741C36.441 2.2678 30.8471 0.0413602 25.2259 0.000570412C19.6013 -0.0402193 13.9836 2.10804 9.56012 5.98987L9.60775 5.94908C6.87883 7.13878 4.0104 8.43385 2.207 11.0172C0.77108 13.0737 0.179019 15.8406 0.631571 18.4036C1.08072 20.9665 2.56427 23.2779 4.59225 24.5764C3.42514 22.197 3.35029 19.1854 4.4017 16.738C4.44254 19.046 4.91891 21.3132 5.13327 23.6076C5.34764 25.9021 5.27278 28.3291 4.28942 30.3617C3.76541 31.4495 2.9794 32.7242 3.54764 33.7813C3.8879 34.4101 4.57864 34.6481 5.15709 35.0016C5.73554 35.3551 6.28337 36.0825 6.02136 36.7555C5.94651 36.9459 5.8104 37.1091 5.76616 37.313C5.57562 38.1866 7.06598 38.5129 7.07278 39.4103C6.69168 39.3185 6.44329 39.9235 6.5828 40.3314C6.72231 40.7393 7.06257 41.0147 7.28374 41.375C7.98129 42.4933 7.44707 44.1589 8.10038 45.3112C8.86598 46.6573 10.6456 46.4601 12.0338 46.0998C13.463 45.7293 14.8648 45.4574 15.7393 45.1378C17.4338 44.5158 17.8354 44.1283 18.5227 44.3764C19.2679 44.645 19.6422 45.4166 20.3635 46.9462C21.2108 48.7511 21.6361 49.6519 21.4694 50.5459C21.1768 52.1027 19.3189 53.2924 16.9609 53.5473L16.8043 53.3264C15.4467 53.6017 14.089 53.877 12.7314 54.1524C13.0989 55.8554 13.303 58.2178 12.2584 60.4986C11.0981 63.0309 9.18582 63.7482 7.3552 65.7333C5.73894 67.4872 4.02061 70.4139 3.65312 75.55H54.7234C53.8388 71.3181 52.8622 69.5845 52.0592 68.8469Z" fill="white"/>
<path d="M52.0592 68.8469C51.9061 68.7075 51.4467 68.3234 51.3208 67.6946C51.1439 66.8244 51.8244 66.0596 52.0932 65.22C52.5321 63.8569 51.8482 62.3681 51.035 61.2464C50.2217 60.1247 49.218 59.0811 48.8675 57.6875C47.9011 53.8567 52.2497 50.76 52.5117 46.7898C52.7023 43.8836 50.6777 41.4532 48.8165 39.4103C46.9552 37.3674 44.9647 34.8792 45.2437 31.9797C45.407 30.2802 46.3393 28.8151 47.0743 27.3161C47.8127 25.8171 48.3775 23.9985 47.7718 22.4281C47.3567 21.3506 46.4652 20.6028 45.9174 19.6C44.7741 17.5096 45.3219 14.8073 44.8319 12.4211C44.3113 9.88529 42.6372 7.839 40.8236 6.20741C36.441 2.2678 30.8471 0.0413602 25.2259 0.000570412C19.6013 -0.0402193 13.9836 2.10804 9.56012 5.98987L9.60775 5.94908C6.87883 7.13878 4.0104 8.43385 2.207 11.0172C0.77108 13.0737 0.179019 15.8406 0.631571 18.4036C1.08072 20.9665 2.56427 23.2779 4.59225 24.5764C3.42514 22.197 3.35029 19.1854 4.4017 16.738C4.44254 19.046 4.91891 21.3132 5.13327 23.6076C5.34764 25.9021 5.27278 28.3291 4.28942 30.3617C3.76541 31.4495 2.9794 32.7242 3.54764 33.7813C3.8879 34.4101 4.57864 34.6481 5.15709 35.0016C5.73554 35.3551 6.28337 36.0825 6.02136 36.7555C5.94651 36.9459 5.8104 37.1091 5.76616 37.313C5.57562 38.1866 7.06598 38.5129 7.07278 39.4103C6.69168 39.3185 6.44329 39.9235 6.5828 40.3314C6.72231 40.7393 7.06257 41.0147 7.28374 41.375C7.98129 42.4933 7.44707 44.1589 8.10038 45.3112C8.86598 46.6573 10.6456 46.4601 12.0338 46.0998C13.463 45.7293 14.8648 45.4574 15.7393 45.1378C17.4338 44.5158 17.8354 44.1283 18.5227 44.3764C19.2679 44.645 19.6422 45.4166 20.3635 46.9462C21.2108 48.7511 21.6361 49.6519 21.4694 50.5459C21.1768 52.1027 19.3189 53.2924 16.9609 53.5473L16.8043 53.3264C15.4467 53.6017 14.089 53.877 12.7314 54.1524C13.0989 55.8554 13.303 58.2178 12.2584 60.4986C11.0981 63.0309 9.18582 63.7482 7.3552 65.7333C5.73894 67.4872 4.02061 70.4139 3.65312 75.55H54.7234C53.8388 71.3181 52.8622 69.5845 52.0592 68.8469Z" fill="url(#paint0_radial_758_5373)"/>
<path d="M52.0592 68.8469C51.9061 68.7075 51.4467 68.3234 51.3208 67.6946C51.1439 66.8244 51.8244 66.0596 52.0932 65.22C52.5321 63.8569 51.8482 62.3681 51.035 61.2464C50.2217 60.1247 49.218 59.0811 48.8675 57.6875C47.9011 53.8567 52.2497 50.76 52.5117 46.7898C52.7023 43.8836 50.6777 41.4532 48.8165 39.4103C46.9552 37.3674 44.9647 34.8792 45.2437 31.9797C45.407 30.2802 46.3393 28.8151 47.0743 27.3161C47.8127 25.8171 48.3775 23.9985 47.7718 22.4281C47.3567 21.3506 46.4652 20.6028 45.9174 19.6C44.7741 17.5096 45.3219 14.8073 44.8319 12.4211C44.3113 9.88529 42.6372 7.839 40.8236 6.20741C36.441 2.2678 30.8471 0.0413602 25.2259 0.000570412C19.6013 -0.0402193 13.9836 2.10804 9.56012 5.98987L9.60775 5.94908C6.87883 7.13878 4.0104 8.43385 2.207 11.0172C0.77108 13.0737 0.179019 15.8406 0.631571 18.4036C1.08072 20.9665 2.56427 23.2779 4.59225 24.5764C3.42514 22.197 3.35029 19.1854 4.4017 16.738C4.44254 19.046 4.91891 21.3132 5.13327 23.6076C5.34764 25.9021 5.27278 28.3291 4.28942 30.3617C3.76541 31.4495 2.9794 32.7242 3.54764 33.7813C3.8879 34.4101 4.57864 34.6481 5.15709 35.0016C5.73554 35.3551 6.28337 36.0825 6.02136 36.7555C5.94651 36.9459 5.8104 37.1091 5.76616 37.313C5.57562 38.1866 7.06598 38.5129 7.07278 39.4103C6.69168 39.3185 6.44329 39.9235 6.5828 40.3314C6.72231 40.7393 7.06257 41.0147 7.28374 41.375C7.98129 42.4933 7.44707 44.1589 8.10038 45.3112C8.86598 46.6573 10.6456 46.4601 12.0338 46.0998C13.463 45.7293 14.8648 45.4574 15.7393 45.1378C17.4338 44.5158 17.8354 44.1283 18.5227 44.3764C19.2679 44.645 19.6422 45.4166 20.3635 46.9462C21.2108 48.7511 21.6361 49.6519 21.4694 50.5459C21.1768 52.1027 19.3189 53.2924 16.9609 53.5473L16.8043 53.3264C15.4467 53.6017 14.089 53.877 12.7314 54.1524C13.0989 55.8554 13.303 58.2178 12.2584 60.4986C11.0981 63.0309 9.18582 63.7482 7.3552 65.7333C5.73894 67.4872 4.02061 70.4139 3.65312 75.55H54.7234C53.8388 71.3181 52.8622 69.5845 52.0592 68.8469Z" fill="url(#paint1_radial_758_5373)"/>
<path d="M52.0592 68.8469C51.9061 68.7075 51.4467 68.3234 51.3208 67.6946C51.1439 66.8244 51.8244 66.0596 52.0932 65.22C52.5321 63.8569 51.8482 62.3681 51.035 61.2464C50.2217 60.1247 49.218 59.0811 48.8675 57.6875C47.9011 53.8567 52.2497 50.76 52.5117 46.7898C52.7023 43.8836 50.6777 41.4532 48.8165 39.4103C46.9552 37.3674 44.9647 34.8792 45.2437 31.9797C45.407 30.2802 46.3393 28.8151 47.0743 27.3161C47.8127 25.8171 48.3775 23.9985 47.7718 22.4281C47.3567 21.3506 46.4652 20.6028 45.9174 19.6C44.7741 17.5096 45.3219 14.8073 44.8319 12.4211C44.3113 9.88529 42.6372 7.839 40.8236 6.20741C36.441 2.2678 30.8471 0.0413602 25.2259 0.000570412C19.6013 -0.0402193 13.9836 2.10804 9.56012 5.98987L9.60775 5.94908C6.87883 7.13878 4.0104 8.43385 2.207 11.0172C0.77108 13.0737 0.179019 15.8406 0.631571 18.4036C1.08072 20.9665 2.56427 23.2779 4.59225 24.5764C3.42514 22.197 3.35029 19.1854 4.4017 16.738C4.44254 19.046 4.91891 21.3132 5.13327 23.6076C5.34764 25.9021 5.27278 28.3291 4.28942 30.3617C3.76541 31.4495 2.9794 32.7242 3.54764 33.7813C3.8879 34.4101 4.57864 34.6481 5.15709 35.0016C5.73554 35.3551 6.28337 36.0825 6.02136 36.7555C5.94651 36.9459 5.8104 37.1091 5.76616 37.313C5.57562 38.1866 7.06598 38.5129 7.07278 39.4103C6.69168 39.3185 6.44329 39.9235 6.5828 40.3314C6.72231 40.7393 7.06257 41.0147 7.28374 41.375C7.98129 42.4933 7.44707 44.1589 8.10038 45.3112C8.86598 46.6573 10.6456 46.4601 12.0338 46.0998C13.463 45.7293 14.8648 45.4574 15.7393 45.1378C17.4338 44.5158 17.8354 44.1283 18.5227 44.3764C19.2679 44.645 19.6422 45.4166 20.3635 46.9462C21.2108 48.7511 21.6361 49.6519 21.4694 50.5459C21.1768 52.1027 19.3189 53.2924 16.9609 53.5473L16.8043 53.3264C15.4467 53.6017 14.089 53.877 12.7314 54.1524C13.0989 55.8554 13.303 58.2178 12.2584 60.4986C11.0981 63.0309 9.18582 63.7482 7.3552 65.7333C5.73894 67.4872 4.02061 70.4139 3.65312 75.55H54.7234C53.8388 71.3181 52.8622 69.5845 52.0592 68.8469Z" fill="url(#paint2_radial_758_5373)" fill-opacity="0.4"/>
<path d="M52.0592 68.8469C51.9061 68.7075 51.4467 68.3234 51.3208 67.6946C51.1439 66.8244 51.8244 66.0596 52.0932 65.22C52.5321 63.8569 51.8482 62.3681 51.035 61.2464C50.2217 60.1247 49.218 59.0811 48.8675 57.6875C47.9011 53.8567 52.2497 50.76 52.5117 46.7898C52.7023 43.8836 50.6777 41.4532 48.8165 39.4103C46.9552 37.3674 44.9647 34.8792 45.2437 31.9797C45.407 30.2802 46.3393 28.8151 47.0743 27.3161C47.8127 25.8171 48.3775 23.9985 47.7718 22.4281C47.3567 21.3506 46.4652 20.6028 45.9174 19.6C44.7741 17.5096 45.3219 14.8073 44.8319 12.4211C44.3113 9.88529 42.6372 7.839 40.8236 6.20741C36.441 2.2678 30.8471 0.0413602 25.2259 0.000570412C19.6013 -0.0402193 13.9836 2.10804 9.56012 5.98987L9.60775 5.94908C6.87883 7.13878 4.0104 8.43385 2.207 11.0172C0.77108 13.0737 0.179019 15.8406 0.631571 18.4036C1.08072 20.9665 2.56427 23.2779 4.59225 24.5764C3.42514 22.197 3.35029 19.1854 4.4017 16.738C4.44254 19.046 4.91891 21.3132 5.13327 23.6076C5.34764 25.9021 5.27278 28.3291 4.28942 30.3617C3.76541 31.4495 2.9794 32.7242 3.54764 33.7813C3.8879 34.4101 4.57864 34.6481 5.15709 35.0016C5.73554 35.3551 6.28337 36.0825 6.02136 36.7555C5.94651 36.9459 5.8104 37.1091 5.76616 37.313C5.57562 38.1866 7.06598 38.5129 7.07278 39.4103C6.69168 39.3185 6.44329 39.9235 6.5828 40.3314C6.72231 40.7393 7.06257 41.0147 7.28374 41.375C7.98129 42.4933 7.44707 44.1589 8.10038 45.3112C8.86598 46.6573 10.6456 46.4601 12.0338 46.0998C13.463 45.7293 14.8648 45.4574 15.7393 45.1378C17.4338 44.5158 17.8354 44.1283 18.5227 44.3764C19.2679 44.645 19.6422 45.4166 20.3635 46.9462C21.2108 48.7511 21.6361 49.6519 21.4694 50.5459C21.1768 52.1027 19.3189 53.2924 16.9609 53.5473L16.8043 53.3264C15.4467 53.6017 14.089 53.877 12.7314 54.1524C13.0989 55.8554 13.303 58.2178 12.2584 60.4986C11.0981 63.0309 9.18582 63.7482 7.3552 65.7333C5.73894 67.4872 4.02061 70.4139 3.65312 75.55H54.7234C53.8388 71.3181 52.8622 69.5845 52.0592 68.8469Z" fill="url(#paint3_radial_758_5373)"/>
</g>
<defs>
<filter id="filter0_i_758_5373" x="0.482422" y="0" width="55.2412" height="76.55" filterUnits="userSpaceOnUse" color-interpolation-filters="sRGB">
<feFlood flood-opacity="0" result="BackgroundImageFix"/>
<feBlend mode="normal" in="SourceGraphic" in2="BackgroundImageFix" result="shape"/>
<feColorMatrix in="SourceAlpha" type="matrix" values="0 0 0 0 0 0 0 0 0 0 0 0 0 0 0 0 0 0 127 0" result="hardAlpha"/>
<feOffset dx="1" dy="1"/>
<feGaussianBlur stdDeviation="2.5"/>
<feComposite in2="hardAlpha" operator="arithmetic" k2="-1" k3="1"/>
<feColorMatrix type="matrix" values="0 0 0 0 0 0 0 0 0 0 0 0 0 0 0 0 0 0 0.5 0"/>
<feBlend mode="normal" in2="shape" result="effect1_innerShadow_758_5373"/>
</filter>
<radialGradient id="paint0_radial_758_5373" cx="0" cy="0" r="1" gradientUnits="userSpaceOnUse" gradientTransform="translate(4.26286 46.2418) rotate(49.233) scale(50.0915 42.2696)">
<stop stop-color="#FF3D00" stop-opacity="0.85"/>
<stop offset="1" stop-color="#FF3D00" stop-opacity="0"/>
</radialGradient>
<radialGradient id="paint1_radial_758_5373" cx="0" cy="0" r="1" gradientUnits="userSpaceOnUse" gradientTransform="translate(57.6821 64.6408) rotate(-143.882) scale(45.578 44.2397)">
<stop stop-color="#0085FF" stop-opacity="0.59"/>
<stop offset="1" stop-color="#364AFF" stop-opacity="0"/>
</radialGradient>
<radialGradient id="paint2_radial_758_5373" cx="0" cy="0" r="1" gradientUnits="userSpaceOnUse" gradientTransform="translate(27.7673 3.90776) rotate(86.208) scale(32.3097 26.3653)">
<stop stop-color="#FF003D"/>
<stop offset="1" stop-color="#FF003D" stop-opacity="0"/>
</radialGradient>
<radialGradient id="paint3_radial_758_5373" cx="0" cy="0" r="1" gradientUnits="userSpaceOnUse" gradientTransform="translate(38.1224 5.21034) rotate(73.4235) scale(66.2547 50.537)">
<stop stop-color="#FDFFB3" stop-opacity="0.85"/>
<stop offset="1" stop-color="#FFC700" stop-opacity="0"/>
</radialGradient>
</defs>
</svg>
