<svg width="49" height="76" viewBox="0 0 49 76" fill="none" xmlns="http://www.w3.org/2000/svg">
<g filter="url(#filter0_i_758_5361)">
<path d="M48.3783 18.0256C48.37 17.3902 48.3204 16.6623 47.8237 16.2794C47.7905 15.5598 47.7574 14.8403 47.7243 14.1208C47.5381 13.9988 47.3477 13.8767 47.1614 13.7505C47.3145 12.4798 46.7185 11.1501 45.6796 10.4306C45.187 10.0897 44.591 9.86674 44.2267 9.38705C43.759 8.77272 43.7921 7.91854 43.5314 7.1906C42.5007 4.35035 37.927 4.87212 36.2837 2.35166C36.0644 2.01504 35.8988 1.62793 35.5883 1.37967C35.162 1.04305 34.566 1.05146 34.0238 1.06408C31.5817 1.11458 29.1313 0.862111 26.7471 0.319309C25.286 -0.0131045 23.4979 -0.353934 22.5169 0.790579C22.2189 0.668554 21.925 0.550736 21.627 0.428711C21.4739 0.719047 21.3207 1.00938 21.1717 1.29551C20.9399 1.22398 20.704 1.15666 20.4722 1.08512C20.377 1.5059 20.2818 1.92247 20.1866 2.34325L20.021 2.85239C17.1774 3.71498 14.9257 5.88198 12.8231 8.01111C12.0325 8.81479 11.2129 9.67739 10.948 10.7798C10.7742 11.5036 10.857 12.2652 10.708 12.9973C10.4224 14.4153 9.29652 15.522 8.05477 16.2331C6.81303 16.9442 5.43056 17.3524 4.13086 17.9499C3.58036 18.2023 3.00088 18.5432 2.79392 19.1196C2.28067 20.5545 4.42474 22.0524 3.74592 23.4158C3.49758 23.9165 2.9181 24.211 2.76909 24.7496C2.54143 25.5743 3.45204 26.3023 3.47274 27.1565C3.11264 26.6936 2.3262 26.7693 1.9454 27.2154C1.5646 27.6614 1.53976 28.3388 1.73844 28.8943C1.88331 29.3024 2.1358 29.6895 2.1358 30.1271C2.1358 30.5311 1.91642 30.893 1.72602 31.2506C1.01409 32.5761 0.641567 34.2928 1.46112 35.551C1.94126 36.2873 2.74839 36.7333 3.5638 37.0447C4.83452 37.5286 6.18802 37.7516 7.50013 38.0967C8.81637 38.4417 10.1326 38.934 11.1384 39.8639C12.1442 40.7896 12.7817 42.2329 12.4588 43.571L12.4423 43.2175C12.434 47.3622 12.7858 51.5068 13.4977 55.5841L13.3612 55.2307C12.8852 56.1564 11.929 56.6992 11.1674 57.4019C10.2775 58.2224 9.63593 59.2828 9.01091 60.3305C6.0059 65.3378 3.00088 70.3408 0 75.348L0.244209 75.55H46.0645L46.1183 75.4659C46.8882 73.7912 46.7433 71.8051 46.1639 70.0505C45.5802 68.2958 44.5993 66.7179 43.6928 65.1105C42.24 62.5312 40.9692 59.8508 39.8931 57.0863C39.6447 56.4467 39.3757 55.7609 38.8169 55.3695C37.898 54.7258 36.5735 55.1255 35.5966 54.5827L35.5304 54.6753C34.4708 53.4929 33.407 52.3021 32.5419 50.964C31.6769 49.6259 31.0146 48.1238 30.8366 46.5332L30.9442 46.7731C30.7745 46.0031 31.0477 45.1867 31.5072 44.5514C31.9666 43.916 32.5999 43.4363 33.2332 42.9819C35.7663 41.1725 38.5064 39.6746 41.3831 38.5132C42.6746 37.213 43.5396 35.5089 44.3716 33.8468C45.096 32.3951 45.8203 30.9435 46.4122 29.4287C46.8344 28.3388 47.1904 27.2154 47.7367 26.1845C47.9478 25.7847 48.192 25.3934 48.3162 24.9516C48.4362 24.5182 48.4321 24.0638 48.428 23.6135C48.4073 21.7495 48.3907 19.8812 48.37 18.0172L48.3783 18.0256Z" fill="white"/>
<path d="M48.3783 18.0256C48.37 17.3902 48.3204 16.6623 47.8237 16.2794C47.7905 15.5598 47.7574 14.8403 47.7243 14.1208C47.5381 13.9988 47.3477 13.8767 47.1614 13.7505C47.3145 12.4798 46.7185 11.1501 45.6796 10.4306C45.187 10.0897 44.591 9.86674 44.2267 9.38705C43.759 8.77272 43.7921 7.91854 43.5314 7.1906C42.5007 4.35035 37.927 4.87212 36.2837 2.35166C36.0644 2.01504 35.8988 1.62793 35.5883 1.37967C35.162 1.04305 34.566 1.05146 34.0238 1.06408C31.5817 1.11458 29.1313 0.862111 26.7471 0.319309C25.286 -0.0131045 23.4979 -0.353934 22.5169 0.790579C22.2189 0.668554 21.925 0.550736 21.627 0.428711C21.4739 0.719047 21.3207 1.00938 21.1717 1.29551C20.9399 1.22398 20.704 1.15666 20.4722 1.08512C20.377 1.5059 20.2818 1.92247 20.1866 2.34325L20.021 2.85239C17.1774 3.71498 14.9257 5.88198 12.8231 8.01111C12.0325 8.81479 11.2129 9.67739 10.948 10.7798C10.7742 11.5036 10.857 12.2652 10.708 12.9973C10.4224 14.4153 9.29652 15.522 8.05477 16.2331C6.81303 16.9442 5.43056 17.3524 4.13086 17.9499C3.58036 18.2023 3.00088 18.5432 2.79392 19.1196C2.28067 20.5545 4.42474 22.0524 3.74592 23.4158C3.49758 23.9165 2.9181 24.211 2.76909 24.7496C2.54143 25.5743 3.45204 26.3023 3.47274 27.1565C3.11264 26.6936 2.3262 26.7693 1.9454 27.2154C1.5646 27.6614 1.53976 28.3388 1.73844 28.8943C1.88331 29.3024 2.1358 29.6895 2.1358 30.1271C2.1358 30.5311 1.91642 30.893 1.72602 31.2506C1.01409 32.5761 0.641567 34.2928 1.46112 35.551C1.94126 36.2873 2.74839 36.7333 3.5638 37.0447C4.83452 37.5286 6.18802 37.7516 7.50013 38.0967C8.81637 38.4417 10.1326 38.934 11.1384 39.8639C12.1442 40.7896 12.7817 42.2329 12.4588 43.571L12.4423 43.2175C12.434 47.3622 12.7858 51.5068 13.4977 55.5841L13.3612 55.2307C12.8852 56.1564 11.929 56.6992 11.1674 57.4019C10.2775 58.2224 9.63593 59.2828 9.01091 60.3305C6.0059 65.3378 3.00088 70.3408 0 75.348L0.244209 75.55H46.0645L46.1183 75.4659C46.8882 73.7912 46.7433 71.8051 46.1639 70.0505C45.5802 68.2958 44.5993 66.7179 43.6928 65.1105C42.24 62.5312 40.9692 59.8508 39.8931 57.0863C39.6447 56.4467 39.3757 55.7609 38.8169 55.3695C37.898 54.7258 36.5735 55.1255 35.5966 54.5827L35.5304 54.6753C34.4708 53.4929 33.407 52.3021 32.5419 50.964C31.6769 49.6259 31.0146 48.1238 30.8366 46.5332L30.9442 46.7731C30.7745 46.0031 31.0477 45.1867 31.5072 44.5514C31.9666 43.916 32.5999 43.4363 33.2332 42.9819C35.7663 41.1725 38.5064 39.6746 41.3831 38.5132C42.6746 37.213 43.5396 35.5089 44.3716 33.8468C45.096 32.3951 45.8203 30.9435 46.4122 29.4287C46.8344 28.3388 47.1904 27.2154 47.7367 26.1845C47.9478 25.7847 48.192 25.3934 48.3162 24.9516C48.4362 24.5182 48.4321 24.0638 48.428 23.6135C48.4073 21.7495 48.3907 19.8812 48.37 18.0172L48.3783 18.0256Z" fill="url(#paint0_radial_758_5361)"/>
<path d="M48.3783 18.0256C48.37 17.3902 48.3204 16.6623 47.8237 16.2794C47.7905 15.5598 47.7574 14.8403 47.7243 14.1208C47.5381 13.9988 47.3477 13.8767 47.1614 13.7505C47.3145 12.4798 46.7185 11.1501 45.6796 10.4306C45.187 10.0897 44.591 9.86674 44.2267 9.38705C43.759 8.77272 43.7921 7.91854 43.5314 7.1906C42.5007 4.35035 37.927 4.87212 36.2837 2.35166C36.0644 2.01504 35.8988 1.62793 35.5883 1.37967C35.162 1.04305 34.566 1.05146 34.0238 1.06408C31.5817 1.11458 29.1313 0.862111 26.7471 0.319309C25.286 -0.0131045 23.4979 -0.353934 22.5169 0.790579C22.2189 0.668554 21.925 0.550736 21.627 0.428711C21.4739 0.719047 21.3207 1.00938 21.1717 1.29551C20.9399 1.22398 20.704 1.15666 20.4722 1.08512C20.377 1.5059 20.2818 1.92247 20.1866 2.34325L20.021 2.85239C17.1774 3.71498 14.9257 5.88198 12.8231 8.01111C12.0325 8.81479 11.2129 9.67739 10.948 10.7798C10.7742 11.5036 10.857 12.2652 10.708 12.9973C10.4224 14.4153 9.29652 15.522 8.05477 16.2331C6.81303 16.9442 5.43056 17.3524 4.13086 17.9499C3.58036 18.2023 3.00088 18.5432 2.79392 19.1196C2.28067 20.5545 4.42474 22.0524 3.74592 23.4158C3.49758 23.9165 2.9181 24.211 2.76909 24.7496C2.54143 25.5743 3.45204 26.3023 3.47274 27.1565C3.11264 26.6936 2.3262 26.7693 1.9454 27.2154C1.5646 27.6614 1.53976 28.3388 1.73844 28.8943C1.88331 29.3024 2.1358 29.6895 2.1358 30.1271C2.1358 30.5311 1.91642 30.893 1.72602 31.2506C1.01409 32.5761 0.641567 34.2928 1.46112 35.551C1.94126 36.2873 2.74839 36.7333 3.5638 37.0447C4.83452 37.5286 6.18802 37.7516 7.50013 38.0967C8.81637 38.4417 10.1326 38.934 11.1384 39.8639C12.1442 40.7896 12.7817 42.2329 12.4588 43.571L12.4423 43.2175C12.434 47.3622 12.7858 51.5068 13.4977 55.5841L13.3612 55.2307C12.8852 56.1564 11.929 56.6992 11.1674 57.4019C10.2775 58.2224 9.63593 59.2828 9.01091 60.3305C6.0059 65.3378 3.00088 70.3408 0 75.348L0.244209 75.55H46.0645L46.1183 75.4659C46.8882 73.7912 46.7433 71.8051 46.1639 70.0505C45.5802 68.2958 44.5993 66.7179 43.6928 65.1105C42.24 62.5312 40.9692 59.8508 39.8931 57.0863C39.6447 56.4467 39.3757 55.7609 38.8169 55.3695C37.898 54.7258 36.5735 55.1255 35.5966 54.5827L35.5304 54.6753C34.4708 53.4929 33.407 52.3021 32.5419 50.964C31.6769 49.6259 31.0146 48.1238 30.8366 46.5332L30.9442 46.7731C30.7745 46.0031 31.0477 45.1867 31.5072 44.5514C31.9666 43.916 32.5999 43.4363 33.2332 42.9819C35.7663 41.1725 38.5064 39.6746 41.3831 38.5132C42.6746 37.213 43.5396 35.5089 44.3716 33.8468C45.096 32.3951 45.8203 30.9435 46.4122 29.4287C46.8344 28.3388 47.1904 27.2154 47.7367 26.1845C47.9478 25.7847 48.192 25.3934 48.3162 24.9516C48.4362 24.5182 48.4321 24.0638 48.428 23.6135C48.4073 21.7495 48.3907 19.8812 48.37 18.0172L48.3783 18.0256Z" fill="url(#paint1_radial_758_5361)"/>
<path d="M48.3783 18.0256C48.37 17.3902 48.3204 16.6623 47.8237 16.2794C47.7905 15.5598 47.7574 14.8403 47.7243 14.1208C47.5381 13.9988 47.3477 13.8767 47.1614 13.7505C47.3145 12.4798 46.7185 11.1501 45.6796 10.4306C45.187 10.0897 44.591 9.86674 44.2267 9.38705C43.759 8.77272 43.7921 7.91854 43.5314 7.1906C42.5007 4.35035 37.927 4.87212 36.2837 2.35166C36.0644 2.01504 35.8988 1.62793 35.5883 1.37967C35.162 1.04305 34.566 1.05146 34.0238 1.06408C31.5817 1.11458 29.1313 0.862111 26.7471 0.319309C25.286 -0.0131045 23.4979 -0.353934 22.5169 0.790579C22.2189 0.668554 21.925 0.550736 21.627 0.428711C21.4739 0.719047 21.3207 1.00938 21.1717 1.29551C20.9399 1.22398 20.704 1.15666 20.4722 1.08512C20.377 1.5059 20.2818 1.92247 20.1866 2.34325L20.021 2.85239C17.1774 3.71498 14.9257 5.88198 12.8231 8.01111C12.0325 8.81479 11.2129 9.67739 10.948 10.7798C10.7742 11.5036 10.857 12.2652 10.708 12.9973C10.4224 14.4153 9.29652 15.522 8.05477 16.2331C6.81303 16.9442 5.43056 17.3524 4.13086 17.9499C3.58036 18.2023 3.00088 18.5432 2.79392 19.1196C2.28067 20.5545 4.42474 22.0524 3.74592 23.4158C3.49758 23.9165 2.9181 24.211 2.76909 24.7496C2.54143 25.5743 3.45204 26.3023 3.47274 27.1565C3.11264 26.6936 2.3262 26.7693 1.9454 27.2154C1.5646 27.6614 1.53976 28.3388 1.73844 28.8943C1.88331 29.3024 2.1358 29.6895 2.1358 30.1271C2.1358 30.5311 1.91642 30.893 1.72602 31.2506C1.01409 32.5761 0.641567 34.2928 1.46112 35.551C1.94126 36.2873 2.74839 36.7333 3.5638 37.0447C4.83452 37.5286 6.18802 37.7516 7.50013 38.0967C8.81637 38.4417 10.1326 38.934 11.1384 39.8639C12.1442 40.7896 12.7817 42.2329 12.4588 43.571L12.4423 43.2175C12.434 47.3622 12.7858 51.5068 13.4977 55.5841L13.3612 55.2307C12.8852 56.1564 11.929 56.6992 11.1674 57.4019C10.2775 58.2224 9.63593 59.2828 9.01091 60.3305C6.0059 65.3378 3.00088 70.3408 0 75.348L0.244209 75.55H46.0645L46.1183 75.4659C46.8882 73.7912 46.7433 71.8051 46.1639 70.0505C45.5802 68.2958 44.5993 66.7179 43.6928 65.1105C42.24 62.5312 40.9692 59.8508 39.8931 57.0863C39.6447 56.4467 39.3757 55.7609 38.8169 55.3695C37.898 54.7258 36.5735 55.1255 35.5966 54.5827L35.5304 54.6753C34.4708 53.4929 33.407 52.3021 32.5419 50.964C31.6769 49.6259 31.0146 48.1238 30.8366 46.5332L30.9442 46.7731C30.7745 46.0031 31.0477 45.1867 31.5072 44.5514C31.9666 43.916 32.5999 43.4363 33.2332 42.9819C35.7663 41.1725 38.5064 39.6746 41.3831 38.5132C42.6746 37.213 43.5396 35.5089 44.3716 33.8468C45.096 32.3951 45.8203 30.9435 46.4122 29.4287C46.8344 28.3388 47.1904 27.2154 47.7367 26.1845C47.9478 25.7847 48.192 25.3934 48.3162 24.9516C48.4362 24.5182 48.4321 24.0638 48.428 23.6135C48.4073 21.7495 48.3907 19.8812 48.37 18.0172L48.3783 18.0256Z" fill="url(#paint2_radial_758_5361)"/>
</g>
<defs>
<filter id="filter0_i_758_5361" x="0" y="0" width="49.4297" height="76.55" filterUnits="userSpaceOnUse" color-interpolation-filters="sRGB">
<feFlood flood-opacity="0" result="BackgroundImageFix"/>
<feBlend mode="normal" in="SourceGraphic" in2="BackgroundImageFix" result="shape"/>
<feColorMatrix in="SourceAlpha" type="matrix" values="0 0 0 0 0 0 0 0 0 0 0 0 0 0 0 0 0 0 127 0" result="hardAlpha"/>
<feOffset dx="1" dy="1"/>
<feGaussianBlur stdDeviation="2.5"/>
<feComposite in2="hardAlpha" operator="arithmetic" k2="-1" k3="1"/>
<feColorMatrix type="matrix" values="0 0 0 0 0 0 0 0 0 0 0 0 0 0 0 0 0 0 0.5 0"/>
<feBlend mode="normal" in2="shape" result="effect1_innerShadow_758_5361"/>
</filter>
<radialGradient id="paint0_radial_758_5361" cx="0" cy="0" r="1" gradientUnits="userSpaceOnUse" gradientTransform="translate(18.4913 85.0854) rotate(-105.551) scale(55.8337 36.3918)">
<stop offset="0.078125" stop-color="#FF1A6C" stop-opacity="0.67"/>
<stop offset="1" stop-color="#FF1A6C" stop-opacity="0"/>
</radialGradient>
<radialGradient id="paint1_radial_758_5361" cx="0" cy="0" r="1" gradientUnits="userSpaceOnUse" gradientTransform="translate(43.1463 40.5867) rotate(-161.245) scale(40.6837 44.9382)">
<stop offset="0.328125" stop-color="#FF2C2C" stop-opacity="0.84"/>
<stop offset="1" stop-color="#FF0000" stop-opacity="0"/>
</radialGradient>
<radialGradient id="paint2_radial_758_5361" cx="0" cy="0" r="1" gradientUnits="userSpaceOnUse" gradientTransform="translate(7.26443 12.8362) rotate(81.5109) scale(46.2277 47.407)">
<stop offset="0.401042" stop-color="#FF9900" stop-opacity="0.68"/>
<stop offset="1" stop-color="#FF9900" stop-opacity="0"/>
</radialGradient>
</defs>
</svg>
