<svg width="55" height="76" viewBox="0 0 55 76" fill="none" xmlns="http://www.w3.org/2000/svg">
<g filter="url(#filter0_i_758_5369)">
<path d="M47.1203 56.3651C46.6692 55.9391 45.5941 54.8212 44.3966 53.1086C42.3686 50.219 41.576 46.4943 42.2506 43.031C40.6695 43.4318 39.0842 43.8283 37.5031 44.229C37.1109 44.326 36.6472 44.4104 36.3478 44.1362C36.1581 43.9633 36.099 43.6933 36.0527 43.4402C35.4877 40.2258 36.1159 36.8132 37.7855 34.0081C38.0132 34.2527 38.3294 34.4172 38.6625 34.4594C38.671 33.3458 38.6752 32.2279 38.6836 31.1143L38.73 31.4602C38.7426 31.0215 38.7553 30.587 38.7721 30.1483C38.9113 30.4562 39.0504 30.7599 39.1896 31.0679C39.0167 29.3299 39.6323 27.6131 40.4165 26.0523C41.1965 24.4915 42.1578 23.0151 42.7649 21.3826C42.9462 20.8891 43.098 20.3787 43.1022 19.8514C43.1065 19.4253 43.0137 19.0035 42.9252 18.5859C42.5331 16.8058 42.1367 15.0045 41.2935 13.3889C41.6013 13.2961 41.8837 13.1105 42.0903 12.8659C41.4916 12.6507 41.0784 12.0011 41.1375 11.3684C41.2977 11.3473 41.4621 11.3768 41.6055 11.4569C41.538 10.3011 40.4123 9.54605 39.4425 8.9133C38.6457 8.39023 37.8741 7.82497 37.1405 7.21754C37.0519 7.14582 36.9634 7.06568 36.9381 6.956C36.9086 6.81258 37.0055 6.67337 37.0983 6.55948C37.3681 6.22623 37.6338 5.88877 37.9036 5.55552C36.7989 6.11656 35.2684 5.54286 34.8089 4.39126C34.6529 3.99896 34.5896 3.53917 34.2776 3.25232C34.0499 3.04562 33.7337 2.97813 33.4681 2.82205C33.2067 2.66597 32.9832 2.33273 33.1308 2.06697L33.1982 1.78857C33.3627 1.72529 33.5103 1.61983 33.6241 1.48485C32.3761 1.96573 30.9763 1.63249 29.703 1.22753L29.6397 1.19378C29.6482 1.02083 29.6819 0.847881 29.7409 0.683367C29.5849 0.860536 29.3868 0.995522 29.1633 1.07567L29.1338 1.16004C28.4971 0.501979 27.5822 0.126549 26.6673 0.139204C26.2541 0.147641 25.8071 0.219352 25.4572 0C25.6216 0.232007 25.7861 0.459796 25.9505 0.691804C25.2169 1.03349 24.3568 0.928029 23.5767 0.712895C22.7967 0.497761 22.0378 0.177169 21.2325 0.105458C19.6683 -0.0379648 18.1842 0.755078 16.6368 1.0124C15.7219 1.16425 14.6425 1.20644 14.1239 1.96995C14.0775 1.6578 14.0354 1.34986 13.989 1.03771C13.7655 1.45954 13.5378 1.88137 13.3144 2.3032C13.1837 2.34538 13.1963 2.57739 13.3312 2.60692C12.0453 3.2017 10.7762 3.8471 9.53661 4.53469C9.70526 4.20988 9.47758 3.7543 9.1192 3.68681C8.90838 4.28159 8.55 4.82575 8.082 5.24758C8.16632 5.04089 8.14946 4.79622 8.03983 4.60218C7.61399 5.26867 7.00685 5.81706 6.29852 6.17139C6.29852 5.88033 6.29852 5.58927 6.29852 5.2982C5.48478 5.89299 4.75537 6.60166 4.1398 7.39892C3.66336 8.01902 3.24173 8.71082 3.09838 9.47855C2.95081 10.2463 3.11524 11.1068 3.66336 11.6636C3.30498 11.4527 2.94238 11.246 2.584 11.0351C2.61351 11.7944 3.13633 12.4693 3.78141 12.8743C4.4265 13.2793 5.18121 13.4649 5.91906 13.6462L6.34911 13.8487C6.22684 14.2537 6.10457 14.6586 5.9823 15.0636C5.53538 16.3713 5.08845 17.679 4.64153 18.9824C4.43072 19.6025 4.21569 20.2395 4.26207 20.8933C4.35061 22.1757 5.42154 23.2387 5.47635 24.5211C5.51851 25.5081 4.95775 26.4066 4.41807 27.2292C3.83622 28.1193 3.25438 29.0093 2.67254 29.8952C2.43221 30.2622 2.17923 30.684 2.27621 31.1101C2.41956 31.7513 3.19114 31.9664 3.81093 32.1773C4.43072 32.3882 5.1264 32.9746 4.84391 33.5651C4.76802 33.7296 4.62466 33.852 4.54034 34.0081C4.29158 34.4678 4.59093 35.0415 4.9704 35.3959C5.35408 35.7544 5.83473 36.0244 6.08771 36.48C5.60705 36.7289 5.36673 37.3658 5.56067 37.872C5.71246 38.2728 6.07927 38.547 6.3196 38.9055C7.4074 40.5253 5.54381 42.9171 6.53041 44.6002L6.54306 44.537C6.79182 45.4355 7.70675 46.026 8.62589 46.161C9.54925 46.296 10.481 46.0598 11.3749 45.7982C12.7916 45.3806 14.1871 44.8871 15.5532 44.3176C15.8104 44.2122 16.2109 44.1657 16.2742 44.4399C16.2911 44.5159 16.2742 44.596 16.2531 44.6677C15.8146 46.2454 14.9334 47.6923 14.6762 49.3079C14.575 49.9406 14.5708 50.5945 14.36 51.1977C14.0227 52.1552 13.209 52.8555 12.4247 53.5093L12.2013 53.4292C9.9498 52.9525 7.63929 52.75 5.34143 52.826C5.88533 54.315 6.43344 55.8083 6.97734 57.2974C7.08274 57.5842 7.18815 57.8837 7.12912 58.1832C7.03637 58.6641 6.56836 58.9594 6.14252 59.1998C5.58597 59.5162 5.02521 59.8326 4.46866 60.1447C4.46866 60.1447 4.11871 60.3936 3.72239 60.769C2.29729 62.1358 1.94312 68.1595 1.60161 71.1123C1.47512 72.188 1.25166 73.7193 0.817383 75.55H54.0898C52.6689 63.9117 49.7386 58.7906 47.1203 56.3271V56.3651Z" fill="white"/>
<path d="M47.1203 56.3651C46.6692 55.9391 45.5941 54.8212 44.3966 53.1086C42.3686 50.219 41.576 46.4943 42.2506 43.031C40.6695 43.4318 39.0842 43.8283 37.5031 44.229C37.1109 44.326 36.6472 44.4104 36.3478 44.1362C36.1581 43.9633 36.099 43.6933 36.0527 43.4402C35.4877 40.2258 36.1159 36.8132 37.7855 34.0081C38.0132 34.2527 38.3294 34.4172 38.6625 34.4594C38.671 33.3458 38.6752 32.2279 38.6836 31.1143L38.73 31.4602C38.7426 31.0215 38.7553 30.587 38.7721 30.1483C38.9113 30.4562 39.0504 30.7599 39.1896 31.0679C39.0167 29.3299 39.6323 27.6131 40.4165 26.0523C41.1965 24.4915 42.1578 23.0151 42.7649 21.3826C42.9462 20.8891 43.098 20.3787 43.1022 19.8514C43.1065 19.4253 43.0137 19.0035 42.9252 18.5859C42.5331 16.8058 42.1367 15.0045 41.2935 13.3889C41.6013 13.2961 41.8837 13.1105 42.0903 12.8659C41.4916 12.6507 41.0784 12.0011 41.1375 11.3684C41.2977 11.3473 41.4621 11.3768 41.6055 11.4569C41.538 10.3011 40.4123 9.54605 39.4425 8.9133C38.6457 8.39023 37.8741 7.82497 37.1405 7.21754C37.0519 7.14582 36.9634 7.06568 36.9381 6.956C36.9086 6.81258 37.0055 6.67337 37.0983 6.55948C37.3681 6.22623 37.6338 5.88877 37.9036 5.55552C36.7989 6.11656 35.2684 5.54286 34.8089 4.39126C34.6529 3.99896 34.5896 3.53917 34.2776 3.25232C34.0499 3.04562 33.7337 2.97813 33.4681 2.82205C33.2067 2.66597 32.9832 2.33273 33.1308 2.06697L33.1982 1.78857C33.3627 1.72529 33.5103 1.61983 33.6241 1.48485C32.3761 1.96573 30.9763 1.63249 29.703 1.22753L29.6397 1.19378C29.6482 1.02083 29.6819 0.847881 29.7409 0.683367C29.5849 0.860536 29.3868 0.995522 29.1633 1.07567L29.1338 1.16004C28.4971 0.501979 27.5822 0.126549 26.6673 0.139204C26.2541 0.147641 25.8071 0.219352 25.4572 0C25.6216 0.232007 25.7861 0.459796 25.9505 0.691804C25.2169 1.03349 24.3568 0.928029 23.5767 0.712895C22.7967 0.497761 22.0378 0.177169 21.2325 0.105458C19.6683 -0.0379648 18.1842 0.755078 16.6368 1.0124C15.7219 1.16425 14.6425 1.20644 14.1239 1.96995C14.0775 1.6578 14.0354 1.34986 13.989 1.03771C13.7655 1.45954 13.5378 1.88137 13.3144 2.3032C13.1837 2.34538 13.1963 2.57739 13.3312 2.60692C12.0453 3.2017 10.7762 3.8471 9.53661 4.53469C9.70526 4.20988 9.47758 3.7543 9.1192 3.68681C8.90838 4.28159 8.55 4.82575 8.082 5.24758C8.16632 5.04089 8.14946 4.79622 8.03983 4.60218C7.61399 5.26867 7.00685 5.81706 6.29852 6.17139C6.29852 5.88033 6.29852 5.58927 6.29852 5.2982C5.48478 5.89299 4.75537 6.60166 4.1398 7.39892C3.66336 8.01902 3.24173 8.71082 3.09838 9.47855C2.95081 10.2463 3.11524 11.1068 3.66336 11.6636C3.30498 11.4527 2.94238 11.246 2.584 11.0351C2.61351 11.7944 3.13633 12.4693 3.78141 12.8743C4.4265 13.2793 5.18121 13.4649 5.91906 13.6462L6.34911 13.8487C6.22684 14.2537 6.10457 14.6586 5.9823 15.0636C5.53538 16.3713 5.08845 17.679 4.64153 18.9824C4.43072 19.6025 4.21569 20.2395 4.26207 20.8933C4.35061 22.1757 5.42154 23.2387 5.47635 24.5211C5.51851 25.5081 4.95775 26.4066 4.41807 27.2292C3.83622 28.1193 3.25438 29.0093 2.67254 29.8952C2.43221 30.2622 2.17923 30.684 2.27621 31.1101C2.41956 31.7513 3.19114 31.9664 3.81093 32.1773C4.43072 32.3882 5.1264 32.9746 4.84391 33.5651C4.76802 33.7296 4.62466 33.852 4.54034 34.0081C4.29158 34.4678 4.59093 35.0415 4.9704 35.3959C5.35408 35.7544 5.83473 36.0244 6.08771 36.48C5.60705 36.7289 5.36673 37.3658 5.56067 37.872C5.71246 38.2728 6.07927 38.547 6.3196 38.9055C7.4074 40.5253 5.54381 42.9171 6.53041 44.6002L6.54306 44.537C6.79182 45.4355 7.70675 46.026 8.62589 46.161C9.54925 46.296 10.481 46.0598 11.3749 45.7982C12.7916 45.3806 14.1871 44.8871 15.5532 44.3176C15.8104 44.2122 16.2109 44.1657 16.2742 44.4399C16.2911 44.5159 16.2742 44.596 16.2531 44.6677C15.8146 46.2454 14.9334 47.6923 14.6762 49.3079C14.575 49.9406 14.5708 50.5945 14.36 51.1977C14.0227 52.1552 13.209 52.8555 12.4247 53.5093L12.2013 53.4292C9.9498 52.9525 7.63929 52.75 5.34143 52.826C5.88533 54.315 6.43344 55.8083 6.97734 57.2974C7.08274 57.5842 7.18815 57.8837 7.12912 58.1832C7.03637 58.6641 6.56836 58.9594 6.14252 59.1998C5.58597 59.5162 5.02521 59.8326 4.46866 60.1447C4.46866 60.1447 4.11871 60.3936 3.72239 60.769C2.29729 62.1358 1.94312 68.1595 1.60161 71.1123C1.47512 72.188 1.25166 73.7193 0.817383 75.55H54.0898C52.6689 63.9117 49.7386 58.7906 47.1203 56.3271V56.3651Z" fill="url(#paint0_radial_758_5369)"/>
<path d="M47.1203 56.3651C46.6692 55.9391 45.5941 54.8212 44.3966 53.1086C42.3686 50.219 41.576 46.4943 42.2506 43.031C40.6695 43.4318 39.0842 43.8283 37.5031 44.229C37.1109 44.326 36.6472 44.4104 36.3478 44.1362C36.1581 43.9633 36.099 43.6933 36.0527 43.4402C35.4877 40.2258 36.1159 36.8132 37.7855 34.0081C38.0132 34.2527 38.3294 34.4172 38.6625 34.4594C38.671 33.3458 38.6752 32.2279 38.6836 31.1143L38.73 31.4602C38.7426 31.0215 38.7553 30.587 38.7721 30.1483C38.9113 30.4562 39.0504 30.7599 39.1896 31.0679C39.0167 29.3299 39.6323 27.6131 40.4165 26.0523C41.1965 24.4915 42.1578 23.0151 42.7649 21.3826C42.9462 20.8891 43.098 20.3787 43.1022 19.8514C43.1065 19.4253 43.0137 19.0035 42.9252 18.5859C42.5331 16.8058 42.1367 15.0045 41.2935 13.3889C41.6013 13.2961 41.8837 13.1105 42.0903 12.8659C41.4916 12.6507 41.0784 12.0011 41.1375 11.3684C41.2977 11.3473 41.4621 11.3768 41.6055 11.4569C41.538 10.3011 40.4123 9.54605 39.4425 8.9133C38.6457 8.39023 37.8741 7.82497 37.1405 7.21754C37.0519 7.14582 36.9634 7.06568 36.9381 6.956C36.9086 6.81258 37.0055 6.67337 37.0983 6.55948C37.3681 6.22623 37.6338 5.88877 37.9036 5.55552C36.7989 6.11656 35.2684 5.54286 34.8089 4.39126C34.6529 3.99896 34.5896 3.53917 34.2776 3.25232C34.0499 3.04562 33.7337 2.97813 33.4681 2.82205C33.2067 2.66597 32.9832 2.33273 33.1308 2.06697L33.1982 1.78857C33.3627 1.72529 33.5103 1.61983 33.6241 1.48485C32.3761 1.96573 30.9763 1.63249 29.703 1.22753L29.6397 1.19378C29.6482 1.02083 29.6819 0.847881 29.7409 0.683367C29.5849 0.860536 29.3868 0.995522 29.1633 1.07567L29.1338 1.16004C28.4971 0.501979 27.5822 0.126549 26.6673 0.139204C26.2541 0.147641 25.8071 0.219352 25.4572 0C25.6216 0.232007 25.7861 0.459796 25.9505 0.691804C25.2169 1.03349 24.3568 0.928029 23.5767 0.712895C22.7967 0.497761 22.0378 0.177169 21.2325 0.105458C19.6683 -0.0379648 18.1842 0.755078 16.6368 1.0124C15.7219 1.16425 14.6425 1.20644 14.1239 1.96995C14.0775 1.6578 14.0354 1.34986 13.989 1.03771C13.7655 1.45954 13.5378 1.88137 13.3144 2.3032C13.1837 2.34538 13.1963 2.57739 13.3312 2.60692C12.0453 3.2017 10.7762 3.8471 9.53661 4.53469C9.70526 4.20988 9.47758 3.7543 9.1192 3.68681C8.90838 4.28159 8.55 4.82575 8.082 5.24758C8.16632 5.04089 8.14946 4.79622 8.03983 4.60218C7.61399 5.26867 7.00685 5.81706 6.29852 6.17139C6.29852 5.88033 6.29852 5.58927 6.29852 5.2982C5.48478 5.89299 4.75537 6.60166 4.1398 7.39892C3.66336 8.01902 3.24173 8.71082 3.09838 9.47855C2.95081 10.2463 3.11524 11.1068 3.66336 11.6636C3.30498 11.4527 2.94238 11.246 2.584 11.0351C2.61351 11.7944 3.13633 12.4693 3.78141 12.8743C4.4265 13.2793 5.18121 13.4649 5.91906 13.6462L6.34911 13.8487C6.22684 14.2537 6.10457 14.6586 5.9823 15.0636C5.53538 16.3713 5.08845 17.679 4.64153 18.9824C4.43072 19.6025 4.21569 20.2395 4.26207 20.8933C4.35061 22.1757 5.42154 23.2387 5.47635 24.5211C5.51851 25.5081 4.95775 26.4066 4.41807 27.2292C3.83622 28.1193 3.25438 29.0093 2.67254 29.8952C2.43221 30.2622 2.17923 30.684 2.27621 31.1101C2.41956 31.7513 3.19114 31.9664 3.81093 32.1773C4.43072 32.3882 5.1264 32.9746 4.84391 33.5651C4.76802 33.7296 4.62466 33.852 4.54034 34.0081C4.29158 34.4678 4.59093 35.0415 4.9704 35.3959C5.35408 35.7544 5.83473 36.0244 6.08771 36.48C5.60705 36.7289 5.36673 37.3658 5.56067 37.872C5.71246 38.2728 6.07927 38.547 6.3196 38.9055C7.4074 40.5253 5.54381 42.9171 6.53041 44.6002L6.54306 44.537C6.79182 45.4355 7.70675 46.026 8.62589 46.161C9.54925 46.296 10.481 46.0598 11.3749 45.7982C12.7916 45.3806 14.1871 44.8871 15.5532 44.3176C15.8104 44.2122 16.2109 44.1657 16.2742 44.4399C16.2911 44.5159 16.2742 44.596 16.2531 44.6677C15.8146 46.2454 14.9334 47.6923 14.6762 49.3079C14.575 49.9406 14.5708 50.5945 14.36 51.1977C14.0227 52.1552 13.209 52.8555 12.4247 53.5093L12.2013 53.4292C9.9498 52.9525 7.63929 52.75 5.34143 52.826C5.88533 54.315 6.43344 55.8083 6.97734 57.2974C7.08274 57.5842 7.18815 57.8837 7.12912 58.1832C7.03637 58.6641 6.56836 58.9594 6.14252 59.1998C5.58597 59.5162 5.02521 59.8326 4.46866 60.1447C4.46866 60.1447 4.11871 60.3936 3.72239 60.769C2.29729 62.1358 1.94312 68.1595 1.60161 71.1123C1.47512 72.188 1.25166 73.7193 0.817383 75.55H54.0898C52.6689 63.9117 49.7386 58.7906 47.1203 56.3271V56.3651Z" fill="url(#paint1_radial_758_5369)"/>
<path d="M47.1203 56.3651C46.6692 55.9391 45.5941 54.8212 44.3966 53.1086C42.3686 50.219 41.576 46.4943 42.2506 43.031C40.6695 43.4318 39.0842 43.8283 37.5031 44.229C37.1109 44.326 36.6472 44.4104 36.3478 44.1362C36.1581 43.9633 36.099 43.6933 36.0527 43.4402C35.4877 40.2258 36.1159 36.8132 37.7855 34.0081C38.0132 34.2527 38.3294 34.4172 38.6625 34.4594C38.671 33.3458 38.6752 32.2279 38.6836 31.1143L38.73 31.4602C38.7426 31.0215 38.7553 30.587 38.7721 30.1483C38.9113 30.4562 39.0504 30.7599 39.1896 31.0679C39.0167 29.3299 39.6323 27.6131 40.4165 26.0523C41.1965 24.4915 42.1578 23.0151 42.7649 21.3826C42.9462 20.8891 43.098 20.3787 43.1022 19.8514C43.1065 19.4253 43.0137 19.0035 42.9252 18.5859C42.5331 16.8058 42.1367 15.0045 41.2935 13.3889C41.6013 13.2961 41.8837 13.1105 42.0903 12.8659C41.4916 12.6507 41.0784 12.0011 41.1375 11.3684C41.2977 11.3473 41.4621 11.3768 41.6055 11.4569C41.538 10.3011 40.4123 9.54605 39.4425 8.9133C38.6457 8.39023 37.8741 7.82497 37.1405 7.21754C37.0519 7.14582 36.9634 7.06568 36.9381 6.956C36.9086 6.81258 37.0055 6.67337 37.0983 6.55948C37.3681 6.22623 37.6338 5.88877 37.9036 5.55552C36.7989 6.11656 35.2684 5.54286 34.8089 4.39126C34.6529 3.99896 34.5896 3.53917 34.2776 3.25232C34.0499 3.04562 33.7337 2.97813 33.4681 2.82205C33.2067 2.66597 32.9832 2.33273 33.1308 2.06697L33.1982 1.78857C33.3627 1.72529 33.5103 1.61983 33.6241 1.48485C32.3761 1.96573 30.9763 1.63249 29.703 1.22753L29.6397 1.19378C29.6482 1.02083 29.6819 0.847881 29.7409 0.683367C29.5849 0.860536 29.3868 0.995522 29.1633 1.07567L29.1338 1.16004C28.4971 0.501979 27.5822 0.126549 26.6673 0.139204C26.2541 0.147641 25.8071 0.219352 25.4572 0C25.6216 0.232007 25.7861 0.459796 25.9505 0.691804C25.2169 1.03349 24.3568 0.928029 23.5767 0.712895C22.7967 0.497761 22.0378 0.177169 21.2325 0.105458C19.6683 -0.0379648 18.1842 0.755078 16.6368 1.0124C15.7219 1.16425 14.6425 1.20644 14.1239 1.96995C14.0775 1.6578 14.0354 1.34986 13.989 1.03771C13.7655 1.45954 13.5378 1.88137 13.3144 2.3032C13.1837 2.34538 13.1963 2.57739 13.3312 2.60692C12.0453 3.2017 10.7762 3.8471 9.53661 4.53469C9.70526 4.20988 9.47758 3.7543 9.1192 3.68681C8.90838 4.28159 8.55 4.82575 8.082 5.24758C8.16632 5.04089 8.14946 4.79622 8.03983 4.60218C7.61399 5.26867 7.00685 5.81706 6.29852 6.17139C6.29852 5.88033 6.29852 5.58927 6.29852 5.2982C5.48478 5.89299 4.75537 6.60166 4.1398 7.39892C3.66336 8.01902 3.24173 8.71082 3.09838 9.47855C2.95081 10.2463 3.11524 11.1068 3.66336 11.6636C3.30498 11.4527 2.94238 11.246 2.584 11.0351C2.61351 11.7944 3.13633 12.4693 3.78141 12.8743C4.4265 13.2793 5.18121 13.4649 5.91906 13.6462L6.34911 13.8487C6.22684 14.2537 6.10457 14.6586 5.9823 15.0636C5.53538 16.3713 5.08845 17.679 4.64153 18.9824C4.43072 19.6025 4.21569 20.2395 4.26207 20.8933C4.35061 22.1757 5.42154 23.2387 5.47635 24.5211C5.51851 25.5081 4.95775 26.4066 4.41807 27.2292C3.83622 28.1193 3.25438 29.0093 2.67254 29.8952C2.43221 30.2622 2.17923 30.684 2.27621 31.1101C2.41956 31.7513 3.19114 31.9664 3.81093 32.1773C4.43072 32.3882 5.1264 32.9746 4.84391 33.5651C4.76802 33.7296 4.62466 33.852 4.54034 34.0081C4.29158 34.4678 4.59093 35.0415 4.9704 35.3959C5.35408 35.7544 5.83473 36.0244 6.08771 36.48C5.60705 36.7289 5.36673 37.3658 5.56067 37.872C5.71246 38.2728 6.07927 38.547 6.3196 38.9055C7.4074 40.5253 5.54381 42.9171 6.53041 44.6002L6.54306 44.537C6.79182 45.4355 7.70675 46.026 8.62589 46.161C9.54925 46.296 10.481 46.0598 11.3749 45.7982C12.7916 45.3806 14.1871 44.8871 15.5532 44.3176C15.8104 44.2122 16.2109 44.1657 16.2742 44.4399C16.2911 44.5159 16.2742 44.596 16.2531 44.6677C15.8146 46.2454 14.9334 47.6923 14.6762 49.3079C14.575 49.9406 14.5708 50.5945 14.36 51.1977C14.0227 52.1552 13.209 52.8555 12.4247 53.5093L12.2013 53.4292C9.9498 52.9525 7.63929 52.75 5.34143 52.826C5.88533 54.315 6.43344 55.8083 6.97734 57.2974C7.08274 57.5842 7.18815 57.8837 7.12912 58.1832C7.03637 58.6641 6.56836 58.9594 6.14252 59.1998C5.58597 59.5162 5.02521 59.8326 4.46866 60.1447C4.46866 60.1447 4.11871 60.3936 3.72239 60.769C2.29729 62.1358 1.94312 68.1595 1.60161 71.1123C1.47512 72.188 1.25166 73.7193 0.817383 75.55H54.0898C52.6689 63.9117 49.7386 58.7906 47.1203 56.3271V56.3651Z" fill="url(#paint2_radial_758_5369)"/>
<path d="M47.1203 56.3651C46.6692 55.9391 45.5941 54.8212 44.3966 53.1086C42.3686 50.219 41.576 46.4943 42.2506 43.031C40.6695 43.4318 39.0842 43.8283 37.5031 44.229C37.1109 44.326 36.6472 44.4104 36.3478 44.1362C36.1581 43.9633 36.099 43.6933 36.0527 43.4402C35.4877 40.2258 36.1159 36.8132 37.7855 34.0081C38.0132 34.2527 38.3294 34.4172 38.6625 34.4594C38.671 33.3458 38.6752 32.2279 38.6836 31.1143L38.73 31.4602C38.7426 31.0215 38.7553 30.587 38.7721 30.1483C38.9113 30.4562 39.0504 30.7599 39.1896 31.0679C39.0167 29.3299 39.6323 27.6131 40.4165 26.0523C41.1965 24.4915 42.1578 23.0151 42.7649 21.3826C42.9462 20.8891 43.098 20.3787 43.1022 19.8514C43.1065 19.4253 43.0137 19.0035 42.9252 18.5859C42.5331 16.8058 42.1367 15.0045 41.2935 13.3889C41.6013 13.2961 41.8837 13.1105 42.0903 12.8659C41.4916 12.6507 41.0784 12.0011 41.1375 11.3684C41.2977 11.3473 41.4621 11.3768 41.6055 11.4569C41.538 10.3011 40.4123 9.54605 39.4425 8.9133C38.6457 8.39023 37.8741 7.82497 37.1405 7.21754C37.0519 7.14582 36.9634 7.06568 36.9381 6.956C36.9086 6.81258 37.0055 6.67337 37.0983 6.55948C37.3681 6.22623 37.6338 5.88877 37.9036 5.55552C36.7989 6.11656 35.2684 5.54286 34.8089 4.39126C34.6529 3.99896 34.5896 3.53917 34.2776 3.25232C34.0499 3.04562 33.7337 2.97813 33.4681 2.82205C33.2067 2.66597 32.9832 2.33273 33.1308 2.06697L33.1982 1.78857C33.3627 1.72529 33.5103 1.61983 33.6241 1.48485C32.3761 1.96573 30.9763 1.63249 29.703 1.22753L29.6397 1.19378C29.6482 1.02083 29.6819 0.847881 29.7409 0.683367C29.5849 0.860536 29.3868 0.995522 29.1633 1.07567L29.1338 1.16004C28.4971 0.501979 27.5822 0.126549 26.6673 0.139204C26.2541 0.147641 25.8071 0.219352 25.4572 0C25.6216 0.232007 25.7861 0.459796 25.9505 0.691804C25.2169 1.03349 24.3568 0.928029 23.5767 0.712895C22.7967 0.497761 22.0378 0.177169 21.2325 0.105458C19.6683 -0.0379648 18.1842 0.755078 16.6368 1.0124C15.7219 1.16425 14.6425 1.20644 14.1239 1.96995C14.0775 1.6578 14.0354 1.34986 13.989 1.03771C13.7655 1.45954 13.5378 1.88137 13.3144 2.3032C13.1837 2.34538 13.1963 2.57739 13.3312 2.60692C12.0453 3.2017 10.7762 3.8471 9.53661 4.53469C9.70526 4.20988 9.47758 3.7543 9.1192 3.68681C8.90838 4.28159 8.55 4.82575 8.082 5.24758C8.16632 5.04089 8.14946 4.79622 8.03983 4.60218C7.61399 5.26867 7.00685 5.81706 6.29852 6.17139C6.29852 5.88033 6.29852 5.58927 6.29852 5.2982C5.48478 5.89299 4.75537 6.60166 4.1398 7.39892C3.66336 8.01902 3.24173 8.71082 3.09838 9.47855C2.95081 10.2463 3.11524 11.1068 3.66336 11.6636C3.30498 11.4527 2.94238 11.246 2.584 11.0351C2.61351 11.7944 3.13633 12.4693 3.78141 12.8743C4.4265 13.2793 5.18121 13.4649 5.91906 13.6462L6.34911 13.8487C6.22684 14.2537 6.10457 14.6586 5.9823 15.0636C5.53538 16.3713 5.08845 17.679 4.64153 18.9824C4.43072 19.6025 4.21569 20.2395 4.26207 20.8933C4.35061 22.1757 5.42154 23.2387 5.47635 24.5211C5.51851 25.5081 4.95775 26.4066 4.41807 27.2292C3.83622 28.1193 3.25438 29.0093 2.67254 29.8952C2.43221 30.2622 2.17923 30.684 2.27621 31.1101C2.41956 31.7513 3.19114 31.9664 3.81093 32.1773C4.43072 32.3882 5.1264 32.9746 4.84391 33.5651C4.76802 33.7296 4.62466 33.852 4.54034 34.0081C4.29158 34.4678 4.59093 35.0415 4.9704 35.3959C5.35408 35.7544 5.83473 36.0244 6.08771 36.48C5.60705 36.7289 5.36673 37.3658 5.56067 37.872C5.71246 38.2728 6.07927 38.547 6.3196 38.9055C7.4074 40.5253 5.54381 42.9171 6.53041 44.6002L6.54306 44.537C6.79182 45.4355 7.70675 46.026 8.62589 46.161C9.54925 46.296 10.481 46.0598 11.3749 45.7982C12.7916 45.3806 14.1871 44.8871 15.5532 44.3176C15.8104 44.2122 16.2109 44.1657 16.2742 44.4399C16.2911 44.5159 16.2742 44.596 16.2531 44.6677C15.8146 46.2454 14.9334 47.6923 14.6762 49.3079C14.575 49.9406 14.5708 50.5945 14.36 51.1977C14.0227 52.1552 13.209 52.8555 12.4247 53.5093L12.2013 53.4292C9.9498 52.9525 7.63929 52.75 5.34143 52.826C5.88533 54.315 6.43344 55.8083 6.97734 57.2974C7.08274 57.5842 7.18815 57.8837 7.12912 58.1832C7.03637 58.6641 6.56836 58.9594 6.14252 59.1998C5.58597 59.5162 5.02521 59.8326 4.46866 60.1447C4.46866 60.1447 4.11871 60.3936 3.72239 60.769C2.29729 62.1358 1.94312 68.1595 1.60161 71.1123C1.47512 72.188 1.25166 73.7193 0.817383 75.55H54.0898C52.6689 63.9117 49.7386 58.7906 47.1203 56.3271V56.3651Z" fill="url(#paint3_radial_758_5369)" fill-opacity="0.6"/>
</g>
<defs>
<filter id="filter0_i_758_5369" x="0.817383" y="0" width="54.2725" height="76.55" filterUnits="userSpaceOnUse" color-interpolation-filters="sRGB">
<feFlood flood-opacity="0" result="BackgroundImageFix"/>
<feBlend mode="normal" in="SourceGraphic" in2="BackgroundImageFix" result="shape"/>
<feColorMatrix in="SourceAlpha" type="matrix" values="0 0 0 0 0 0 0 0 0 0 0 0 0 0 0 0 0 0 127 0" result="hardAlpha"/>
<feOffset dx="1" dy="1"/>
<feGaussianBlur stdDeviation="2.5"/>
<feComposite in2="hardAlpha" operator="arithmetic" k2="-1" k3="1"/>
<feColorMatrix type="matrix" values="0 0 0 0 0 0 0 0 0 0 0 0 0 0 0 0 0 0 0.5 0"/>
<feBlend mode="normal" in2="shape" result="effect1_innerShadow_758_5369"/>
</filter>
<radialGradient id="paint0_radial_758_5369" cx="0" cy="0" r="1" gradientUnits="userSpaceOnUse" gradientTransform="translate(42.5344 25.3096) rotate(119.517) scale(57.7813 39.6368)">
<stop stop-color="#90C849" stop-opacity="0.73"/>
<stop offset="1" stop-color="#94E230" stop-opacity="0"/>
</radialGradient>
<radialGradient id="paint1_radial_758_5369" cx="0" cy="0" r="1" gradientUnits="userSpaceOnUse" gradientTransform="translate(49.4083 69.3627) rotate(-176.357) scale(48.6893 34.9243)">
<stop stop-color="#FFD874"/>
<stop offset="1" stop-color="#FFD874" stop-opacity="0"/>
</radialGradient>
<radialGradient id="paint2_radial_758_5369" cx="0" cy="0" r="1" gradientUnits="userSpaceOnUse" gradientTransform="translate(11.4719 70.991) rotate(-82.665) scale(59.4284 41.9164)">
<stop stop-color="#FF5A96" stop-opacity="0.61"/>
<stop offset="1" stop-color="#FF5A96" stop-opacity="0"/>
</radialGradient>
<radialGradient id="paint3_radial_758_5369" cx="0" cy="0" r="1" gradientUnits="userSpaceOnUse" gradientTransform="translate(11.9562 1.02542e-06) rotate(20.5473) scale(51.0301 41.5192)">
<stop stop-color="#0038FF"/>
<stop offset="1" stop-color="#0038FF" stop-opacity="0"/>
</radialGradient>
</defs>
</svg>
