<svg width="56" height="76" viewBox="0 0 56 76" fill="none" xmlns="http://www.w3.org/2000/svg">
<g filter="url(#filter0_i_758_5375)">
<path d="M52.5416 68.8469C52.3885 68.7075 51.9291 68.3234 51.8032 67.6946C51.6263 66.8244 52.3068 66.0596 52.5756 65.22C53.0146 63.8569 52.3306 62.3681 51.5174 61.2464C50.7042 60.1247 49.7004 59.0811 49.3499 57.6875C48.3836 53.8567 52.7321 50.76 52.9941 46.7898C53.1847 43.8836 51.1601 41.4532 49.2989 39.4103C47.4376 37.3674 45.4471 34.8792 45.7261 31.9797C45.8894 30.2802 46.8217 28.8151 47.5567 27.3161C48.2951 25.8171 48.8599 23.9985 48.2543 22.4281C47.8391 21.3506 46.9476 20.6028 46.3998 19.6C45.2565 17.5096 45.8044 14.8073 45.3144 12.4211C44.7938 9.88529 43.1197 7.839 41.3061 6.20741C36.9234 2.2678 31.3295 0.0413602 25.7083 0.000570412C20.0837 -0.0402193 14.466 2.10804 10.0425 5.98987L10.0902 5.94908C7.36125 7.13878 4.49282 8.43385 2.68942 11.0172C1.2535 13.0737 0.661441 15.8406 1.11399 18.4036C1.56314 20.9665 3.0467 23.2779 5.07467 24.5764C3.90757 22.197 3.83271 19.1854 4.88413 16.738C4.92496 19.046 5.40133 21.3132 5.61569 23.6076C5.83006 25.9021 5.7552 28.3291 4.77184 30.3617C4.24783 31.4495 3.46182 32.7242 4.03006 33.7813C4.37033 34.4101 5.06106 34.6481 5.63951 35.0016C6.21796 35.3551 6.76579 36.0825 6.50379 36.7555C6.42893 36.9459 6.29282 37.1091 6.24859 37.313C6.05804 38.1866 7.5484 38.5129 7.5552 39.4103C7.17411 39.3185 6.92571 39.9235 7.06522 40.3314C7.20473 40.7393 7.54499 41.0147 7.76617 41.375C8.46371 42.4933 7.92949 44.1589 8.5828 45.3112C9.3484 46.6573 11.128 46.4601 12.5163 46.0998C13.9454 45.7293 15.3473 45.4574 16.2217 45.1378C17.9163 44.5158 18.3178 44.1283 19.0051 44.3764C19.7503 44.645 20.1246 45.4166 20.8459 46.9462C21.6932 48.7511 22.1185 49.6519 21.9518 50.5459C21.6592 52.1027 19.8013 53.2924 17.4433 53.5473L17.2868 53.3264C15.9291 53.6017 14.5715 53.877 13.2138 54.1524C13.5813 55.8554 13.7854 58.2178 12.7408 60.4986C11.5805 63.0309 9.66825 63.7482 7.83762 65.7333C6.22137 67.4872 4.50303 70.4139 4.13554 75.55H55.2059C54.3212 71.3181 53.3446 69.5845 52.5416 68.8469Z" fill="white"/>
<path d="M52.5416 68.8469C52.3885 68.7075 51.9291 68.3234 51.8032 67.6946C51.6263 66.8244 52.3068 66.0596 52.5756 65.22C53.0146 63.8569 52.3306 62.3681 51.5174 61.2464C50.7042 60.1247 49.7004 59.0811 49.3499 57.6875C48.3836 53.8567 52.7321 50.76 52.9941 46.7898C53.1847 43.8836 51.1601 41.4532 49.2989 39.4103C47.4376 37.3674 45.4471 34.8792 45.7261 31.9797C45.8894 30.2802 46.8217 28.8151 47.5567 27.3161C48.2951 25.8171 48.8599 23.9985 48.2543 22.4281C47.8391 21.3506 46.9476 20.6028 46.3998 19.6C45.2565 17.5096 45.8044 14.8073 45.3144 12.4211C44.7938 9.88529 43.1197 7.839 41.3061 6.20741C36.9234 2.2678 31.3295 0.0413602 25.7083 0.000570412C20.0837 -0.0402193 14.466 2.10804 10.0425 5.98987L10.0902 5.94908C7.36125 7.13878 4.49282 8.43385 2.68942 11.0172C1.2535 13.0737 0.661441 15.8406 1.11399 18.4036C1.56314 20.9665 3.0467 23.2779 5.07467 24.5764C3.90757 22.197 3.83271 19.1854 4.88413 16.738C4.92496 19.046 5.40133 21.3132 5.61569 23.6076C5.83006 25.9021 5.7552 28.3291 4.77184 30.3617C4.24783 31.4495 3.46182 32.7242 4.03006 33.7813C4.37033 34.4101 5.06106 34.6481 5.63951 35.0016C6.21796 35.3551 6.76579 36.0825 6.50379 36.7555C6.42893 36.9459 6.29282 37.1091 6.24859 37.313C6.05804 38.1866 7.5484 38.5129 7.5552 39.4103C7.17411 39.3185 6.92571 39.9235 7.06522 40.3314C7.20473 40.7393 7.54499 41.0147 7.76617 41.375C8.46371 42.4933 7.92949 44.1589 8.5828 45.3112C9.3484 46.6573 11.128 46.4601 12.5163 46.0998C13.9454 45.7293 15.3473 45.4574 16.2217 45.1378C17.9163 44.5158 18.3178 44.1283 19.0051 44.3764C19.7503 44.645 20.1246 45.4166 20.8459 46.9462C21.6932 48.7511 22.1185 49.6519 21.9518 50.5459C21.6592 52.1027 19.8013 53.2924 17.4433 53.5473L17.2868 53.3264C15.9291 53.6017 14.5715 53.877 13.2138 54.1524C13.5813 55.8554 13.7854 58.2178 12.7408 60.4986C11.5805 63.0309 9.66825 63.7482 7.83762 65.7333C6.22137 67.4872 4.50303 70.4139 4.13554 75.55H55.2059C54.3212 71.3181 53.3446 69.5845 52.5416 68.8469Z" fill="url(#paint0_radial_758_5375)" fill-opacity="0.8"/>
<path d="M52.5416 68.8469C52.3885 68.7075 51.9291 68.3234 51.8032 67.6946C51.6263 66.8244 52.3068 66.0596 52.5756 65.22C53.0146 63.8569 52.3306 62.3681 51.5174 61.2464C50.7042 60.1247 49.7004 59.0811 49.3499 57.6875C48.3836 53.8567 52.7321 50.76 52.9941 46.7898C53.1847 43.8836 51.1601 41.4532 49.2989 39.4103C47.4376 37.3674 45.4471 34.8792 45.7261 31.9797C45.8894 30.2802 46.8217 28.8151 47.5567 27.3161C48.2951 25.8171 48.8599 23.9985 48.2543 22.4281C47.8391 21.3506 46.9476 20.6028 46.3998 19.6C45.2565 17.5096 45.8044 14.8073 45.3144 12.4211C44.7938 9.88529 43.1197 7.839 41.3061 6.20741C36.9234 2.2678 31.3295 0.0413602 25.7083 0.000570412C20.0837 -0.0402193 14.466 2.10804 10.0425 5.98987L10.0902 5.94908C7.36125 7.13878 4.49282 8.43385 2.68942 11.0172C1.2535 13.0737 0.661441 15.8406 1.11399 18.4036C1.56314 20.9665 3.0467 23.2779 5.07467 24.5764C3.90757 22.197 3.83271 19.1854 4.88413 16.738C4.92496 19.046 5.40133 21.3132 5.61569 23.6076C5.83006 25.9021 5.7552 28.3291 4.77184 30.3617C4.24783 31.4495 3.46182 32.7242 4.03006 33.7813C4.37033 34.4101 5.06106 34.6481 5.63951 35.0016C6.21796 35.3551 6.76579 36.0825 6.50379 36.7555C6.42893 36.9459 6.29282 37.1091 6.24859 37.313C6.05804 38.1866 7.5484 38.5129 7.5552 39.4103C7.17411 39.3185 6.92571 39.9235 7.06522 40.3314C7.20473 40.7393 7.54499 41.0147 7.76617 41.375C8.46371 42.4933 7.92949 44.1589 8.5828 45.3112C9.3484 46.6573 11.128 46.4601 12.5163 46.0998C13.9454 45.7293 15.3473 45.4574 16.2217 45.1378C17.9163 44.5158 18.3178 44.1283 19.0051 44.3764C19.7503 44.645 20.1246 45.4166 20.8459 46.9462C21.6932 48.7511 22.1185 49.6519 21.9518 50.5459C21.6592 52.1027 19.8013 53.2924 17.4433 53.5473L17.2868 53.3264C15.9291 53.6017 14.5715 53.877 13.2138 54.1524C13.5813 55.8554 13.7854 58.2178 12.7408 60.4986C11.5805 63.0309 9.66825 63.7482 7.83762 65.7333C6.22137 67.4872 4.50303 70.4139 4.13554 75.55H55.2059C54.3212 71.3181 53.3446 69.5845 52.5416 68.8469Z" fill="url(#paint1_radial_758_5375)" fill-opacity="0.8"/>
<path d="M52.5416 68.8469C52.3885 68.7075 51.9291 68.3234 51.8032 67.6946C51.6263 66.8244 52.3068 66.0596 52.5756 65.22C53.0146 63.8569 52.3306 62.3681 51.5174 61.2464C50.7042 60.1247 49.7004 59.0811 49.3499 57.6875C48.3836 53.8567 52.7321 50.76 52.9941 46.7898C53.1847 43.8836 51.1601 41.4532 49.2989 39.4103C47.4376 37.3674 45.4471 34.8792 45.7261 31.9797C45.8894 30.2802 46.8217 28.8151 47.5567 27.3161C48.2951 25.8171 48.8599 23.9985 48.2543 22.4281C47.8391 21.3506 46.9476 20.6028 46.3998 19.6C45.2565 17.5096 45.8044 14.8073 45.3144 12.4211C44.7938 9.88529 43.1197 7.839 41.3061 6.20741C36.9234 2.2678 31.3295 0.0413602 25.7083 0.000570412C20.0837 -0.0402193 14.466 2.10804 10.0425 5.98987L10.0902 5.94908C7.36125 7.13878 4.49282 8.43385 2.68942 11.0172C1.2535 13.0737 0.661441 15.8406 1.11399 18.4036C1.56314 20.9665 3.0467 23.2779 5.07467 24.5764C3.90757 22.197 3.83271 19.1854 4.88413 16.738C4.92496 19.046 5.40133 21.3132 5.61569 23.6076C5.83006 25.9021 5.7552 28.3291 4.77184 30.3617C4.24783 31.4495 3.46182 32.7242 4.03006 33.7813C4.37033 34.4101 5.06106 34.6481 5.63951 35.0016C6.21796 35.3551 6.76579 36.0825 6.50379 36.7555C6.42893 36.9459 6.29282 37.1091 6.24859 37.313C6.05804 38.1866 7.5484 38.5129 7.5552 39.4103C7.17411 39.3185 6.92571 39.9235 7.06522 40.3314C7.20473 40.7393 7.54499 41.0147 7.76617 41.375C8.46371 42.4933 7.92949 44.1589 8.5828 45.3112C9.3484 46.6573 11.128 46.4601 12.5163 46.0998C13.9454 45.7293 15.3473 45.4574 16.2217 45.1378C17.9163 44.5158 18.3178 44.1283 19.0051 44.3764C19.7503 44.645 20.1246 45.4166 20.8459 46.9462C21.6932 48.7511 22.1185 49.6519 21.9518 50.5459C21.6592 52.1027 19.8013 53.2924 17.4433 53.5473L17.2868 53.3264C15.9291 53.6017 14.5715 53.877 13.2138 54.1524C13.5813 55.8554 13.7854 58.2178 12.7408 60.4986C11.5805 63.0309 9.66825 63.7482 7.83762 65.7333C6.22137 67.4872 4.50303 70.4139 4.13554 75.55H55.2059C54.3212 71.3181 53.3446 69.5845 52.5416 68.8469Z" fill="url(#paint2_radial_758_5375)" fill-opacity="0.8"/>
<path d="M52.5416 68.8469C52.3885 68.7075 51.9291 68.3234 51.8032 67.6946C51.6263 66.8244 52.3068 66.0596 52.5756 65.22C53.0146 63.8569 52.3306 62.3681 51.5174 61.2464C50.7042 60.1247 49.7004 59.0811 49.3499 57.6875C48.3836 53.8567 52.7321 50.76 52.9941 46.7898C53.1847 43.8836 51.1601 41.4532 49.2989 39.4103C47.4376 37.3674 45.4471 34.8792 45.7261 31.9797C45.8894 30.2802 46.8217 28.8151 47.5567 27.3161C48.2951 25.8171 48.8599 23.9985 48.2543 22.4281C47.8391 21.3506 46.9476 20.6028 46.3998 19.6C45.2565 17.5096 45.8044 14.8073 45.3144 12.4211C44.7938 9.88529 43.1197 7.839 41.3061 6.20741C36.9234 2.2678 31.3295 0.0413602 25.7083 0.000570412C20.0837 -0.0402193 14.466 2.10804 10.0425 5.98987L10.0902 5.94908C7.36125 7.13878 4.49282 8.43385 2.68942 11.0172C1.2535 13.0737 0.661441 15.8406 1.11399 18.4036C1.56314 20.9665 3.0467 23.2779 5.07467 24.5764C3.90757 22.197 3.83271 19.1854 4.88413 16.738C4.92496 19.046 5.40133 21.3132 5.61569 23.6076C5.83006 25.9021 5.7552 28.3291 4.77184 30.3617C4.24783 31.4495 3.46182 32.7242 4.03006 33.7813C4.37033 34.4101 5.06106 34.6481 5.63951 35.0016C6.21796 35.3551 6.76579 36.0825 6.50379 36.7555C6.42893 36.9459 6.29282 37.1091 6.24859 37.313C6.05804 38.1866 7.5484 38.5129 7.5552 39.4103C7.17411 39.3185 6.92571 39.9235 7.06522 40.3314C7.20473 40.7393 7.54499 41.0147 7.76617 41.375C8.46371 42.4933 7.92949 44.1589 8.5828 45.3112C9.3484 46.6573 11.128 46.4601 12.5163 46.0998C13.9454 45.7293 15.3473 45.4574 16.2217 45.1378C17.9163 44.5158 18.3178 44.1283 19.0051 44.3764C19.7503 44.645 20.1246 45.4166 20.8459 46.9462C21.6932 48.7511 22.1185 49.6519 21.9518 50.5459C21.6592 52.1027 19.8013 53.2924 17.4433 53.5473L17.2868 53.3264C15.9291 53.6017 14.5715 53.877 13.2138 54.1524C13.5813 55.8554 13.7854 58.2178 12.7408 60.4986C11.5805 63.0309 9.66825 63.7482 7.83762 65.7333C6.22137 67.4872 4.50303 70.4139 4.13554 75.55H55.2059C54.3212 71.3181 53.3446 69.5845 52.5416 68.8469Z" fill="url(#paint3_radial_758_5375)" fill-opacity="0.8"/>
</g>
<defs>
<filter id="filter0_i_758_5375" x="0.964844" y="0" width="55.2412" height="76.55" filterUnits="userSpaceOnUse" color-interpolation-filters="sRGB">
<feFlood flood-opacity="0" result="BackgroundImageFix"/>
<feBlend mode="normal" in="SourceGraphic" in2="BackgroundImageFix" result="shape"/>
<feColorMatrix in="SourceAlpha" type="matrix" values="0 0 0 0 0 0 0 0 0 0 0 0 0 0 0 0 0 0 127 0" result="hardAlpha"/>
<feOffset dx="1" dy="1"/>
<feGaussianBlur stdDeviation="2.5"/>
<feComposite in2="hardAlpha" operator="arithmetic" k2="-1" k3="1"/>
<feColorMatrix type="matrix" values="0 0 0 0 0 0 0 0 0 0 0 0 0 0 0 0 0 0 0.5 0"/>
<feBlend mode="normal" in2="shape" result="effect1_innerShadow_758_5375"/>
</filter>
<radialGradient id="paint0_radial_758_5375" cx="0" cy="0" r="1" gradientUnits="userSpaceOnUse" gradientTransform="translate(37.783 37.775) rotate(54.1329) scale(29.7366 28.7973)">
<stop stop-color="#FFA724" stop-opacity="0.84"/>
<stop offset="1" stop-color="#FFA724" stop-opacity="0"/>
</radialGradient>
<radialGradient id="paint1_radial_758_5375" cx="0" cy="0" r="1" gradientUnits="userSpaceOnUse" gradientTransform="translate(7.4538 37.9357) rotate(-11.4967) scale(54.8422 53.3594)">
<stop stop-color="#FFC700" stop-opacity="0.74"/>
<stop offset="1" stop-color="#FFC700" stop-opacity="0"/>
</radialGradient>
<radialGradient id="paint2_radial_758_5375" cx="0" cy="0" r="1" gradientUnits="userSpaceOnUse" gradientTransform="translate(52.0829 71.4794) rotate(-179.833) scale(55.8849 39.3725)">
<stop stop-color="#FF1F00" stop-opacity="0.87"/>
<stop offset="1" stop-color="#FF1F00" stop-opacity="0"/>
</radialGradient>
<radialGradient id="paint3_radial_758_5375" cx="0" cy="0" r="1" gradientUnits="userSpaceOnUse" gradientTransform="translate(23.9258 3.53638) rotate(48.1249) scale(42.9211 40.9608)">
<stop stop-color="#2B880B" stop-opacity="0.94"/>
<stop offset="1" stop-color="#2B880B" stop-opacity="0"/>
</radialGradient>
</defs>
</svg>
