<svg width="55" height="76" viewBox="0 0 55 76" fill="none" xmlns="http://www.w3.org/2000/svg">
<g filter="url(#filter0_i_758_5374)">
<path d="M52.3004 68.8469C52.1473 68.7075 51.6879 68.3234 51.562 67.6946C51.3851 66.8244 52.0656 66.0596 52.3344 65.22C52.7733 63.8569 52.0894 62.3681 51.2762 61.2464C50.463 60.1247 49.4592 59.0811 49.1087 57.6875C48.1423 53.8567 52.4909 50.76 52.7529 46.7898C52.9435 43.8836 50.9189 41.4532 49.0577 39.4103C47.1964 37.3674 45.2059 34.8792 45.4849 31.9797C45.6482 30.2802 46.5805 28.8151 47.3155 27.3161C48.0539 25.8171 48.6187 23.9985 48.013 22.4281C47.5979 21.3506 46.7064 20.6028 46.1586 19.6C45.0153 17.5096 45.5631 14.8073 45.0732 12.4211C44.5526 9.88529 42.8785 7.839 41.0648 6.20741C36.6822 2.2678 31.0883 0.0413602 25.4671 0.000570412C19.8425 -0.0402193 14.2248 2.10804 9.80133 5.98987L9.84896 5.94908C7.12004 7.13878 4.25161 8.43385 2.44821 11.0172C1.01229 13.0737 0.42023 15.8406 0.872782 18.4036C1.32193 20.9665 2.80549 23.2779 4.83346 24.5764C3.66636 22.197 3.5915 19.1854 4.64291 16.738C4.68375 19.046 5.16012 21.3132 5.37448 23.6076C5.58885 25.9021 5.51399 28.3291 4.53063 30.3617C4.00662 31.4495 3.22061 32.7242 3.78885 33.7813C4.12912 34.4101 4.81985 34.6481 5.3983 35.0016C5.97675 35.3551 6.52458 36.0825 6.26257 36.7555C6.18772 36.9459 6.05161 37.1091 6.00738 37.313C5.81683 38.1866 7.30719 38.5129 7.31399 39.4103C6.9329 39.3185 6.6845 39.9235 6.82401 40.3314C6.96352 40.7393 7.30378 41.0147 7.52496 41.375C8.2225 42.4933 7.68828 44.1589 8.34159 45.3112C9.10719 46.6573 10.8868 46.4601 12.2751 46.0998C13.7042 45.7293 15.1061 45.4574 15.9805 45.1378C17.6751 44.5158 18.0766 44.1283 18.7639 44.3764C19.5091 44.645 19.8834 45.4166 20.6047 46.9462C21.452 48.7511 21.8773 49.6519 21.7106 50.5459C21.418 52.1027 19.5601 53.2924 17.2021 53.5473L17.0456 53.3264C15.6879 53.6017 14.3302 53.877 12.9726 54.1524C13.3401 55.8554 13.5442 58.2178 12.4996 60.4986C11.3393 63.0309 9.42704 63.7482 7.59641 65.7333C5.98015 67.4872 4.26182 70.4139 3.89433 75.55H54.9647C54.08 71.3181 53.1034 69.5845 52.3004 68.8469Z" fill="white"/>
<path d="M52.3004 68.8469C52.1473 68.7075 51.6879 68.3234 51.562 67.6946C51.3851 66.8244 52.0656 66.0596 52.3344 65.22C52.7733 63.8569 52.0894 62.3681 51.2762 61.2464C50.463 60.1247 49.4592 59.0811 49.1087 57.6875C48.1423 53.8567 52.4909 50.76 52.7529 46.7898C52.9435 43.8836 50.9189 41.4532 49.0577 39.4103C47.1964 37.3674 45.2059 34.8792 45.4849 31.9797C45.6482 30.2802 46.5805 28.8151 47.3155 27.3161C48.0539 25.8171 48.6187 23.9985 48.013 22.4281C47.5979 21.3506 46.7064 20.6028 46.1586 19.6C45.0153 17.5096 45.5631 14.8073 45.0732 12.4211C44.5526 9.88529 42.8785 7.839 41.0648 6.20741C36.6822 2.2678 31.0883 0.0413602 25.4671 0.000570412C19.8425 -0.0402193 14.2248 2.10804 9.80133 5.98987L9.84896 5.94908C7.12004 7.13878 4.25161 8.43385 2.44821 11.0172C1.01229 13.0737 0.42023 15.8406 0.872782 18.4036C1.32193 20.9665 2.80549 23.2779 4.83346 24.5764C3.66636 22.197 3.5915 19.1854 4.64291 16.738C4.68375 19.046 5.16012 21.3132 5.37448 23.6076C5.58885 25.9021 5.51399 28.3291 4.53063 30.3617C4.00662 31.4495 3.22061 32.7242 3.78885 33.7813C4.12912 34.4101 4.81985 34.6481 5.3983 35.0016C5.97675 35.3551 6.52458 36.0825 6.26257 36.7555C6.18772 36.9459 6.05161 37.1091 6.00738 37.313C5.81683 38.1866 7.30719 38.5129 7.31399 39.4103C6.9329 39.3185 6.6845 39.9235 6.82401 40.3314C6.96352 40.7393 7.30378 41.0147 7.52496 41.375C8.2225 42.4933 7.68828 44.1589 8.34159 45.3112C9.10719 46.6573 10.8868 46.4601 12.2751 46.0998C13.7042 45.7293 15.1061 45.4574 15.9805 45.1378C17.6751 44.5158 18.0766 44.1283 18.7639 44.3764C19.5091 44.645 19.8834 45.4166 20.6047 46.9462C21.452 48.7511 21.8773 49.6519 21.7106 50.5459C21.418 52.1027 19.5601 53.2924 17.2021 53.5473L17.0456 53.3264C15.6879 53.6017 14.3302 53.877 12.9726 54.1524C13.3401 55.8554 13.5442 58.2178 12.4996 60.4986C11.3393 63.0309 9.42704 63.7482 7.59641 65.7333C5.98015 67.4872 4.26182 70.4139 3.89433 75.55H54.9647C54.08 71.3181 53.1034 69.5845 52.3004 68.8469Z" fill="url(#paint0_radial_758_5374)"/>
<path d="M52.3004 68.8469C52.1473 68.7075 51.6879 68.3234 51.562 67.6946C51.3851 66.8244 52.0656 66.0596 52.3344 65.22C52.7733 63.8569 52.0894 62.3681 51.2762 61.2464C50.463 60.1247 49.4592 59.0811 49.1087 57.6875C48.1423 53.8567 52.4909 50.76 52.7529 46.7898C52.9435 43.8836 50.9189 41.4532 49.0577 39.4103C47.1964 37.3674 45.2059 34.8792 45.4849 31.9797C45.6482 30.2802 46.5805 28.8151 47.3155 27.3161C48.0539 25.8171 48.6187 23.9985 48.013 22.4281C47.5979 21.3506 46.7064 20.6028 46.1586 19.6C45.0153 17.5096 45.5631 14.8073 45.0732 12.4211C44.5526 9.88529 42.8785 7.839 41.0648 6.20741C36.6822 2.2678 31.0883 0.0413602 25.4671 0.000570412C19.8425 -0.0402193 14.2248 2.10804 9.80133 5.98987L9.84896 5.94908C7.12004 7.13878 4.25161 8.43385 2.44821 11.0172C1.01229 13.0737 0.42023 15.8406 0.872782 18.4036C1.32193 20.9665 2.80549 23.2779 4.83346 24.5764C3.66636 22.197 3.5915 19.1854 4.64291 16.738C4.68375 19.046 5.16012 21.3132 5.37448 23.6076C5.58885 25.9021 5.51399 28.3291 4.53063 30.3617C4.00662 31.4495 3.22061 32.7242 3.78885 33.7813C4.12912 34.4101 4.81985 34.6481 5.3983 35.0016C5.97675 35.3551 6.52458 36.0825 6.26257 36.7555C6.18772 36.9459 6.05161 37.1091 6.00738 37.313C5.81683 38.1866 7.30719 38.5129 7.31399 39.4103C6.9329 39.3185 6.6845 39.9235 6.82401 40.3314C6.96352 40.7393 7.30378 41.0147 7.52496 41.375C8.2225 42.4933 7.68828 44.1589 8.34159 45.3112C9.10719 46.6573 10.8868 46.4601 12.2751 46.0998C13.7042 45.7293 15.1061 45.4574 15.9805 45.1378C17.6751 44.5158 18.0766 44.1283 18.7639 44.3764C19.5091 44.645 19.8834 45.4166 20.6047 46.9462C21.452 48.7511 21.8773 49.6519 21.7106 50.5459C21.418 52.1027 19.5601 53.2924 17.2021 53.5473L17.0456 53.3264C15.6879 53.6017 14.3302 53.877 12.9726 54.1524C13.3401 55.8554 13.5442 58.2178 12.4996 60.4986C11.3393 63.0309 9.42704 63.7482 7.59641 65.7333C5.98015 67.4872 4.26182 70.4139 3.89433 75.55H54.9647C54.08 71.3181 53.1034 69.5845 52.3004 68.8469Z" fill="url(#paint1_radial_758_5374)"/>
<path d="M52.3004 68.8469C52.1473 68.7075 51.6879 68.3234 51.562 67.6946C51.3851 66.8244 52.0656 66.0596 52.3344 65.22C52.7733 63.8569 52.0894 62.3681 51.2762 61.2464C50.463 60.1247 49.4592 59.0811 49.1087 57.6875C48.1423 53.8567 52.4909 50.76 52.7529 46.7898C52.9435 43.8836 50.9189 41.4532 49.0577 39.4103C47.1964 37.3674 45.2059 34.8792 45.4849 31.9797C45.6482 30.2802 46.5805 28.8151 47.3155 27.3161C48.0539 25.8171 48.6187 23.9985 48.013 22.4281C47.5979 21.3506 46.7064 20.6028 46.1586 19.6C45.0153 17.5096 45.5631 14.8073 45.0732 12.4211C44.5526 9.88529 42.8785 7.839 41.0648 6.20741C36.6822 2.2678 31.0883 0.0413602 25.4671 0.000570412C19.8425 -0.0402193 14.2248 2.10804 9.80133 5.98987L9.84896 5.94908C7.12004 7.13878 4.25161 8.43385 2.44821 11.0172C1.01229 13.0737 0.42023 15.8406 0.872782 18.4036C1.32193 20.9665 2.80549 23.2779 4.83346 24.5764C3.66636 22.197 3.5915 19.1854 4.64291 16.738C4.68375 19.046 5.16012 21.3132 5.37448 23.6076C5.58885 25.9021 5.51399 28.3291 4.53063 30.3617C4.00662 31.4495 3.22061 32.7242 3.78885 33.7813C4.12912 34.4101 4.81985 34.6481 5.3983 35.0016C5.97675 35.3551 6.52458 36.0825 6.26257 36.7555C6.18772 36.9459 6.05161 37.1091 6.00738 37.313C5.81683 38.1866 7.30719 38.5129 7.31399 39.4103C6.9329 39.3185 6.6845 39.9235 6.82401 40.3314C6.96352 40.7393 7.30378 41.0147 7.52496 41.375C8.2225 42.4933 7.68828 44.1589 8.34159 45.3112C9.10719 46.6573 10.8868 46.4601 12.2751 46.0998C13.7042 45.7293 15.1061 45.4574 15.9805 45.1378C17.6751 44.5158 18.0766 44.1283 18.7639 44.3764C19.5091 44.645 19.8834 45.4166 20.6047 46.9462C21.452 48.7511 21.8773 49.6519 21.7106 50.5459C21.418 52.1027 19.5601 53.2924 17.2021 53.5473L17.0456 53.3264C15.6879 53.6017 14.3302 53.877 12.9726 54.1524C13.3401 55.8554 13.5442 58.2178 12.4996 60.4986C11.3393 63.0309 9.42704 63.7482 7.59641 65.7333C5.98015 67.4872 4.26182 70.4139 3.89433 75.55H54.9647C54.08 71.3181 53.1034 69.5845 52.3004 68.8469Z" fill="url(#paint2_radial_758_5374)"/>
<path d="M52.3004 68.8469C52.1473 68.7075 51.6879 68.3234 51.562 67.6946C51.3851 66.8244 52.0656 66.0596 52.3344 65.22C52.7733 63.8569 52.0894 62.3681 51.2762 61.2464C50.463 60.1247 49.4592 59.0811 49.1087 57.6875C48.1423 53.8567 52.4909 50.76 52.7529 46.7898C52.9435 43.8836 50.9189 41.4532 49.0577 39.4103C47.1964 37.3674 45.2059 34.8792 45.4849 31.9797C45.6482 30.2802 46.5805 28.8151 47.3155 27.3161C48.0539 25.8171 48.6187 23.9985 48.013 22.4281C47.5979 21.3506 46.7064 20.6028 46.1586 19.6C45.0153 17.5096 45.5631 14.8073 45.0732 12.4211C44.5526 9.88529 42.8785 7.839 41.0648 6.20741C36.6822 2.2678 31.0883 0.0413602 25.4671 0.000570412C19.8425 -0.0402193 14.2248 2.10804 9.80133 5.98987L9.84896 5.94908C7.12004 7.13878 4.25161 8.43385 2.44821 11.0172C1.01229 13.0737 0.42023 15.8406 0.872782 18.4036C1.32193 20.9665 2.80549 23.2779 4.83346 24.5764C3.66636 22.197 3.5915 19.1854 4.64291 16.738C4.68375 19.046 5.16012 21.3132 5.37448 23.6076C5.58885 25.9021 5.51399 28.3291 4.53063 30.3617C4.00662 31.4495 3.22061 32.7242 3.78885 33.7813C4.12912 34.4101 4.81985 34.6481 5.3983 35.0016C5.97675 35.3551 6.52458 36.0825 6.26257 36.7555C6.18772 36.9459 6.05161 37.1091 6.00738 37.313C5.81683 38.1866 7.30719 38.5129 7.31399 39.4103C6.9329 39.3185 6.6845 39.9235 6.82401 40.3314C6.96352 40.7393 7.30378 41.0147 7.52496 41.375C8.2225 42.4933 7.68828 44.1589 8.34159 45.3112C9.10719 46.6573 10.8868 46.4601 12.2751 46.0998C13.7042 45.7293 15.1061 45.4574 15.9805 45.1378C17.6751 44.5158 18.0766 44.1283 18.7639 44.3764C19.5091 44.645 19.8834 45.4166 20.6047 46.9462C21.452 48.7511 21.8773 49.6519 21.7106 50.5459C21.418 52.1027 19.5601 53.2924 17.2021 53.5473L17.0456 53.3264C15.6879 53.6017 14.3302 53.877 12.9726 54.1524C13.3401 55.8554 13.5442 58.2178 12.4996 60.4986C11.3393 63.0309 9.42704 63.7482 7.59641 65.7333C5.98015 67.4872 4.26182 70.4139 3.89433 75.55H54.9647C54.08 71.3181 53.1034 69.5845 52.3004 68.8469Z" fill="url(#paint3_radial_758_5374)" fill-opacity="0.6"/>
</g>
<defs>
<filter id="filter0_i_758_5374" x="0.723633" y="0" width="55.2412" height="76.55" filterUnits="userSpaceOnUse" color-interpolation-filters="sRGB">
<feFlood flood-opacity="0" result="BackgroundImageFix"/>
<feBlend mode="normal" in="SourceGraphic" in2="BackgroundImageFix" result="shape"/>
<feColorMatrix in="SourceAlpha" type="matrix" values="0 0 0 0 0 0 0 0 0 0 0 0 0 0 0 0 0 0 127 0" result="hardAlpha"/>
<feOffset dx="1" dy="1"/>
<feGaussianBlur stdDeviation="2.5"/>
<feComposite in2="hardAlpha" operator="arithmetic" k2="-1" k3="1"/>
<feColorMatrix type="matrix" values="0 0 0 0 0 0 0 0 0 0 0 0 0 0 0 0 0 0 0.5 0"/>
<feBlend mode="normal" in2="shape" result="effect1_innerShadow_758_5374"/>
</filter>
<radialGradient id="paint0_radial_758_5374" cx="0" cy="0" r="1" gradientUnits="userSpaceOnUse" gradientTransform="translate(43.1991 25.3096) rotate(119.962) scale(58.038 40.1789)">
<stop stop-color="#90C849" stop-opacity="0.73"/>
<stop offset="1" stop-color="#94E230" stop-opacity="0"/>
</radialGradient>
<radialGradient id="paint1_radial_758_5374" cx="0" cy="0" r="1" gradientUnits="userSpaceOnUse" gradientTransform="translate(50.198 69.3627) rotate(-176.422) scale(49.571 34.9268)">
<stop stop-color="#FFD874"/>
<stop offset="1" stop-color="#FFD874" stop-opacity="0"/>
</radialGradient>
<radialGradient id="paint2_radial_758_5374" cx="0" cy="0" r="1" gradientUnits="userSpaceOnUse" gradientTransform="translate(11.5718 70.991) rotate(-82.5331) scale(59.4461 42.6658)">
<stop stop-color="#FF5A96" stop-opacity="0.61"/>
<stop offset="1" stop-color="#FF5A96" stop-opacity="0"/>
</radialGradient>
<radialGradient id="paint3_radial_758_5374" cx="0" cy="0" r="1" gradientUnits="userSpaceOnUse" gradientTransform="translate(12.0649 1.02542e-06) rotate(20.2103) scale(51.8446 41.61)">
<stop stop-color="#0038FF"/>
<stop offset="1" stop-color="#0038FF" stop-opacity="0"/>
</radialGradient>
</defs>
</svg>
