<svg width="50" height="76" viewBox="0 0 50 76" fill="none" xmlns="http://www.w3.org/2000/svg">
<g filter="url(#filter0_i_758_5365)">
<path d="M49.0658 18.0256C49.0575 17.3902 49.0079 16.6623 48.5112 16.2794C48.478 15.5598 48.4449 14.8403 48.4118 14.1208C48.2256 13.9988 48.0352 13.8767 47.8489 13.7505C48.002 12.4798 47.406 11.1501 46.3671 10.4306C45.8745 10.0897 45.2785 9.86674 44.9142 9.38705C44.4465 8.77272 44.4796 7.91854 44.2189 7.1906C43.1882 4.35035 38.6145 4.87212 36.9712 2.35166C36.7519 2.01504 36.5863 1.62793 36.2758 1.37967C35.8495 1.04305 35.2535 1.05146 34.7113 1.06408C32.2692 1.11458 29.8188 0.862111 27.4346 0.319309C25.9735 -0.0131045 24.1854 -0.353934 23.2044 0.790579C22.9064 0.668554 22.6125 0.550736 22.3145 0.428711C22.1614 0.719047 22.0082 1.00938 21.8592 1.29551C21.6274 1.22398 21.3915 1.15666 21.1597 1.08512C21.0645 1.5059 20.9693 1.92247 20.8741 2.34325L20.7085 2.85239C17.8649 3.71498 15.6132 5.88198 13.5106 8.01111C12.72 8.81479 11.9004 9.67739 11.6355 10.7798C11.4617 11.5036 11.5445 12.2652 11.3955 12.9973C11.1099 14.4153 9.98402 15.522 8.74227 16.2331C7.50053 16.9442 6.11806 17.3524 4.81836 17.9499C4.26786 18.2023 3.68838 18.5432 3.48142 19.1196C2.96817 20.5545 5.11224 22.0524 4.43342 23.4158C4.18508 23.9165 3.6056 24.211 3.45659 24.7496C3.22893 25.5743 4.13954 26.3023 4.16024 27.1565C3.80014 26.6936 3.0137 26.7693 2.6329 27.2154C2.2521 27.6614 2.22726 28.3388 2.42594 28.8943C2.57081 29.3024 2.8233 29.6895 2.8233 30.1271C2.8233 30.5311 2.60392 30.893 2.41352 31.2506C1.70159 32.5761 1.32907 34.2928 2.14862 35.551C2.62876 36.2873 3.43589 36.7333 4.2513 37.0447C5.52202 37.5286 6.87552 37.7516 8.18763 38.0967C9.50387 38.4417 10.8201 38.934 11.8259 39.8639C12.8317 40.7896 13.4692 42.2329 13.1463 43.571L13.1298 43.2175C13.1215 47.3622 13.4733 51.5068 14.1852 55.5841L14.0487 55.2307C13.5727 56.1564 12.6165 56.6992 11.8549 57.4019C10.965 58.2224 10.3234 59.2828 9.69841 60.3305C6.6934 65.3378 3.68838 70.3408 0.6875 75.348L0.931709 75.55H46.752L46.8058 75.4659C47.5757 73.7912 47.4308 71.8051 46.8514 70.0505C46.2677 68.2958 45.2868 66.7179 44.3803 65.1105C42.9275 62.5312 41.6567 59.8508 40.5806 57.0863C40.3322 56.4467 40.0632 55.7609 39.5044 55.3695C38.5855 54.7258 37.261 55.1255 36.2841 54.5827L36.2179 54.6753C35.1583 53.4929 34.0945 52.3021 33.2294 50.964C32.3644 49.6259 31.7021 48.1238 31.5241 46.5332L31.6317 46.7731C31.462 46.0031 31.7352 45.1867 32.1947 44.5514C32.6541 43.916 33.2874 43.4363 33.9207 42.9819C36.4538 41.1725 39.1939 39.6746 42.0706 38.5132C43.3621 37.213 44.2271 35.5089 45.0591 33.8468C45.7835 32.3951 46.5078 30.9435 47.0997 29.4287C47.5219 28.3388 47.8779 27.2154 48.4242 26.1845C48.6353 25.7847 48.8795 25.3934 49.0037 24.9516C49.1237 24.5182 49.1196 24.0638 49.1155 23.6135C49.0948 21.7495 49.0782 19.8812 49.0575 18.0172L49.0658 18.0256Z" fill="white"/>
<path d="M49.0658 18.0256C49.0575 17.3902 49.0079 16.6623 48.5112 16.2794C48.478 15.5598 48.4449 14.8403 48.4118 14.1208C48.2256 13.9988 48.0352 13.8767 47.8489 13.7505C48.002 12.4798 47.406 11.1501 46.3671 10.4306C45.8745 10.0897 45.2785 9.86674 44.9142 9.38705C44.4465 8.77272 44.4796 7.91854 44.2189 7.1906C43.1882 4.35035 38.6145 4.87212 36.9712 2.35166C36.7519 2.01504 36.5863 1.62793 36.2758 1.37967C35.8495 1.04305 35.2535 1.05146 34.7113 1.06408C32.2692 1.11458 29.8188 0.862111 27.4346 0.319309C25.9735 -0.0131045 24.1854 -0.353934 23.2044 0.790579C22.9064 0.668554 22.6125 0.550736 22.3145 0.428711C22.1614 0.719047 22.0082 1.00938 21.8592 1.29551C21.6274 1.22398 21.3915 1.15666 21.1597 1.08512C21.0645 1.5059 20.9693 1.92247 20.8741 2.34325L20.7085 2.85239C17.8649 3.71498 15.6132 5.88198 13.5106 8.01111C12.72 8.81479 11.9004 9.67739 11.6355 10.7798C11.4617 11.5036 11.5445 12.2652 11.3955 12.9973C11.1099 14.4153 9.98402 15.522 8.74227 16.2331C7.50053 16.9442 6.11806 17.3524 4.81836 17.9499C4.26786 18.2023 3.68838 18.5432 3.48142 19.1196C2.96817 20.5545 5.11224 22.0524 4.43342 23.4158C4.18508 23.9165 3.6056 24.211 3.45659 24.7496C3.22893 25.5743 4.13954 26.3023 4.16024 27.1565C3.80014 26.6936 3.0137 26.7693 2.6329 27.2154C2.2521 27.6614 2.22726 28.3388 2.42594 28.8943C2.57081 29.3024 2.8233 29.6895 2.8233 30.1271C2.8233 30.5311 2.60392 30.893 2.41352 31.2506C1.70159 32.5761 1.32907 34.2928 2.14862 35.551C2.62876 36.2873 3.43589 36.7333 4.2513 37.0447C5.52202 37.5286 6.87552 37.7516 8.18763 38.0967C9.50387 38.4417 10.8201 38.934 11.8259 39.8639C12.8317 40.7896 13.4692 42.2329 13.1463 43.571L13.1298 43.2175C13.1215 47.3622 13.4733 51.5068 14.1852 55.5841L14.0487 55.2307C13.5727 56.1564 12.6165 56.6992 11.8549 57.4019C10.965 58.2224 10.3234 59.2828 9.69841 60.3305C6.6934 65.3378 3.68838 70.3408 0.6875 75.348L0.931709 75.55H46.752L46.8058 75.4659C47.5757 73.7912 47.4308 71.8051 46.8514 70.0505C46.2677 68.2958 45.2868 66.7179 44.3803 65.1105C42.9275 62.5312 41.6567 59.8508 40.5806 57.0863C40.3322 56.4467 40.0632 55.7609 39.5044 55.3695C38.5855 54.7258 37.261 55.1255 36.2841 54.5827L36.2179 54.6753C35.1583 53.4929 34.0945 52.3021 33.2294 50.964C32.3644 49.6259 31.7021 48.1238 31.5241 46.5332L31.6317 46.7731C31.462 46.0031 31.7352 45.1867 32.1947 44.5514C32.6541 43.916 33.2874 43.4363 33.9207 42.9819C36.4538 41.1725 39.1939 39.6746 42.0706 38.5132C43.3621 37.213 44.2271 35.5089 45.0591 33.8468C45.7835 32.3951 46.5078 30.9435 47.0997 29.4287C47.5219 28.3388 47.8779 27.2154 48.4242 26.1845C48.6353 25.7847 48.8795 25.3934 49.0037 24.9516C49.1237 24.5182 49.1196 24.0638 49.1155 23.6135C49.0948 21.7495 49.0782 19.8812 49.0575 18.0172L49.0658 18.0256Z" fill="url(#paint0_radial_758_5365)" fill-opacity="0.8"/>
<path d="M49.0658 18.0256C49.0575 17.3902 49.0079 16.6623 48.5112 16.2794C48.478 15.5598 48.4449 14.8403 48.4118 14.1208C48.2256 13.9988 48.0352 13.8767 47.8489 13.7505C48.002 12.4798 47.406 11.1501 46.3671 10.4306C45.8745 10.0897 45.2785 9.86674 44.9142 9.38705C44.4465 8.77272 44.4796 7.91854 44.2189 7.1906C43.1882 4.35035 38.6145 4.87212 36.9712 2.35166C36.7519 2.01504 36.5863 1.62793 36.2758 1.37967C35.8495 1.04305 35.2535 1.05146 34.7113 1.06408C32.2692 1.11458 29.8188 0.862111 27.4346 0.319309C25.9735 -0.0131045 24.1854 -0.353934 23.2044 0.790579C22.9064 0.668554 22.6125 0.550736 22.3145 0.428711C22.1614 0.719047 22.0082 1.00938 21.8592 1.29551C21.6274 1.22398 21.3915 1.15666 21.1597 1.08512C21.0645 1.5059 20.9693 1.92247 20.8741 2.34325L20.7085 2.85239C17.8649 3.71498 15.6132 5.88198 13.5106 8.01111C12.72 8.81479 11.9004 9.67739 11.6355 10.7798C11.4617 11.5036 11.5445 12.2652 11.3955 12.9973C11.1099 14.4153 9.98402 15.522 8.74227 16.2331C7.50053 16.9442 6.11806 17.3524 4.81836 17.9499C4.26786 18.2023 3.68838 18.5432 3.48142 19.1196C2.96817 20.5545 5.11224 22.0524 4.43342 23.4158C4.18508 23.9165 3.6056 24.211 3.45659 24.7496C3.22893 25.5743 4.13954 26.3023 4.16024 27.1565C3.80014 26.6936 3.0137 26.7693 2.6329 27.2154C2.2521 27.6614 2.22726 28.3388 2.42594 28.8943C2.57081 29.3024 2.8233 29.6895 2.8233 30.1271C2.8233 30.5311 2.60392 30.893 2.41352 31.2506C1.70159 32.5761 1.32907 34.2928 2.14862 35.551C2.62876 36.2873 3.43589 36.7333 4.2513 37.0447C5.52202 37.5286 6.87552 37.7516 8.18763 38.0967C9.50387 38.4417 10.8201 38.934 11.8259 39.8639C12.8317 40.7896 13.4692 42.2329 13.1463 43.571L13.1298 43.2175C13.1215 47.3622 13.4733 51.5068 14.1852 55.5841L14.0487 55.2307C13.5727 56.1564 12.6165 56.6992 11.8549 57.4019C10.965 58.2224 10.3234 59.2828 9.69841 60.3305C6.6934 65.3378 3.68838 70.3408 0.6875 75.348L0.931709 75.55H46.752L46.8058 75.4659C47.5757 73.7912 47.4308 71.8051 46.8514 70.0505C46.2677 68.2958 45.2868 66.7179 44.3803 65.1105C42.9275 62.5312 41.6567 59.8508 40.5806 57.0863C40.3322 56.4467 40.0632 55.7609 39.5044 55.3695C38.5855 54.7258 37.261 55.1255 36.2841 54.5827L36.2179 54.6753C35.1583 53.4929 34.0945 52.3021 33.2294 50.964C32.3644 49.6259 31.7021 48.1238 31.5241 46.5332L31.6317 46.7731C31.462 46.0031 31.7352 45.1867 32.1947 44.5514C32.6541 43.916 33.2874 43.4363 33.9207 42.9819C36.4538 41.1725 39.1939 39.6746 42.0706 38.5132C43.3621 37.213 44.2271 35.5089 45.0591 33.8468C45.7835 32.3951 46.5078 30.9435 47.0997 29.4287C47.5219 28.3388 47.8779 27.2154 48.4242 26.1845C48.6353 25.7847 48.8795 25.3934 49.0037 24.9516C49.1237 24.5182 49.1196 24.0638 49.1155 23.6135C49.0948 21.7495 49.0782 19.8812 49.0575 18.0172L49.0658 18.0256Z" fill="url(#paint1_radial_758_5365)" fill-opacity="0.8"/>
<path d="M49.0658 18.0256C49.0575 17.3902 49.0079 16.6623 48.5112 16.2794C48.478 15.5598 48.4449 14.8403 48.4118 14.1208C48.2256 13.9988 48.0352 13.8767 47.8489 13.7505C48.002 12.4798 47.406 11.1501 46.3671 10.4306C45.8745 10.0897 45.2785 9.86674 44.9142 9.38705C44.4465 8.77272 44.4796 7.91854 44.2189 7.1906C43.1882 4.35035 38.6145 4.87212 36.9712 2.35166C36.7519 2.01504 36.5863 1.62793 36.2758 1.37967C35.8495 1.04305 35.2535 1.05146 34.7113 1.06408C32.2692 1.11458 29.8188 0.862111 27.4346 0.319309C25.9735 -0.0131045 24.1854 -0.353934 23.2044 0.790579C22.9064 0.668554 22.6125 0.550736 22.3145 0.428711C22.1614 0.719047 22.0082 1.00938 21.8592 1.29551C21.6274 1.22398 21.3915 1.15666 21.1597 1.08512C21.0645 1.5059 20.9693 1.92247 20.8741 2.34325L20.7085 2.85239C17.8649 3.71498 15.6132 5.88198 13.5106 8.01111C12.72 8.81479 11.9004 9.67739 11.6355 10.7798C11.4617 11.5036 11.5445 12.2652 11.3955 12.9973C11.1099 14.4153 9.98402 15.522 8.74227 16.2331C7.50053 16.9442 6.11806 17.3524 4.81836 17.9499C4.26786 18.2023 3.68838 18.5432 3.48142 19.1196C2.96817 20.5545 5.11224 22.0524 4.43342 23.4158C4.18508 23.9165 3.6056 24.211 3.45659 24.7496C3.22893 25.5743 4.13954 26.3023 4.16024 27.1565C3.80014 26.6936 3.0137 26.7693 2.6329 27.2154C2.2521 27.6614 2.22726 28.3388 2.42594 28.8943C2.57081 29.3024 2.8233 29.6895 2.8233 30.1271C2.8233 30.5311 2.60392 30.893 2.41352 31.2506C1.70159 32.5761 1.32907 34.2928 2.14862 35.551C2.62876 36.2873 3.43589 36.7333 4.2513 37.0447C5.52202 37.5286 6.87552 37.7516 8.18763 38.0967C9.50387 38.4417 10.8201 38.934 11.8259 39.8639C12.8317 40.7896 13.4692 42.2329 13.1463 43.571L13.1298 43.2175C13.1215 47.3622 13.4733 51.5068 14.1852 55.5841L14.0487 55.2307C13.5727 56.1564 12.6165 56.6992 11.8549 57.4019C10.965 58.2224 10.3234 59.2828 9.69841 60.3305C6.6934 65.3378 3.68838 70.3408 0.6875 75.348L0.931709 75.55H46.752L46.8058 75.4659C47.5757 73.7912 47.4308 71.8051 46.8514 70.0505C46.2677 68.2958 45.2868 66.7179 44.3803 65.1105C42.9275 62.5312 41.6567 59.8508 40.5806 57.0863C40.3322 56.4467 40.0632 55.7609 39.5044 55.3695C38.5855 54.7258 37.261 55.1255 36.2841 54.5827L36.2179 54.6753C35.1583 53.4929 34.0945 52.3021 33.2294 50.964C32.3644 49.6259 31.7021 48.1238 31.5241 46.5332L31.6317 46.7731C31.462 46.0031 31.7352 45.1867 32.1947 44.5514C32.6541 43.916 33.2874 43.4363 33.9207 42.9819C36.4538 41.1725 39.1939 39.6746 42.0706 38.5132C43.3621 37.213 44.2271 35.5089 45.0591 33.8468C45.7835 32.3951 46.5078 30.9435 47.0997 29.4287C47.5219 28.3388 47.8779 27.2154 48.4242 26.1845C48.6353 25.7847 48.8795 25.3934 49.0037 24.9516C49.1237 24.5182 49.1196 24.0638 49.1155 23.6135C49.0948 21.7495 49.0782 19.8812 49.0575 18.0172L49.0658 18.0256Z" fill="url(#paint2_radial_758_5365)" fill-opacity="0.8"/>
<path d="M49.0658 18.0256C49.0575 17.3902 49.0079 16.6623 48.5112 16.2794C48.478 15.5598 48.4449 14.8403 48.4118 14.1208C48.2256 13.9988 48.0352 13.8767 47.8489 13.7505C48.002 12.4798 47.406 11.1501 46.3671 10.4306C45.8745 10.0897 45.2785 9.86674 44.9142 9.38705C44.4465 8.77272 44.4796 7.91854 44.2189 7.1906C43.1882 4.35035 38.6145 4.87212 36.9712 2.35166C36.7519 2.01504 36.5863 1.62793 36.2758 1.37967C35.8495 1.04305 35.2535 1.05146 34.7113 1.06408C32.2692 1.11458 29.8188 0.862111 27.4346 0.319309C25.9735 -0.0131045 24.1854 -0.353934 23.2044 0.790579C22.9064 0.668554 22.6125 0.550736 22.3145 0.428711C22.1614 0.719047 22.0082 1.00938 21.8592 1.29551C21.6274 1.22398 21.3915 1.15666 21.1597 1.08512C21.0645 1.5059 20.9693 1.92247 20.8741 2.34325L20.7085 2.85239C17.8649 3.71498 15.6132 5.88198 13.5106 8.01111C12.72 8.81479 11.9004 9.67739 11.6355 10.7798C11.4617 11.5036 11.5445 12.2652 11.3955 12.9973C11.1099 14.4153 9.98402 15.522 8.74227 16.2331C7.50053 16.9442 6.11806 17.3524 4.81836 17.9499C4.26786 18.2023 3.68838 18.5432 3.48142 19.1196C2.96817 20.5545 5.11224 22.0524 4.43342 23.4158C4.18508 23.9165 3.6056 24.211 3.45659 24.7496C3.22893 25.5743 4.13954 26.3023 4.16024 27.1565C3.80014 26.6936 3.0137 26.7693 2.6329 27.2154C2.2521 27.6614 2.22726 28.3388 2.42594 28.8943C2.57081 29.3024 2.8233 29.6895 2.8233 30.1271C2.8233 30.5311 2.60392 30.893 2.41352 31.2506C1.70159 32.5761 1.32907 34.2928 2.14862 35.551C2.62876 36.2873 3.43589 36.7333 4.2513 37.0447C5.52202 37.5286 6.87552 37.7516 8.18763 38.0967C9.50387 38.4417 10.8201 38.934 11.8259 39.8639C12.8317 40.7896 13.4692 42.2329 13.1463 43.571L13.1298 43.2175C13.1215 47.3622 13.4733 51.5068 14.1852 55.5841L14.0487 55.2307C13.5727 56.1564 12.6165 56.6992 11.8549 57.4019C10.965 58.2224 10.3234 59.2828 9.69841 60.3305C6.6934 65.3378 3.68838 70.3408 0.6875 75.348L0.931709 75.55H46.752L46.8058 75.4659C47.5757 73.7912 47.4308 71.8051 46.8514 70.0505C46.2677 68.2958 45.2868 66.7179 44.3803 65.1105C42.9275 62.5312 41.6567 59.8508 40.5806 57.0863C40.3322 56.4467 40.0632 55.7609 39.5044 55.3695C38.5855 54.7258 37.261 55.1255 36.2841 54.5827L36.2179 54.6753C35.1583 53.4929 34.0945 52.3021 33.2294 50.964C32.3644 49.6259 31.7021 48.1238 31.5241 46.5332L31.6317 46.7731C31.462 46.0031 31.7352 45.1867 32.1947 44.5514C32.6541 43.916 33.2874 43.4363 33.9207 42.9819C36.4538 41.1725 39.1939 39.6746 42.0706 38.5132C43.3621 37.213 44.2271 35.5089 45.0591 33.8468C45.7835 32.3951 46.5078 30.9435 47.0997 29.4287C47.5219 28.3388 47.8779 27.2154 48.4242 26.1845C48.6353 25.7847 48.8795 25.3934 49.0037 24.9516C49.1237 24.5182 49.1196 24.0638 49.1155 23.6135C49.0948 21.7495 49.0782 19.8812 49.0575 18.0172L49.0658 18.0256Z" fill="url(#paint3_radial_758_5365)" fill-opacity="0.8"/>
</g>
<defs>
<filter id="filter0_i_758_5365" x="0.6875" y="0" width="49.4297" height="76.55" filterUnits="userSpaceOnUse" color-interpolation-filters="sRGB">
<feFlood flood-opacity="0" result="BackgroundImageFix"/>
<feBlend mode="normal" in="SourceGraphic" in2="BackgroundImageFix" result="shape"/>
<feColorMatrix in="SourceAlpha" type="matrix" values="0 0 0 0 0 0 0 0 0 0 0 0 0 0 0 0 0 0 127 0" result="hardAlpha"/>
<feOffset dx="1" dy="1"/>
<feGaussianBlur stdDeviation="2.5"/>
<feComposite in2="hardAlpha" operator="arithmetic" k2="-1" k3="1"/>
<feColorMatrix type="matrix" values="0 0 0 0 0 0 0 0 0 0 0 0 0 0 0 0 0 0 0.5 0"/>
<feBlend mode="normal" in2="shape" result="effect1_innerShadow_758_5365"/>
</filter>
<radialGradient id="paint0_radial_758_5365" cx="0" cy="0" r="1" gradientUnits="userSpaceOnUse" gradientTransform="translate(33.5608 37.775) rotate(57.1561) scale(28.6827 26.6566)">
<stop stop-color="#FFA724" stop-opacity="0.84"/>
<stop offset="1" stop-color="#FFA724" stop-opacity="0"/>
</radialGradient>
<radialGradient id="paint1_radial_758_5365" cx="0" cy="0" r="1" gradientUnits="userSpaceOnUse" gradientTransform="translate(6.48121 37.9357) rotate(-12.8329) scale(49.2131 53.0918)">
<stop stop-color="#FFC700" stop-opacity="0.74"/>
<stop offset="1" stop-color="#FFC700" stop-opacity="0"/>
</radialGradient>
<radialGradient id="paint2_radial_758_5365" cx="0" cy="0" r="1" gradientUnits="userSpaceOnUse" gradientTransform="translate(46.3286 71.4794) rotate(-179.813) scale(49.8973 39.3725)">
<stop stop-color="#FF1F00" stop-opacity="0.87"/>
<stop offset="1" stop-color="#FF1F00" stop-opacity="0"/>
</radialGradient>
<radialGradient id="paint3_radial_758_5365" cx="0" cy="0" r="1" gradientUnits="userSpaceOnUse" gradientTransform="translate(21.1883 3.53638) rotate(51.3257) scale(40.9359 38.3457)">
<stop stop-color="#2B880B" stop-opacity="0.94"/>
<stop offset="1" stop-color="#2B880B" stop-opacity="0"/>
</radialGradient>
</defs>
</svg>
