<svg width="54" height="76" viewBox="0 0 54 76" fill="none" xmlns="http://www.w3.org/2000/svg">
<g filter="url(#filter0_i_766_5417)">
<path d="M46.303 56.3651C45.8518 55.9391 44.7767 54.8212 43.5793 53.1086C41.5512 50.219 40.7586 46.4943 41.4332 43.031C39.8521 43.4318 38.2668 43.8283 36.6857 44.229C36.2936 44.326 35.8298 44.4104 35.5304 44.1362C35.3407 43.9633 35.2817 43.6933 35.2353 43.4402C34.6703 40.2258 35.2985 36.8132 36.9682 34.0081C37.1958 34.2527 37.5121 34.4172 37.8451 34.4594C37.8536 33.3458 37.8578 32.2279 37.8662 31.1143L37.9126 31.4602C37.9253 31.0215 37.9379 30.587 37.9548 30.1483C38.0939 30.4562 38.233 30.7599 38.3722 31.0679C38.1993 29.3299 38.8149 27.6131 39.5991 26.0523C40.3791 24.4915 41.3404 23.0151 41.9476 21.3826C42.1289 20.8891 42.2806 20.3787 42.2849 19.8514C42.2891 19.4253 42.1963 19.0035 42.1078 18.5859C41.7157 16.8058 41.3193 15.0045 40.4761 13.3889C40.7839 13.2961 41.0664 13.1105 41.273 12.8659C40.6743 12.6507 40.2611 12.0011 40.3201 11.3684C40.4803 11.3473 40.6447 11.3768 40.7881 11.4569C40.7206 10.3011 39.5949 9.54605 38.6251 8.9133C37.8283 8.39023 37.0567 7.82497 36.3231 7.21754C36.2345 7.14582 36.146 7.06568 36.1207 6.956C36.0912 6.81258 36.1881 6.67337 36.2809 6.55948C36.5507 6.22623 36.8164 5.88877 37.0862 5.55552C35.9816 6.11656 34.4511 5.54286 33.9915 4.39126C33.8355 3.99896 33.7722 3.53917 33.4602 3.25232C33.2326 3.04562 32.9163 2.97813 32.6507 2.82205C32.3893 2.66597 32.1658 2.33273 32.3134 2.06697L32.3809 1.78857C32.5453 1.72529 32.6929 1.61983 32.8067 1.48485C31.5587 1.96573 30.1589 1.63249 28.8856 1.22753L28.8223 1.19378C28.8308 1.02083 28.8645 0.847881 28.9235 0.683367C28.7675 0.860536 28.5694 0.995522 28.3459 1.07567L28.3164 1.16004C27.6797 0.501979 26.7648 0.126549 25.8499 0.139204C25.4367 0.147641 24.9898 0.219352 24.6398 0C24.8043 0.232007 24.9687 0.459796 25.1331 0.691804C24.3995 1.03349 23.5394 0.928029 22.7594 0.712895C21.9794 0.497761 21.2204 0.177169 20.4151 0.105458C18.8509 -0.0379648 17.3668 0.755078 15.8194 1.0124C14.9045 1.16425 13.8251 1.20644 13.3065 1.96995C13.2601 1.6578 13.218 1.34986 13.1716 1.03771C12.9481 1.45954 12.7205 1.88137 12.497 2.3032C12.3663 2.34538 12.3789 2.57739 12.5139 2.60692C11.2279 3.2017 9.9588 3.8471 8.71922 4.53469C8.88787 4.20988 8.6602 3.7543 8.30181 3.68681C8.091 4.28159 7.73262 4.82575 7.26461 5.24758C7.34894 5.04089 7.33207 4.79622 7.22245 4.60218C6.79661 5.26867 6.18947 5.81706 5.48114 6.17139C5.48114 5.88033 5.48114 5.58927 5.48114 5.2982C4.6674 5.89299 3.93799 6.60166 3.32241 7.39892C2.84597 8.01902 2.42435 8.71082 2.281 9.47855C2.13343 10.2463 2.29786 11.1068 2.84597 11.6636C2.48759 11.4527 2.12499 11.246 1.76661 11.0351C1.79613 11.7944 2.31894 12.4693 2.96403 12.8743C3.60912 13.2793 4.36383 13.4649 5.10167 13.6462L5.53173 13.8487C5.40946 14.2537 5.28719 14.6586 5.16492 15.0636C4.71799 16.3713 4.27107 17.679 3.82415 18.9824C3.61333 19.6025 3.3983 20.2395 3.44468 20.8933C3.53323 22.1757 4.60416 23.2387 4.65897 24.5211C4.70113 25.5081 4.14037 26.4066 3.60069 27.2292C3.01884 28.1193 2.437 29.0093 1.85515 29.8952C1.61483 30.2622 1.36185 30.684 1.45883 31.1101C1.60218 31.7513 2.37375 31.9664 2.99354 32.1773C3.61333 32.3882 4.30902 32.9746 4.02653 33.5651C3.95063 33.7296 3.80728 33.852 3.72296 34.0081C3.4742 34.4678 3.77355 35.0415 4.15302 35.3959C4.5367 35.7544 5.01735 36.0244 5.27032 36.48C4.78967 36.7289 4.54934 37.3658 4.74329 37.872C4.89508 38.2728 5.26189 38.547 5.50222 38.9055C6.59001 40.5253 4.72643 42.9171 5.71303 44.6002L5.72568 44.537C5.97444 45.4355 6.88937 46.026 7.80851 46.161C8.73187 46.296 9.66367 46.0598 10.5575 45.7982C11.9742 45.3806 13.3698 44.8871 14.7358 44.3176C14.993 44.2122 15.3936 44.1657 15.4568 44.4399C15.4737 44.5159 15.4568 44.596 15.4357 44.6677C14.9972 46.2454 14.116 47.6923 13.8588 49.3079C13.7577 49.9406 13.7534 50.5945 13.5426 51.1977C13.2053 52.1552 12.3916 52.8555 11.6074 53.5093L11.3839 53.4292C9.13242 52.9525 6.82191 52.75 4.52405 52.826C5.06794 54.315 5.61606 55.8083 6.15995 57.2974C6.26536 57.5842 6.37077 57.8837 6.31174 58.1832C6.21898 58.6641 5.75098 58.9594 5.32514 59.1998C4.76859 59.5162 4.20783 59.8326 3.65128 60.1447C3.65128 60.1447 3.30133 60.3936 2.905 60.769C1.47991 62.1358 1.12574 68.1595 0.784224 71.1123C0.657736 72.188 0.434275 73.7193 0 75.55H53.2724C51.8516 63.9117 48.9213 58.7906 46.303 56.3271V56.3651Z" fill="white"/>
<path d="M46.303 56.3651C45.8518 55.9391 44.7767 54.8212 43.5793 53.1086C41.5512 50.219 40.7586 46.4943 41.4332 43.031C39.8521 43.4318 38.2668 43.8283 36.6857 44.229C36.2936 44.326 35.8298 44.4104 35.5304 44.1362C35.3407 43.9633 35.2817 43.6933 35.2353 43.4402C34.6703 40.2258 35.2985 36.8132 36.9682 34.0081C37.1958 34.2527 37.5121 34.4172 37.8451 34.4594C37.8536 33.3458 37.8578 32.2279 37.8662 31.1143L37.9126 31.4602C37.9253 31.0215 37.9379 30.587 37.9548 30.1483C38.0939 30.4562 38.233 30.7599 38.3722 31.0679C38.1993 29.3299 38.8149 27.6131 39.5991 26.0523C40.3791 24.4915 41.3404 23.0151 41.9476 21.3826C42.1289 20.8891 42.2806 20.3787 42.2849 19.8514C42.2891 19.4253 42.1963 19.0035 42.1078 18.5859C41.7157 16.8058 41.3193 15.0045 40.4761 13.3889C40.7839 13.2961 41.0664 13.1105 41.273 12.8659C40.6743 12.6507 40.2611 12.0011 40.3201 11.3684C40.4803 11.3473 40.6447 11.3768 40.7881 11.4569C40.7206 10.3011 39.5949 9.54605 38.6251 8.9133C37.8283 8.39023 37.0567 7.82497 36.3231 7.21754C36.2345 7.14582 36.146 7.06568 36.1207 6.956C36.0912 6.81258 36.1881 6.67337 36.2809 6.55948C36.5507 6.22623 36.8164 5.88877 37.0862 5.55552C35.9816 6.11656 34.4511 5.54286 33.9915 4.39126C33.8355 3.99896 33.7722 3.53917 33.4602 3.25232C33.2326 3.04562 32.9163 2.97813 32.6507 2.82205C32.3893 2.66597 32.1658 2.33273 32.3134 2.06697L32.3809 1.78857C32.5453 1.72529 32.6929 1.61983 32.8067 1.48485C31.5587 1.96573 30.1589 1.63249 28.8856 1.22753L28.8223 1.19378C28.8308 1.02083 28.8645 0.847881 28.9235 0.683367C28.7675 0.860536 28.5694 0.995522 28.3459 1.07567L28.3164 1.16004C27.6797 0.501979 26.7648 0.126549 25.8499 0.139204C25.4367 0.147641 24.9898 0.219352 24.6398 0C24.8043 0.232007 24.9687 0.459796 25.1331 0.691804C24.3995 1.03349 23.5394 0.928029 22.7594 0.712895C21.9794 0.497761 21.2204 0.177169 20.4151 0.105458C18.8509 -0.0379648 17.3668 0.755078 15.8194 1.0124C14.9045 1.16425 13.8251 1.20644 13.3065 1.96995C13.2601 1.6578 13.218 1.34986 13.1716 1.03771C12.9481 1.45954 12.7205 1.88137 12.497 2.3032C12.3663 2.34538 12.3789 2.57739 12.5139 2.60692C11.2279 3.2017 9.9588 3.8471 8.71922 4.53469C8.88787 4.20988 8.6602 3.7543 8.30181 3.68681C8.091 4.28159 7.73262 4.82575 7.26461 5.24758C7.34894 5.04089 7.33207 4.79622 7.22245 4.60218C6.79661 5.26867 6.18947 5.81706 5.48114 6.17139C5.48114 5.88033 5.48114 5.58927 5.48114 5.2982C4.6674 5.89299 3.93799 6.60166 3.32241 7.39892C2.84597 8.01902 2.42435 8.71082 2.281 9.47855C2.13343 10.2463 2.29786 11.1068 2.84597 11.6636C2.48759 11.4527 2.12499 11.246 1.76661 11.0351C1.79613 11.7944 2.31894 12.4693 2.96403 12.8743C3.60912 13.2793 4.36383 13.4649 5.10167 13.6462L5.53173 13.8487C5.40946 14.2537 5.28719 14.6586 5.16492 15.0636C4.71799 16.3713 4.27107 17.679 3.82415 18.9824C3.61333 19.6025 3.3983 20.2395 3.44468 20.8933C3.53323 22.1757 4.60416 23.2387 4.65897 24.5211C4.70113 25.5081 4.14037 26.4066 3.60069 27.2292C3.01884 28.1193 2.437 29.0093 1.85515 29.8952C1.61483 30.2622 1.36185 30.684 1.45883 31.1101C1.60218 31.7513 2.37375 31.9664 2.99354 32.1773C3.61333 32.3882 4.30902 32.9746 4.02653 33.5651C3.95063 33.7296 3.80728 33.852 3.72296 34.0081C3.4742 34.4678 3.77355 35.0415 4.15302 35.3959C4.5367 35.7544 5.01735 36.0244 5.27032 36.48C4.78967 36.7289 4.54934 37.3658 4.74329 37.872C4.89508 38.2728 5.26189 38.547 5.50222 38.9055C6.59001 40.5253 4.72643 42.9171 5.71303 44.6002L5.72568 44.537C5.97444 45.4355 6.88937 46.026 7.80851 46.161C8.73187 46.296 9.66367 46.0598 10.5575 45.7982C11.9742 45.3806 13.3698 44.8871 14.7358 44.3176C14.993 44.2122 15.3936 44.1657 15.4568 44.4399C15.4737 44.5159 15.4568 44.596 15.4357 44.6677C14.9972 46.2454 14.116 47.6923 13.8588 49.3079C13.7577 49.9406 13.7534 50.5945 13.5426 51.1977C13.2053 52.1552 12.3916 52.8555 11.6074 53.5093L11.3839 53.4292C9.13242 52.9525 6.82191 52.75 4.52405 52.826C5.06794 54.315 5.61606 55.8083 6.15995 57.2974C6.26536 57.5842 6.37077 57.8837 6.31174 58.1832C6.21898 58.6641 5.75098 58.9594 5.32514 59.1998C4.76859 59.5162 4.20783 59.8326 3.65128 60.1447C3.65128 60.1447 3.30133 60.3936 2.905 60.769C1.47991 62.1358 1.12574 68.1595 0.784224 71.1123C0.657736 72.188 0.434275 73.7193 0 75.55H53.2724C51.8516 63.9117 48.9213 58.7906 46.303 56.3271V56.3651Z" fill="url(#paint0_radial_766_5417)"/>
<path d="M46.303 56.3651C45.8518 55.9391 44.7767 54.8212 43.5793 53.1086C41.5512 50.219 40.7586 46.4943 41.4332 43.031C39.8521 43.4318 38.2668 43.8283 36.6857 44.229C36.2936 44.326 35.8298 44.4104 35.5304 44.1362C35.3407 43.9633 35.2817 43.6933 35.2353 43.4402C34.6703 40.2258 35.2985 36.8132 36.9682 34.0081C37.1958 34.2527 37.5121 34.4172 37.8451 34.4594C37.8536 33.3458 37.8578 32.2279 37.8662 31.1143L37.9126 31.4602C37.9253 31.0215 37.9379 30.587 37.9548 30.1483C38.0939 30.4562 38.233 30.7599 38.3722 31.0679C38.1993 29.3299 38.8149 27.6131 39.5991 26.0523C40.3791 24.4915 41.3404 23.0151 41.9476 21.3826C42.1289 20.8891 42.2806 20.3787 42.2849 19.8514C42.2891 19.4253 42.1963 19.0035 42.1078 18.5859C41.7157 16.8058 41.3193 15.0045 40.4761 13.3889C40.7839 13.2961 41.0664 13.1105 41.273 12.8659C40.6743 12.6507 40.2611 12.0011 40.3201 11.3684C40.4803 11.3473 40.6447 11.3768 40.7881 11.4569C40.7206 10.3011 39.5949 9.54605 38.6251 8.9133C37.8283 8.39023 37.0567 7.82497 36.3231 7.21754C36.2345 7.14582 36.146 7.06568 36.1207 6.956C36.0912 6.81258 36.1881 6.67337 36.2809 6.55948C36.5507 6.22623 36.8164 5.88877 37.0862 5.55552C35.9816 6.11656 34.4511 5.54286 33.9915 4.39126C33.8355 3.99896 33.7722 3.53917 33.4602 3.25232C33.2326 3.04562 32.9163 2.97813 32.6507 2.82205C32.3893 2.66597 32.1658 2.33273 32.3134 2.06697L32.3809 1.78857C32.5453 1.72529 32.6929 1.61983 32.8067 1.48485C31.5587 1.96573 30.1589 1.63249 28.8856 1.22753L28.8223 1.19378C28.8308 1.02083 28.8645 0.847881 28.9235 0.683367C28.7675 0.860536 28.5694 0.995522 28.3459 1.07567L28.3164 1.16004C27.6797 0.501979 26.7648 0.126549 25.8499 0.139204C25.4367 0.147641 24.9898 0.219352 24.6398 0C24.8043 0.232007 24.9687 0.459796 25.1331 0.691804C24.3995 1.03349 23.5394 0.928029 22.7594 0.712895C21.9794 0.497761 21.2204 0.177169 20.4151 0.105458C18.8509 -0.0379648 17.3668 0.755078 15.8194 1.0124C14.9045 1.16425 13.8251 1.20644 13.3065 1.96995C13.2601 1.6578 13.218 1.34986 13.1716 1.03771C12.9481 1.45954 12.7205 1.88137 12.497 2.3032C12.3663 2.34538 12.3789 2.57739 12.5139 2.60692C11.2279 3.2017 9.9588 3.8471 8.71922 4.53469C8.88787 4.20988 8.6602 3.7543 8.30181 3.68681C8.091 4.28159 7.73262 4.82575 7.26461 5.24758C7.34894 5.04089 7.33207 4.79622 7.22245 4.60218C6.79661 5.26867 6.18947 5.81706 5.48114 6.17139C5.48114 5.88033 5.48114 5.58927 5.48114 5.2982C4.6674 5.89299 3.93799 6.60166 3.32241 7.39892C2.84597 8.01902 2.42435 8.71082 2.281 9.47855C2.13343 10.2463 2.29786 11.1068 2.84597 11.6636C2.48759 11.4527 2.12499 11.246 1.76661 11.0351C1.79613 11.7944 2.31894 12.4693 2.96403 12.8743C3.60912 13.2793 4.36383 13.4649 5.10167 13.6462L5.53173 13.8487C5.40946 14.2537 5.28719 14.6586 5.16492 15.0636C4.71799 16.3713 4.27107 17.679 3.82415 18.9824C3.61333 19.6025 3.3983 20.2395 3.44468 20.8933C3.53323 22.1757 4.60416 23.2387 4.65897 24.5211C4.70113 25.5081 4.14037 26.4066 3.60069 27.2292C3.01884 28.1193 2.437 29.0093 1.85515 29.8952C1.61483 30.2622 1.36185 30.684 1.45883 31.1101C1.60218 31.7513 2.37375 31.9664 2.99354 32.1773C3.61333 32.3882 4.30902 32.9746 4.02653 33.5651C3.95063 33.7296 3.80728 33.852 3.72296 34.0081C3.4742 34.4678 3.77355 35.0415 4.15302 35.3959C4.5367 35.7544 5.01735 36.0244 5.27032 36.48C4.78967 36.7289 4.54934 37.3658 4.74329 37.872C4.89508 38.2728 5.26189 38.547 5.50222 38.9055C6.59001 40.5253 4.72643 42.9171 5.71303 44.6002L5.72568 44.537C5.97444 45.4355 6.88937 46.026 7.80851 46.161C8.73187 46.296 9.66367 46.0598 10.5575 45.7982C11.9742 45.3806 13.3698 44.8871 14.7358 44.3176C14.993 44.2122 15.3936 44.1657 15.4568 44.4399C15.4737 44.5159 15.4568 44.596 15.4357 44.6677C14.9972 46.2454 14.116 47.6923 13.8588 49.3079C13.7577 49.9406 13.7534 50.5945 13.5426 51.1977C13.2053 52.1552 12.3916 52.8555 11.6074 53.5093L11.3839 53.4292C9.13242 52.9525 6.82191 52.75 4.52405 52.826C5.06794 54.315 5.61606 55.8083 6.15995 57.2974C6.26536 57.5842 6.37077 57.8837 6.31174 58.1832C6.21898 58.6641 5.75098 58.9594 5.32514 59.1998C4.76859 59.5162 4.20783 59.8326 3.65128 60.1447C3.65128 60.1447 3.30133 60.3936 2.905 60.769C1.47991 62.1358 1.12574 68.1595 0.784224 71.1123C0.657736 72.188 0.434275 73.7193 0 75.55H53.2724C51.8516 63.9117 48.9213 58.7906 46.303 56.3271V56.3651Z" fill="url(#paint1_radial_766_5417)"/>
<path d="M46.303 56.3651C45.8518 55.9391 44.7767 54.8212 43.5793 53.1086C41.5512 50.219 40.7586 46.4943 41.4332 43.031C39.8521 43.4318 38.2668 43.8283 36.6857 44.229C36.2936 44.326 35.8298 44.4104 35.5304 44.1362C35.3407 43.9633 35.2817 43.6933 35.2353 43.4402C34.6703 40.2258 35.2985 36.8132 36.9682 34.0081C37.1958 34.2527 37.5121 34.4172 37.8451 34.4594C37.8536 33.3458 37.8578 32.2279 37.8662 31.1143L37.9126 31.4602C37.9253 31.0215 37.9379 30.587 37.9548 30.1483C38.0939 30.4562 38.233 30.7599 38.3722 31.0679C38.1993 29.3299 38.8149 27.6131 39.5991 26.0523C40.3791 24.4915 41.3404 23.0151 41.9476 21.3826C42.1289 20.8891 42.2806 20.3787 42.2849 19.8514C42.2891 19.4253 42.1963 19.0035 42.1078 18.5859C41.7157 16.8058 41.3193 15.0045 40.4761 13.3889C40.7839 13.2961 41.0664 13.1105 41.273 12.8659C40.6743 12.6507 40.2611 12.0011 40.3201 11.3684C40.4803 11.3473 40.6447 11.3768 40.7881 11.4569C40.7206 10.3011 39.5949 9.54605 38.6251 8.9133C37.8283 8.39023 37.0567 7.82497 36.3231 7.21754C36.2345 7.14582 36.146 7.06568 36.1207 6.956C36.0912 6.81258 36.1881 6.67337 36.2809 6.55948C36.5507 6.22623 36.8164 5.88877 37.0862 5.55552C35.9816 6.11656 34.4511 5.54286 33.9915 4.39126C33.8355 3.99896 33.7722 3.53917 33.4602 3.25232C33.2326 3.04562 32.9163 2.97813 32.6507 2.82205C32.3893 2.66597 32.1658 2.33273 32.3134 2.06697L32.3809 1.78857C32.5453 1.72529 32.6929 1.61983 32.8067 1.48485C31.5587 1.96573 30.1589 1.63249 28.8856 1.22753L28.8223 1.19378C28.8308 1.02083 28.8645 0.847881 28.9235 0.683367C28.7675 0.860536 28.5694 0.995522 28.3459 1.07567L28.3164 1.16004C27.6797 0.501979 26.7648 0.126549 25.8499 0.139204C25.4367 0.147641 24.9898 0.219352 24.6398 0C24.8043 0.232007 24.9687 0.459796 25.1331 0.691804C24.3995 1.03349 23.5394 0.928029 22.7594 0.712895C21.9794 0.497761 21.2204 0.177169 20.4151 0.105458C18.8509 -0.0379648 17.3668 0.755078 15.8194 1.0124C14.9045 1.16425 13.8251 1.20644 13.3065 1.96995C13.2601 1.6578 13.218 1.34986 13.1716 1.03771C12.9481 1.45954 12.7205 1.88137 12.497 2.3032C12.3663 2.34538 12.3789 2.57739 12.5139 2.60692C11.2279 3.2017 9.9588 3.8471 8.71922 4.53469C8.88787 4.20988 8.6602 3.7543 8.30181 3.68681C8.091 4.28159 7.73262 4.82575 7.26461 5.24758C7.34894 5.04089 7.33207 4.79622 7.22245 4.60218C6.79661 5.26867 6.18947 5.81706 5.48114 6.17139C5.48114 5.88033 5.48114 5.58927 5.48114 5.2982C4.6674 5.89299 3.93799 6.60166 3.32241 7.39892C2.84597 8.01902 2.42435 8.71082 2.281 9.47855C2.13343 10.2463 2.29786 11.1068 2.84597 11.6636C2.48759 11.4527 2.12499 11.246 1.76661 11.0351C1.79613 11.7944 2.31894 12.4693 2.96403 12.8743C3.60912 13.2793 4.36383 13.4649 5.10167 13.6462L5.53173 13.8487C5.40946 14.2537 5.28719 14.6586 5.16492 15.0636C4.71799 16.3713 4.27107 17.679 3.82415 18.9824C3.61333 19.6025 3.3983 20.2395 3.44468 20.8933C3.53323 22.1757 4.60416 23.2387 4.65897 24.5211C4.70113 25.5081 4.14037 26.4066 3.60069 27.2292C3.01884 28.1193 2.437 29.0093 1.85515 29.8952C1.61483 30.2622 1.36185 30.684 1.45883 31.1101C1.60218 31.7513 2.37375 31.9664 2.99354 32.1773C3.61333 32.3882 4.30902 32.9746 4.02653 33.5651C3.95063 33.7296 3.80728 33.852 3.72296 34.0081C3.4742 34.4678 3.77355 35.0415 4.15302 35.3959C4.5367 35.7544 5.01735 36.0244 5.27032 36.48C4.78967 36.7289 4.54934 37.3658 4.74329 37.872C4.89508 38.2728 5.26189 38.547 5.50222 38.9055C6.59001 40.5253 4.72643 42.9171 5.71303 44.6002L5.72568 44.537C5.97444 45.4355 6.88937 46.026 7.80851 46.161C8.73187 46.296 9.66367 46.0598 10.5575 45.7982C11.9742 45.3806 13.3698 44.8871 14.7358 44.3176C14.993 44.2122 15.3936 44.1657 15.4568 44.4399C15.4737 44.5159 15.4568 44.596 15.4357 44.6677C14.9972 46.2454 14.116 47.6923 13.8588 49.3079C13.7577 49.9406 13.7534 50.5945 13.5426 51.1977C13.2053 52.1552 12.3916 52.8555 11.6074 53.5093L11.3839 53.4292C9.13242 52.9525 6.82191 52.75 4.52405 52.826C5.06794 54.315 5.61606 55.8083 6.15995 57.2974C6.26536 57.5842 6.37077 57.8837 6.31174 58.1832C6.21898 58.6641 5.75098 58.9594 5.32514 59.1998C4.76859 59.5162 4.20783 59.8326 3.65128 60.1447C3.65128 60.1447 3.30133 60.3936 2.905 60.769C1.47991 62.1358 1.12574 68.1595 0.784224 71.1123C0.657736 72.188 0.434275 73.7193 0 75.55H53.2724C51.8516 63.9117 48.9213 58.7906 46.303 56.3271V56.3651Z" fill="url(#paint2_radial_766_5417)"/>
</g>
<defs>
<filter id="filter0_i_766_5417" x="0" y="0" width="54.2725" height="76.55" filterUnits="userSpaceOnUse" color-interpolation-filters="sRGB">
<feFlood flood-opacity="0" result="BackgroundImageFix"/>
<feBlend mode="normal" in="SourceGraphic" in2="BackgroundImageFix" result="shape"/>
<feColorMatrix in="SourceAlpha" type="matrix" values="0 0 0 0 0 0 0 0 0 0 0 0 0 0 0 0 0 0 127 0" result="hardAlpha"/>
<feOffset dx="1" dy="1"/>
<feGaussianBlur stdDeviation="2.5"/>
<feComposite in2="hardAlpha" operator="arithmetic" k2="-1" k3="1"/>
<feColorMatrix type="matrix" values="0 0 0 0 0 0 0 0 0 0 0 0 0 0 0 0 0 0 0.5 0"/>
<feBlend mode="normal" in2="shape" result="effect1_innerShadow_766_5417"/>
</filter>
<radialGradient id="paint0_radial_766_5417" cx="0" cy="0" r="1" gradientUnits="userSpaceOnUse" gradientTransform="translate(20.3404 85.0854) rotate(-107.02) scale(56.2535 39.7322)">
<stop offset="0.078125" stop-color="#FF1A6C" stop-opacity="0.67"/>
<stop offset="1" stop-color="#FF1A6C" stop-opacity="0"/>
</radialGradient>
<radialGradient id="paint1_radial_766_5417" cx="0" cy="0" r="1" gradientUnits="userSpaceOnUse" gradientTransform="translate(47.4609 40.5867) rotate(-162.845) scale(44.3488 45.3468)">
<stop offset="0.328125" stop-color="#FF2C2C" stop-opacity="0.84"/>
<stop offset="1" stop-color="#FF0000" stop-opacity="0"/>
</radialGradient>
<radialGradient id="paint2_radial_766_5417" cx="0" cy="0" r="1" gradientUnits="userSpaceOnUse" gradientTransform="translate(7.99087 12.8362) rotate(80.6763) scale(46.3333 52.0288)">
<stop offset="0.401042" stop-color="#FF9900" stop-opacity="0.68"/>
<stop offset="1" stop-color="#FF9900" stop-opacity="0"/>
</radialGradient>
</defs>
</svg>
