<svg width="54" height="76" viewBox="0 0 54 76" fill="none" xmlns="http://www.w3.org/2000/svg">
<g filter="url(#filter0_i_758_5370)">
<path d="M46.3928 56.3651C45.9417 55.9391 44.8665 54.8212 43.6691 53.1086C41.6411 50.219 40.8484 46.4943 41.523 43.031C39.9419 43.4318 38.3566 43.8283 36.7755 44.229C36.3834 44.326 35.9196 44.4104 35.6203 44.1362C35.4305 43.9633 35.3715 43.6933 35.3251 43.4402C34.7601 40.2258 35.3884 36.8132 37.058 34.0081C37.2857 34.2527 37.6019 34.4172 37.935 34.4594C37.9434 33.3458 37.9476 32.2279 37.9561 31.1143L38.0024 31.4602C38.0151 31.0215 38.0277 30.587 38.0446 30.1483C38.1837 30.4562 38.3229 30.7599 38.462 31.0679C38.2892 29.3299 38.9047 27.6131 39.6889 26.0523C40.469 24.4915 41.4303 23.0151 42.0374 21.3826C42.2187 20.8891 42.3705 20.3787 42.3747 19.8514C42.3789 19.4253 42.2862 19.0035 42.1976 18.5859C41.8055 16.8058 41.4092 15.0045 40.5659 13.3889C40.8737 13.2961 41.1562 13.1105 41.3628 12.8659C40.7641 12.6507 40.3509 12.0011 40.4099 11.3684C40.5701 11.3473 40.7346 11.3768 40.8779 11.4569C40.8105 10.3011 39.6847 9.54605 38.715 8.9133C37.9181 8.39023 37.1465 7.82497 36.4129 7.21754C36.3244 7.14582 36.2358 7.06568 36.2105 6.956C36.181 6.81258 36.278 6.67337 36.3708 6.55948C36.6406 6.22623 36.9062 5.88877 37.1761 5.55552C36.0714 6.11656 34.5409 5.54286 34.0813 4.39126C33.9253 3.99896 33.8621 3.53917 33.5501 3.25232C33.3224 3.04562 33.0062 2.97813 32.7406 2.82205C32.4791 2.66597 32.2557 2.33273 32.4033 2.06697L32.4707 1.78857C32.6351 1.72529 32.7827 1.61983 32.8966 1.48485C31.6485 1.96573 30.2487 1.63249 28.9754 1.22753L28.9122 1.19378C28.9206 1.02083 28.9544 0.847881 29.0134 0.683367C28.8574 0.860536 28.6592 0.995522 28.4358 1.07567L28.4062 1.16004C27.7696 0.501979 26.8547 0.126549 25.9397 0.139204C25.5265 0.147641 25.0796 0.219352 24.7297 0C24.8941 0.232007 25.0585 0.459796 25.223 0.691804C24.4893 1.03349 23.6292 0.928029 22.8492 0.712895C22.0692 0.497761 21.3103 0.177169 20.505 0.105458C18.9407 -0.0379648 17.4566 0.755078 15.9092 1.0124C14.9943 1.16425 13.915 1.20644 13.3964 1.96995C13.35 1.6578 13.3078 1.34986 13.2614 1.03771C13.038 1.45954 12.8103 1.88137 12.5868 2.3032C12.4561 2.34538 12.4688 2.57739 12.6037 2.60692C11.3177 3.2017 10.0486 3.8471 8.80907 4.53469C8.97772 4.20988 8.75004 3.7543 8.39166 3.68681C8.18084 4.28159 7.82246 4.82575 7.35446 5.24758C7.43878 5.04089 7.42192 4.79622 7.3123 4.60218C6.88645 5.26867 6.27931 5.81706 5.57098 6.17139C5.57098 5.88033 5.57098 5.58927 5.57098 5.2982C4.75724 5.89299 4.02783 6.60166 3.41226 7.39892C2.93582 8.01902 2.51419 8.71082 2.37084 9.47855C2.22327 10.2463 2.38771 11.1068 2.93582 11.6636C2.57744 11.4527 2.21484 11.246 1.85646 11.0351C1.88597 11.7944 2.40879 12.4693 3.05387 12.8743C3.69896 13.2793 4.45367 13.4649 5.19152 13.6462L5.62158 13.8487C5.4993 14.2537 5.37703 14.6586 5.25476 15.0636C4.80784 16.3713 4.36091 17.679 3.91399 18.9824C3.70318 19.6025 3.48815 20.2395 3.53453 20.8933C3.62307 22.1757 4.694 23.2387 4.74881 24.5211C4.79097 25.5081 4.23021 26.4066 3.69053 27.2292C3.10869 28.1193 2.52684 29.0093 1.945 29.8952C1.70467 30.2622 1.4517 30.684 1.54867 31.1101C1.69202 31.7513 2.4636 31.9664 3.08339 32.1773C3.70318 32.3882 4.39886 32.9746 4.11637 33.5651C4.04048 33.7296 3.89713 33.852 3.8128 34.0081C3.56404 34.4678 3.8634 35.0415 4.24286 35.3959C4.62654 35.7544 5.10719 36.0244 5.36017 36.48C4.87951 36.7289 4.63919 37.3658 4.83314 37.872C4.98492 38.2728 5.35174 38.547 5.59206 38.9055C6.67986 40.5253 4.81627 42.9171 5.80288 44.6002L5.81552 44.537C6.06428 45.4355 6.97921 46.026 7.89836 46.161C8.82172 46.296 9.75351 46.0598 10.6474 45.7982C12.064 45.3806 13.4596 44.8871 14.8257 44.3176C15.0829 44.2122 15.4834 44.1657 15.5466 44.4399C15.5635 44.5159 15.5466 44.596 15.5256 44.6677C15.0871 46.2454 14.2059 47.6923 13.9487 49.3079C13.8475 49.9406 13.8433 50.5945 13.6325 51.1977C13.2952 52.1552 12.4814 52.8555 11.6972 53.5093L11.4737 53.4292C9.22226 52.9525 6.91175 52.75 4.61389 52.826C5.15779 54.315 5.7059 55.8083 6.2498 57.2974C6.3552 57.5842 6.46061 57.8837 6.40158 58.1832C6.30883 58.6641 5.84082 58.9594 5.41498 59.1998C4.85843 59.5162 4.29767 59.8326 3.74112 60.1447C3.74112 60.1447 3.39117 60.3936 2.99485 60.769C1.56975 62.1358 1.21558 68.1595 0.874068 71.1123C0.74758 72.188 0.524118 73.7193 0.0898438 75.55H53.3623C51.9414 63.9117 49.0111 58.7906 46.3928 56.3271V56.3651Z" fill="white"/>
<path d="M46.3928 56.3651C45.9417 55.9391 44.8665 54.8212 43.6691 53.1086C41.6411 50.219 40.8484 46.4943 41.523 43.031C39.9419 43.4318 38.3566 43.8283 36.7755 44.229C36.3834 44.326 35.9196 44.4104 35.6203 44.1362C35.4305 43.9633 35.3715 43.6933 35.3251 43.4402C34.7601 40.2258 35.3884 36.8132 37.058 34.0081C37.2857 34.2527 37.6019 34.4172 37.935 34.4594C37.9434 33.3458 37.9476 32.2279 37.9561 31.1143L38.0024 31.4602C38.0151 31.0215 38.0277 30.587 38.0446 30.1483C38.1837 30.4562 38.3229 30.7599 38.462 31.0679C38.2892 29.3299 38.9047 27.6131 39.6889 26.0523C40.469 24.4915 41.4303 23.0151 42.0374 21.3826C42.2187 20.8891 42.3705 20.3787 42.3747 19.8514C42.3789 19.4253 42.2862 19.0035 42.1976 18.5859C41.8055 16.8058 41.4092 15.0045 40.5659 13.3889C40.8737 13.2961 41.1562 13.1105 41.3628 12.8659C40.7641 12.6507 40.3509 12.0011 40.4099 11.3684C40.5701 11.3473 40.7346 11.3768 40.8779 11.4569C40.8105 10.3011 39.6847 9.54605 38.715 8.9133C37.9181 8.39023 37.1465 7.82497 36.4129 7.21754C36.3244 7.14582 36.2358 7.06568 36.2105 6.956C36.181 6.81258 36.278 6.67337 36.3708 6.55948C36.6406 6.22623 36.9062 5.88877 37.1761 5.55552C36.0714 6.11656 34.5409 5.54286 34.0813 4.39126C33.9253 3.99896 33.8621 3.53917 33.5501 3.25232C33.3224 3.04562 33.0062 2.97813 32.7406 2.82205C32.4791 2.66597 32.2557 2.33273 32.4033 2.06697L32.4707 1.78857C32.6351 1.72529 32.7827 1.61983 32.8966 1.48485C31.6485 1.96573 30.2487 1.63249 28.9754 1.22753L28.9122 1.19378C28.9206 1.02083 28.9544 0.847881 29.0134 0.683367C28.8574 0.860536 28.6592 0.995522 28.4358 1.07567L28.4062 1.16004C27.7696 0.501979 26.8547 0.126549 25.9397 0.139204C25.5265 0.147641 25.0796 0.219352 24.7297 0C24.8941 0.232007 25.0585 0.459796 25.223 0.691804C24.4893 1.03349 23.6292 0.928029 22.8492 0.712895C22.0692 0.497761 21.3103 0.177169 20.505 0.105458C18.9407 -0.0379648 17.4566 0.755078 15.9092 1.0124C14.9943 1.16425 13.915 1.20644 13.3964 1.96995C13.35 1.6578 13.3078 1.34986 13.2614 1.03771C13.038 1.45954 12.8103 1.88137 12.5868 2.3032C12.4561 2.34538 12.4688 2.57739 12.6037 2.60692C11.3177 3.2017 10.0486 3.8471 8.80907 4.53469C8.97772 4.20988 8.75004 3.7543 8.39166 3.68681C8.18084 4.28159 7.82246 4.82575 7.35446 5.24758C7.43878 5.04089 7.42192 4.79622 7.3123 4.60218C6.88645 5.26867 6.27931 5.81706 5.57098 6.17139C5.57098 5.88033 5.57098 5.58927 5.57098 5.2982C4.75724 5.89299 4.02783 6.60166 3.41226 7.39892C2.93582 8.01902 2.51419 8.71082 2.37084 9.47855C2.22327 10.2463 2.38771 11.1068 2.93582 11.6636C2.57744 11.4527 2.21484 11.246 1.85646 11.0351C1.88597 11.7944 2.40879 12.4693 3.05387 12.8743C3.69896 13.2793 4.45367 13.4649 5.19152 13.6462L5.62158 13.8487C5.4993 14.2537 5.37703 14.6586 5.25476 15.0636C4.80784 16.3713 4.36091 17.679 3.91399 18.9824C3.70318 19.6025 3.48815 20.2395 3.53453 20.8933C3.62307 22.1757 4.694 23.2387 4.74881 24.5211C4.79097 25.5081 4.23021 26.4066 3.69053 27.2292C3.10869 28.1193 2.52684 29.0093 1.945 29.8952C1.70467 30.2622 1.4517 30.684 1.54867 31.1101C1.69202 31.7513 2.4636 31.9664 3.08339 32.1773C3.70318 32.3882 4.39886 32.9746 4.11637 33.5651C4.04048 33.7296 3.89713 33.852 3.8128 34.0081C3.56404 34.4678 3.8634 35.0415 4.24286 35.3959C4.62654 35.7544 5.10719 36.0244 5.36017 36.48C4.87951 36.7289 4.63919 37.3658 4.83314 37.872C4.98492 38.2728 5.35174 38.547 5.59206 38.9055C6.67986 40.5253 4.81627 42.9171 5.80288 44.6002L5.81552 44.537C6.06428 45.4355 6.97921 46.026 7.89836 46.161C8.82172 46.296 9.75351 46.0598 10.6474 45.7982C12.064 45.3806 13.4596 44.8871 14.8257 44.3176C15.0829 44.2122 15.4834 44.1657 15.5466 44.4399C15.5635 44.5159 15.5466 44.596 15.5256 44.6677C15.0871 46.2454 14.2059 47.6923 13.9487 49.3079C13.8475 49.9406 13.8433 50.5945 13.6325 51.1977C13.2952 52.1552 12.4814 52.8555 11.6972 53.5093L11.4737 53.4292C9.22226 52.9525 6.91175 52.75 4.61389 52.826C5.15779 54.315 5.7059 55.8083 6.2498 57.2974C6.3552 57.5842 6.46061 57.8837 6.40158 58.1832C6.30883 58.6641 5.84082 58.9594 5.41498 59.1998C4.85843 59.5162 4.29767 59.8326 3.74112 60.1447C3.74112 60.1447 3.39117 60.3936 2.99485 60.769C1.56975 62.1358 1.21558 68.1595 0.874068 71.1123C0.74758 72.188 0.524118 73.7193 0.0898438 75.55H53.3623C51.9414 63.9117 49.0111 58.7906 46.3928 56.3271V56.3651Z" fill="url(#paint0_radial_758_5370)" fill-opacity="0.8"/>
<path d="M46.3928 56.3651C45.9417 55.9391 44.8665 54.8212 43.6691 53.1086C41.6411 50.219 40.8484 46.4943 41.523 43.031C39.9419 43.4318 38.3566 43.8283 36.7755 44.229C36.3834 44.326 35.9196 44.4104 35.6203 44.1362C35.4305 43.9633 35.3715 43.6933 35.3251 43.4402C34.7601 40.2258 35.3884 36.8132 37.058 34.0081C37.2857 34.2527 37.6019 34.4172 37.935 34.4594C37.9434 33.3458 37.9476 32.2279 37.9561 31.1143L38.0024 31.4602C38.0151 31.0215 38.0277 30.587 38.0446 30.1483C38.1837 30.4562 38.3229 30.7599 38.462 31.0679C38.2892 29.3299 38.9047 27.6131 39.6889 26.0523C40.469 24.4915 41.4303 23.0151 42.0374 21.3826C42.2187 20.8891 42.3705 20.3787 42.3747 19.8514C42.3789 19.4253 42.2862 19.0035 42.1976 18.5859C41.8055 16.8058 41.4092 15.0045 40.5659 13.3889C40.8737 13.2961 41.1562 13.1105 41.3628 12.8659C40.7641 12.6507 40.3509 12.0011 40.4099 11.3684C40.5701 11.3473 40.7346 11.3768 40.8779 11.4569C40.8105 10.3011 39.6847 9.54605 38.715 8.9133C37.9181 8.39023 37.1465 7.82497 36.4129 7.21754C36.3244 7.14582 36.2358 7.06568 36.2105 6.956C36.181 6.81258 36.278 6.67337 36.3708 6.55948C36.6406 6.22623 36.9062 5.88877 37.1761 5.55552C36.0714 6.11656 34.5409 5.54286 34.0813 4.39126C33.9253 3.99896 33.8621 3.53917 33.5501 3.25232C33.3224 3.04562 33.0062 2.97813 32.7406 2.82205C32.4791 2.66597 32.2557 2.33273 32.4033 2.06697L32.4707 1.78857C32.6351 1.72529 32.7827 1.61983 32.8966 1.48485C31.6485 1.96573 30.2487 1.63249 28.9754 1.22753L28.9122 1.19378C28.9206 1.02083 28.9544 0.847881 29.0134 0.683367C28.8574 0.860536 28.6592 0.995522 28.4358 1.07567L28.4062 1.16004C27.7696 0.501979 26.8547 0.126549 25.9397 0.139204C25.5265 0.147641 25.0796 0.219352 24.7297 0C24.8941 0.232007 25.0585 0.459796 25.223 0.691804C24.4893 1.03349 23.6292 0.928029 22.8492 0.712895C22.0692 0.497761 21.3103 0.177169 20.505 0.105458C18.9407 -0.0379648 17.4566 0.755078 15.9092 1.0124C14.9943 1.16425 13.915 1.20644 13.3964 1.96995C13.35 1.6578 13.3078 1.34986 13.2614 1.03771C13.038 1.45954 12.8103 1.88137 12.5868 2.3032C12.4561 2.34538 12.4688 2.57739 12.6037 2.60692C11.3177 3.2017 10.0486 3.8471 8.80907 4.53469C8.97772 4.20988 8.75004 3.7543 8.39166 3.68681C8.18084 4.28159 7.82246 4.82575 7.35446 5.24758C7.43878 5.04089 7.42192 4.79622 7.3123 4.60218C6.88645 5.26867 6.27931 5.81706 5.57098 6.17139C5.57098 5.88033 5.57098 5.58927 5.57098 5.2982C4.75724 5.89299 4.02783 6.60166 3.41226 7.39892C2.93582 8.01902 2.51419 8.71082 2.37084 9.47855C2.22327 10.2463 2.38771 11.1068 2.93582 11.6636C2.57744 11.4527 2.21484 11.246 1.85646 11.0351C1.88597 11.7944 2.40879 12.4693 3.05387 12.8743C3.69896 13.2793 4.45367 13.4649 5.19152 13.6462L5.62158 13.8487C5.4993 14.2537 5.37703 14.6586 5.25476 15.0636C4.80784 16.3713 4.36091 17.679 3.91399 18.9824C3.70318 19.6025 3.48815 20.2395 3.53453 20.8933C3.62307 22.1757 4.694 23.2387 4.74881 24.5211C4.79097 25.5081 4.23021 26.4066 3.69053 27.2292C3.10869 28.1193 2.52684 29.0093 1.945 29.8952C1.70467 30.2622 1.4517 30.684 1.54867 31.1101C1.69202 31.7513 2.4636 31.9664 3.08339 32.1773C3.70318 32.3882 4.39886 32.9746 4.11637 33.5651C4.04048 33.7296 3.89713 33.852 3.8128 34.0081C3.56404 34.4678 3.8634 35.0415 4.24286 35.3959C4.62654 35.7544 5.10719 36.0244 5.36017 36.48C4.87951 36.7289 4.63919 37.3658 4.83314 37.872C4.98492 38.2728 5.35174 38.547 5.59206 38.9055C6.67986 40.5253 4.81627 42.9171 5.80288 44.6002L5.81552 44.537C6.06428 45.4355 6.97921 46.026 7.89836 46.161C8.82172 46.296 9.75351 46.0598 10.6474 45.7982C12.064 45.3806 13.4596 44.8871 14.8257 44.3176C15.0829 44.2122 15.4834 44.1657 15.5466 44.4399C15.5635 44.5159 15.5466 44.596 15.5256 44.6677C15.0871 46.2454 14.2059 47.6923 13.9487 49.3079C13.8475 49.9406 13.8433 50.5945 13.6325 51.1977C13.2952 52.1552 12.4814 52.8555 11.6972 53.5093L11.4737 53.4292C9.22226 52.9525 6.91175 52.75 4.61389 52.826C5.15779 54.315 5.7059 55.8083 6.2498 57.2974C6.3552 57.5842 6.46061 57.8837 6.40158 58.1832C6.30883 58.6641 5.84082 58.9594 5.41498 59.1998C4.85843 59.5162 4.29767 59.8326 3.74112 60.1447C3.74112 60.1447 3.39117 60.3936 2.99485 60.769C1.56975 62.1358 1.21558 68.1595 0.874068 71.1123C0.74758 72.188 0.524118 73.7193 0.0898438 75.55H53.3623C51.9414 63.9117 49.0111 58.7906 46.3928 56.3271V56.3651Z" fill="url(#paint1_radial_758_5370)" fill-opacity="0.8"/>
<path d="M46.3928 56.3651C45.9417 55.9391 44.8665 54.8212 43.6691 53.1086C41.6411 50.219 40.8484 46.4943 41.523 43.031C39.9419 43.4318 38.3566 43.8283 36.7755 44.229C36.3834 44.326 35.9196 44.4104 35.6203 44.1362C35.4305 43.9633 35.3715 43.6933 35.3251 43.4402C34.7601 40.2258 35.3884 36.8132 37.058 34.0081C37.2857 34.2527 37.6019 34.4172 37.935 34.4594C37.9434 33.3458 37.9476 32.2279 37.9561 31.1143L38.0024 31.4602C38.0151 31.0215 38.0277 30.587 38.0446 30.1483C38.1837 30.4562 38.3229 30.7599 38.462 31.0679C38.2892 29.3299 38.9047 27.6131 39.6889 26.0523C40.469 24.4915 41.4303 23.0151 42.0374 21.3826C42.2187 20.8891 42.3705 20.3787 42.3747 19.8514C42.3789 19.4253 42.2862 19.0035 42.1976 18.5859C41.8055 16.8058 41.4092 15.0045 40.5659 13.3889C40.8737 13.2961 41.1562 13.1105 41.3628 12.8659C40.7641 12.6507 40.3509 12.0011 40.4099 11.3684C40.5701 11.3473 40.7346 11.3768 40.8779 11.4569C40.8105 10.3011 39.6847 9.54605 38.715 8.9133C37.9181 8.39023 37.1465 7.82497 36.4129 7.21754C36.3244 7.14582 36.2358 7.06568 36.2105 6.956C36.181 6.81258 36.278 6.67337 36.3708 6.55948C36.6406 6.22623 36.9062 5.88877 37.1761 5.55552C36.0714 6.11656 34.5409 5.54286 34.0813 4.39126C33.9253 3.99896 33.8621 3.53917 33.5501 3.25232C33.3224 3.04562 33.0062 2.97813 32.7406 2.82205C32.4791 2.66597 32.2557 2.33273 32.4033 2.06697L32.4707 1.78857C32.6351 1.72529 32.7827 1.61983 32.8966 1.48485C31.6485 1.96573 30.2487 1.63249 28.9754 1.22753L28.9122 1.19378C28.9206 1.02083 28.9544 0.847881 29.0134 0.683367C28.8574 0.860536 28.6592 0.995522 28.4358 1.07567L28.4062 1.16004C27.7696 0.501979 26.8547 0.126549 25.9397 0.139204C25.5265 0.147641 25.0796 0.219352 24.7297 0C24.8941 0.232007 25.0585 0.459796 25.223 0.691804C24.4893 1.03349 23.6292 0.928029 22.8492 0.712895C22.0692 0.497761 21.3103 0.177169 20.505 0.105458C18.9407 -0.0379648 17.4566 0.755078 15.9092 1.0124C14.9943 1.16425 13.915 1.20644 13.3964 1.96995C13.35 1.6578 13.3078 1.34986 13.2614 1.03771C13.038 1.45954 12.8103 1.88137 12.5868 2.3032C12.4561 2.34538 12.4688 2.57739 12.6037 2.60692C11.3177 3.2017 10.0486 3.8471 8.80907 4.53469C8.97772 4.20988 8.75004 3.7543 8.39166 3.68681C8.18084 4.28159 7.82246 4.82575 7.35446 5.24758C7.43878 5.04089 7.42192 4.79622 7.3123 4.60218C6.88645 5.26867 6.27931 5.81706 5.57098 6.17139C5.57098 5.88033 5.57098 5.58927 5.57098 5.2982C4.75724 5.89299 4.02783 6.60166 3.41226 7.39892C2.93582 8.01902 2.51419 8.71082 2.37084 9.47855C2.22327 10.2463 2.38771 11.1068 2.93582 11.6636C2.57744 11.4527 2.21484 11.246 1.85646 11.0351C1.88597 11.7944 2.40879 12.4693 3.05387 12.8743C3.69896 13.2793 4.45367 13.4649 5.19152 13.6462L5.62158 13.8487C5.4993 14.2537 5.37703 14.6586 5.25476 15.0636C4.80784 16.3713 4.36091 17.679 3.91399 18.9824C3.70318 19.6025 3.48815 20.2395 3.53453 20.8933C3.62307 22.1757 4.694 23.2387 4.74881 24.5211C4.79097 25.5081 4.23021 26.4066 3.69053 27.2292C3.10869 28.1193 2.52684 29.0093 1.945 29.8952C1.70467 30.2622 1.4517 30.684 1.54867 31.1101C1.69202 31.7513 2.4636 31.9664 3.08339 32.1773C3.70318 32.3882 4.39886 32.9746 4.11637 33.5651C4.04048 33.7296 3.89713 33.852 3.8128 34.0081C3.56404 34.4678 3.8634 35.0415 4.24286 35.3959C4.62654 35.7544 5.10719 36.0244 5.36017 36.48C4.87951 36.7289 4.63919 37.3658 4.83314 37.872C4.98492 38.2728 5.35174 38.547 5.59206 38.9055C6.67986 40.5253 4.81627 42.9171 5.80288 44.6002L5.81552 44.537C6.06428 45.4355 6.97921 46.026 7.89836 46.161C8.82172 46.296 9.75351 46.0598 10.6474 45.7982C12.064 45.3806 13.4596 44.8871 14.8257 44.3176C15.0829 44.2122 15.4834 44.1657 15.5466 44.4399C15.5635 44.5159 15.5466 44.596 15.5256 44.6677C15.0871 46.2454 14.2059 47.6923 13.9487 49.3079C13.8475 49.9406 13.8433 50.5945 13.6325 51.1977C13.2952 52.1552 12.4814 52.8555 11.6972 53.5093L11.4737 53.4292C9.22226 52.9525 6.91175 52.75 4.61389 52.826C5.15779 54.315 5.7059 55.8083 6.2498 57.2974C6.3552 57.5842 6.46061 57.8837 6.40158 58.1832C6.30883 58.6641 5.84082 58.9594 5.41498 59.1998C4.85843 59.5162 4.29767 59.8326 3.74112 60.1447C3.74112 60.1447 3.39117 60.3936 2.99485 60.769C1.56975 62.1358 1.21558 68.1595 0.874068 71.1123C0.74758 72.188 0.524118 73.7193 0.0898438 75.55H53.3623C51.9414 63.9117 49.0111 58.7906 46.3928 56.3271V56.3651Z" fill="url(#paint2_radial_758_5370)" fill-opacity="0.8"/>
<path d="M46.3928 56.3651C45.9417 55.9391 44.8665 54.8212 43.6691 53.1086C41.6411 50.219 40.8484 46.4943 41.523 43.031C39.9419 43.4318 38.3566 43.8283 36.7755 44.229C36.3834 44.326 35.9196 44.4104 35.6203 44.1362C35.4305 43.9633 35.3715 43.6933 35.3251 43.4402C34.7601 40.2258 35.3884 36.8132 37.058 34.0081C37.2857 34.2527 37.6019 34.4172 37.935 34.4594C37.9434 33.3458 37.9476 32.2279 37.9561 31.1143L38.0024 31.4602C38.0151 31.0215 38.0277 30.587 38.0446 30.1483C38.1837 30.4562 38.3229 30.7599 38.462 31.0679C38.2892 29.3299 38.9047 27.6131 39.6889 26.0523C40.469 24.4915 41.4303 23.0151 42.0374 21.3826C42.2187 20.8891 42.3705 20.3787 42.3747 19.8514C42.3789 19.4253 42.2862 19.0035 42.1976 18.5859C41.8055 16.8058 41.4092 15.0045 40.5659 13.3889C40.8737 13.2961 41.1562 13.1105 41.3628 12.8659C40.7641 12.6507 40.3509 12.0011 40.4099 11.3684C40.5701 11.3473 40.7346 11.3768 40.8779 11.4569C40.8105 10.3011 39.6847 9.54605 38.715 8.9133C37.9181 8.39023 37.1465 7.82497 36.4129 7.21754C36.3244 7.14582 36.2358 7.06568 36.2105 6.956C36.181 6.81258 36.278 6.67337 36.3708 6.55948C36.6406 6.22623 36.9062 5.88877 37.1761 5.55552C36.0714 6.11656 34.5409 5.54286 34.0813 4.39126C33.9253 3.99896 33.8621 3.53917 33.5501 3.25232C33.3224 3.04562 33.0062 2.97813 32.7406 2.82205C32.4791 2.66597 32.2557 2.33273 32.4033 2.06697L32.4707 1.78857C32.6351 1.72529 32.7827 1.61983 32.8966 1.48485C31.6485 1.96573 30.2487 1.63249 28.9754 1.22753L28.9122 1.19378C28.9206 1.02083 28.9544 0.847881 29.0134 0.683367C28.8574 0.860536 28.6592 0.995522 28.4358 1.07567L28.4062 1.16004C27.7696 0.501979 26.8547 0.126549 25.9397 0.139204C25.5265 0.147641 25.0796 0.219352 24.7297 0C24.8941 0.232007 25.0585 0.459796 25.223 0.691804C24.4893 1.03349 23.6292 0.928029 22.8492 0.712895C22.0692 0.497761 21.3103 0.177169 20.505 0.105458C18.9407 -0.0379648 17.4566 0.755078 15.9092 1.0124C14.9943 1.16425 13.915 1.20644 13.3964 1.96995C13.35 1.6578 13.3078 1.34986 13.2614 1.03771C13.038 1.45954 12.8103 1.88137 12.5868 2.3032C12.4561 2.34538 12.4688 2.57739 12.6037 2.60692C11.3177 3.2017 10.0486 3.8471 8.80907 4.53469C8.97772 4.20988 8.75004 3.7543 8.39166 3.68681C8.18084 4.28159 7.82246 4.82575 7.35446 5.24758C7.43878 5.04089 7.42192 4.79622 7.3123 4.60218C6.88645 5.26867 6.27931 5.81706 5.57098 6.17139C5.57098 5.88033 5.57098 5.58927 5.57098 5.2982C4.75724 5.89299 4.02783 6.60166 3.41226 7.39892C2.93582 8.01902 2.51419 8.71082 2.37084 9.47855C2.22327 10.2463 2.38771 11.1068 2.93582 11.6636C2.57744 11.4527 2.21484 11.246 1.85646 11.0351C1.88597 11.7944 2.40879 12.4693 3.05387 12.8743C3.69896 13.2793 4.45367 13.4649 5.19152 13.6462L5.62158 13.8487C5.4993 14.2537 5.37703 14.6586 5.25476 15.0636C4.80784 16.3713 4.36091 17.679 3.91399 18.9824C3.70318 19.6025 3.48815 20.2395 3.53453 20.8933C3.62307 22.1757 4.694 23.2387 4.74881 24.5211C4.79097 25.5081 4.23021 26.4066 3.69053 27.2292C3.10869 28.1193 2.52684 29.0093 1.945 29.8952C1.70467 30.2622 1.4517 30.684 1.54867 31.1101C1.69202 31.7513 2.4636 31.9664 3.08339 32.1773C3.70318 32.3882 4.39886 32.9746 4.11637 33.5651C4.04048 33.7296 3.89713 33.852 3.8128 34.0081C3.56404 34.4678 3.8634 35.0415 4.24286 35.3959C4.62654 35.7544 5.10719 36.0244 5.36017 36.48C4.87951 36.7289 4.63919 37.3658 4.83314 37.872C4.98492 38.2728 5.35174 38.547 5.59206 38.9055C6.67986 40.5253 4.81627 42.9171 5.80288 44.6002L5.81552 44.537C6.06428 45.4355 6.97921 46.026 7.89836 46.161C8.82172 46.296 9.75351 46.0598 10.6474 45.7982C12.064 45.3806 13.4596 44.8871 14.8257 44.3176C15.0829 44.2122 15.4834 44.1657 15.5466 44.4399C15.5635 44.5159 15.5466 44.596 15.5256 44.6677C15.0871 46.2454 14.2059 47.6923 13.9487 49.3079C13.8475 49.9406 13.8433 50.5945 13.6325 51.1977C13.2952 52.1552 12.4814 52.8555 11.6972 53.5093L11.4737 53.4292C9.22226 52.9525 6.91175 52.75 4.61389 52.826C5.15779 54.315 5.7059 55.8083 6.2498 57.2974C6.3552 57.5842 6.46061 57.8837 6.40158 58.1832C6.30883 58.6641 5.84082 58.9594 5.41498 59.1998C4.85843 59.5162 4.29767 59.8326 3.74112 60.1447C3.74112 60.1447 3.39117 60.3936 2.99485 60.769C1.56975 62.1358 1.21558 68.1595 0.874068 71.1123C0.74758 72.188 0.524118 73.7193 0.0898438 75.55H53.3623C51.9414 63.9117 49.0111 58.7906 46.3928 56.3271V56.3651Z" fill="url(#paint3_radial_758_5370)" fill-opacity="0.8"/>
</g>
<defs>
<filter id="filter0_i_758_5370" x="0.0898438" y="0" width="54.2725" height="76.55" filterUnits="userSpaceOnUse" color-interpolation-filters="sRGB">
<feFlood flood-opacity="0" result="BackgroundImageFix"/>
<feBlend mode="normal" in="SourceGraphic" in2="BackgroundImageFix" result="shape"/>
<feColorMatrix in="SourceAlpha" type="matrix" values="0 0 0 0 0 0 0 0 0 0 0 0 0 0 0 0 0 0 127 0" result="hardAlpha"/>
<feOffset dx="1" dy="1"/>
<feGaussianBlur stdDeviation="2.5"/>
<feComposite in2="hardAlpha" operator="arithmetic" k2="-1" k3="1"/>
<feColorMatrix type="matrix" values="0 0 0 0 0 0 0 0 0 0 0 0 0 0 0 0 0 0 0.5 0"/>
<feBlend mode="normal" in2="shape" result="effect1_innerShadow_758_5370"/>
</filter>
<radialGradient id="paint0_radial_758_5370" cx="0" cy="0" r="1" gradientUnits="userSpaceOnUse" gradientTransform="translate(36.2505 37.775) rotate(54.6216) scale(29.5553 28.4565)">
<stop stop-color="#FFA724" stop-opacity="0.84"/>
<stop offset="1" stop-color="#FFA724" stop-opacity="0"/>
</radialGradient>
<radialGradient id="paint1_radial_758_5370" cx="0" cy="0" r="1" gradientUnits="userSpaceOnUse" gradientTransform="translate(6.46293 37.9357) rotate(-11.7) scale(53.9021 53.3205)">
<stop stop-color="#FFC700" stop-opacity="0.74"/>
<stop offset="1" stop-color="#FFC700" stop-opacity="0"/>
</radialGradient>
<radialGradient id="paint2_radial_758_5370" cx="0" cy="0" r="1" gradientUnits="userSpaceOnUse" gradientTransform="translate(50.2951 71.4794) rotate(-179.83) scale(54.887 39.3725)">
<stop stop-color="#FF1F00" stop-opacity="0.87"/>
<stop offset="1" stop-color="#FF1F00" stop-opacity="0"/>
</radialGradient>
<radialGradient id="paint3_radial_758_5370" cx="0" cy="0" r="1" gradientUnits="userSpaceOnUse" gradientTransform="translate(22.6407 3.53638) rotate(48.6375) scale(42.5813 40.5504)">
<stop stop-color="#2B880B" stop-opacity="0.94"/>
<stop offset="1" stop-color="#2B880B" stop-opacity="0"/>
</radialGradient>
</defs>
</svg>
