<svg width="165" height="232" viewBox="0 0 165 232" fill="none" xmlns="http://www.w3.org/2000/svg">
<g filter="url(#filter0_i_596_5346)">
<path d="M129.014 152.308C126.973 146.722 126.34 140.358 128.693 134.896C124.692 135.808 120.536 133.176 118.505 129.621C116.473 126.055 116.152 121.785 116.214 117.691C116.318 110.913 117.334 104.156 119.22 97.6467C119.883 98.4033 120.547 99.1599 121.21 99.9269C120.049 90.5886 127.626 82.7842 131.989 74.4512C138.747 61.5476 137.783 45.3481 131.046 32.4341C124.309 19.5201 112.307 9.7983 98.8848 4.13935C100.243 3.35166 101.186 1.87992 101.341 0.314902C97.0192 2.62616 91.7748 1.41352 86.9346 0.698383C65.0447 -2.51457 43.1964 5.8702 23.2136 15.3847C24.0635 13.913 24.903 12.4309 25.7529 10.9591C20.9438 12.7418 17.1193 16.9808 15.8341 21.9557C14.6733 19.4475 11.5743 18.0172 8.91059 18.7531C11.6883 19.8932 13.7197 22.6605 13.9892 25.6454L13.2222 25.4589C11.8852 26.7026 10.5378 27.9567 9.29408 29.2937C3.19975 35.8543 -0.41746 44.8299 0.038578 53.7847C0.494616 62.7395 5.18973 71.5181 12.7455 76.3686C11.7816 74.7 11.4499 72.6686 11.8334 70.7719C12.5382 74.5549 16.5803 76.7936 18.1039 80.3278C19.5653 83.7377 18.4356 87.6554 17.1607 91.1379C15.5024 95.6464 13.6264 100.082 11.5328 104.404C11.1286 105.244 10.7037 106.114 10.6518 107.037C10.5067 109.773 13.4192 111.545 15.9481 112.592C18.477 113.639 21.4516 115.142 21.6589 117.868C21.7833 119.547 20.7779 121.371 21.6071 122.832C22.4881 124.376 24.9548 124.553 25.6182 126.201C26.1053 127.424 25.3072 128.802 25.4834 130.098C25.7633 132.202 28.2508 133.145 29.5567 134.824C31.3083 137.073 30.7175 140.327 31.7125 142.991C32.863 146.059 36.076 148.007 39.32 148.453C42.5641 148.909 45.86 148.111 48.9798 147.105C51.063 146.432 53.1567 145.654 55.3436 145.665C57.5305 145.675 59.8729 146.67 60.7849 148.66C61.6348 150.515 61.0648 152.692 61.3964 154.703C61.6141 156.008 62.2049 157.242 62.3396 158.568C62.4743 159.937 62.0908 161.336 61.2824 162.445L61.4172 162.486C36.5424 191.289 29.8158 197.393 13.9996 232H165C158.512 207.675 150.842 189.288 137.555 167.917C134.414 162.87 131.067 157.864 129.025 152.277L129.014 152.308Z" fill="white"/>
<path d="M129.014 152.308C126.973 146.722 126.34 140.358 128.693 134.896C124.692 135.808 120.536 133.176 118.505 129.621C116.473 126.055 116.152 121.785 116.214 117.691C116.318 110.913 117.334 104.156 119.22 97.6467C119.883 98.4033 120.547 99.1599 121.21 99.9269C120.049 90.5886 127.626 82.7842 131.989 74.4512C138.747 61.5476 137.783 45.3481 131.046 32.4341C124.309 19.5201 112.307 9.7983 98.8848 4.13935C100.243 3.35166 101.186 1.87992 101.341 0.314902C97.0192 2.62616 91.7748 1.41352 86.9346 0.698383C65.0447 -2.51457 43.1964 5.8702 23.2136 15.3847C24.0635 13.913 24.903 12.4309 25.7529 10.9591C20.9438 12.7418 17.1193 16.9808 15.8341 21.9557C14.6733 19.4475 11.5743 18.0172 8.91059 18.7531C11.6883 19.8932 13.7197 22.6605 13.9892 25.6454L13.2222 25.4589C11.8852 26.7026 10.5378 27.9567 9.29408 29.2937C3.19975 35.8543 -0.41746 44.8299 0.038578 53.7847C0.494616 62.7395 5.18973 71.5181 12.7455 76.3686C11.7816 74.7 11.4499 72.6686 11.8334 70.7719C12.5382 74.5549 16.5803 76.7936 18.1039 80.3278C19.5653 83.7377 18.4356 87.6554 17.1607 91.1379C15.5024 95.6464 13.6264 100.082 11.5328 104.404C11.1286 105.244 10.7037 106.114 10.6518 107.037C10.5067 109.773 13.4192 111.545 15.9481 112.592C18.477 113.639 21.4516 115.142 21.6589 117.868C21.7833 119.547 20.7779 121.371 21.6071 122.832C22.4881 124.376 24.9548 124.553 25.6182 126.201C26.1053 127.424 25.3072 128.802 25.4834 130.098C25.7633 132.202 28.2508 133.145 29.5567 134.824C31.3083 137.073 30.7175 140.327 31.7125 142.991C32.863 146.059 36.076 148.007 39.32 148.453C42.5641 148.909 45.86 148.111 48.9798 147.105C51.063 146.432 53.1567 145.654 55.3436 145.665C57.5305 145.675 59.8729 146.67 60.7849 148.66C61.6348 150.515 61.0648 152.692 61.3964 154.703C61.6141 156.008 62.2049 157.242 62.3396 158.568C62.4743 159.937 62.0908 161.336 61.2824 162.445L61.4172 162.486C36.5424 191.289 29.8158 197.393 13.9996 232H165C158.512 207.675 150.842 189.288 137.555 167.917C134.414 162.87 131.067 157.864 129.025 152.277L129.014 152.308Z" fill="url(#paint0_radial_596_5346)"/>
<path d="M129.014 152.308C126.973 146.722 126.34 140.358 128.693 134.896C124.692 135.808 120.536 133.176 118.505 129.621C116.473 126.055 116.152 121.785 116.214 117.691C116.318 110.913 117.334 104.156 119.22 97.6467C119.883 98.4033 120.547 99.1599 121.21 99.9269C120.049 90.5886 127.626 82.7842 131.989 74.4512C138.747 61.5476 137.783 45.3481 131.046 32.4341C124.309 19.5201 112.307 9.7983 98.8848 4.13935C100.243 3.35166 101.186 1.87992 101.341 0.314902C97.0192 2.62616 91.7748 1.41352 86.9346 0.698383C65.0447 -2.51457 43.1964 5.8702 23.2136 15.3847C24.0635 13.913 24.903 12.4309 25.7529 10.9591C20.9438 12.7418 17.1193 16.9808 15.8341 21.9557C14.6733 19.4475 11.5743 18.0172 8.91059 18.7531C11.6883 19.8932 13.7197 22.6605 13.9892 25.6454L13.2222 25.4589C11.8852 26.7026 10.5378 27.9567 9.29408 29.2937C3.19975 35.8543 -0.41746 44.8299 0.038578 53.7847C0.494616 62.7395 5.18973 71.5181 12.7455 76.3686C11.7816 74.7 11.4499 72.6686 11.8334 70.7719C12.5382 74.5549 16.5803 76.7936 18.1039 80.3278C19.5653 83.7377 18.4356 87.6554 17.1607 91.1379C15.5024 95.6464 13.6264 100.082 11.5328 104.404C11.1286 105.244 10.7037 106.114 10.6518 107.037C10.5067 109.773 13.4192 111.545 15.9481 112.592C18.477 113.639 21.4516 115.142 21.6589 117.868C21.7833 119.547 20.7779 121.371 21.6071 122.832C22.4881 124.376 24.9548 124.553 25.6182 126.201C26.1053 127.424 25.3072 128.802 25.4834 130.098C25.7633 132.202 28.2508 133.145 29.5567 134.824C31.3083 137.073 30.7175 140.327 31.7125 142.991C32.863 146.059 36.076 148.007 39.32 148.453C42.5641 148.909 45.86 148.111 48.9798 147.105C51.063 146.432 53.1567 145.654 55.3436 145.665C57.5305 145.675 59.8729 146.67 60.7849 148.66C61.6348 150.515 61.0648 152.692 61.3964 154.703C61.6141 156.008 62.2049 157.242 62.3396 158.568C62.4743 159.937 62.0908 161.336 61.2824 162.445L61.4172 162.486C36.5424 191.289 29.8158 197.393 13.9996 232H165C158.512 207.675 150.842 189.288 137.555 167.917C134.414 162.87 131.067 157.864 129.025 152.277L129.014 152.308Z" fill="url(#paint1_radial_596_5346)"/>
<path d="M129.014 152.308C126.973 146.722 126.34 140.358 128.693 134.896C124.692 135.808 120.536 133.176 118.505 129.621C116.473 126.055 116.152 121.785 116.214 117.691C116.318 110.913 117.334 104.156 119.22 97.6467C119.883 98.4033 120.547 99.1599 121.21 99.9269C120.049 90.5886 127.626 82.7842 131.989 74.4512C138.747 61.5476 137.783 45.3481 131.046 32.4341C124.309 19.5201 112.307 9.7983 98.8848 4.13935C100.243 3.35166 101.186 1.87992 101.341 0.314902C97.0192 2.62616 91.7748 1.41352 86.9346 0.698383C65.0447 -2.51457 43.1964 5.8702 23.2136 15.3847C24.0635 13.913 24.903 12.4309 25.7529 10.9591C20.9438 12.7418 17.1193 16.9808 15.8341 21.9557C14.6733 19.4475 11.5743 18.0172 8.91059 18.7531C11.6883 19.8932 13.7197 22.6605 13.9892 25.6454L13.2222 25.4589C11.8852 26.7026 10.5378 27.9567 9.29408 29.2937C3.19975 35.8543 -0.41746 44.8299 0.038578 53.7847C0.494616 62.7395 5.18973 71.5181 12.7455 76.3686C11.7816 74.7 11.4499 72.6686 11.8334 70.7719C12.5382 74.5549 16.5803 76.7936 18.1039 80.3278C19.5653 83.7377 18.4356 87.6554 17.1607 91.1379C15.5024 95.6464 13.6264 100.082 11.5328 104.404C11.1286 105.244 10.7037 106.114 10.6518 107.037C10.5067 109.773 13.4192 111.545 15.9481 112.592C18.477 113.639 21.4516 115.142 21.6589 117.868C21.7833 119.547 20.7779 121.371 21.6071 122.832C22.4881 124.376 24.9548 124.553 25.6182 126.201C26.1053 127.424 25.3072 128.802 25.4834 130.098C25.7633 132.202 28.2508 133.145 29.5567 134.824C31.3083 137.073 30.7175 140.327 31.7125 142.991C32.863 146.059 36.076 148.007 39.32 148.453C42.5641 148.909 45.86 148.111 48.9798 147.105C51.063 146.432 53.1567 145.654 55.3436 145.665C57.5305 145.675 59.8729 146.67 60.7849 148.66C61.6348 150.515 61.0648 152.692 61.3964 154.703C61.6141 156.008 62.2049 157.242 62.3396 158.568C62.4743 159.937 62.0908 161.336 61.2824 162.445L61.4172 162.486C36.5424 191.289 29.8158 197.393 13.9996 232H165C158.512 207.675 150.842 189.288 137.555 167.917C134.414 162.87 131.067 157.864 129.025 152.277L129.014 152.308Z" fill="url(#paint2_radial_596_5346)"/>
</g>
<defs>
<filter id="filter0_i_596_5346" x="0" y="0" width="166" height="233" filterUnits="userSpaceOnUse" color-interpolation-filters="sRGB">
<feFlood flood-opacity="0" result="BackgroundImageFix"/>
<feBlend mode="normal" in="SourceGraphic" in2="BackgroundImageFix" result="shape"/>
<feColorMatrix in="SourceAlpha" type="matrix" values="0 0 0 0 0 0 0 0 0 0 0 0 0 0 0 0 0 0 127 0" result="hardAlpha"/>
<feOffset dx="1" dy="1"/>
<feGaussianBlur stdDeviation="2.5"/>
<feComposite in2="hardAlpha" operator="arithmetic" k2="-1" k3="1"/>
<feColorMatrix type="matrix" values="0 0 0 0 0 0 0 0 0 0 0 0 0 0 0 0 0 0 0.5 0"/>
<feBlend mode="normal" in2="shape" result="effect1_innerShadow_596_5346"/>
</filter>
<radialGradient id="paint0_radial_596_5346" cx="0" cy="0" r="1" gradientUnits="userSpaceOnUse" gradientTransform="translate(63 261.282) rotate(-107.158) scale(172.872 122.971)">
<stop offset="0.078125" stop-color="#FF1A6C" stop-opacity="0.67"/>
<stop offset="1" stop-color="#FF1A6C" stop-opacity="0"/>
</radialGradient>
<radialGradient id="paint1_radial_596_5346" cx="0" cy="0" r="1" gradientUnits="userSpaceOnUse" gradientTransform="translate(147 124.634) rotate(-162.984) scale(137.259 139.355)">
<stop offset="0.328125" stop-color="#FF2C2C" stop-opacity="0.84"/>
<stop offset="1" stop-color="#FF0000" stop-opacity="0"/>
</radialGradient>
<radialGradient id="paint2_radial_596_5346" cx="0" cy="0" r="1" gradientUnits="userSpaceOnUse" gradientTransform="translate(24.75 39.4175) rotate(80.5973) scale(142.313 161.111)">
<stop offset="0.401042" stop-color="#FF9900" stop-opacity="0.68"/>
<stop offset="1" stop-color="#FF9900" stop-opacity="0"/>
</radialGradient>
</defs>
</svg>
