<svg width="50" height="76" viewBox="0 0 50 76" fill="none" xmlns="http://www.w3.org/2000/svg">
<g filter="url(#filter0_i_758_5362)">
<path d="M49.7756 18.0256C49.7671 17.3902 49.7164 16.6623 49.2098 16.2794C49.176 15.5598 49.1423 14.8403 49.1085 14.1208C48.9185 13.9988 48.7243 13.8767 48.5343 13.7505C48.6905 12.4798 48.0826 11.1501 47.0229 10.4306C46.5205 10.0897 45.9125 9.86674 45.541 9.38705C45.0639 8.77272 45.0977 7.91854 44.8317 7.1906C43.7804 4.35035 39.1152 4.87212 37.4391 2.35166C37.2153 2.01504 37.0465 1.62793 36.7298 1.37967C36.2949 1.04305 35.687 1.05146 35.1339 1.06408C32.643 1.11458 30.1436 0.862111 27.7118 0.319309C26.2214 -0.0131045 24.3976 -0.353934 23.397 0.790579C23.093 0.668554 22.7932 0.550736 22.4893 0.428711C22.333 0.719047 22.1768 1.00938 22.0248 1.29551C21.7884 1.22398 21.5478 1.15666 21.3113 1.08512C21.2142 1.5059 21.1171 1.92247 21.02 2.34325L20.8511 2.85239C17.9507 3.71498 15.654 5.88198 13.5092 8.01111C12.7028 8.81479 11.8669 9.67739 11.5967 10.7798C11.4194 11.5036 11.5038 12.2652 11.3518 12.9973C11.0605 14.4153 9.91213 15.522 8.64556 16.2331C7.37898 16.9442 5.96885 17.3524 4.64317 17.9499C4.08165 18.2023 3.49058 18.5432 3.27949 19.1196C2.75597 20.5545 4.94293 22.0524 4.25053 23.4158C3.99722 23.9165 3.40615 24.211 3.25416 24.7496C3.02195 25.5743 3.95077 26.3023 3.97188 27.1565C3.60458 26.6936 2.80241 26.7693 2.41399 27.2154C2.02558 27.6614 2.00024 28.3388 2.2029 28.8943C2.35066 29.3024 2.6082 29.6895 2.6082 30.1271C2.6082 30.5311 2.38444 30.893 2.19023 31.2506C1.46406 32.5761 1.08409 34.2928 1.92003 35.551C2.40977 36.2873 3.23305 36.7333 4.06477 37.0447C5.3609 37.5286 6.74147 37.7516 8.07982 38.0967C9.42239 38.4417 10.765 38.934 11.7909 39.8639C12.8168 40.7896 13.467 42.2329 13.1377 43.571L13.1208 43.2175C13.1124 47.3622 13.4712 51.5068 14.1974 55.5841L14.0581 55.2307C13.5725 56.1564 12.5973 56.6992 11.8204 57.4019C10.9127 58.2224 10.2583 59.2828 9.62082 60.3305C6.5557 65.3378 3.49058 70.3408 0.429688 75.348L0.678781 75.55H47.4155L47.4704 75.4659C48.2557 73.7912 48.1079 71.8051 47.5168 70.0505C46.9215 68.2958 45.9209 66.7179 44.9963 65.1105C43.5144 62.5312 42.2183 59.8508 41.1206 57.0863C40.8673 56.4467 40.5929 55.7609 40.0229 55.3695C39.0856 54.7258 37.7346 55.1255 36.7383 54.5827L36.6707 54.6753C35.5899 53.4929 34.5049 52.3021 33.6225 50.964C32.7401 49.6259 32.0646 48.1238 31.883 46.5332L31.9928 46.7731C31.8197 46.0031 32.0984 45.1867 32.567 44.5514C33.0356 43.916 33.6816 43.4363 34.3275 42.9819C36.9114 41.1725 39.7063 39.6746 42.6405 38.5132C43.9577 37.213 44.8401 35.5089 45.6887 33.8468C46.4276 32.3951 47.1664 30.9435 47.7701 29.4287C48.2008 28.3388 48.5639 27.2154 49.1212 26.1845C49.3365 25.7847 49.5856 25.3934 49.7122 24.9516C49.8347 24.5182 49.8304 24.0638 49.8262 23.6135C49.8051 21.7495 49.7882 19.8812 49.7671 18.0172L49.7756 18.0256Z" fill="white"/>
<path d="M49.7756 18.0256C49.7671 17.3902 49.7164 16.6623 49.2098 16.2794C49.176 15.5598 49.1423 14.8403 49.1085 14.1208C48.9185 13.9988 48.7243 13.8767 48.5343 13.7505C48.6905 12.4798 48.0826 11.1501 47.0229 10.4306C46.5205 10.0897 45.9125 9.86674 45.541 9.38705C45.0639 8.77272 45.0977 7.91854 44.8317 7.1906C43.7804 4.35035 39.1152 4.87212 37.4391 2.35166C37.2153 2.01504 37.0465 1.62793 36.7298 1.37967C36.2949 1.04305 35.687 1.05146 35.1339 1.06408C32.643 1.11458 30.1436 0.862111 27.7118 0.319309C26.2214 -0.0131045 24.3976 -0.353934 23.397 0.790579C23.093 0.668554 22.7932 0.550736 22.4893 0.428711C22.333 0.719047 22.1768 1.00938 22.0248 1.29551C21.7884 1.22398 21.5478 1.15666 21.3113 1.08512C21.2142 1.5059 21.1171 1.92247 21.02 2.34325L20.8511 2.85239C17.9507 3.71498 15.654 5.88198 13.5092 8.01111C12.7028 8.81479 11.8669 9.67739 11.5967 10.7798C11.4194 11.5036 11.5038 12.2652 11.3518 12.9973C11.0605 14.4153 9.91213 15.522 8.64556 16.2331C7.37898 16.9442 5.96885 17.3524 4.64317 17.9499C4.08165 18.2023 3.49058 18.5432 3.27949 19.1196C2.75597 20.5545 4.94293 22.0524 4.25053 23.4158C3.99722 23.9165 3.40615 24.211 3.25416 24.7496C3.02195 25.5743 3.95077 26.3023 3.97188 27.1565C3.60458 26.6936 2.80241 26.7693 2.41399 27.2154C2.02558 27.6614 2.00024 28.3388 2.2029 28.8943C2.35066 29.3024 2.6082 29.6895 2.6082 30.1271C2.6082 30.5311 2.38444 30.893 2.19023 31.2506C1.46406 32.5761 1.08409 34.2928 1.92003 35.551C2.40977 36.2873 3.23305 36.7333 4.06477 37.0447C5.3609 37.5286 6.74147 37.7516 8.07982 38.0967C9.42239 38.4417 10.765 38.934 11.7909 39.8639C12.8168 40.7896 13.467 42.2329 13.1377 43.571L13.1208 43.2175C13.1124 47.3622 13.4712 51.5068 14.1974 55.5841L14.0581 55.2307C13.5725 56.1564 12.5973 56.6992 11.8204 57.4019C10.9127 58.2224 10.2583 59.2828 9.62082 60.3305C6.5557 65.3378 3.49058 70.3408 0.429688 75.348L0.678781 75.55H47.4155L47.4704 75.4659C48.2557 73.7912 48.1079 71.8051 47.5168 70.0505C46.9215 68.2958 45.9209 66.7179 44.9963 65.1105C43.5144 62.5312 42.2183 59.8508 41.1206 57.0863C40.8673 56.4467 40.5929 55.7609 40.0229 55.3695C39.0856 54.7258 37.7346 55.1255 36.7383 54.5827L36.6707 54.6753C35.5899 53.4929 34.5049 52.3021 33.6225 50.964C32.7401 49.6259 32.0646 48.1238 31.883 46.5332L31.9928 46.7731C31.8197 46.0031 32.0984 45.1867 32.567 44.5514C33.0356 43.916 33.6816 43.4363 34.3275 42.9819C36.9114 41.1725 39.7063 39.6746 42.6405 38.5132C43.9577 37.213 44.8401 35.5089 45.6887 33.8468C46.4276 32.3951 47.1664 30.9435 47.7701 29.4287C48.2008 28.3388 48.5639 27.2154 49.1212 26.1845C49.3365 25.7847 49.5856 25.3934 49.7122 24.9516C49.8347 24.5182 49.8304 24.0638 49.8262 23.6135C49.8051 21.7495 49.7882 19.8812 49.7671 18.0172L49.7756 18.0256Z" fill="url(#paint0_radial_758_5362)"/>
<path d="M49.7756 18.0256C49.7671 17.3902 49.7164 16.6623 49.2098 16.2794C49.176 15.5598 49.1423 14.8403 49.1085 14.1208C48.9185 13.9988 48.7243 13.8767 48.5343 13.7505C48.6905 12.4798 48.0826 11.1501 47.0229 10.4306C46.5205 10.0897 45.9125 9.86674 45.541 9.38705C45.0639 8.77272 45.0977 7.91854 44.8317 7.1906C43.7804 4.35035 39.1152 4.87212 37.4391 2.35166C37.2153 2.01504 37.0465 1.62793 36.7298 1.37967C36.2949 1.04305 35.687 1.05146 35.1339 1.06408C32.643 1.11458 30.1436 0.862111 27.7118 0.319309C26.2214 -0.0131045 24.3976 -0.353934 23.397 0.790579C23.093 0.668554 22.7932 0.550736 22.4893 0.428711C22.333 0.719047 22.1768 1.00938 22.0248 1.29551C21.7884 1.22398 21.5478 1.15666 21.3113 1.08512C21.2142 1.5059 21.1171 1.92247 21.02 2.34325L20.8511 2.85239C17.9507 3.71498 15.654 5.88198 13.5092 8.01111C12.7028 8.81479 11.8669 9.67739 11.5967 10.7798C11.4194 11.5036 11.5038 12.2652 11.3518 12.9973C11.0605 14.4153 9.91213 15.522 8.64556 16.2331C7.37898 16.9442 5.96885 17.3524 4.64317 17.9499C4.08165 18.2023 3.49058 18.5432 3.27949 19.1196C2.75597 20.5545 4.94293 22.0524 4.25053 23.4158C3.99722 23.9165 3.40615 24.211 3.25416 24.7496C3.02195 25.5743 3.95077 26.3023 3.97188 27.1565C3.60458 26.6936 2.80241 26.7693 2.41399 27.2154C2.02558 27.6614 2.00024 28.3388 2.2029 28.8943C2.35066 29.3024 2.6082 29.6895 2.6082 30.1271C2.6082 30.5311 2.38444 30.893 2.19023 31.2506C1.46406 32.5761 1.08409 34.2928 1.92003 35.551C2.40977 36.2873 3.23305 36.7333 4.06477 37.0447C5.3609 37.5286 6.74147 37.7516 8.07982 38.0967C9.42239 38.4417 10.765 38.934 11.7909 39.8639C12.8168 40.7896 13.467 42.2329 13.1377 43.571L13.1208 43.2175C13.1124 47.3622 13.4712 51.5068 14.1974 55.5841L14.0581 55.2307C13.5725 56.1564 12.5973 56.6992 11.8204 57.4019C10.9127 58.2224 10.2583 59.2828 9.62082 60.3305C6.5557 65.3378 3.49058 70.3408 0.429688 75.348L0.678781 75.55H47.4155L47.4704 75.4659C48.2557 73.7912 48.1079 71.8051 47.5168 70.0505C46.9215 68.2958 45.9209 66.7179 44.9963 65.1105C43.5144 62.5312 42.2183 59.8508 41.1206 57.0863C40.8673 56.4467 40.5929 55.7609 40.0229 55.3695C39.0856 54.7258 37.7346 55.1255 36.7383 54.5827L36.6707 54.6753C35.5899 53.4929 34.5049 52.3021 33.6225 50.964C32.7401 49.6259 32.0646 48.1238 31.883 46.5332L31.9928 46.7731C31.8197 46.0031 32.0984 45.1867 32.567 44.5514C33.0356 43.916 33.6816 43.4363 34.3275 42.9819C36.9114 41.1725 39.7063 39.6746 42.6405 38.5132C43.9577 37.213 44.8401 35.5089 45.6887 33.8468C46.4276 32.3951 47.1664 30.9435 47.7701 29.4287C48.2008 28.3388 48.5639 27.2154 49.1212 26.1845C49.3365 25.7847 49.5856 25.3934 49.7122 24.9516C49.8347 24.5182 49.8304 24.0638 49.8262 23.6135C49.8051 21.7495 49.7882 19.8812 49.7671 18.0172L49.7756 18.0256Z" fill="url(#paint1_radial_758_5362)"/>
<path d="M49.7756 18.0256C49.7671 17.3902 49.7164 16.6623 49.2098 16.2794C49.176 15.5598 49.1423 14.8403 49.1085 14.1208C48.9185 13.9988 48.7243 13.8767 48.5343 13.7505C48.6905 12.4798 48.0826 11.1501 47.0229 10.4306C46.5205 10.0897 45.9125 9.86674 45.541 9.38705C45.0639 8.77272 45.0977 7.91854 44.8317 7.1906C43.7804 4.35035 39.1152 4.87212 37.4391 2.35166C37.2153 2.01504 37.0465 1.62793 36.7298 1.37967C36.2949 1.04305 35.687 1.05146 35.1339 1.06408C32.643 1.11458 30.1436 0.862111 27.7118 0.319309C26.2214 -0.0131045 24.3976 -0.353934 23.397 0.790579C23.093 0.668554 22.7932 0.550736 22.4893 0.428711C22.333 0.719047 22.1768 1.00938 22.0248 1.29551C21.7884 1.22398 21.5478 1.15666 21.3113 1.08512C21.2142 1.5059 21.1171 1.92247 21.02 2.34325L20.8511 2.85239C17.9507 3.71498 15.654 5.88198 13.5092 8.01111C12.7028 8.81479 11.8669 9.67739 11.5967 10.7798C11.4194 11.5036 11.5038 12.2652 11.3518 12.9973C11.0605 14.4153 9.91213 15.522 8.64556 16.2331C7.37898 16.9442 5.96885 17.3524 4.64317 17.9499C4.08165 18.2023 3.49058 18.5432 3.27949 19.1196C2.75597 20.5545 4.94293 22.0524 4.25053 23.4158C3.99722 23.9165 3.40615 24.211 3.25416 24.7496C3.02195 25.5743 3.95077 26.3023 3.97188 27.1565C3.60458 26.6936 2.80241 26.7693 2.41399 27.2154C2.02558 27.6614 2.00024 28.3388 2.2029 28.8943C2.35066 29.3024 2.6082 29.6895 2.6082 30.1271C2.6082 30.5311 2.38444 30.893 2.19023 31.2506C1.46406 32.5761 1.08409 34.2928 1.92003 35.551C2.40977 36.2873 3.23305 36.7333 4.06477 37.0447C5.3609 37.5286 6.74147 37.7516 8.07982 38.0967C9.42239 38.4417 10.765 38.934 11.7909 39.8639C12.8168 40.7896 13.467 42.2329 13.1377 43.571L13.1208 43.2175C13.1124 47.3622 13.4712 51.5068 14.1974 55.5841L14.0581 55.2307C13.5725 56.1564 12.5973 56.6992 11.8204 57.4019C10.9127 58.2224 10.2583 59.2828 9.62082 60.3305C6.5557 65.3378 3.49058 70.3408 0.429688 75.348L0.678781 75.55H47.4155L47.4704 75.4659C48.2557 73.7912 48.1079 71.8051 47.5168 70.0505C46.9215 68.2958 45.9209 66.7179 44.9963 65.1105C43.5144 62.5312 42.2183 59.8508 41.1206 57.0863C40.8673 56.4467 40.5929 55.7609 40.0229 55.3695C39.0856 54.7258 37.7346 55.1255 36.7383 54.5827L36.6707 54.6753C35.5899 53.4929 34.5049 52.3021 33.6225 50.964C32.7401 49.6259 32.0646 48.1238 31.883 46.5332L31.9928 46.7731C31.8197 46.0031 32.0984 45.1867 32.567 44.5514C33.0356 43.916 33.6816 43.4363 34.3275 42.9819C36.9114 41.1725 39.7063 39.6746 42.6405 38.5132C43.9577 37.213 44.8401 35.5089 45.6887 33.8468C46.4276 32.3951 47.1664 30.9435 47.7701 29.4287C48.2008 28.3388 48.5639 27.2154 49.1212 26.1845C49.3365 25.7847 49.5856 25.3934 49.7122 24.9516C49.8347 24.5182 49.8304 24.0638 49.8262 23.6135C49.8051 21.7495 49.7882 19.8812 49.7671 18.0172L49.7756 18.0256Z" fill="url(#paint2_radial_758_5362)"/>
</g>
<defs>
<filter id="filter0_i_758_5362" x="0.429688" y="0" width="50.3984" height="76.55" filterUnits="userSpaceOnUse" color-interpolation-filters="sRGB">
<feFlood flood-opacity="0" result="BackgroundImageFix"/>
<feBlend mode="normal" in="SourceGraphic" in2="BackgroundImageFix" result="shape"/>
<feColorMatrix in="SourceAlpha" type="matrix" values="0 0 0 0 0 0 0 0 0 0 0 0 0 0 0 0 0 0 127 0" result="hardAlpha"/>
<feOffset dx="1" dy="1"/>
<feGaussianBlur stdDeviation="2.5"/>
<feComposite in2="hardAlpha" operator="arithmetic" k2="-1" k3="1"/>
<feColorMatrix type="matrix" values="0 0 0 0 0 0 0 0 0 0 0 0 0 0 0 0 0 0 0.5 0"/>
<feBlend mode="normal" in2="shape" result="effect1_innerShadow_758_5362"/>
</filter>
<radialGradient id="paint0_radial_758_5362" cx="0" cy="0" r="1" gradientUnits="userSpaceOnUse" gradientTransform="translate(38.6009 21.167) rotate(86.4754) scale(65.7421 63.5894)">
<stop stop-color="#9BDBFF"/>
<stop offset="1" stop-color="#C9F2FF" stop-opacity="0"/>
</radialGradient>
<radialGradient id="paint1_radial_758_5362" cx="0" cy="0" r="1" gradientUnits="userSpaceOnUse" gradientTransform="translate(14.2013 46.2418) rotate(42.6955) scale(45.6221 43.4372)">
<stop stop-color="#FFA5E6"/>
<stop offset="1" stop-color="#FFABDD" stop-opacity="0"/>
</radialGradient>
<radialGradient id="paint2_radial_758_5362" cx="0" cy="0" r="1" gradientUnits="userSpaceOnUse" gradientTransform="translate(45.4867 71.1538) rotate(-108.251) scale(31.5464 40.8353)">
<stop stop-color="#B78BFF" stop-opacity="0.6"/>
<stop offset="1" stop-color="#9A5CFF" stop-opacity="0"/>
</radialGradient>
</defs>
</svg>
