<svg width="54" height="76" viewBox="0 0 54 76" fill="none" xmlns="http://www.w3.org/2000/svg">
<g filter="url(#filter0_i_758_5368)">
<path d="M46.8479 56.3651C46.3967 55.9391 45.3216 54.8212 44.1242 53.1086C42.0962 50.219 41.3035 46.4943 41.9781 43.031C40.397 43.4318 38.8117 43.8283 37.2306 44.229C36.8385 44.326 36.3747 44.4104 36.0753 44.1362C35.8856 43.9633 35.8266 43.6933 35.7802 43.4402C35.2152 40.2258 35.8434 36.8132 37.5131 34.0081C37.7408 34.2527 38.057 34.4172 38.3901 34.4594C38.3985 33.3458 38.4027 32.2279 38.4111 31.1143L38.4575 31.4602C38.4702 31.0215 38.4828 30.587 38.4997 30.1483C38.6388 30.4562 38.778 30.7599 38.9171 31.0679C38.7442 29.3299 39.3598 27.6131 40.144 26.0523C40.924 24.4915 41.8853 23.0151 42.4925 21.3826C42.6738 20.8891 42.8256 20.3787 42.8298 19.8514C42.834 19.4253 42.7412 19.0035 42.6527 18.5859C42.2606 16.8058 41.8643 15.0045 41.021 13.3889C41.3288 13.2961 41.6113 13.1105 41.8179 12.8659C41.2192 12.6507 40.806 12.0011 40.865 11.3684C41.0252 11.3473 41.1897 11.3768 41.333 11.4569C41.2656 10.3011 40.1398 9.54605 39.1701 8.9133C38.3732 8.39023 37.6016 7.82497 36.868 7.21754C36.7795 7.14582 36.6909 7.06568 36.6656 6.956C36.6361 6.81258 36.7331 6.67337 36.8258 6.55948C37.0957 6.22623 37.3613 5.88877 37.6311 5.55552C36.5265 6.11656 34.996 5.54286 34.5364 4.39126C34.3804 3.99896 34.3172 3.53917 34.0052 3.25232C33.7775 3.04562 33.4613 2.97813 33.1956 2.82205C32.9342 2.66597 32.7108 2.33273 32.8583 2.06697L32.9258 1.78857C33.0902 1.72529 33.2378 1.61983 33.3516 1.48485C32.1036 1.96573 30.7038 1.63249 29.4305 1.22753L29.3673 1.19378C29.3757 1.02083 29.4094 0.847881 29.4685 0.683367C29.3125 0.860536 29.1143 0.995522 28.8908 1.07567L28.8613 1.16004C28.2247 0.501979 27.3097 0.126549 26.3948 0.139204C25.9816 0.147641 25.5347 0.219352 25.1847 0C25.3492 0.232007 25.5136 0.459796 25.678 0.691804C24.9444 1.03349 24.0843 0.928029 23.3043 0.712895C22.5243 0.497761 21.7654 0.177169 20.96 0.105458C19.3958 -0.0379648 17.9117 0.755078 16.3643 1.0124C15.4494 1.16425 14.37 1.20644 13.8514 1.96995C13.8051 1.6578 13.7629 1.34986 13.7165 1.03771C13.4931 1.45954 13.2654 1.88137 13.0419 2.3032C12.9112 2.34538 12.9239 2.57739 13.0588 2.60692C11.7728 3.2017 10.5037 3.8471 9.26414 4.53469C9.4328 4.20988 9.20512 3.7543 8.84674 3.68681C8.63592 4.28159 8.27754 4.82575 7.80954 5.24758C7.89386 5.04089 7.877 4.79622 7.76737 4.60218C7.34153 5.26867 6.73439 5.81706 6.02606 6.17139C6.02606 5.88033 6.02606 5.58927 6.02606 5.2982C5.21232 5.89299 4.48291 6.60166 3.86733 7.39892C3.3909 8.01902 2.96927 8.71082 2.82592 9.47855C2.67835 10.2463 2.84278 11.1068 3.3909 11.6636C3.03251 11.4527 2.66992 11.246 2.31153 11.0351C2.34105 11.7944 2.86386 12.4693 3.50895 12.8743C4.15404 13.2793 4.90875 13.4649 5.6466 13.6462L6.07665 13.8487C5.95438 14.2537 5.83211 14.6586 5.70984 15.0636C5.26292 16.3713 4.81599 17.679 4.36907 18.9824C4.15826 19.6025 3.94323 20.2395 3.98961 20.8933C4.07815 22.1757 5.14908 23.2387 5.20389 24.5211C5.24605 25.5081 4.68529 26.4066 4.14561 27.2292C3.56376 28.1193 2.98192 29.0093 2.40008 29.8952C2.15975 30.2622 1.90677 30.684 2.00375 31.1101C2.1471 31.7513 2.91868 31.9664 3.53847 32.1773C4.15826 32.3882 4.85394 32.9746 4.57145 33.5651C4.49556 33.7296 4.3522 33.852 4.26788 34.0081C4.01912 34.4678 4.31847 35.0415 4.69794 35.3959C5.08162 35.7544 5.56227 36.0244 5.81525 36.48C5.33459 36.7289 5.09427 37.3658 5.28821 37.872C5.44 38.2728 5.80681 38.547 6.04714 38.9055C7.13493 40.5253 5.27135 42.9171 6.25795 44.6002L6.2706 44.537C6.51936 45.4355 7.43429 46.026 8.35343 46.161C9.27679 46.296 10.2086 46.0598 11.1024 45.7982C12.5191 45.3806 13.9147 44.8871 15.2807 44.3176C15.5379 44.2122 15.9385 44.1657 16.0017 44.4399C16.0186 44.5159 16.0017 44.596 15.9806 44.6677C15.5422 46.2454 14.661 47.6923 14.4038 49.3079C14.3026 49.9406 14.2984 50.5945 14.0875 51.1977C13.7502 52.1552 12.9365 52.8555 12.1523 53.5093L11.9288 53.4292C9.67734 52.9525 7.36683 52.75 5.06897 52.826C5.61287 54.315 6.16098 55.8083 6.70488 57.2974C6.81028 57.5842 6.91569 57.8837 6.85666 58.1832C6.7639 58.6641 6.2959 58.9594 5.87006 59.1998C5.31351 59.5162 4.75275 59.8326 4.1962 60.1447C4.1962 60.1447 3.84625 60.3936 3.44992 60.769C2.02483 62.1358 1.67066 68.1595 1.32915 71.1123C1.20266 72.188 0.979197 73.7193 0.544922 75.55H53.8174C52.3965 63.9117 49.4662 58.7906 46.8479 56.3271V56.3651Z" fill="white"/>
<path d="M46.8479 56.3651C46.3967 55.9391 45.3216 54.8212 44.1242 53.1086C42.0962 50.219 41.3035 46.4943 41.9781 43.031C40.397 43.4318 38.8117 43.8283 37.2306 44.229C36.8385 44.326 36.3747 44.4104 36.0753 44.1362C35.8856 43.9633 35.8266 43.6933 35.7802 43.4402C35.2152 40.2258 35.8434 36.8132 37.5131 34.0081C37.7408 34.2527 38.057 34.4172 38.3901 34.4594C38.3985 33.3458 38.4027 32.2279 38.4111 31.1143L38.4575 31.4602C38.4702 31.0215 38.4828 30.587 38.4997 30.1483C38.6388 30.4562 38.778 30.7599 38.9171 31.0679C38.7442 29.3299 39.3598 27.6131 40.144 26.0523C40.924 24.4915 41.8853 23.0151 42.4925 21.3826C42.6738 20.8891 42.8256 20.3787 42.8298 19.8514C42.834 19.4253 42.7412 19.0035 42.6527 18.5859C42.2606 16.8058 41.8643 15.0045 41.021 13.3889C41.3288 13.2961 41.6113 13.1105 41.8179 12.8659C41.2192 12.6507 40.806 12.0011 40.865 11.3684C41.0252 11.3473 41.1897 11.3768 41.333 11.4569C41.2656 10.3011 40.1398 9.54605 39.1701 8.9133C38.3732 8.39023 37.6016 7.82497 36.868 7.21754C36.7795 7.14582 36.6909 7.06568 36.6656 6.956C36.6361 6.81258 36.7331 6.67337 36.8258 6.55948C37.0957 6.22623 37.3613 5.88877 37.6311 5.55552C36.5265 6.11656 34.996 5.54286 34.5364 4.39126C34.3804 3.99896 34.3172 3.53917 34.0052 3.25232C33.7775 3.04562 33.4613 2.97813 33.1956 2.82205C32.9342 2.66597 32.7108 2.33273 32.8583 2.06697L32.9258 1.78857C33.0902 1.72529 33.2378 1.61983 33.3516 1.48485C32.1036 1.96573 30.7038 1.63249 29.4305 1.22753L29.3673 1.19378C29.3757 1.02083 29.4094 0.847881 29.4685 0.683367C29.3125 0.860536 29.1143 0.995522 28.8908 1.07567L28.8613 1.16004C28.2247 0.501979 27.3097 0.126549 26.3948 0.139204C25.9816 0.147641 25.5347 0.219352 25.1847 0C25.3492 0.232007 25.5136 0.459796 25.678 0.691804C24.9444 1.03349 24.0843 0.928029 23.3043 0.712895C22.5243 0.497761 21.7654 0.177169 20.96 0.105458C19.3958 -0.0379648 17.9117 0.755078 16.3643 1.0124C15.4494 1.16425 14.37 1.20644 13.8514 1.96995C13.8051 1.6578 13.7629 1.34986 13.7165 1.03771C13.4931 1.45954 13.2654 1.88137 13.0419 2.3032C12.9112 2.34538 12.9239 2.57739 13.0588 2.60692C11.7728 3.2017 10.5037 3.8471 9.26414 4.53469C9.4328 4.20988 9.20512 3.7543 8.84674 3.68681C8.63592 4.28159 8.27754 4.82575 7.80954 5.24758C7.89386 5.04089 7.877 4.79622 7.76737 4.60218C7.34153 5.26867 6.73439 5.81706 6.02606 6.17139C6.02606 5.88033 6.02606 5.58927 6.02606 5.2982C5.21232 5.89299 4.48291 6.60166 3.86733 7.39892C3.3909 8.01902 2.96927 8.71082 2.82592 9.47855C2.67835 10.2463 2.84278 11.1068 3.3909 11.6636C3.03251 11.4527 2.66992 11.246 2.31153 11.0351C2.34105 11.7944 2.86386 12.4693 3.50895 12.8743C4.15404 13.2793 4.90875 13.4649 5.6466 13.6462L6.07665 13.8487C5.95438 14.2537 5.83211 14.6586 5.70984 15.0636C5.26292 16.3713 4.81599 17.679 4.36907 18.9824C4.15826 19.6025 3.94323 20.2395 3.98961 20.8933C4.07815 22.1757 5.14908 23.2387 5.20389 24.5211C5.24605 25.5081 4.68529 26.4066 4.14561 27.2292C3.56376 28.1193 2.98192 29.0093 2.40008 29.8952C2.15975 30.2622 1.90677 30.684 2.00375 31.1101C2.1471 31.7513 2.91868 31.9664 3.53847 32.1773C4.15826 32.3882 4.85394 32.9746 4.57145 33.5651C4.49556 33.7296 4.3522 33.852 4.26788 34.0081C4.01912 34.4678 4.31847 35.0415 4.69794 35.3959C5.08162 35.7544 5.56227 36.0244 5.81525 36.48C5.33459 36.7289 5.09427 37.3658 5.28821 37.872C5.44 38.2728 5.80681 38.547 6.04714 38.9055C7.13493 40.5253 5.27135 42.9171 6.25795 44.6002L6.2706 44.537C6.51936 45.4355 7.43429 46.026 8.35343 46.161C9.27679 46.296 10.2086 46.0598 11.1024 45.7982C12.5191 45.3806 13.9147 44.8871 15.2807 44.3176C15.5379 44.2122 15.9385 44.1657 16.0017 44.4399C16.0186 44.5159 16.0017 44.596 15.9806 44.6677C15.5422 46.2454 14.661 47.6923 14.4038 49.3079C14.3026 49.9406 14.2984 50.5945 14.0875 51.1977C13.7502 52.1552 12.9365 52.8555 12.1523 53.5093L11.9288 53.4292C9.67734 52.9525 7.36683 52.75 5.06897 52.826C5.61287 54.315 6.16098 55.8083 6.70488 57.2974C6.81028 57.5842 6.91569 57.8837 6.85666 58.1832C6.7639 58.6641 6.2959 58.9594 5.87006 59.1998C5.31351 59.5162 4.75275 59.8326 4.1962 60.1447C4.1962 60.1447 3.84625 60.3936 3.44992 60.769C2.02483 62.1358 1.67066 68.1595 1.32915 71.1123C1.20266 72.188 0.979197 73.7193 0.544922 75.55H53.8174C52.3965 63.9117 49.4662 58.7906 46.8479 56.3271V56.3651Z" fill="url(#paint0_radial_758_5368)"/>
<path d="M46.8479 56.3651C46.3967 55.9391 45.3216 54.8212 44.1242 53.1086C42.0962 50.219 41.3035 46.4943 41.9781 43.031C40.397 43.4318 38.8117 43.8283 37.2306 44.229C36.8385 44.326 36.3747 44.4104 36.0753 44.1362C35.8856 43.9633 35.8266 43.6933 35.7802 43.4402C35.2152 40.2258 35.8434 36.8132 37.5131 34.0081C37.7408 34.2527 38.057 34.4172 38.3901 34.4594C38.3985 33.3458 38.4027 32.2279 38.4111 31.1143L38.4575 31.4602C38.4702 31.0215 38.4828 30.587 38.4997 30.1483C38.6388 30.4562 38.778 30.7599 38.9171 31.0679C38.7442 29.3299 39.3598 27.6131 40.144 26.0523C40.924 24.4915 41.8853 23.0151 42.4925 21.3826C42.6738 20.8891 42.8256 20.3787 42.8298 19.8514C42.834 19.4253 42.7412 19.0035 42.6527 18.5859C42.2606 16.8058 41.8643 15.0045 41.021 13.3889C41.3288 13.2961 41.6113 13.1105 41.8179 12.8659C41.2192 12.6507 40.806 12.0011 40.865 11.3684C41.0252 11.3473 41.1897 11.3768 41.333 11.4569C41.2656 10.3011 40.1398 9.54605 39.1701 8.9133C38.3732 8.39023 37.6016 7.82497 36.868 7.21754C36.7795 7.14582 36.6909 7.06568 36.6656 6.956C36.6361 6.81258 36.7331 6.67337 36.8258 6.55948C37.0957 6.22623 37.3613 5.88877 37.6311 5.55552C36.5265 6.11656 34.996 5.54286 34.5364 4.39126C34.3804 3.99896 34.3172 3.53917 34.0052 3.25232C33.7775 3.04562 33.4613 2.97813 33.1956 2.82205C32.9342 2.66597 32.7108 2.33273 32.8583 2.06697L32.9258 1.78857C33.0902 1.72529 33.2378 1.61983 33.3516 1.48485C32.1036 1.96573 30.7038 1.63249 29.4305 1.22753L29.3673 1.19378C29.3757 1.02083 29.4094 0.847881 29.4685 0.683367C29.3125 0.860536 29.1143 0.995522 28.8908 1.07567L28.8613 1.16004C28.2247 0.501979 27.3097 0.126549 26.3948 0.139204C25.9816 0.147641 25.5347 0.219352 25.1847 0C25.3492 0.232007 25.5136 0.459796 25.678 0.691804C24.9444 1.03349 24.0843 0.928029 23.3043 0.712895C22.5243 0.497761 21.7654 0.177169 20.96 0.105458C19.3958 -0.0379648 17.9117 0.755078 16.3643 1.0124C15.4494 1.16425 14.37 1.20644 13.8514 1.96995C13.8051 1.6578 13.7629 1.34986 13.7165 1.03771C13.4931 1.45954 13.2654 1.88137 13.0419 2.3032C12.9112 2.34538 12.9239 2.57739 13.0588 2.60692C11.7728 3.2017 10.5037 3.8471 9.26414 4.53469C9.4328 4.20988 9.20512 3.7543 8.84674 3.68681C8.63592 4.28159 8.27754 4.82575 7.80954 5.24758C7.89386 5.04089 7.877 4.79622 7.76737 4.60218C7.34153 5.26867 6.73439 5.81706 6.02606 6.17139C6.02606 5.88033 6.02606 5.58927 6.02606 5.2982C5.21232 5.89299 4.48291 6.60166 3.86733 7.39892C3.3909 8.01902 2.96927 8.71082 2.82592 9.47855C2.67835 10.2463 2.84278 11.1068 3.3909 11.6636C3.03251 11.4527 2.66992 11.246 2.31153 11.0351C2.34105 11.7944 2.86386 12.4693 3.50895 12.8743C4.15404 13.2793 4.90875 13.4649 5.6466 13.6462L6.07665 13.8487C5.95438 14.2537 5.83211 14.6586 5.70984 15.0636C5.26292 16.3713 4.81599 17.679 4.36907 18.9824C4.15826 19.6025 3.94323 20.2395 3.98961 20.8933C4.07815 22.1757 5.14908 23.2387 5.20389 24.5211C5.24605 25.5081 4.68529 26.4066 4.14561 27.2292C3.56376 28.1193 2.98192 29.0093 2.40008 29.8952C2.15975 30.2622 1.90677 30.684 2.00375 31.1101C2.1471 31.7513 2.91868 31.9664 3.53847 32.1773C4.15826 32.3882 4.85394 32.9746 4.57145 33.5651C4.49556 33.7296 4.3522 33.852 4.26788 34.0081C4.01912 34.4678 4.31847 35.0415 4.69794 35.3959C5.08162 35.7544 5.56227 36.0244 5.81525 36.48C5.33459 36.7289 5.09427 37.3658 5.28821 37.872C5.44 38.2728 5.80681 38.547 6.04714 38.9055C7.13493 40.5253 5.27135 42.9171 6.25795 44.6002L6.2706 44.537C6.51936 45.4355 7.43429 46.026 8.35343 46.161C9.27679 46.296 10.2086 46.0598 11.1024 45.7982C12.5191 45.3806 13.9147 44.8871 15.2807 44.3176C15.5379 44.2122 15.9385 44.1657 16.0017 44.4399C16.0186 44.5159 16.0017 44.596 15.9806 44.6677C15.5422 46.2454 14.661 47.6923 14.4038 49.3079C14.3026 49.9406 14.2984 50.5945 14.0875 51.1977C13.7502 52.1552 12.9365 52.8555 12.1523 53.5093L11.9288 53.4292C9.67734 52.9525 7.36683 52.75 5.06897 52.826C5.61287 54.315 6.16098 55.8083 6.70488 57.2974C6.81028 57.5842 6.91569 57.8837 6.85666 58.1832C6.7639 58.6641 6.2959 58.9594 5.87006 59.1998C5.31351 59.5162 4.75275 59.8326 4.1962 60.1447C4.1962 60.1447 3.84625 60.3936 3.44992 60.769C2.02483 62.1358 1.67066 68.1595 1.32915 71.1123C1.20266 72.188 0.979197 73.7193 0.544922 75.55H53.8174C52.3965 63.9117 49.4662 58.7906 46.8479 56.3271V56.3651Z" fill="url(#paint1_radial_758_5368)"/>
<path d="M46.8479 56.3651C46.3967 55.9391 45.3216 54.8212 44.1242 53.1086C42.0962 50.219 41.3035 46.4943 41.9781 43.031C40.397 43.4318 38.8117 43.8283 37.2306 44.229C36.8385 44.326 36.3747 44.4104 36.0753 44.1362C35.8856 43.9633 35.8266 43.6933 35.7802 43.4402C35.2152 40.2258 35.8434 36.8132 37.5131 34.0081C37.7408 34.2527 38.057 34.4172 38.3901 34.4594C38.3985 33.3458 38.4027 32.2279 38.4111 31.1143L38.4575 31.4602C38.4702 31.0215 38.4828 30.587 38.4997 30.1483C38.6388 30.4562 38.778 30.7599 38.9171 31.0679C38.7442 29.3299 39.3598 27.6131 40.144 26.0523C40.924 24.4915 41.8853 23.0151 42.4925 21.3826C42.6738 20.8891 42.8256 20.3787 42.8298 19.8514C42.834 19.4253 42.7412 19.0035 42.6527 18.5859C42.2606 16.8058 41.8643 15.0045 41.021 13.3889C41.3288 13.2961 41.6113 13.1105 41.8179 12.8659C41.2192 12.6507 40.806 12.0011 40.865 11.3684C41.0252 11.3473 41.1897 11.3768 41.333 11.4569C41.2656 10.3011 40.1398 9.54605 39.1701 8.9133C38.3732 8.39023 37.6016 7.82497 36.868 7.21754C36.7795 7.14582 36.6909 7.06568 36.6656 6.956C36.6361 6.81258 36.7331 6.67337 36.8258 6.55948C37.0957 6.22623 37.3613 5.88877 37.6311 5.55552C36.5265 6.11656 34.996 5.54286 34.5364 4.39126C34.3804 3.99896 34.3172 3.53917 34.0052 3.25232C33.7775 3.04562 33.4613 2.97813 33.1956 2.82205C32.9342 2.66597 32.7108 2.33273 32.8583 2.06697L32.9258 1.78857C33.0902 1.72529 33.2378 1.61983 33.3516 1.48485C32.1036 1.96573 30.7038 1.63249 29.4305 1.22753L29.3673 1.19378C29.3757 1.02083 29.4094 0.847881 29.4685 0.683367C29.3125 0.860536 29.1143 0.995522 28.8908 1.07567L28.8613 1.16004C28.2247 0.501979 27.3097 0.126549 26.3948 0.139204C25.9816 0.147641 25.5347 0.219352 25.1847 0C25.3492 0.232007 25.5136 0.459796 25.678 0.691804C24.9444 1.03349 24.0843 0.928029 23.3043 0.712895C22.5243 0.497761 21.7654 0.177169 20.96 0.105458C19.3958 -0.0379648 17.9117 0.755078 16.3643 1.0124C15.4494 1.16425 14.37 1.20644 13.8514 1.96995C13.8051 1.6578 13.7629 1.34986 13.7165 1.03771C13.4931 1.45954 13.2654 1.88137 13.0419 2.3032C12.9112 2.34538 12.9239 2.57739 13.0588 2.60692C11.7728 3.2017 10.5037 3.8471 9.26414 4.53469C9.4328 4.20988 9.20512 3.7543 8.84674 3.68681C8.63592 4.28159 8.27754 4.82575 7.80954 5.24758C7.89386 5.04089 7.877 4.79622 7.76737 4.60218C7.34153 5.26867 6.73439 5.81706 6.02606 6.17139C6.02606 5.88033 6.02606 5.58927 6.02606 5.2982C5.21232 5.89299 4.48291 6.60166 3.86733 7.39892C3.3909 8.01902 2.96927 8.71082 2.82592 9.47855C2.67835 10.2463 2.84278 11.1068 3.3909 11.6636C3.03251 11.4527 2.66992 11.246 2.31153 11.0351C2.34105 11.7944 2.86386 12.4693 3.50895 12.8743C4.15404 13.2793 4.90875 13.4649 5.6466 13.6462L6.07665 13.8487C5.95438 14.2537 5.83211 14.6586 5.70984 15.0636C5.26292 16.3713 4.81599 17.679 4.36907 18.9824C4.15826 19.6025 3.94323 20.2395 3.98961 20.8933C4.07815 22.1757 5.14908 23.2387 5.20389 24.5211C5.24605 25.5081 4.68529 26.4066 4.14561 27.2292C3.56376 28.1193 2.98192 29.0093 2.40008 29.8952C2.15975 30.2622 1.90677 30.684 2.00375 31.1101C2.1471 31.7513 2.91868 31.9664 3.53847 32.1773C4.15826 32.3882 4.85394 32.9746 4.57145 33.5651C4.49556 33.7296 4.3522 33.852 4.26788 34.0081C4.01912 34.4678 4.31847 35.0415 4.69794 35.3959C5.08162 35.7544 5.56227 36.0244 5.81525 36.48C5.33459 36.7289 5.09427 37.3658 5.28821 37.872C5.44 38.2728 5.80681 38.547 6.04714 38.9055C7.13493 40.5253 5.27135 42.9171 6.25795 44.6002L6.2706 44.537C6.51936 45.4355 7.43429 46.026 8.35343 46.161C9.27679 46.296 10.2086 46.0598 11.1024 45.7982C12.5191 45.3806 13.9147 44.8871 15.2807 44.3176C15.5379 44.2122 15.9385 44.1657 16.0017 44.4399C16.0186 44.5159 16.0017 44.596 15.9806 44.6677C15.5422 46.2454 14.661 47.6923 14.4038 49.3079C14.3026 49.9406 14.2984 50.5945 14.0875 51.1977C13.7502 52.1552 12.9365 52.8555 12.1523 53.5093L11.9288 53.4292C9.67734 52.9525 7.36683 52.75 5.06897 52.826C5.61287 54.315 6.16098 55.8083 6.70488 57.2974C6.81028 57.5842 6.91569 57.8837 6.85666 58.1832C6.7639 58.6641 6.2959 58.9594 5.87006 59.1998C5.31351 59.5162 4.75275 59.8326 4.1962 60.1447C4.1962 60.1447 3.84625 60.3936 3.44992 60.769C2.02483 62.1358 1.67066 68.1595 1.32915 71.1123C1.20266 72.188 0.979197 73.7193 0.544922 75.55H53.8174C52.3965 63.9117 49.4662 58.7906 46.8479 56.3271V56.3651Z" fill="url(#paint2_radial_758_5368)" fill-opacity="0.4"/>
<path d="M46.8479 56.3651C46.3967 55.9391 45.3216 54.8212 44.1242 53.1086C42.0962 50.219 41.3035 46.4943 41.9781 43.031C40.397 43.4318 38.8117 43.8283 37.2306 44.229C36.8385 44.326 36.3747 44.4104 36.0753 44.1362C35.8856 43.9633 35.8266 43.6933 35.7802 43.4402C35.2152 40.2258 35.8434 36.8132 37.5131 34.0081C37.7408 34.2527 38.057 34.4172 38.3901 34.4594C38.3985 33.3458 38.4027 32.2279 38.4111 31.1143L38.4575 31.4602C38.4702 31.0215 38.4828 30.587 38.4997 30.1483C38.6388 30.4562 38.778 30.7599 38.9171 31.0679C38.7442 29.3299 39.3598 27.6131 40.144 26.0523C40.924 24.4915 41.8853 23.0151 42.4925 21.3826C42.6738 20.8891 42.8256 20.3787 42.8298 19.8514C42.834 19.4253 42.7412 19.0035 42.6527 18.5859C42.2606 16.8058 41.8643 15.0045 41.021 13.3889C41.3288 13.2961 41.6113 13.1105 41.8179 12.8659C41.2192 12.6507 40.806 12.0011 40.865 11.3684C41.0252 11.3473 41.1897 11.3768 41.333 11.4569C41.2656 10.3011 40.1398 9.54605 39.1701 8.9133C38.3732 8.39023 37.6016 7.82497 36.868 7.21754C36.7795 7.14582 36.6909 7.06568 36.6656 6.956C36.6361 6.81258 36.7331 6.67337 36.8258 6.55948C37.0957 6.22623 37.3613 5.88877 37.6311 5.55552C36.5265 6.11656 34.996 5.54286 34.5364 4.39126C34.3804 3.99896 34.3172 3.53917 34.0052 3.25232C33.7775 3.04562 33.4613 2.97813 33.1956 2.82205C32.9342 2.66597 32.7108 2.33273 32.8583 2.06697L32.9258 1.78857C33.0902 1.72529 33.2378 1.61983 33.3516 1.48485C32.1036 1.96573 30.7038 1.63249 29.4305 1.22753L29.3673 1.19378C29.3757 1.02083 29.4094 0.847881 29.4685 0.683367C29.3125 0.860536 29.1143 0.995522 28.8908 1.07567L28.8613 1.16004C28.2247 0.501979 27.3097 0.126549 26.3948 0.139204C25.9816 0.147641 25.5347 0.219352 25.1847 0C25.3492 0.232007 25.5136 0.459796 25.678 0.691804C24.9444 1.03349 24.0843 0.928029 23.3043 0.712895C22.5243 0.497761 21.7654 0.177169 20.96 0.105458C19.3958 -0.0379648 17.9117 0.755078 16.3643 1.0124C15.4494 1.16425 14.37 1.20644 13.8514 1.96995C13.8051 1.6578 13.7629 1.34986 13.7165 1.03771C13.4931 1.45954 13.2654 1.88137 13.0419 2.3032C12.9112 2.34538 12.9239 2.57739 13.0588 2.60692C11.7728 3.2017 10.5037 3.8471 9.26414 4.53469C9.4328 4.20988 9.20512 3.7543 8.84674 3.68681C8.63592 4.28159 8.27754 4.82575 7.80954 5.24758C7.89386 5.04089 7.877 4.79622 7.76737 4.60218C7.34153 5.26867 6.73439 5.81706 6.02606 6.17139C6.02606 5.88033 6.02606 5.58927 6.02606 5.2982C5.21232 5.89299 4.48291 6.60166 3.86733 7.39892C3.3909 8.01902 2.96927 8.71082 2.82592 9.47855C2.67835 10.2463 2.84278 11.1068 3.3909 11.6636C3.03251 11.4527 2.66992 11.246 2.31153 11.0351C2.34105 11.7944 2.86386 12.4693 3.50895 12.8743C4.15404 13.2793 4.90875 13.4649 5.6466 13.6462L6.07665 13.8487C5.95438 14.2537 5.83211 14.6586 5.70984 15.0636C5.26292 16.3713 4.81599 17.679 4.36907 18.9824C4.15826 19.6025 3.94323 20.2395 3.98961 20.8933C4.07815 22.1757 5.14908 23.2387 5.20389 24.5211C5.24605 25.5081 4.68529 26.4066 4.14561 27.2292C3.56376 28.1193 2.98192 29.0093 2.40008 29.8952C2.15975 30.2622 1.90677 30.684 2.00375 31.1101C2.1471 31.7513 2.91868 31.9664 3.53847 32.1773C4.15826 32.3882 4.85394 32.9746 4.57145 33.5651C4.49556 33.7296 4.3522 33.852 4.26788 34.0081C4.01912 34.4678 4.31847 35.0415 4.69794 35.3959C5.08162 35.7544 5.56227 36.0244 5.81525 36.48C5.33459 36.7289 5.09427 37.3658 5.28821 37.872C5.44 38.2728 5.80681 38.547 6.04714 38.9055C7.13493 40.5253 5.27135 42.9171 6.25795 44.6002L6.2706 44.537C6.51936 45.4355 7.43429 46.026 8.35343 46.161C9.27679 46.296 10.2086 46.0598 11.1024 45.7982C12.5191 45.3806 13.9147 44.8871 15.2807 44.3176C15.5379 44.2122 15.9385 44.1657 16.0017 44.4399C16.0186 44.5159 16.0017 44.596 15.9806 44.6677C15.5422 46.2454 14.661 47.6923 14.4038 49.3079C14.3026 49.9406 14.2984 50.5945 14.0875 51.1977C13.7502 52.1552 12.9365 52.8555 12.1523 53.5093L11.9288 53.4292C9.67734 52.9525 7.36683 52.75 5.06897 52.826C5.61287 54.315 6.16098 55.8083 6.70488 57.2974C6.81028 57.5842 6.91569 57.8837 6.85666 58.1832C6.7639 58.6641 6.2959 58.9594 5.87006 59.1998C5.31351 59.5162 4.75275 59.8326 4.1962 60.1447C4.1962 60.1447 3.84625 60.3936 3.44992 60.769C2.02483 62.1358 1.67066 68.1595 1.32915 71.1123C1.20266 72.188 0.979197 73.7193 0.544922 75.55H53.8174C52.3965 63.9117 49.4662 58.7906 46.8479 56.3271V56.3651Z" fill="url(#paint3_radial_758_5368)"/>
</g>
<defs>
<filter id="filter0_i_758_5368" x="0.544922" y="0" width="54.2725" height="76.55" filterUnits="userSpaceOnUse" color-interpolation-filters="sRGB">
<feFlood flood-opacity="0" result="BackgroundImageFix"/>
<feBlend mode="normal" in="SourceGraphic" in2="BackgroundImageFix" result="shape"/>
<feColorMatrix in="SourceAlpha" type="matrix" values="0 0 0 0 0 0 0 0 0 0 0 0 0 0 0 0 0 0 127 0" result="hardAlpha"/>
<feOffset dx="1" dy="1"/>
<feGaussianBlur stdDeviation="2.5"/>
<feComposite in2="hardAlpha" operator="arithmetic" k2="-1" k3="1"/>
<feColorMatrix type="matrix" values="0 0 0 0 0 0 0 0 0 0 0 0 0 0 0 0 0 0 0.5 0"/>
<feBlend mode="normal" in2="shape" result="effect1_innerShadow_758_5368"/>
</filter>
<radialGradient id="paint0_radial_758_5368" cx="0" cy="0" r="1" gradientUnits="userSpaceOnUse" gradientTransform="translate(4.25785 46.2418) rotate(49.7428) scale(49.712 41.8316)">
<stop stop-color="#FF3D00" stop-opacity="0.85"/>
<stop offset="1" stop-color="#FF3D00" stop-opacity="0"/>
</radialGradient>
<radialGradient id="paint1_radial_758_5368" cx="0" cy="0" r="1" gradientUnits="userSpaceOnUse" gradientTransform="translate(56.7231 64.6408) rotate(-143.389) scale(45.0485 43.9603)">
<stop stop-color="#0085FF" stop-opacity="0.59"/>
<stop offset="1" stop-color="#364AFF" stop-opacity="0"/>
</radialGradient>
<radialGradient id="paint2_radial_758_5368" cx="0" cy="0" r="1" gradientUnits="userSpaceOnUse" gradientTransform="translate(27.3426 3.90776) rotate(86.2756) scale(32.3072 25.8964)">
<stop stop-color="#FF003D"/>
<stop offset="1" stop-color="#FF003D" stop-opacity="0"/>
</radialGradient>
<radialGradient id="paint3_radial_758_5368" cx="0" cy="0" r="1" gradientUnits="userSpaceOnUse" gradientTransform="translate(37.5128 5.21034) rotate(73.7036) scale(66.1592 49.7062)">
<stop stop-color="#FDFFB3" stop-opacity="0.85"/>
<stop offset="1" stop-color="#FFC700" stop-opacity="0"/>
</radialGradient>
</defs>
</svg>
