<svg width="55" height="76" viewBox="0 0 55 76" fill="none" xmlns="http://www.w3.org/2000/svg">
<g filter="url(#filter0_i_758_5371)">
<path d="M51.5768 68.8469C51.4236 68.7075 50.9643 68.3234 50.8384 67.6946C50.6614 66.8244 51.342 66.0596 51.6108 65.22C52.0497 63.8569 51.3658 62.3681 50.5526 61.2464C49.7393 60.1247 48.7355 59.0811 48.3851 57.6875C47.4187 53.8567 51.7673 50.76 52.0293 46.7898C52.2199 43.8836 50.1953 41.4532 48.334 39.4103C46.4728 37.3674 44.4822 34.8792 44.7612 31.9797C44.9246 30.2802 45.8569 28.8151 46.5919 27.3161C47.3302 25.8171 47.8951 23.9985 47.2894 22.4281C46.8743 21.3506 45.9828 20.6028 45.435 19.6C44.2917 17.5096 44.8395 14.8073 44.3495 12.4211C43.8289 9.88529 42.1548 7.839 40.3412 6.20741C35.9586 2.2678 30.3647 0.0413602 24.7435 0.000570412C19.1189 -0.0402193 13.5011 2.10804 9.07769 5.98987L9.12533 5.94908C6.39641 7.13878 3.52798 8.43385 1.72457 11.0172C0.288658 13.0737 -0.303403 15.8406 0.149149 18.4036C0.598299 20.9665 2.08185 23.2779 4.10983 24.5764C2.94272 22.197 2.86786 19.1854 3.91928 16.738C3.96011 19.046 4.43648 21.3132 4.65085 23.6076C4.86522 25.9021 4.79036 28.3291 3.80699 30.3617C3.28299 31.4495 2.49698 32.7242 3.06522 33.7813C3.40548 34.4101 4.09622 34.6481 4.67467 35.0016C5.25312 35.3551 5.80095 36.0825 5.53894 36.7555C5.46408 36.9459 5.32798 37.1091 5.28374 37.313C5.09319 38.1866 6.58355 38.5129 6.59036 39.4103C6.20926 39.3185 5.96087 39.9235 6.10038 40.3314C6.23989 40.7393 6.58015 41.0147 6.80132 41.375C7.49887 42.4933 6.96465 44.1589 7.61796 45.3112C8.38355 46.6573 10.1631 46.4601 11.5514 46.0998C12.9805 45.7293 14.3824 45.4574 15.2569 45.1378C16.9514 44.5158 17.3529 44.1283 18.0403 44.3764C18.7854 44.645 19.1597 45.4166 19.8811 46.9462C20.7284 48.7511 21.1537 49.6519 20.987 50.5459C20.6943 52.1027 18.8365 53.2924 16.4784 53.5473L16.3219 53.3264C14.9643 53.6017 13.6066 53.877 12.249 54.1524C12.6164 55.8554 12.8206 58.2178 11.776 60.4986C10.6157 63.0309 8.7034 63.7482 6.87278 65.7333C5.25652 67.4872 3.53819 70.4139 3.1707 75.55H54.241C53.3563 71.3181 52.3798 69.5845 51.5768 68.8469Z" fill="white"/>
<path d="M51.5768 68.8469C51.4236 68.7075 50.9643 68.3234 50.8384 67.6946C50.6614 66.8244 51.342 66.0596 51.6108 65.22C52.0497 63.8569 51.3658 62.3681 50.5526 61.2464C49.7393 60.1247 48.7355 59.0811 48.3851 57.6875C47.4187 53.8567 51.7673 50.76 52.0293 46.7898C52.2199 43.8836 50.1953 41.4532 48.334 39.4103C46.4728 37.3674 44.4822 34.8792 44.7612 31.9797C44.9246 30.2802 45.8569 28.8151 46.5919 27.3161C47.3302 25.8171 47.8951 23.9985 47.2894 22.4281C46.8743 21.3506 45.9828 20.6028 45.435 19.6C44.2917 17.5096 44.8395 14.8073 44.3495 12.4211C43.8289 9.88529 42.1548 7.839 40.3412 6.20741C35.9586 2.2678 30.3647 0.0413602 24.7435 0.000570412C19.1189 -0.0402193 13.5011 2.10804 9.07769 5.98987L9.12533 5.94908C6.39641 7.13878 3.52798 8.43385 1.72457 11.0172C0.288658 13.0737 -0.303403 15.8406 0.149149 18.4036C0.598299 20.9665 2.08185 23.2779 4.10983 24.5764C2.94272 22.197 2.86786 19.1854 3.91928 16.738C3.96011 19.046 4.43648 21.3132 4.65085 23.6076C4.86522 25.9021 4.79036 28.3291 3.80699 30.3617C3.28299 31.4495 2.49698 32.7242 3.06522 33.7813C3.40548 34.4101 4.09622 34.6481 4.67467 35.0016C5.25312 35.3551 5.80095 36.0825 5.53894 36.7555C5.46408 36.9459 5.32798 37.1091 5.28374 37.313C5.09319 38.1866 6.58355 38.5129 6.59036 39.4103C6.20926 39.3185 5.96087 39.9235 6.10038 40.3314C6.23989 40.7393 6.58015 41.0147 6.80132 41.375C7.49887 42.4933 6.96465 44.1589 7.61796 45.3112C8.38355 46.6573 10.1631 46.4601 11.5514 46.0998C12.9805 45.7293 14.3824 45.4574 15.2569 45.1378C16.9514 44.5158 17.3529 44.1283 18.0403 44.3764C18.7854 44.645 19.1597 45.4166 19.8811 46.9462C20.7284 48.7511 21.1537 49.6519 20.987 50.5459C20.6943 52.1027 18.8365 53.2924 16.4784 53.5473L16.3219 53.3264C14.9643 53.6017 13.6066 53.877 12.249 54.1524C12.6164 55.8554 12.8206 58.2178 11.776 60.4986C10.6157 63.0309 8.7034 63.7482 6.87278 65.7333C5.25652 67.4872 3.53819 70.4139 3.1707 75.55H54.241C53.3563 71.3181 52.3798 69.5845 51.5768 68.8469Z" fill="url(#paint0_radial_758_5371)"/>
<path d="M51.5768 68.8469C51.4236 68.7075 50.9643 68.3234 50.8384 67.6946C50.6614 66.8244 51.342 66.0596 51.6108 65.22C52.0497 63.8569 51.3658 62.3681 50.5526 61.2464C49.7393 60.1247 48.7355 59.0811 48.3851 57.6875C47.4187 53.8567 51.7673 50.76 52.0293 46.7898C52.2199 43.8836 50.1953 41.4532 48.334 39.4103C46.4728 37.3674 44.4822 34.8792 44.7612 31.9797C44.9246 30.2802 45.8569 28.8151 46.5919 27.3161C47.3302 25.8171 47.8951 23.9985 47.2894 22.4281C46.8743 21.3506 45.9828 20.6028 45.435 19.6C44.2917 17.5096 44.8395 14.8073 44.3495 12.4211C43.8289 9.88529 42.1548 7.839 40.3412 6.20741C35.9586 2.2678 30.3647 0.0413602 24.7435 0.000570412C19.1189 -0.0402193 13.5011 2.10804 9.07769 5.98987L9.12533 5.94908C6.39641 7.13878 3.52798 8.43385 1.72457 11.0172C0.288658 13.0737 -0.303403 15.8406 0.149149 18.4036C0.598299 20.9665 2.08185 23.2779 4.10983 24.5764C2.94272 22.197 2.86786 19.1854 3.91928 16.738C3.96011 19.046 4.43648 21.3132 4.65085 23.6076C4.86522 25.9021 4.79036 28.3291 3.80699 30.3617C3.28299 31.4495 2.49698 32.7242 3.06522 33.7813C3.40548 34.4101 4.09622 34.6481 4.67467 35.0016C5.25312 35.3551 5.80095 36.0825 5.53894 36.7555C5.46408 36.9459 5.32798 37.1091 5.28374 37.313C5.09319 38.1866 6.58355 38.5129 6.59036 39.4103C6.20926 39.3185 5.96087 39.9235 6.10038 40.3314C6.23989 40.7393 6.58015 41.0147 6.80132 41.375C7.49887 42.4933 6.96465 44.1589 7.61796 45.3112C8.38355 46.6573 10.1631 46.4601 11.5514 46.0998C12.9805 45.7293 14.3824 45.4574 15.2569 45.1378C16.9514 44.5158 17.3529 44.1283 18.0403 44.3764C18.7854 44.645 19.1597 45.4166 19.8811 46.9462C20.7284 48.7511 21.1537 49.6519 20.987 50.5459C20.6943 52.1027 18.8365 53.2924 16.4784 53.5473L16.3219 53.3264C14.9643 53.6017 13.6066 53.877 12.249 54.1524C12.6164 55.8554 12.8206 58.2178 11.776 60.4986C10.6157 63.0309 8.7034 63.7482 6.87278 65.7333C5.25652 67.4872 3.53819 70.4139 3.1707 75.55H54.241C53.3563 71.3181 52.3798 69.5845 51.5768 68.8469Z" fill="url(#paint1_radial_758_5371)"/>
<path d="M51.5768 68.8469C51.4236 68.7075 50.9643 68.3234 50.8384 67.6946C50.6614 66.8244 51.342 66.0596 51.6108 65.22C52.0497 63.8569 51.3658 62.3681 50.5526 61.2464C49.7393 60.1247 48.7355 59.0811 48.3851 57.6875C47.4187 53.8567 51.7673 50.76 52.0293 46.7898C52.2199 43.8836 50.1953 41.4532 48.334 39.4103C46.4728 37.3674 44.4822 34.8792 44.7612 31.9797C44.9246 30.2802 45.8569 28.8151 46.5919 27.3161C47.3302 25.8171 47.8951 23.9985 47.2894 22.4281C46.8743 21.3506 45.9828 20.6028 45.435 19.6C44.2917 17.5096 44.8395 14.8073 44.3495 12.4211C43.8289 9.88529 42.1548 7.839 40.3412 6.20741C35.9586 2.2678 30.3647 0.0413602 24.7435 0.000570412C19.1189 -0.0402193 13.5011 2.10804 9.07769 5.98987L9.12533 5.94908C6.39641 7.13878 3.52798 8.43385 1.72457 11.0172C0.288658 13.0737 -0.303403 15.8406 0.149149 18.4036C0.598299 20.9665 2.08185 23.2779 4.10983 24.5764C2.94272 22.197 2.86786 19.1854 3.91928 16.738C3.96011 19.046 4.43648 21.3132 4.65085 23.6076C4.86522 25.9021 4.79036 28.3291 3.80699 30.3617C3.28299 31.4495 2.49698 32.7242 3.06522 33.7813C3.40548 34.4101 4.09622 34.6481 4.67467 35.0016C5.25312 35.3551 5.80095 36.0825 5.53894 36.7555C5.46408 36.9459 5.32798 37.1091 5.28374 37.313C5.09319 38.1866 6.58355 38.5129 6.59036 39.4103C6.20926 39.3185 5.96087 39.9235 6.10038 40.3314C6.23989 40.7393 6.58015 41.0147 6.80132 41.375C7.49887 42.4933 6.96465 44.1589 7.61796 45.3112C8.38355 46.6573 10.1631 46.4601 11.5514 46.0998C12.9805 45.7293 14.3824 45.4574 15.2569 45.1378C16.9514 44.5158 17.3529 44.1283 18.0403 44.3764C18.7854 44.645 19.1597 45.4166 19.8811 46.9462C20.7284 48.7511 21.1537 49.6519 20.987 50.5459C20.6943 52.1027 18.8365 53.2924 16.4784 53.5473L16.3219 53.3264C14.9643 53.6017 13.6066 53.877 12.249 54.1524C12.6164 55.8554 12.8206 58.2178 11.776 60.4986C10.6157 63.0309 8.7034 63.7482 6.87278 65.7333C5.25652 67.4872 3.53819 70.4139 3.1707 75.55H54.241C53.3563 71.3181 52.3798 69.5845 51.5768 68.8469Z" fill="url(#paint2_radial_758_5371)"/>
</g>
<defs>
<filter id="filter0_i_758_5371" x="0" y="0" width="55.2412" height="76.55" filterUnits="userSpaceOnUse" color-interpolation-filters="sRGB">
<feFlood flood-opacity="0" result="BackgroundImageFix"/>
<feBlend mode="normal" in="SourceGraphic" in2="BackgroundImageFix" result="shape"/>
<feColorMatrix in="SourceAlpha" type="matrix" values="0 0 0 0 0 0 0 0 0 0 0 0 0 0 0 0 0 0 127 0" result="hardAlpha"/>
<feOffset dx="1" dy="1"/>
<feGaussianBlur stdDeviation="2.5"/>
<feComposite in2="hardAlpha" operator="arithmetic" k2="-1" k3="1"/>
<feColorMatrix type="matrix" values="0 0 0 0 0 0 0 0 0 0 0 0 0 0 0 0 0 0 0.5 0"/>
<feBlend mode="normal" in2="shape" result="effect1_innerShadow_758_5371"/>
</filter>
<radialGradient id="paint0_radial_758_5371" cx="0" cy="0" r="1" gradientUnits="userSpaceOnUse" gradientTransform="translate(20.7102 85.0854) rotate(-107.311) scale(56.3419 40.3912)">
<stop offset="0.078125" stop-color="#FF1A6C" stop-opacity="0.67"/>
<stop offset="1" stop-color="#FF1A6C" stop-opacity="0"/>
</radialGradient>
<radialGradient id="paint1_radial_758_5371" cx="0" cy="0" r="1" gradientUnits="userSpaceOnUse" gradientTransform="translate(48.3238 40.5867) rotate(-163.134) scale(45.0855 45.4168)">
<stop offset="0.328125" stop-color="#FF2C2C" stop-opacity="0.84"/>
<stop offset="1" stop-color="#FF0000" stop-opacity="0"/>
</radialGradient>
<radialGradient id="paint2_radial_758_5371" cx="0" cy="0" r="1" gradientUnits="userSpaceOnUse" gradientTransform="translate(8.13616 12.8362) rotate(80.5098) scale(46.3556 52.9493)">
<stop offset="0.401042" stop-color="#FF9900" stop-opacity="0.68"/>
<stop offset="1" stop-color="#FF9900" stop-opacity="0"/>
</radialGradient>
</defs>
</svg>
