<svg width="50" height="76" viewBox="0 0 50 76" fill="none" xmlns="http://www.w3.org/2000/svg">
<g filter="url(#filter0_i_758_5363)">
<path d="M49.2064 18.0256C49.1981 17.3902 49.1485 16.6623 48.6518 16.2794C48.6187 15.5598 48.5856 14.8403 48.5524 14.1208C48.3662 13.9988 48.1758 13.8767 47.9895 13.7505C48.1427 12.4798 47.5466 11.1501 46.5077 10.4306C46.0151 10.0897 45.4191 9.86674 45.0549 9.38705C44.5871 8.77272 44.6203 7.91854 44.3595 7.1906C43.3288 4.35035 38.7551 4.87212 37.1119 2.35166C36.8925 2.01504 36.7269 1.62793 36.4165 1.37967C35.9901 1.04305 35.3941 1.05146 34.8519 1.06408C32.4098 1.11458 29.9594 0.862111 27.5753 0.319309C26.1141 -0.0131045 24.326 -0.353934 23.3451 0.790579C23.047 0.668554 22.7532 0.550736 22.4551 0.428711C22.302 0.719047 22.1488 1.00938 21.9998 1.29551C21.768 1.22398 21.5321 1.15666 21.3003 1.08512C21.2051 1.5059 21.1099 1.92247 21.0147 2.34325L20.8492 2.85239C18.0056 3.71498 15.7539 5.88198 13.6512 8.01111C12.8606 8.81479 12.0411 9.67739 11.7762 10.7798C11.6023 11.5036 11.6851 12.2652 11.5361 12.9973C11.2505 14.4153 10.1246 15.522 8.8829 16.2331C7.64115 16.9442 6.25868 17.3524 4.95899 17.9499C4.40848 18.2023 3.829 18.5432 3.62205 19.1196C3.10879 20.5545 5.25287 22.0524 4.57405 23.4158C4.3257 23.9165 3.74622 24.211 3.59721 24.7496C3.36956 25.5743 4.28017 26.3023 4.30087 27.1565C3.94076 26.6936 3.15432 26.7693 2.77352 27.2154C2.39272 27.6614 2.36789 28.3388 2.56657 28.8943C2.71144 29.3024 2.96392 29.6895 2.96392 30.1271C2.96392 30.5311 2.74455 30.893 2.55415 31.2506C1.84222 32.5761 1.46969 34.2928 2.28924 35.551C2.76938 36.2873 3.57652 36.7333 4.39193 37.0447C5.66264 37.5286 7.01614 37.7516 8.32825 38.0967C9.6445 38.4417 10.9607 38.934 11.9666 39.8639C12.9724 40.7896 13.6098 42.2329 13.2869 43.571L13.2704 43.2175C13.2621 47.3622 13.6139 51.5068 14.3259 55.5841L14.1893 55.2307C13.7133 56.1564 12.7571 56.6992 11.9955 57.4019C11.1056 58.2224 10.4641 59.2828 9.83904 60.3305C6.83402 65.3378 3.829 70.3408 0.828125 75.348L1.07233 75.55H46.8927L46.9465 75.4659C47.7163 73.7912 47.5715 71.8051 46.992 70.0505C46.4084 68.2958 45.4274 66.7179 44.5209 65.1105C43.0681 62.5312 41.7974 59.8508 40.7212 57.0863C40.4728 56.4467 40.2038 55.7609 39.645 55.3695C38.7261 54.7258 37.4016 55.1255 36.4248 54.5827L36.3585 54.6753C35.2989 53.4929 34.2351 52.3021 33.3701 50.964C32.505 49.6259 31.8427 48.1238 31.6647 46.5332L31.7724 46.7731C31.6027 46.0031 31.8758 45.1867 32.3353 44.5514C32.7947 43.916 33.428 43.4363 34.0613 42.9819C36.5945 41.1725 39.3346 39.6746 42.2113 38.5132C43.5027 37.213 44.3678 35.5089 45.1997 33.8468C45.9241 32.3951 46.6484 30.9435 47.2403 29.4287C47.6625 28.3388 48.0185 27.2154 48.5649 26.1845C48.776 25.7847 49.0202 25.3934 49.1443 24.9516C49.2644 24.5182 49.2602 24.0638 49.2561 23.6135C49.2354 21.7495 49.2188 19.8812 49.1982 18.0172L49.2064 18.0256Z" fill="white"/>
<path d="M49.2064 18.0256C49.1981 17.3902 49.1485 16.6623 48.6518 16.2794C48.6187 15.5598 48.5856 14.8403 48.5524 14.1208C48.3662 13.9988 48.1758 13.8767 47.9895 13.7505C48.1427 12.4798 47.5466 11.1501 46.5077 10.4306C46.0151 10.0897 45.4191 9.86674 45.0549 9.38705C44.5871 8.77272 44.6203 7.91854 44.3595 7.1906C43.3288 4.35035 38.7551 4.87212 37.1119 2.35166C36.8925 2.01504 36.7269 1.62793 36.4165 1.37967C35.9901 1.04305 35.3941 1.05146 34.8519 1.06408C32.4098 1.11458 29.9594 0.862111 27.5753 0.319309C26.1141 -0.0131045 24.326 -0.353934 23.3451 0.790579C23.047 0.668554 22.7532 0.550736 22.4551 0.428711C22.302 0.719047 22.1488 1.00938 21.9998 1.29551C21.768 1.22398 21.5321 1.15666 21.3003 1.08512C21.2051 1.5059 21.1099 1.92247 21.0147 2.34325L20.8492 2.85239C18.0056 3.71498 15.7539 5.88198 13.6512 8.01111C12.8606 8.81479 12.0411 9.67739 11.7762 10.7798C11.6023 11.5036 11.6851 12.2652 11.5361 12.9973C11.2505 14.4153 10.1246 15.522 8.8829 16.2331C7.64115 16.9442 6.25868 17.3524 4.95899 17.9499C4.40848 18.2023 3.829 18.5432 3.62205 19.1196C3.10879 20.5545 5.25287 22.0524 4.57405 23.4158C4.3257 23.9165 3.74622 24.211 3.59721 24.7496C3.36956 25.5743 4.28017 26.3023 4.30087 27.1565C3.94076 26.6936 3.15432 26.7693 2.77352 27.2154C2.39272 27.6614 2.36789 28.3388 2.56657 28.8943C2.71144 29.3024 2.96392 29.6895 2.96392 30.1271C2.96392 30.5311 2.74455 30.893 2.55415 31.2506C1.84222 32.5761 1.46969 34.2928 2.28924 35.551C2.76938 36.2873 3.57652 36.7333 4.39193 37.0447C5.66264 37.5286 7.01614 37.7516 8.32825 38.0967C9.6445 38.4417 10.9607 38.934 11.9666 39.8639C12.9724 40.7896 13.6098 42.2329 13.2869 43.571L13.2704 43.2175C13.2621 47.3622 13.6139 51.5068 14.3259 55.5841L14.1893 55.2307C13.7133 56.1564 12.7571 56.6992 11.9955 57.4019C11.1056 58.2224 10.4641 59.2828 9.83904 60.3305C6.83402 65.3378 3.829 70.3408 0.828125 75.348L1.07233 75.55H46.8927L46.9465 75.4659C47.7163 73.7912 47.5715 71.8051 46.992 70.0505C46.4084 68.2958 45.4274 66.7179 44.5209 65.1105C43.0681 62.5312 41.7974 59.8508 40.7212 57.0863C40.4728 56.4467 40.2038 55.7609 39.645 55.3695C38.7261 54.7258 37.4016 55.1255 36.4248 54.5827L36.3585 54.6753C35.2989 53.4929 34.2351 52.3021 33.3701 50.964C32.505 49.6259 31.8427 48.1238 31.6647 46.5332L31.7724 46.7731C31.6027 46.0031 31.8758 45.1867 32.3353 44.5514C32.7947 43.916 33.428 43.4363 34.0613 42.9819C36.5945 41.1725 39.3346 39.6746 42.2113 38.5132C43.5027 37.213 44.3678 35.5089 45.1997 33.8468C45.9241 32.3951 46.6484 30.9435 47.2403 29.4287C47.6625 28.3388 48.0185 27.2154 48.5649 26.1845C48.776 25.7847 49.0202 25.3934 49.1443 24.9516C49.2644 24.5182 49.2602 24.0638 49.2561 23.6135C49.2354 21.7495 49.2188 19.8812 49.1982 18.0172L49.2064 18.0256Z" fill="url(#paint0_radial_758_5363)"/>
<path d="M49.2064 18.0256C49.1981 17.3902 49.1485 16.6623 48.6518 16.2794C48.6187 15.5598 48.5856 14.8403 48.5524 14.1208C48.3662 13.9988 48.1758 13.8767 47.9895 13.7505C48.1427 12.4798 47.5466 11.1501 46.5077 10.4306C46.0151 10.0897 45.4191 9.86674 45.0549 9.38705C44.5871 8.77272 44.6203 7.91854 44.3595 7.1906C43.3288 4.35035 38.7551 4.87212 37.1119 2.35166C36.8925 2.01504 36.7269 1.62793 36.4165 1.37967C35.9901 1.04305 35.3941 1.05146 34.8519 1.06408C32.4098 1.11458 29.9594 0.862111 27.5753 0.319309C26.1141 -0.0131045 24.326 -0.353934 23.3451 0.790579C23.047 0.668554 22.7532 0.550736 22.4551 0.428711C22.302 0.719047 22.1488 1.00938 21.9998 1.29551C21.768 1.22398 21.5321 1.15666 21.3003 1.08512C21.2051 1.5059 21.1099 1.92247 21.0147 2.34325L20.8492 2.85239C18.0056 3.71498 15.7539 5.88198 13.6512 8.01111C12.8606 8.81479 12.0411 9.67739 11.7762 10.7798C11.6023 11.5036 11.6851 12.2652 11.5361 12.9973C11.2505 14.4153 10.1246 15.522 8.8829 16.2331C7.64115 16.9442 6.25868 17.3524 4.95899 17.9499C4.40848 18.2023 3.829 18.5432 3.62205 19.1196C3.10879 20.5545 5.25287 22.0524 4.57405 23.4158C4.3257 23.9165 3.74622 24.211 3.59721 24.7496C3.36956 25.5743 4.28017 26.3023 4.30087 27.1565C3.94076 26.6936 3.15432 26.7693 2.77352 27.2154C2.39272 27.6614 2.36789 28.3388 2.56657 28.8943C2.71144 29.3024 2.96392 29.6895 2.96392 30.1271C2.96392 30.5311 2.74455 30.893 2.55415 31.2506C1.84222 32.5761 1.46969 34.2928 2.28924 35.551C2.76938 36.2873 3.57652 36.7333 4.39193 37.0447C5.66264 37.5286 7.01614 37.7516 8.32825 38.0967C9.6445 38.4417 10.9607 38.934 11.9666 39.8639C12.9724 40.7896 13.6098 42.2329 13.2869 43.571L13.2704 43.2175C13.2621 47.3622 13.6139 51.5068 14.3259 55.5841L14.1893 55.2307C13.7133 56.1564 12.7571 56.6992 11.9955 57.4019C11.1056 58.2224 10.4641 59.2828 9.83904 60.3305C6.83402 65.3378 3.829 70.3408 0.828125 75.348L1.07233 75.55H46.8927L46.9465 75.4659C47.7163 73.7912 47.5715 71.8051 46.992 70.0505C46.4084 68.2958 45.4274 66.7179 44.5209 65.1105C43.0681 62.5312 41.7974 59.8508 40.7212 57.0863C40.4728 56.4467 40.2038 55.7609 39.645 55.3695C38.7261 54.7258 37.4016 55.1255 36.4248 54.5827L36.3585 54.6753C35.2989 53.4929 34.2351 52.3021 33.3701 50.964C32.505 49.6259 31.8427 48.1238 31.6647 46.5332L31.7724 46.7731C31.6027 46.0031 31.8758 45.1867 32.3353 44.5514C32.7947 43.916 33.428 43.4363 34.0613 42.9819C36.5945 41.1725 39.3346 39.6746 42.2113 38.5132C43.5027 37.213 44.3678 35.5089 45.1997 33.8468C45.9241 32.3951 46.6484 30.9435 47.2403 29.4287C47.6625 28.3388 48.0185 27.2154 48.5649 26.1845C48.776 25.7847 49.0202 25.3934 49.1443 24.9516C49.2644 24.5182 49.2602 24.0638 49.2561 23.6135C49.2354 21.7495 49.2188 19.8812 49.1982 18.0172L49.2064 18.0256Z" fill="url(#paint1_radial_758_5363)"/>
<path d="M49.2064 18.0256C49.1981 17.3902 49.1485 16.6623 48.6518 16.2794C48.6187 15.5598 48.5856 14.8403 48.5524 14.1208C48.3662 13.9988 48.1758 13.8767 47.9895 13.7505C48.1427 12.4798 47.5466 11.1501 46.5077 10.4306C46.0151 10.0897 45.4191 9.86674 45.0549 9.38705C44.5871 8.77272 44.6203 7.91854 44.3595 7.1906C43.3288 4.35035 38.7551 4.87212 37.1119 2.35166C36.8925 2.01504 36.7269 1.62793 36.4165 1.37967C35.9901 1.04305 35.3941 1.05146 34.8519 1.06408C32.4098 1.11458 29.9594 0.862111 27.5753 0.319309C26.1141 -0.0131045 24.326 -0.353934 23.3451 0.790579C23.047 0.668554 22.7532 0.550736 22.4551 0.428711C22.302 0.719047 22.1488 1.00938 21.9998 1.29551C21.768 1.22398 21.5321 1.15666 21.3003 1.08512C21.2051 1.5059 21.1099 1.92247 21.0147 2.34325L20.8492 2.85239C18.0056 3.71498 15.7539 5.88198 13.6512 8.01111C12.8606 8.81479 12.0411 9.67739 11.7762 10.7798C11.6023 11.5036 11.6851 12.2652 11.5361 12.9973C11.2505 14.4153 10.1246 15.522 8.8829 16.2331C7.64115 16.9442 6.25868 17.3524 4.95899 17.9499C4.40848 18.2023 3.829 18.5432 3.62205 19.1196C3.10879 20.5545 5.25287 22.0524 4.57405 23.4158C4.3257 23.9165 3.74622 24.211 3.59721 24.7496C3.36956 25.5743 4.28017 26.3023 4.30087 27.1565C3.94076 26.6936 3.15432 26.7693 2.77352 27.2154C2.39272 27.6614 2.36789 28.3388 2.56657 28.8943C2.71144 29.3024 2.96392 29.6895 2.96392 30.1271C2.96392 30.5311 2.74455 30.893 2.55415 31.2506C1.84222 32.5761 1.46969 34.2928 2.28924 35.551C2.76938 36.2873 3.57652 36.7333 4.39193 37.0447C5.66264 37.5286 7.01614 37.7516 8.32825 38.0967C9.6445 38.4417 10.9607 38.934 11.9666 39.8639C12.9724 40.7896 13.6098 42.2329 13.2869 43.571L13.2704 43.2175C13.2621 47.3622 13.6139 51.5068 14.3259 55.5841L14.1893 55.2307C13.7133 56.1564 12.7571 56.6992 11.9955 57.4019C11.1056 58.2224 10.4641 59.2828 9.83904 60.3305C6.83402 65.3378 3.829 70.3408 0.828125 75.348L1.07233 75.55H46.8927L46.9465 75.4659C47.7163 73.7912 47.5715 71.8051 46.992 70.0505C46.4084 68.2958 45.4274 66.7179 44.5209 65.1105C43.0681 62.5312 41.7974 59.8508 40.7212 57.0863C40.4728 56.4467 40.2038 55.7609 39.645 55.3695C38.7261 54.7258 37.4016 55.1255 36.4248 54.5827L36.3585 54.6753C35.2989 53.4929 34.2351 52.3021 33.3701 50.964C32.505 49.6259 31.8427 48.1238 31.6647 46.5332L31.7724 46.7731C31.6027 46.0031 31.8758 45.1867 32.3353 44.5514C32.7947 43.916 33.428 43.4363 34.0613 42.9819C36.5945 41.1725 39.3346 39.6746 42.2113 38.5132C43.5027 37.213 44.3678 35.5089 45.1997 33.8468C45.9241 32.3951 46.6484 30.9435 47.2403 29.4287C47.6625 28.3388 48.0185 27.2154 48.5649 26.1845C48.776 25.7847 49.0202 25.3934 49.1443 24.9516C49.2644 24.5182 49.2602 24.0638 49.2561 23.6135C49.2354 21.7495 49.2188 19.8812 49.1982 18.0172L49.2064 18.0256Z" fill="url(#paint2_radial_758_5363)" fill-opacity="0.4"/>
<path d="M49.2064 18.0256C49.1981 17.3902 49.1485 16.6623 48.6518 16.2794C48.6187 15.5598 48.5856 14.8403 48.5524 14.1208C48.3662 13.9988 48.1758 13.8767 47.9895 13.7505C48.1427 12.4798 47.5466 11.1501 46.5077 10.4306C46.0151 10.0897 45.4191 9.86674 45.0549 9.38705C44.5871 8.77272 44.6203 7.91854 44.3595 7.1906C43.3288 4.35035 38.7551 4.87212 37.1119 2.35166C36.8925 2.01504 36.7269 1.62793 36.4165 1.37967C35.9901 1.04305 35.3941 1.05146 34.8519 1.06408C32.4098 1.11458 29.9594 0.862111 27.5753 0.319309C26.1141 -0.0131045 24.326 -0.353934 23.3451 0.790579C23.047 0.668554 22.7532 0.550736 22.4551 0.428711C22.302 0.719047 22.1488 1.00938 21.9998 1.29551C21.768 1.22398 21.5321 1.15666 21.3003 1.08512C21.2051 1.5059 21.1099 1.92247 21.0147 2.34325L20.8492 2.85239C18.0056 3.71498 15.7539 5.88198 13.6512 8.01111C12.8606 8.81479 12.0411 9.67739 11.7762 10.7798C11.6023 11.5036 11.6851 12.2652 11.5361 12.9973C11.2505 14.4153 10.1246 15.522 8.8829 16.2331C7.64115 16.9442 6.25868 17.3524 4.95899 17.9499C4.40848 18.2023 3.829 18.5432 3.62205 19.1196C3.10879 20.5545 5.25287 22.0524 4.57405 23.4158C4.3257 23.9165 3.74622 24.211 3.59721 24.7496C3.36956 25.5743 4.28017 26.3023 4.30087 27.1565C3.94076 26.6936 3.15432 26.7693 2.77352 27.2154C2.39272 27.6614 2.36789 28.3388 2.56657 28.8943C2.71144 29.3024 2.96392 29.6895 2.96392 30.1271C2.96392 30.5311 2.74455 30.893 2.55415 31.2506C1.84222 32.5761 1.46969 34.2928 2.28924 35.551C2.76938 36.2873 3.57652 36.7333 4.39193 37.0447C5.66264 37.5286 7.01614 37.7516 8.32825 38.0967C9.6445 38.4417 10.9607 38.934 11.9666 39.8639C12.9724 40.7896 13.6098 42.2329 13.2869 43.571L13.2704 43.2175C13.2621 47.3622 13.6139 51.5068 14.3259 55.5841L14.1893 55.2307C13.7133 56.1564 12.7571 56.6992 11.9955 57.4019C11.1056 58.2224 10.4641 59.2828 9.83904 60.3305C6.83402 65.3378 3.829 70.3408 0.828125 75.348L1.07233 75.55H46.8927L46.9465 75.4659C47.7163 73.7912 47.5715 71.8051 46.992 70.0505C46.4084 68.2958 45.4274 66.7179 44.5209 65.1105C43.0681 62.5312 41.7974 59.8508 40.7212 57.0863C40.4728 56.4467 40.2038 55.7609 39.645 55.3695C38.7261 54.7258 37.4016 55.1255 36.4248 54.5827L36.3585 54.6753C35.2989 53.4929 34.2351 52.3021 33.3701 50.964C32.505 49.6259 31.8427 48.1238 31.6647 46.5332L31.7724 46.7731C31.6027 46.0031 31.8758 45.1867 32.3353 44.5514C32.7947 43.916 33.428 43.4363 34.0613 42.9819C36.5945 41.1725 39.3346 39.6746 42.2113 38.5132C43.5027 37.213 44.3678 35.5089 45.1997 33.8468C45.9241 32.3951 46.6484 30.9435 47.2403 29.4287C47.6625 28.3388 48.0185 27.2154 48.5649 26.1845C48.776 25.7847 49.0202 25.3934 49.1443 24.9516C49.2644 24.5182 49.2602 24.0638 49.2561 23.6135C49.2354 21.7495 49.2188 19.8812 49.1982 18.0172L49.2064 18.0256Z" fill="url(#paint3_radial_758_5363)"/>
</g>
<defs>
<filter id="filter0_i_758_5363" x="0.828125" y="0" width="49.4297" height="76.55" filterUnits="userSpaceOnUse" color-interpolation-filters="sRGB">
<feFlood flood-opacity="0" result="BackgroundImageFix"/>
<feBlend mode="normal" in="SourceGraphic" in2="BackgroundImageFix" result="shape"/>
<feColorMatrix in="SourceAlpha" type="matrix" values="0 0 0 0 0 0 0 0 0 0 0 0 0 0 0 0 0 0 127 0" result="hardAlpha"/>
<feOffset dx="1" dy="1"/>
<feGaussianBlur stdDeviation="2.5"/>
<feComposite in2="hardAlpha" operator="arithmetic" k2="-1" k3="1"/>
<feColorMatrix type="matrix" values="0 0 0 0 0 0 0 0 0 0 0 0 0 0 0 0 0 0 0.5 0"/>
<feBlend mode="normal" in2="shape" result="effect1_innerShadow_758_5363"/>
</filter>
<radialGradient id="paint0_radial_758_5363" cx="0" cy="0" r="1" gradientUnits="userSpaceOnUse" gradientTransform="translate(4.20351 46.2418) rotate(52.411) scale(47.8767 39.4866)">
<stop stop-color="#FF3D00" stop-opacity="0.85"/>
<stop offset="1" stop-color="#FF3D00" stop-opacity="0"/>
</radialGradient>
<radialGradient id="paint1_radial_758_5363" cx="0" cy="0" r="1" gradientUnits="userSpaceOnUse" gradientTransform="translate(51.8992 64.6408) rotate(-140.742) scale(42.455 42.4052)">
<stop stop-color="#0085FF" stop-opacity="0.59"/>
<stop offset="1" stop-color="#364AFF" stop-opacity="0"/>
</radialGradient>
<radialGradient id="paint2_radial_758_5363" cx="0" cy="0" r="1" gradientUnits="userSpaceOnUse" gradientTransform="translate(25.1896 3.90776) rotate(86.6133) scale(32.2954 23.5508)">
<stop stop-color="#FF003D"/>
<stop offset="1" stop-color="#FF003D" stop-opacity="0"/>
</radialGradient>
<radialGradient id="paint3_radial_758_5363" cx="0" cy="0" r="1" gradientUnits="userSpaceOnUse" gradientTransform="translate(34.4353 5.21034) rotate(75.1163) scale(65.7055 45.4994)">
<stop stop-color="#FDFFB3" stop-opacity="0.85"/>
<stop offset="1" stop-color="#FFC700" stop-opacity="0"/>
</radialGradient>
</defs>
</svg>
