<svg width="55" height="76" viewBox="0 0 55 76" fill="none" xmlns="http://www.w3.org/2000/svg">
<g filter="url(#filter0_i_596_5334)">
<path d="M42.5001 49.5987C41.8351 47.7795 41.6292 45.7072 42.3954 43.9285C41.0924 44.2255 39.7388 43.3682 39.0771 42.2106C38.4155 41.0495 38.3109 39.659 38.3311 38.3258C38.3649 36.1185 38.6957 33.9179 39.3101 31.7983C39.5261 32.0447 39.7421 32.2911 39.9582 32.5408C39.5801 29.4999 42.0477 26.9584 43.4689 24.2448C45.6699 20.0428 45.3559 14.7674 43.1617 10.562C40.9675 6.35665 37.0585 3.19078 32.687 1.34797C33.1292 1.09146 33.4364 0.61219 33.487 0.102547C32.0793 0.855199 30.3712 0.46031 28.7948 0.227426C21.6653 -0.818861 14.5494 1.91161 8.04107 5.00997C8.31788 4.53071 8.59131 4.04806 8.86811 3.5688C7.30179 4.14932 6.05617 5.52974 5.63758 7.1498C5.2595 6.33302 4.25017 5.86725 3.38262 6.10689C4.28731 6.47815 4.94894 7.37931 5.03671 8.35134L4.78691 8.29059C4.35144 8.69561 3.9126 9.104 3.50752 9.53939C1.52262 11.6758 0.344503 14.5987 0.493033 17.5148C0.641564 20.4309 2.17075 23.2896 4.63163 24.8692C4.31769 24.3258 4.20966 23.6643 4.33457 23.0466C4.56411 24.2785 5.88063 25.0076 6.37685 26.1585C6.85283 27.2689 6.48488 28.5447 6.06967 29.6787C5.52956 31.1469 4.91856 32.5915 4.23667 33.9989C4.10502 34.2723 3.96662 34.5558 3.94974 34.8562C3.90248 35.7472 4.85105 36.3243 5.67471 36.6652C6.49838 37.0061 7.4672 37.4955 7.53472 38.3832C7.57522 38.9299 7.24778 39.524 7.51784 39.9999C7.80477 40.5028 8.60818 40.5601 8.82423 41.0968C8.98289 41.495 8.72296 41.9439 8.78034 42.3658C8.87149 43.051 9.68165 43.3581 10.107 43.9049C10.6775 44.6373 10.4851 45.6971 10.8091 46.5645C11.1838 47.5635 12.2303 48.198 13.2869 48.3431C14.3435 48.4917 15.4169 48.2318 16.433 47.9044C17.1115 47.685 17.7934 47.4319 18.5057 47.4352C19.218 47.4386 19.9809 47.7626 20.2779 48.4107C20.5547 49.0148 20.3691 49.7236 20.4771 50.3784C20.548 50.8036 20.7404 51.2053 20.7843 51.6373C20.8282 52.0828 20.7033 52.5384 20.44 52.8996L20.4839 52.9131C12.3822 62.2925 10.1914 64.2805 5.04008 75.55H54.2205C52.1073 67.6286 49.6093 61.6411 45.2817 54.6816C44.2588 53.0379 43.1685 51.4078 42.5035 49.5886L42.5001 49.5987Z" fill="white"/>
<path d="M42.5001 49.5987C41.8351 47.7795 41.6292 45.7072 42.3954 43.9285C41.0924 44.2255 39.7388 43.3682 39.0771 42.2106C38.4155 41.0495 38.3109 39.659 38.3311 38.3258C38.3649 36.1185 38.6957 33.9179 39.3101 31.7983C39.5261 32.0447 39.7421 32.2911 39.9582 32.5408C39.5801 29.4999 42.0477 26.9584 43.4689 24.2448C45.6699 20.0428 45.3559 14.7674 43.1617 10.562C40.9675 6.35665 37.0585 3.19078 32.687 1.34797C33.1292 1.09146 33.4364 0.61219 33.487 0.102547C32.0793 0.855199 30.3712 0.46031 28.7948 0.227426C21.6653 -0.818861 14.5494 1.91161 8.04107 5.00997C8.31788 4.53071 8.59131 4.04806 8.86811 3.5688C7.30179 4.14932 6.05617 5.52974 5.63758 7.1498C5.2595 6.33302 4.25017 5.86725 3.38262 6.10689C4.28731 6.47815 4.94894 7.37931 5.03671 8.35134L4.78691 8.29059C4.35144 8.69561 3.9126 9.104 3.50752 9.53939C1.52262 11.6758 0.344503 14.5987 0.493033 17.5148C0.641564 20.4309 2.17075 23.2896 4.63163 24.8692C4.31769 24.3258 4.20966 23.6643 4.33457 23.0466C4.56411 24.2785 5.88063 25.0076 6.37685 26.1585C6.85283 27.2689 6.48488 28.5447 6.06967 29.6787C5.52956 31.1469 4.91856 32.5915 4.23667 33.9989C4.10502 34.2723 3.96662 34.5558 3.94974 34.8562C3.90248 35.7472 4.85105 36.3243 5.67471 36.6652C6.49838 37.0061 7.4672 37.4955 7.53472 38.3832C7.57522 38.9299 7.24778 39.524 7.51784 39.9999C7.80477 40.5028 8.60818 40.5601 8.82423 41.0968C8.98289 41.495 8.72296 41.9439 8.78034 42.3658C8.87149 43.051 9.68165 43.3581 10.107 43.9049C10.6775 44.6373 10.4851 45.6971 10.8091 46.5645C11.1838 47.5635 12.2303 48.198 13.2869 48.3431C14.3435 48.4917 15.4169 48.2318 16.433 47.9044C17.1115 47.685 17.7934 47.4319 18.5057 47.4352C19.218 47.4386 19.9809 47.7626 20.2779 48.4107C20.5547 49.0148 20.3691 49.7236 20.4771 50.3784C20.548 50.8036 20.7404 51.2053 20.7843 51.6373C20.8282 52.0828 20.7033 52.5384 20.44 52.8996L20.4839 52.9131C12.3822 62.2925 10.1914 64.2805 5.04008 75.55H54.2205C52.1073 67.6286 49.6093 61.6411 45.2817 54.6816C44.2588 53.0379 43.1685 51.4078 42.5035 49.5886L42.5001 49.5987Z" fill="url(#paint0_radial_596_5334)"/>
<path d="M42.5001 49.5987C41.8351 47.7795 41.6292 45.7072 42.3954 43.9285C41.0924 44.2255 39.7388 43.3682 39.0771 42.2106C38.4155 41.0495 38.3109 39.659 38.3311 38.3258C38.3649 36.1185 38.6957 33.9179 39.3101 31.7983C39.5261 32.0447 39.7421 32.2911 39.9582 32.5408C39.5801 29.4999 42.0477 26.9584 43.4689 24.2448C45.6699 20.0428 45.3559 14.7674 43.1617 10.562C40.9675 6.35665 37.0585 3.19078 32.687 1.34797C33.1292 1.09146 33.4364 0.61219 33.487 0.102547C32.0793 0.855199 30.3712 0.46031 28.7948 0.227426C21.6653 -0.818861 14.5494 1.91161 8.04107 5.00997C8.31788 4.53071 8.59131 4.04806 8.86811 3.5688C7.30179 4.14932 6.05617 5.52974 5.63758 7.1498C5.2595 6.33302 4.25017 5.86725 3.38262 6.10689C4.28731 6.47815 4.94894 7.37931 5.03671 8.35134L4.78691 8.29059C4.35144 8.69561 3.9126 9.104 3.50752 9.53939C1.52262 11.6758 0.344503 14.5987 0.493033 17.5148C0.641564 20.4309 2.17075 23.2896 4.63163 24.8692C4.31769 24.3258 4.20966 23.6643 4.33457 23.0466C4.56411 24.2785 5.88063 25.0076 6.37685 26.1585C6.85283 27.2689 6.48488 28.5447 6.06967 29.6787C5.52956 31.1469 4.91856 32.5915 4.23667 33.9989C4.10502 34.2723 3.96662 34.5558 3.94974 34.8562C3.90248 35.7472 4.85105 36.3243 5.67471 36.6652C6.49838 37.0061 7.4672 37.4955 7.53472 38.3832C7.57522 38.9299 7.24778 39.524 7.51784 39.9999C7.80477 40.5028 8.60818 40.5601 8.82423 41.0968C8.98289 41.495 8.72296 41.9439 8.78034 42.3658C8.87149 43.051 9.68165 43.3581 10.107 43.9049C10.6775 44.6373 10.4851 45.6971 10.8091 46.5645C11.1838 47.5635 12.2303 48.198 13.2869 48.3431C14.3435 48.4917 15.4169 48.2318 16.433 47.9044C17.1115 47.685 17.7934 47.4319 18.5057 47.4352C19.218 47.4386 19.9809 47.7626 20.2779 48.4107C20.5547 49.0148 20.3691 49.7236 20.4771 50.3784C20.548 50.8036 20.7404 51.2053 20.7843 51.6373C20.8282 52.0828 20.7033 52.5384 20.44 52.8996L20.4839 52.9131C12.3822 62.2925 10.1914 64.2805 5.04008 75.55H54.2205C52.1073 67.6286 49.6093 61.6411 45.2817 54.6816C44.2588 53.0379 43.1685 51.4078 42.5035 49.5886L42.5001 49.5987Z" fill="url(#paint1_radial_596_5334)"/>
<path d="M42.5001 49.5987C41.8351 47.7795 41.6292 45.7072 42.3954 43.9285C41.0924 44.2255 39.7388 43.3682 39.0771 42.2106C38.4155 41.0495 38.3109 39.659 38.3311 38.3258C38.3649 36.1185 38.6957 33.9179 39.3101 31.7983C39.5261 32.0447 39.7421 32.2911 39.9582 32.5408C39.5801 29.4999 42.0477 26.9584 43.4689 24.2448C45.6699 20.0428 45.3559 14.7674 43.1617 10.562C40.9675 6.35665 37.0585 3.19078 32.687 1.34797C33.1292 1.09146 33.4364 0.61219 33.487 0.102547C32.0793 0.855199 30.3712 0.46031 28.7948 0.227426C21.6653 -0.818861 14.5494 1.91161 8.04107 5.00997C8.31788 4.53071 8.59131 4.04806 8.86811 3.5688C7.30179 4.14932 6.05617 5.52974 5.63758 7.1498C5.2595 6.33302 4.25017 5.86725 3.38262 6.10689C4.28731 6.47815 4.94894 7.37931 5.03671 8.35134L4.78691 8.29059C4.35144 8.69561 3.9126 9.104 3.50752 9.53939C1.52262 11.6758 0.344503 14.5987 0.493033 17.5148C0.641564 20.4309 2.17075 23.2896 4.63163 24.8692C4.31769 24.3258 4.20966 23.6643 4.33457 23.0466C4.56411 24.2785 5.88063 25.0076 6.37685 26.1585C6.85283 27.2689 6.48488 28.5447 6.06967 29.6787C5.52956 31.1469 4.91856 32.5915 4.23667 33.9989C4.10502 34.2723 3.96662 34.5558 3.94974 34.8562C3.90248 35.7472 4.85105 36.3243 5.67471 36.6652C6.49838 37.0061 7.4672 37.4955 7.53472 38.3832C7.57522 38.9299 7.24778 39.524 7.51784 39.9999C7.80477 40.5028 8.60818 40.5601 8.82423 41.0968C8.98289 41.495 8.72296 41.9439 8.78034 42.3658C8.87149 43.051 9.68165 43.3581 10.107 43.9049C10.6775 44.6373 10.4851 45.6971 10.8091 46.5645C11.1838 47.5635 12.2303 48.198 13.2869 48.3431C14.3435 48.4917 15.4169 48.2318 16.433 47.9044C17.1115 47.685 17.7934 47.4319 18.5057 47.4352C19.218 47.4386 19.9809 47.7626 20.2779 48.4107C20.5547 49.0148 20.3691 49.7236 20.4771 50.3784C20.548 50.8036 20.7404 51.2053 20.7843 51.6373C20.8282 52.0828 20.7033 52.5384 20.44 52.8996L20.4839 52.9131C12.3822 62.2925 10.1914 64.2805 5.04008 75.55H54.2205C52.1073 67.6286 49.6093 61.6411 45.2817 54.6816C44.2588 53.0379 43.1685 51.4078 42.5035 49.5886L42.5001 49.5987Z" fill="url(#paint2_radial_596_5334)" fill-opacity="0.4"/>
<path d="M42.5001 49.5987C41.8351 47.7795 41.6292 45.7072 42.3954 43.9285C41.0924 44.2255 39.7388 43.3682 39.0771 42.2106C38.4155 41.0495 38.3109 39.659 38.3311 38.3258C38.3649 36.1185 38.6957 33.9179 39.3101 31.7983C39.5261 32.0447 39.7421 32.2911 39.9582 32.5408C39.5801 29.4999 42.0477 26.9584 43.4689 24.2448C45.6699 20.0428 45.3559 14.7674 43.1617 10.562C40.9675 6.35665 37.0585 3.19078 32.687 1.34797C33.1292 1.09146 33.4364 0.61219 33.487 0.102547C32.0793 0.855199 30.3712 0.46031 28.7948 0.227426C21.6653 -0.818861 14.5494 1.91161 8.04107 5.00997C8.31788 4.53071 8.59131 4.04806 8.86811 3.5688C7.30179 4.14932 6.05617 5.52974 5.63758 7.1498C5.2595 6.33302 4.25017 5.86725 3.38262 6.10689C4.28731 6.47815 4.94894 7.37931 5.03671 8.35134L4.78691 8.29059C4.35144 8.69561 3.9126 9.104 3.50752 9.53939C1.52262 11.6758 0.344503 14.5987 0.493033 17.5148C0.641564 20.4309 2.17075 23.2896 4.63163 24.8692C4.31769 24.3258 4.20966 23.6643 4.33457 23.0466C4.56411 24.2785 5.88063 25.0076 6.37685 26.1585C6.85283 27.2689 6.48488 28.5447 6.06967 29.6787C5.52956 31.1469 4.91856 32.5915 4.23667 33.9989C4.10502 34.2723 3.96662 34.5558 3.94974 34.8562C3.90248 35.7472 4.85105 36.3243 5.67471 36.6652C6.49838 37.0061 7.4672 37.4955 7.53472 38.3832C7.57522 38.9299 7.24778 39.524 7.51784 39.9999C7.80477 40.5028 8.60818 40.5601 8.82423 41.0968C8.98289 41.495 8.72296 41.9439 8.78034 42.3658C8.87149 43.051 9.68165 43.3581 10.107 43.9049C10.6775 44.6373 10.4851 45.6971 10.8091 46.5645C11.1838 47.5635 12.2303 48.198 13.2869 48.3431C14.3435 48.4917 15.4169 48.2318 16.433 47.9044C17.1115 47.685 17.7934 47.4319 18.5057 47.4352C19.218 47.4386 19.9809 47.7626 20.2779 48.4107C20.5547 49.0148 20.3691 49.7236 20.4771 50.3784C20.548 50.8036 20.7404 51.2053 20.7843 51.6373C20.8282 52.0828 20.7033 52.5384 20.44 52.8996L20.4839 52.9131C12.3822 62.2925 10.1914 64.2805 5.04008 75.55H54.2205C52.1073 67.6286 49.6093 61.6411 45.2817 54.6816C44.2588 53.0379 43.1685 51.4078 42.5035 49.5886L42.5001 49.5987Z" fill="url(#paint3_radial_596_5334)"/>
</g>
<defs>
<filter id="filter0_i_596_5334" x="0.480469" y="0" width="54.7402" height="76.55" filterUnits="userSpaceOnUse" color-interpolation-filters="sRGB">
<feFlood flood-opacity="0" result="BackgroundImageFix"/>
<feBlend mode="normal" in="SourceGraphic" in2="BackgroundImageFix" result="shape"/>
<feColorMatrix in="SourceAlpha" type="matrix" values="0 0 0 0 0 0 0 0 0 0 0 0 0 0 0 0 0 0 127 0" result="hardAlpha"/>
<feOffset dx="1" dy="1"/>
<feGaussianBlur stdDeviation="2.5"/>
<feComposite in2="hardAlpha" operator="arithmetic" k2="-1" k3="1"/>
<feColorMatrix type="matrix" values="0 0 0 0 0 0 0 0 0 0 0 0 0 0 0 0 0 0 0.5 0"/>
<feBlend mode="normal" in2="shape" result="effect1_innerShadow_596_5334"/>
</filter>
<radialGradient id="paint0_radial_596_5334" cx="0" cy="0" r="1" gradientUnits="userSpaceOnUse" gradientTransform="translate(4.22598 46.2418) rotate(49.4957) scale(49.8947 42.0443)">
<stop stop-color="#FF3D00" stop-opacity="0.85"/>
<stop offset="1" stop-color="#FF3D00" stop-opacity="0"/>
</radialGradient>
<radialGradient id="paint1_radial_596_5334" cx="0" cy="0" r="1" gradientUnits="userSpaceOnUse" gradientTransform="translate(57.1517 64.6408) rotate(-143.629) scale(45.3037 44.0964)">
<stop stop-color="#0085FF" stop-opacity="0.59"/>
<stop offset="1" stop-color="#364AFF" stop-opacity="0"/>
</radialGradient>
<radialGradient id="paint2_radial_596_5334" cx="0" cy="0" r="1" gradientUnits="userSpaceOnUse" gradientTransform="translate(27.5133 3.90776) rotate(86.243) scale(32.3084 26.1228)">
<stop stop-color="#FF003D"/>
<stop offset="1" stop-color="#FF003D" stop-opacity="0"/>
</radialGradient>
<radialGradient id="paint3_radial_596_5334" cx="0" cy="0" r="1" gradientUnits="userSpaceOnUse" gradientTransform="translate(37.7728 5.21034) rotate(73.5683) scale(66.2051 50.1077)">
<stop stop-color="#FDFFB3" stop-opacity="0.85"/>
<stop offset="1" stop-color="#FFC700" stop-opacity="0"/>
</radialGradient>
</defs>
</svg>
