<svg width="149" height="224" viewBox="0 0 149 224" fill="none" xmlns="http://www.w3.org/2000/svg">
<g filter="url(#filter0_i_596_5341)">
<path d="M129.51 167.017C129.25 166.497 128.98 165.957 128.97 165.377C128.95 164.477 129.52 163.687 130.04 162.957C131.83 160.447 133.28 157.697 134.35 154.807C134.96 153.167 135.45 151.397 135.1 149.677C134.22 145.337 128.88 143.807 124.49 143.247C120.09 142.687 114.77 141.547 113.42 137.327L113.16 137.467C113.16 137.467 113.16 137.417 113.16 137.387C113.09 133.897 112.41 130.427 111.17 127.157C111.23 127.187 111.31 127.217 111.38 127.197C112.03 127.027 112.66 126.777 113.25 126.457C113.21 126.497 113.17 126.527 113.13 126.557C113.78 126.307 114.35 125.877 114.81 125.347C114.83 125.327 114.86 125.307 114.89 125.287C114.87 125.287 114.85 125.307 114.84 125.317C115.21 124.887 115.52 124.397 115.69 123.847C115.89 124.587 116.08 125.337 116.28 126.077C118.2 124.087 119.68 121.677 120.6 119.067C121.49 120.317 122.05 121.787 122.18 123.307C127.7 113.487 129.84 102.017 129.7 90.7473C129.56 79.4773 127.22 68.3473 124.25 57.4773C120.35 43.2473 115.25 29.1473 106.84 17.0273C101.35 9.1173 93.8 1.7573 84.28 0.297304C81.28 -0.162696 78.23 -0.0126961 75.21 0.237304C65.29 1.0773 55.47 3.1073 46.03 6.2473C46.93 4.8573 47.84 3.4773 48.74 2.0873C46.38 2.8173 44.43 4.7673 43.71 7.1173L43.59 7.8073L42.25 8.2773C33.22 11.9073 24.53 16.7973 17.82 23.8473C11.11 30.8973 6.54 40.3173 6.69 50.0473C6.77 54.8973 7.99 59.6573 9.51 64.2573C10.68 67.7973 12.06 71.3373 14.45 74.1973C14.05 72.7573 14.11 71.1873 14.63 69.7873C14.81 71.3273 15.67 72.7773 16.95 73.6473L17.19 73.2373C19.66 80.5473 18.43 89.0073 13.98 95.3073C13.23 96.3773 12.36 97.4473 12.18 98.7473C11.78 101.777 15.12 103.787 17.88 105.087C20.64 106.387 23.83 108.867 22.88 111.767C22.49 112.947 21.43 114.117 21.95 115.247C22.13 115.647 22.48 115.937 22.82 116.207C23.99 117.157 25.15 118.097 26.32 119.047C25.29 118.647 23.73 119.497 23.58 120.747C23.4 122.307 24.63 123.677 25.97 124.507C27.31 125.337 28.84 125.877 29.95 126.997C33.1 130.167 31.71 136.707 35.73 138.677C38.54 140.047 41.71 137.977 44.35 136.317C47.36 134.427 50.65 132.967 54.07 131.997C55.6 131.567 57.21 131.227 58.78 131.497C61.62 131.987 63.82 134.427 64.84 137.127C65.86 139.827 65.91 142.777 65.96 145.667L65.7 145.527V146.477L65.6 146.067C57.77 152.737 50.15 159.667 42.77 166.827C40.99 168.557 39.19 170.327 38.01 172.517C37.47 173.517 37.05 174.597 36.36 175.507C35.49 176.647 34.24 177.427 33.03 178.197C26.14 182.597 19.67 187.657 13.73 193.287C11.79 195.127 9.89 197.047 8.49 199.317C6.85 201.977 0.9 220.877 0 223.877H148.77C142.96 216.177 144.76 211.027 142.38 201.667C139.34 189.707 135.02 178.067 129.53 167.017H129.51Z" fill="white"/>
<path d="M129.51 167.017C129.25 166.497 128.98 165.957 128.97 165.377C128.95 164.477 129.52 163.687 130.04 162.957C131.83 160.447 133.28 157.697 134.35 154.807C134.96 153.167 135.45 151.397 135.1 149.677C134.22 145.337 128.88 143.807 124.49 143.247C120.09 142.687 114.77 141.547 113.42 137.327L113.16 137.467C113.16 137.467 113.16 137.417 113.16 137.387C113.09 133.897 112.41 130.427 111.17 127.157C111.23 127.187 111.31 127.217 111.38 127.197C112.03 127.027 112.66 126.777 113.25 126.457C113.21 126.497 113.17 126.527 113.13 126.557C113.78 126.307 114.35 125.877 114.81 125.347C114.83 125.327 114.86 125.307 114.89 125.287C114.87 125.287 114.85 125.307 114.84 125.317C115.21 124.887 115.52 124.397 115.69 123.847C115.89 124.587 116.08 125.337 116.28 126.077C118.2 124.087 119.68 121.677 120.6 119.067C121.49 120.317 122.05 121.787 122.18 123.307C127.7 113.487 129.84 102.017 129.7 90.7473C129.56 79.4773 127.22 68.3473 124.25 57.4773C120.35 43.2473 115.25 29.1473 106.84 17.0273C101.35 9.1173 93.8 1.7573 84.28 0.297304C81.28 -0.162696 78.23 -0.0126961 75.21 0.237304C65.29 1.0773 55.47 3.1073 46.03 6.2473C46.93 4.8573 47.84 3.4773 48.74 2.0873C46.38 2.8173 44.43 4.7673 43.71 7.1173L43.59 7.8073L42.25 8.2773C33.22 11.9073 24.53 16.7973 17.82 23.8473C11.11 30.8973 6.54 40.3173 6.69 50.0473C6.77 54.8973 7.99 59.6573 9.51 64.2573C10.68 67.7973 12.06 71.3373 14.45 74.1973C14.05 72.7573 14.11 71.1873 14.63 69.7873C14.81 71.3273 15.67 72.7773 16.95 73.6473L17.19 73.2373C19.66 80.5473 18.43 89.0073 13.98 95.3073C13.23 96.3773 12.36 97.4473 12.18 98.7473C11.78 101.777 15.12 103.787 17.88 105.087C20.64 106.387 23.83 108.867 22.88 111.767C22.49 112.947 21.43 114.117 21.95 115.247C22.13 115.647 22.48 115.937 22.82 116.207C23.99 117.157 25.15 118.097 26.32 119.047C25.29 118.647 23.73 119.497 23.58 120.747C23.4 122.307 24.63 123.677 25.97 124.507C27.31 125.337 28.84 125.877 29.95 126.997C33.1 130.167 31.71 136.707 35.73 138.677C38.54 140.047 41.71 137.977 44.35 136.317C47.36 134.427 50.65 132.967 54.07 131.997C55.6 131.567 57.21 131.227 58.78 131.497C61.62 131.987 63.82 134.427 64.84 137.127C65.86 139.827 65.91 142.777 65.96 145.667L65.7 145.527V146.477L65.6 146.067C57.77 152.737 50.15 159.667 42.77 166.827C40.99 168.557 39.19 170.327 38.01 172.517C37.47 173.517 37.05 174.597 36.36 175.507C35.49 176.647 34.24 177.427 33.03 178.197C26.14 182.597 19.67 187.657 13.73 193.287C11.79 195.127 9.89 197.047 8.49 199.317C6.85 201.977 0.9 220.877 0 223.877H148.77C142.96 216.177 144.76 211.027 142.38 201.667C139.34 189.707 135.02 178.067 129.53 167.017H129.51Z" fill="url(#paint0_radial_596_5341)"/>
<path d="M129.51 167.017C129.25 166.497 128.98 165.957 128.97 165.377C128.95 164.477 129.52 163.687 130.04 162.957C131.83 160.447 133.28 157.697 134.35 154.807C134.96 153.167 135.45 151.397 135.1 149.677C134.22 145.337 128.88 143.807 124.49 143.247C120.09 142.687 114.77 141.547 113.42 137.327L113.16 137.467C113.16 137.467 113.16 137.417 113.16 137.387C113.09 133.897 112.41 130.427 111.17 127.157C111.23 127.187 111.31 127.217 111.38 127.197C112.03 127.027 112.66 126.777 113.25 126.457C113.21 126.497 113.17 126.527 113.13 126.557C113.78 126.307 114.35 125.877 114.81 125.347C114.83 125.327 114.86 125.307 114.89 125.287C114.87 125.287 114.85 125.307 114.84 125.317C115.21 124.887 115.52 124.397 115.69 123.847C115.89 124.587 116.08 125.337 116.28 126.077C118.2 124.087 119.68 121.677 120.6 119.067C121.49 120.317 122.05 121.787 122.18 123.307C127.7 113.487 129.84 102.017 129.7 90.7473C129.56 79.4773 127.22 68.3473 124.25 57.4773C120.35 43.2473 115.25 29.1473 106.84 17.0273C101.35 9.1173 93.8 1.7573 84.28 0.297304C81.28 -0.162696 78.23 -0.0126961 75.21 0.237304C65.29 1.0773 55.47 3.1073 46.03 6.2473C46.93 4.8573 47.84 3.4773 48.74 2.0873C46.38 2.8173 44.43 4.7673 43.71 7.1173L43.59 7.8073L42.25 8.2773C33.22 11.9073 24.53 16.7973 17.82 23.8473C11.11 30.8973 6.54 40.3173 6.69 50.0473C6.77 54.8973 7.99 59.6573 9.51 64.2573C10.68 67.7973 12.06 71.3373 14.45 74.1973C14.05 72.7573 14.11 71.1873 14.63 69.7873C14.81 71.3273 15.67 72.7773 16.95 73.6473L17.19 73.2373C19.66 80.5473 18.43 89.0073 13.98 95.3073C13.23 96.3773 12.36 97.4473 12.18 98.7473C11.78 101.777 15.12 103.787 17.88 105.087C20.64 106.387 23.83 108.867 22.88 111.767C22.49 112.947 21.43 114.117 21.95 115.247C22.13 115.647 22.48 115.937 22.82 116.207C23.99 117.157 25.15 118.097 26.32 119.047C25.29 118.647 23.73 119.497 23.58 120.747C23.4 122.307 24.63 123.677 25.97 124.507C27.31 125.337 28.84 125.877 29.95 126.997C33.1 130.167 31.71 136.707 35.73 138.677C38.54 140.047 41.71 137.977 44.35 136.317C47.36 134.427 50.65 132.967 54.07 131.997C55.6 131.567 57.21 131.227 58.78 131.497C61.62 131.987 63.82 134.427 64.84 137.127C65.86 139.827 65.91 142.777 65.96 145.667L65.7 145.527V146.477L65.6 146.067C57.77 152.737 50.15 159.667 42.77 166.827C40.99 168.557 39.19 170.327 38.01 172.517C37.47 173.517 37.05 174.597 36.36 175.507C35.49 176.647 34.24 177.427 33.03 178.197C26.14 182.597 19.67 187.657 13.73 193.287C11.79 195.127 9.89 197.047 8.49 199.317C6.85 201.977 0.9 220.877 0 223.877H148.77C142.96 216.177 144.76 211.027 142.38 201.667C139.34 189.707 135.02 178.067 129.53 167.017H129.51Z" fill="url(#paint1_radial_596_5341)"/>
<path d="M129.51 167.017C129.25 166.497 128.98 165.957 128.97 165.377C128.95 164.477 129.52 163.687 130.04 162.957C131.83 160.447 133.28 157.697 134.35 154.807C134.96 153.167 135.45 151.397 135.1 149.677C134.22 145.337 128.88 143.807 124.49 143.247C120.09 142.687 114.77 141.547 113.42 137.327L113.16 137.467C113.16 137.467 113.16 137.417 113.16 137.387C113.09 133.897 112.41 130.427 111.17 127.157C111.23 127.187 111.31 127.217 111.38 127.197C112.03 127.027 112.66 126.777 113.25 126.457C113.21 126.497 113.17 126.527 113.13 126.557C113.78 126.307 114.35 125.877 114.81 125.347C114.83 125.327 114.86 125.307 114.89 125.287C114.87 125.287 114.85 125.307 114.84 125.317C115.21 124.887 115.52 124.397 115.69 123.847C115.89 124.587 116.08 125.337 116.28 126.077C118.2 124.087 119.68 121.677 120.6 119.067C121.49 120.317 122.05 121.787 122.18 123.307C127.7 113.487 129.84 102.017 129.7 90.7473C129.56 79.4773 127.22 68.3473 124.25 57.4773C120.35 43.2473 115.25 29.1473 106.84 17.0273C101.35 9.1173 93.8 1.7573 84.28 0.297304C81.28 -0.162696 78.23 -0.0126961 75.21 0.237304C65.29 1.0773 55.47 3.1073 46.03 6.2473C46.93 4.8573 47.84 3.4773 48.74 2.0873C46.38 2.8173 44.43 4.7673 43.71 7.1173L43.59 7.8073L42.25 8.2773C33.22 11.9073 24.53 16.7973 17.82 23.8473C11.11 30.8973 6.54 40.3173 6.69 50.0473C6.77 54.8973 7.99 59.6573 9.51 64.2573C10.68 67.7973 12.06 71.3373 14.45 74.1973C14.05 72.7573 14.11 71.1873 14.63 69.7873C14.81 71.3273 15.67 72.7773 16.95 73.6473L17.19 73.2373C19.66 80.5473 18.43 89.0073 13.98 95.3073C13.23 96.3773 12.36 97.4473 12.18 98.7473C11.78 101.777 15.12 103.787 17.88 105.087C20.64 106.387 23.83 108.867 22.88 111.767C22.49 112.947 21.43 114.117 21.95 115.247C22.13 115.647 22.48 115.937 22.82 116.207C23.99 117.157 25.15 118.097 26.32 119.047C25.29 118.647 23.73 119.497 23.58 120.747C23.4 122.307 24.63 123.677 25.97 124.507C27.31 125.337 28.84 125.877 29.95 126.997C33.1 130.167 31.71 136.707 35.73 138.677C38.54 140.047 41.71 137.977 44.35 136.317C47.36 134.427 50.65 132.967 54.07 131.997C55.6 131.567 57.21 131.227 58.78 131.497C61.62 131.987 63.82 134.427 64.84 137.127C65.86 139.827 65.91 142.777 65.96 145.667L65.7 145.527V146.477L65.6 146.067C57.77 152.737 50.15 159.667 42.77 166.827C40.99 168.557 39.19 170.327 38.01 172.517C37.47 173.517 37.05 174.597 36.36 175.507C35.49 176.647 34.24 177.427 33.03 178.197C26.14 182.597 19.67 187.657 13.73 193.287C11.79 195.127 9.89 197.047 8.49 199.317C6.85 201.977 0.9 220.877 0 223.877H148.77C142.96 216.177 144.76 211.027 142.38 201.667C139.34 189.707 135.02 178.067 129.53 167.017H129.51Z" fill="url(#paint2_radial_596_5341)"/>
</g>
<defs>
<filter id="filter0_i_596_5341" x="0" y="0" width="149.77" height="224.877" filterUnits="userSpaceOnUse" color-interpolation-filters="sRGB">
<feFlood flood-opacity="0" result="BackgroundImageFix"/>
<feBlend mode="normal" in="SourceGraphic" in2="BackgroundImageFix" result="shape"/>
<feColorMatrix in="SourceAlpha" type="matrix" values="0 0 0 0 0 0 0 0 0 0 0 0 0 0 0 0 0 0 127 0" result="hardAlpha"/>
<feOffset dx="1" dy="1"/>
<feGaussianBlur stdDeviation="2.5"/>
<feComposite in2="hardAlpha" operator="arithmetic" k2="-1" k3="1"/>
<feColorMatrix type="matrix" values="0 0 0 0 0 0 0 0 0 0 0 0 0 0 0 0 0 0 0.5 0"/>
<feBlend mode="normal" in2="shape" result="effect1_innerShadow_596_5341"/>
</filter>
<radialGradient id="paint0_radial_596_5341" cx="0" cy="0" r="1" gradientUnits="userSpaceOnUse" gradientTransform="translate(56.8031 252.134) rotate(-106.092) scale(165.895 111.493)">
<stop offset="0.078125" stop-color="#FF1A6C" stop-opacity="0.67"/>
<stop offset="1" stop-color="#FF1A6C" stop-opacity="0"/>
</radialGradient>
<radialGradient id="paint1_radial_596_5341" cx="0" cy="0" r="1" gradientUnits="userSpaceOnUse" gradientTransform="translate(132.541 120.271) rotate(-161.864) scale(124.526 133.646)">
<stop offset="0.328125" stop-color="#FF2C2C" stop-opacity="0.84"/>
<stop offset="1" stop-color="#FF0000" stop-opacity="0"/>
</radialGradient>
<radialGradient id="paint2_radial_596_5341" cx="0" cy="0" r="1" gradientUnits="userSpaceOnUse" gradientTransform="translate(22.3155 38.0374) rotate(81.2046) scale(137.098 145.511)">
<stop offset="0.401042" stop-color="#FF9900" stop-opacity="0.68"/>
<stop offset="1" stop-color="#FF9900" stop-opacity="0"/>
</radialGradient>
</defs>
</svg>
