<svg width="49" height="76" viewBox="0 0 49 76" fill="none" xmlns="http://www.w3.org/2000/svg">
<g filter="url(#filter0_i_758_5364)">
<path d="M48.6361 18.0256C48.6278 17.3902 48.5782 16.6623 48.0815 16.2794C48.0484 15.5598 48.0152 14.8403 47.9821 14.1208C47.7959 13.9988 47.6055 13.8767 47.4192 13.7505C47.5724 12.4798 46.9763 11.1501 45.9374 10.4306C45.4448 10.0897 44.8488 9.86674 44.4846 9.38705C44.0168 8.77272 44.0499 7.91854 43.7892 7.1906C42.7585 4.35035 38.1848 4.87212 36.5415 2.35166C36.3222 2.01504 36.1566 1.62793 35.8462 1.37967C35.4198 1.04305 34.8238 1.05146 34.2816 1.06408C31.8395 1.11458 29.3891 0.862111 27.005 0.319309C25.5438 -0.0131045 23.7557 -0.353934 22.7747 0.790579C22.4767 0.668554 22.1829 0.550736 21.8848 0.428711C21.7317 0.719047 21.5785 1.00938 21.4295 1.29551C21.1977 1.22398 20.9618 1.15666 20.73 1.08512C20.6348 1.5059 20.5396 1.92247 20.4444 2.34325L20.2788 2.85239C17.4353 3.71498 15.1836 5.88198 13.0809 8.01111C12.2903 8.81479 11.4708 9.67739 11.2058 10.7798C11.032 11.5036 11.1148 12.2652 10.9658 12.9973C10.6802 14.4153 9.55433 15.522 8.31258 16.2331C7.07084 16.9442 5.68837 17.3524 4.38868 17.9499C3.83817 18.2023 3.25869 18.5432 3.05173 19.1196C2.53848 20.5545 4.68256 22.0524 4.00374 23.4158C3.75539 23.9165 3.17591 24.211 3.0269 24.7496C2.79925 25.5743 3.70986 26.3023 3.73055 27.1565C3.37045 26.6936 2.58401 26.7693 2.20321 27.2154C1.82241 27.6614 1.79757 28.3388 1.99625 28.8943C2.14112 29.3024 2.39361 29.6895 2.39361 30.1271C2.39361 30.5311 2.17424 30.893 1.98384 31.2506C1.2719 32.5761 0.89938 34.2928 1.71893 35.551C2.19907 36.2873 3.0062 36.7333 3.82161 37.0447C5.09233 37.5286 6.44583 37.7516 7.75794 38.0967C9.07419 38.4417 10.3904 38.934 11.3962 39.8639C12.4021 40.7896 13.0395 42.2329 12.7166 43.571L12.7001 43.2175C12.6918 47.3622 13.0436 51.5068 13.7556 55.5841L13.619 55.2307C13.143 56.1564 12.1868 56.6992 11.4252 57.4019C10.5353 58.2224 9.89374 59.2828 9.26873 60.3305C6.26371 65.3378 3.25869 70.3408 0.257812 75.348L0.502022 75.55H46.3223L46.3761 75.4659C47.146 73.7912 47.0012 71.8051 46.4217 70.0505C45.8381 68.2958 44.8571 66.7179 43.9506 65.1105C42.4978 62.5312 41.227 59.8508 40.1509 57.0863C39.9025 56.4467 39.6335 55.7609 39.0747 55.3695C38.1558 54.7258 36.8313 55.1255 35.8544 54.5827L35.7882 54.6753C34.7286 53.4929 33.6648 52.3021 32.7998 50.964C31.9347 49.6259 31.2724 48.1238 31.0944 46.5332L31.202 46.7731C31.0323 46.0031 31.3055 45.1867 31.765 44.5514C32.2244 43.916 32.8577 43.4363 33.491 42.9819C36.0241 41.1725 38.7643 39.6746 41.641 38.5132C42.9324 37.213 43.7975 35.5089 44.6294 33.8468C45.3538 32.3951 46.0781 30.9435 46.67 29.4287C47.0922 28.3388 47.4482 27.2154 47.9945 26.1845C48.2056 25.7847 48.4499 25.3934 48.574 24.9516C48.6941 24.5182 48.6899 24.0638 48.6858 23.6135C48.6651 21.7495 48.6485 19.8812 48.6278 18.0172L48.6361 18.0256Z" fill="white"/>
<path d="M48.6361 18.0256C48.6278 17.3902 48.5782 16.6623 48.0815 16.2794C48.0484 15.5598 48.0152 14.8403 47.9821 14.1208C47.7959 13.9988 47.6055 13.8767 47.4192 13.7505C47.5724 12.4798 46.9763 11.1501 45.9374 10.4306C45.4448 10.0897 44.8488 9.86674 44.4846 9.38705C44.0168 8.77272 44.0499 7.91854 43.7892 7.1906C42.7585 4.35035 38.1848 4.87212 36.5415 2.35166C36.3222 2.01504 36.1566 1.62793 35.8462 1.37967C35.4198 1.04305 34.8238 1.05146 34.2816 1.06408C31.8395 1.11458 29.3891 0.862111 27.005 0.319309C25.5438 -0.0131045 23.7557 -0.353934 22.7747 0.790579C22.4767 0.668554 22.1829 0.550736 21.8848 0.428711C21.7317 0.719047 21.5785 1.00938 21.4295 1.29551C21.1977 1.22398 20.9618 1.15666 20.73 1.08512C20.6348 1.5059 20.5396 1.92247 20.4444 2.34325L20.2788 2.85239C17.4353 3.71498 15.1836 5.88198 13.0809 8.01111C12.2903 8.81479 11.4708 9.67739 11.2058 10.7798C11.032 11.5036 11.1148 12.2652 10.9658 12.9973C10.6802 14.4153 9.55433 15.522 8.31258 16.2331C7.07084 16.9442 5.68837 17.3524 4.38868 17.9499C3.83817 18.2023 3.25869 18.5432 3.05173 19.1196C2.53848 20.5545 4.68256 22.0524 4.00374 23.4158C3.75539 23.9165 3.17591 24.211 3.0269 24.7496C2.79925 25.5743 3.70986 26.3023 3.73055 27.1565C3.37045 26.6936 2.58401 26.7693 2.20321 27.2154C1.82241 27.6614 1.79757 28.3388 1.99625 28.8943C2.14112 29.3024 2.39361 29.6895 2.39361 30.1271C2.39361 30.5311 2.17424 30.893 1.98384 31.2506C1.2719 32.5761 0.89938 34.2928 1.71893 35.551C2.19907 36.2873 3.0062 36.7333 3.82161 37.0447C5.09233 37.5286 6.44583 37.7516 7.75794 38.0967C9.07419 38.4417 10.3904 38.934 11.3962 39.8639C12.4021 40.7896 13.0395 42.2329 12.7166 43.571L12.7001 43.2175C12.6918 47.3622 13.0436 51.5068 13.7556 55.5841L13.619 55.2307C13.143 56.1564 12.1868 56.6992 11.4252 57.4019C10.5353 58.2224 9.89374 59.2828 9.26873 60.3305C6.26371 65.3378 3.25869 70.3408 0.257812 75.348L0.502022 75.55H46.3223L46.3761 75.4659C47.146 73.7912 47.0012 71.8051 46.4217 70.0505C45.8381 68.2958 44.8571 66.7179 43.9506 65.1105C42.4978 62.5312 41.227 59.8508 40.1509 57.0863C39.9025 56.4467 39.6335 55.7609 39.0747 55.3695C38.1558 54.7258 36.8313 55.1255 35.8544 54.5827L35.7882 54.6753C34.7286 53.4929 33.6648 52.3021 32.7998 50.964C31.9347 49.6259 31.2724 48.1238 31.0944 46.5332L31.202 46.7731C31.0323 46.0031 31.3055 45.1867 31.765 44.5514C32.2244 43.916 32.8577 43.4363 33.491 42.9819C36.0241 41.1725 38.7643 39.6746 41.641 38.5132C42.9324 37.213 43.7975 35.5089 44.6294 33.8468C45.3538 32.3951 46.0781 30.9435 46.67 29.4287C47.0922 28.3388 47.4482 27.2154 47.9945 26.1845C48.2056 25.7847 48.4499 25.3934 48.574 24.9516C48.6941 24.5182 48.6899 24.0638 48.6858 23.6135C48.6651 21.7495 48.6485 19.8812 48.6278 18.0172L48.6361 18.0256Z" fill="url(#paint0_radial_758_5364)"/>
<path d="M48.6361 18.0256C48.6278 17.3902 48.5782 16.6623 48.0815 16.2794C48.0484 15.5598 48.0152 14.8403 47.9821 14.1208C47.7959 13.9988 47.6055 13.8767 47.4192 13.7505C47.5724 12.4798 46.9763 11.1501 45.9374 10.4306C45.4448 10.0897 44.8488 9.86674 44.4846 9.38705C44.0168 8.77272 44.0499 7.91854 43.7892 7.1906C42.7585 4.35035 38.1848 4.87212 36.5415 2.35166C36.3222 2.01504 36.1566 1.62793 35.8462 1.37967C35.4198 1.04305 34.8238 1.05146 34.2816 1.06408C31.8395 1.11458 29.3891 0.862111 27.005 0.319309C25.5438 -0.0131045 23.7557 -0.353934 22.7747 0.790579C22.4767 0.668554 22.1829 0.550736 21.8848 0.428711C21.7317 0.719047 21.5785 1.00938 21.4295 1.29551C21.1977 1.22398 20.9618 1.15666 20.73 1.08512C20.6348 1.5059 20.5396 1.92247 20.4444 2.34325L20.2788 2.85239C17.4353 3.71498 15.1836 5.88198 13.0809 8.01111C12.2903 8.81479 11.4708 9.67739 11.2058 10.7798C11.032 11.5036 11.1148 12.2652 10.9658 12.9973C10.6802 14.4153 9.55433 15.522 8.31258 16.2331C7.07084 16.9442 5.68837 17.3524 4.38868 17.9499C3.83817 18.2023 3.25869 18.5432 3.05173 19.1196C2.53848 20.5545 4.68256 22.0524 4.00374 23.4158C3.75539 23.9165 3.17591 24.211 3.0269 24.7496C2.79925 25.5743 3.70986 26.3023 3.73055 27.1565C3.37045 26.6936 2.58401 26.7693 2.20321 27.2154C1.82241 27.6614 1.79757 28.3388 1.99625 28.8943C2.14112 29.3024 2.39361 29.6895 2.39361 30.1271C2.39361 30.5311 2.17424 30.893 1.98384 31.2506C1.2719 32.5761 0.89938 34.2928 1.71893 35.551C2.19907 36.2873 3.0062 36.7333 3.82161 37.0447C5.09233 37.5286 6.44583 37.7516 7.75794 38.0967C9.07419 38.4417 10.3904 38.934 11.3962 39.8639C12.4021 40.7896 13.0395 42.2329 12.7166 43.571L12.7001 43.2175C12.6918 47.3622 13.0436 51.5068 13.7556 55.5841L13.619 55.2307C13.143 56.1564 12.1868 56.6992 11.4252 57.4019C10.5353 58.2224 9.89374 59.2828 9.26873 60.3305C6.26371 65.3378 3.25869 70.3408 0.257812 75.348L0.502022 75.55H46.3223L46.3761 75.4659C47.146 73.7912 47.0012 71.8051 46.4217 70.0505C45.8381 68.2958 44.8571 66.7179 43.9506 65.1105C42.4978 62.5312 41.227 59.8508 40.1509 57.0863C39.9025 56.4467 39.6335 55.7609 39.0747 55.3695C38.1558 54.7258 36.8313 55.1255 35.8544 54.5827L35.7882 54.6753C34.7286 53.4929 33.6648 52.3021 32.7998 50.964C31.9347 49.6259 31.2724 48.1238 31.0944 46.5332L31.202 46.7731C31.0323 46.0031 31.3055 45.1867 31.765 44.5514C32.2244 43.916 32.8577 43.4363 33.491 42.9819C36.0241 41.1725 38.7643 39.6746 41.641 38.5132C42.9324 37.213 43.7975 35.5089 44.6294 33.8468C45.3538 32.3951 46.0781 30.9435 46.67 29.4287C47.0922 28.3388 47.4482 27.2154 47.9945 26.1845C48.2056 25.7847 48.4499 25.3934 48.574 24.9516C48.6941 24.5182 48.6899 24.0638 48.6858 23.6135C48.6651 21.7495 48.6485 19.8812 48.6278 18.0172L48.6361 18.0256Z" fill="url(#paint1_radial_758_5364)"/>
<path d="M48.6361 18.0256C48.6278 17.3902 48.5782 16.6623 48.0815 16.2794C48.0484 15.5598 48.0152 14.8403 47.9821 14.1208C47.7959 13.9988 47.6055 13.8767 47.4192 13.7505C47.5724 12.4798 46.9763 11.1501 45.9374 10.4306C45.4448 10.0897 44.8488 9.86674 44.4846 9.38705C44.0168 8.77272 44.0499 7.91854 43.7892 7.1906C42.7585 4.35035 38.1848 4.87212 36.5415 2.35166C36.3222 2.01504 36.1566 1.62793 35.8462 1.37967C35.4198 1.04305 34.8238 1.05146 34.2816 1.06408C31.8395 1.11458 29.3891 0.862111 27.005 0.319309C25.5438 -0.0131045 23.7557 -0.353934 22.7747 0.790579C22.4767 0.668554 22.1829 0.550736 21.8848 0.428711C21.7317 0.719047 21.5785 1.00938 21.4295 1.29551C21.1977 1.22398 20.9618 1.15666 20.73 1.08512C20.6348 1.5059 20.5396 1.92247 20.4444 2.34325L20.2788 2.85239C17.4353 3.71498 15.1836 5.88198 13.0809 8.01111C12.2903 8.81479 11.4708 9.67739 11.2058 10.7798C11.032 11.5036 11.1148 12.2652 10.9658 12.9973C10.6802 14.4153 9.55433 15.522 8.31258 16.2331C7.07084 16.9442 5.68837 17.3524 4.38868 17.9499C3.83817 18.2023 3.25869 18.5432 3.05173 19.1196C2.53848 20.5545 4.68256 22.0524 4.00374 23.4158C3.75539 23.9165 3.17591 24.211 3.0269 24.7496C2.79925 25.5743 3.70986 26.3023 3.73055 27.1565C3.37045 26.6936 2.58401 26.7693 2.20321 27.2154C1.82241 27.6614 1.79757 28.3388 1.99625 28.8943C2.14112 29.3024 2.39361 29.6895 2.39361 30.1271C2.39361 30.5311 2.17424 30.893 1.98384 31.2506C1.2719 32.5761 0.89938 34.2928 1.71893 35.551C2.19907 36.2873 3.0062 36.7333 3.82161 37.0447C5.09233 37.5286 6.44583 37.7516 7.75794 38.0967C9.07419 38.4417 10.3904 38.934 11.3962 39.8639C12.4021 40.7896 13.0395 42.2329 12.7166 43.571L12.7001 43.2175C12.6918 47.3622 13.0436 51.5068 13.7556 55.5841L13.619 55.2307C13.143 56.1564 12.1868 56.6992 11.4252 57.4019C10.5353 58.2224 9.89374 59.2828 9.26873 60.3305C6.26371 65.3378 3.25869 70.3408 0.257812 75.348L0.502022 75.55H46.3223L46.3761 75.4659C47.146 73.7912 47.0012 71.8051 46.4217 70.0505C45.8381 68.2958 44.8571 66.7179 43.9506 65.1105C42.4978 62.5312 41.227 59.8508 40.1509 57.0863C39.9025 56.4467 39.6335 55.7609 39.0747 55.3695C38.1558 54.7258 36.8313 55.1255 35.8544 54.5827L35.7882 54.6753C34.7286 53.4929 33.6648 52.3021 32.7998 50.964C31.9347 49.6259 31.2724 48.1238 31.0944 46.5332L31.202 46.7731C31.0323 46.0031 31.3055 45.1867 31.765 44.5514C32.2244 43.916 32.8577 43.4363 33.491 42.9819C36.0241 41.1725 38.7643 39.6746 41.641 38.5132C42.9324 37.213 43.7975 35.5089 44.6294 33.8468C45.3538 32.3951 46.0781 30.9435 46.67 29.4287C47.0922 28.3388 47.4482 27.2154 47.9945 26.1845C48.2056 25.7847 48.4499 25.3934 48.574 24.9516C48.6941 24.5182 48.6899 24.0638 48.6858 23.6135C48.6651 21.7495 48.6485 19.8812 48.6278 18.0172L48.6361 18.0256Z" fill="url(#paint2_radial_758_5364)"/>
<path d="M48.6361 18.0256C48.6278 17.3902 48.5782 16.6623 48.0815 16.2794C48.0484 15.5598 48.0152 14.8403 47.9821 14.1208C47.7959 13.9988 47.6055 13.8767 47.4192 13.7505C47.5724 12.4798 46.9763 11.1501 45.9374 10.4306C45.4448 10.0897 44.8488 9.86674 44.4846 9.38705C44.0168 8.77272 44.0499 7.91854 43.7892 7.1906C42.7585 4.35035 38.1848 4.87212 36.5415 2.35166C36.3222 2.01504 36.1566 1.62793 35.8462 1.37967C35.4198 1.04305 34.8238 1.05146 34.2816 1.06408C31.8395 1.11458 29.3891 0.862111 27.005 0.319309C25.5438 -0.0131045 23.7557 -0.353934 22.7747 0.790579C22.4767 0.668554 22.1829 0.550736 21.8848 0.428711C21.7317 0.719047 21.5785 1.00938 21.4295 1.29551C21.1977 1.22398 20.9618 1.15666 20.73 1.08512C20.6348 1.5059 20.5396 1.92247 20.4444 2.34325L20.2788 2.85239C17.4353 3.71498 15.1836 5.88198 13.0809 8.01111C12.2903 8.81479 11.4708 9.67739 11.2058 10.7798C11.032 11.5036 11.1148 12.2652 10.9658 12.9973C10.6802 14.4153 9.55433 15.522 8.31258 16.2331C7.07084 16.9442 5.68837 17.3524 4.38868 17.9499C3.83817 18.2023 3.25869 18.5432 3.05173 19.1196C2.53848 20.5545 4.68256 22.0524 4.00374 23.4158C3.75539 23.9165 3.17591 24.211 3.0269 24.7496C2.79925 25.5743 3.70986 26.3023 3.73055 27.1565C3.37045 26.6936 2.58401 26.7693 2.20321 27.2154C1.82241 27.6614 1.79757 28.3388 1.99625 28.8943C2.14112 29.3024 2.39361 29.6895 2.39361 30.1271C2.39361 30.5311 2.17424 30.893 1.98384 31.2506C1.2719 32.5761 0.89938 34.2928 1.71893 35.551C2.19907 36.2873 3.0062 36.7333 3.82161 37.0447C5.09233 37.5286 6.44583 37.7516 7.75794 38.0967C9.07419 38.4417 10.3904 38.934 11.3962 39.8639C12.4021 40.7896 13.0395 42.2329 12.7166 43.571L12.7001 43.2175C12.6918 47.3622 13.0436 51.5068 13.7556 55.5841L13.619 55.2307C13.143 56.1564 12.1868 56.6992 11.4252 57.4019C10.5353 58.2224 9.89374 59.2828 9.26873 60.3305C6.26371 65.3378 3.25869 70.3408 0.257812 75.348L0.502022 75.55H46.3223L46.3761 75.4659C47.146 73.7912 47.0012 71.8051 46.4217 70.0505C45.8381 68.2958 44.8571 66.7179 43.9506 65.1105C42.4978 62.5312 41.227 59.8508 40.1509 57.0863C39.9025 56.4467 39.6335 55.7609 39.0747 55.3695C38.1558 54.7258 36.8313 55.1255 35.8544 54.5827L35.7882 54.6753C34.7286 53.4929 33.6648 52.3021 32.7998 50.964C31.9347 49.6259 31.2724 48.1238 31.0944 46.5332L31.202 46.7731C31.0323 46.0031 31.3055 45.1867 31.765 44.5514C32.2244 43.916 32.8577 43.4363 33.491 42.9819C36.0241 41.1725 38.7643 39.6746 41.641 38.5132C42.9324 37.213 43.7975 35.5089 44.6294 33.8468C45.3538 32.3951 46.0781 30.9435 46.67 29.4287C47.0922 28.3388 47.4482 27.2154 47.9945 26.1845C48.2056 25.7847 48.4499 25.3934 48.574 24.9516C48.6941 24.5182 48.6899 24.0638 48.6858 23.6135C48.6651 21.7495 48.6485 19.8812 48.6278 18.0172L48.6361 18.0256Z" fill="url(#paint3_radial_758_5364)" fill-opacity="0.6"/>
</g>
<defs>
<filter id="filter0_i_758_5364" x="0.257812" y="0" width="49.4297" height="76.55" filterUnits="userSpaceOnUse" color-interpolation-filters="sRGB">
<feFlood flood-opacity="0" result="BackgroundImageFix"/>
<feBlend mode="normal" in="SourceGraphic" in2="BackgroundImageFix" result="shape"/>
<feColorMatrix in="SourceAlpha" type="matrix" values="0 0 0 0 0 0 0 0 0 0 0 0 0 0 0 0 0 0 127 0" result="hardAlpha"/>
<feOffset dx="1" dy="1"/>
<feGaussianBlur stdDeviation="2.5"/>
<feComposite in2="hardAlpha" operator="arithmetic" k2="-1" k3="1"/>
<feColorMatrix type="matrix" values="0 0 0 0 0 0 0 0 0 0 0 0 0 0 0 0 0 0 0.5 0"/>
<feBlend mode="normal" in2="shape" result="effect1_innerShadow_758_5364"/>
</filter>
<radialGradient id="paint0_radial_758_5364" cx="0" cy="0" r="1" gradientUnits="userSpaceOnUse" gradientTransform="translate(38.1824 25.3096) rotate(117.235) scale(56.5511 36.8173)">
<stop stop-color="#90C849" stop-opacity="0.73"/>
<stop offset="1" stop-color="#94E230" stop-opacity="0"/>
</radialGradient>
<radialGradient id="paint1_radial_758_5364" cx="0" cy="0" r="1" gradientUnits="userSpaceOnUse" gradientTransform="translate(44.4314 69.3627) rotate(-175.994) scale(44.2818 34.9095)">
<stop stop-color="#FFD874"/>
<stop offset="1" stop-color="#FFD874" stop-opacity="0"/>
</radialGradient>
<radialGradient id="paint2_radial_758_5364" cx="0" cy="0" r="1" gradientUnits="userSpaceOnUse" gradientTransform="translate(9.94371 70.991) rotate(-83.3255) scale(59.3442 38.1599)">
<stop stop-color="#FF5A96" stop-opacity="0.61"/>
<stop offset="1" stop-color="#FF5A96" stop-opacity="0"/>
</radialGradient>
<radialGradient id="paint3_radial_758_5364" cx="0" cy="0" r="1" gradientUnits="userSpaceOnUse" gradientTransform="translate(10.384 1.02542e-06) rotate(22.4067) scale(46.9873 40.9924)">
<stop stop-color="#0038FF"/>
<stop offset="1" stop-color="#0038FF" stop-opacity="0"/>
</radialGradient>
</defs>
</svg>
