<svg width="163" height="235" viewBox="0 0 163 235" fill="none" xmlns="http://www.w3.org/2000/svg">
<g filter="url(#filter0_i_596_5338)">
<path d="M134.965 193.73C134.201 192.923 133.416 192.095 133.039 191.046C132.443 189.4 132.956 187.577 133.406 185.878C135.687 177.062 135.655 167.67 133.322 158.865L132.757 159.389C130.423 161.433 127.514 162.796 124.448 163.278C120.858 163.844 117.196 163.204 113.627 162.46C111.408 161.999 109.127 161.464 107.338 160.081C105.538 158.707 104.366 156.254 105.151 154.126C105.192 154.022 105.234 153.906 105.318 153.822C105.527 153.613 105.883 153.665 106.176 153.728C109.368 154.326 112.779 152.481 114.234 149.608C112.633 151.307 110.121 152.145 107.84 151.621C105.14 151.003 102.974 148.539 102.702 145.782C104.439 147.197 106.898 147.47 109.085 146.977C111.272 146.485 113.24 145.321 115.113 144.094C117.708 142.396 120.262 140.509 122.072 137.994C123.883 135.478 124.887 132.207 124.092 129.199C126.373 128.129 127.995 125.76 128.173 123.244C128.403 126.201 129.513 129.083 131.302 131.452C131.961 132.312 132.715 133.119 133.678 133.633C136.304 135.037 139.758 133.717 141.558 131.337C143.358 128.958 143.808 125.823 143.818 122.846L143.452 122.49C144.226 125.488 143.117 128.884 140.731 130.844C139.81 131.599 138.68 132.155 137.487 132.155C135.352 132.155 133.552 130.352 132.861 128.329C132.171 126.305 132.338 124.104 132.526 121.966C136.336 120.792 138.816 116.357 137.801 112.489C143.431 113.296 148.579 109.166 152.043 104.659C155.225 100.518 157.747 95.5913 157.799 90.3709C157.851 85.1401 154.921 79.6576 149.982 77.949C152.933 77.3934 155.989 76.4185 157.977 74.1647C159.965 71.911 160.373 68.0429 158.144 66.0302L158.029 66.1245C159.264 67.6131 159.264 69.9822 158.019 71.4707C156.773 72.9487 154.429 73.3576 152.765 72.3827C151.552 71.6803 150.777 70.4119 150.212 69.1226C148.914 66.1769 148.464 62.9273 147.439 59.8769C146.173 56.1136 144.006 52.6543 141.17 49.866C139.747 48.4718 138.136 47.2243 136.273 46.5115C134.483 45.8301 132.506 45.6519 130.622 46.0188L130.653 45.7568C131.804 44.415 132.558 42.7378 132.819 40.9872C131.668 43.524 129.23 45.8301 126.467 45.5366C123.736 45.2431 121.842 42.5281 121.277 39.8341C120.712 37.14 121.099 34.3412 120.89 31.6052C120.272 23.4497 114.38 16.4473 107.327 12.3276C100.274 8.20791 92.1218 6.46779 84.1267 4.80105L84.0325 4.5914C86.3034 4.07775 88.2289 2.24329 88.8568 0C83.7395 3.75279 77.0106 4.3503 70.6689 4.43416C64.3273 4.5285 57.7554 4.2874 51.9055 6.72986C46.0557 9.17232 41.1372 15.3047 42.4349 21.5209C40.4152 20.0638 37.1397 20.9758 36.1769 23.2715C38.4792 21.7725 42.0581 23.1247 42.7907 25.7768L42.393 25.6196C36.2606 27.6008 31.8968 33.0203 28.4957 38.5028C25.0947 43.9852 22.1959 49.9603 17.4135 54.2896C19.9564 58.1053 19.3076 63.42 16.817 67.2672C14.3264 71.1143 10.3183 73.714 6.19521 75.6952C3.4011 77.0475 0.0209678 78.84 3.81401e-05 81.9429C-0.0104267 84.3853 2.13486 86.1883 3.64179 88.1171C5.14873 90.0459 5.79755 93.4004 3.62086 94.5116C2.13486 95.8848 1.53837 96.6919 2.85693 98.2329C4.1755 99.7634 6.73938 102.017 6.83356 104.04C5.47314 103.841 4.61502 103.338 3.23367 103.369C2.00928 103.401 0.586068 104.743 1.26628 109.114C1.37093 109.795 2.29183 110.823 2.37555 111.514C3.05576 116.923 -0.324371 121.536 2.64764 126.117C3.4011 127.28 4.79292 128.234 6.14289 128.538C10.6742 129.534 13.6671 129.953 18.4181 129.524C23.1691 129.094 29.1969 129.691 32.8596 132.752C36.8676 136.107 38.7826 141.925 40.0594 146.988C43.6906 161.317 51.7276 173.75 50.8381 188.499C50.566 193.111 49.2161 197.577 47.8766 201.99C45.5534 209.653 43.2197 217.337 40.0698 224.696C38.5838 228.176 36.9094 231.572 35.0676 234.885L35.8002 235C71.4852 233.04 107.264 232.61 142.991 233.721L141.987 233.438C148.778 233.868 155.56 234.298 162.351 234.717C162.571 234.455 162.78 234.193 163 233.92L162.885 233.941C156.648 218.752 146.225 205.659 134.954 193.719L134.965 193.73Z" fill="white"/>
<path d="M134.965 193.73C134.201 192.923 133.416 192.095 133.039 191.046C132.443 189.4 132.956 187.577 133.406 185.878C135.687 177.062 135.655 167.67 133.322 158.865L132.757 159.389C130.423 161.433 127.514 162.796 124.448 163.278C120.858 163.844 117.196 163.204 113.627 162.46C111.408 161.999 109.127 161.464 107.338 160.081C105.538 158.707 104.366 156.254 105.151 154.126C105.192 154.022 105.234 153.906 105.318 153.822C105.527 153.613 105.883 153.665 106.176 153.728C109.368 154.326 112.779 152.481 114.234 149.608C112.633 151.307 110.121 152.145 107.84 151.621C105.14 151.003 102.974 148.539 102.702 145.782C104.439 147.197 106.898 147.47 109.085 146.977C111.272 146.485 113.24 145.321 115.113 144.094C117.708 142.396 120.262 140.509 122.072 137.994C123.883 135.478 124.887 132.207 124.092 129.199C126.373 128.129 127.995 125.76 128.173 123.244C128.403 126.201 129.513 129.083 131.302 131.452C131.961 132.312 132.715 133.119 133.678 133.633C136.304 135.037 139.758 133.717 141.558 131.337C143.358 128.958 143.808 125.823 143.818 122.846L143.452 122.49C144.226 125.488 143.117 128.884 140.731 130.844C139.81 131.599 138.68 132.155 137.487 132.155C135.352 132.155 133.552 130.352 132.861 128.329C132.171 126.305 132.338 124.104 132.526 121.966C136.336 120.792 138.816 116.357 137.801 112.489C143.431 113.296 148.579 109.166 152.043 104.659C155.225 100.518 157.747 95.5913 157.799 90.3709C157.851 85.1401 154.921 79.6576 149.982 77.949C152.933 77.3934 155.989 76.4185 157.977 74.1647C159.965 71.911 160.373 68.0429 158.144 66.0302L158.029 66.1245C159.264 67.6131 159.264 69.9822 158.019 71.4707C156.773 72.9487 154.429 73.3576 152.765 72.3827C151.552 71.6803 150.777 70.4119 150.212 69.1226C148.914 66.1769 148.464 62.9273 147.439 59.8769C146.173 56.1136 144.006 52.6543 141.17 49.866C139.747 48.4718 138.136 47.2243 136.273 46.5115C134.483 45.8301 132.506 45.6519 130.622 46.0188L130.653 45.7568C131.804 44.415 132.558 42.7378 132.819 40.9872C131.668 43.524 129.23 45.8301 126.467 45.5366C123.736 45.2431 121.842 42.5281 121.277 39.8341C120.712 37.14 121.099 34.3412 120.89 31.6052C120.272 23.4497 114.38 16.4473 107.327 12.3276C100.274 8.20791 92.1218 6.46779 84.1267 4.80105L84.0325 4.5914C86.3034 4.07775 88.2289 2.24329 88.8568 0C83.7395 3.75279 77.0106 4.3503 70.6689 4.43416C64.3273 4.5285 57.7554 4.2874 51.9055 6.72986C46.0557 9.17232 41.1372 15.3047 42.4349 21.5209C40.4152 20.0638 37.1397 20.9758 36.1769 23.2715C38.4792 21.7725 42.0581 23.1247 42.7907 25.7768L42.393 25.6196C36.2606 27.6008 31.8968 33.0203 28.4957 38.5028C25.0947 43.9852 22.1959 49.9603 17.4135 54.2896C19.9564 58.1053 19.3076 63.42 16.817 67.2672C14.3264 71.1143 10.3183 73.714 6.19521 75.6952C3.4011 77.0475 0.0209678 78.84 3.81401e-05 81.9429C-0.0104267 84.3853 2.13486 86.1883 3.64179 88.1171C5.14873 90.0459 5.79755 93.4004 3.62086 94.5116C2.13486 95.8848 1.53837 96.6919 2.85693 98.2329C4.1755 99.7634 6.73938 102.017 6.83356 104.04C5.47314 103.841 4.61502 103.338 3.23367 103.369C2.00928 103.401 0.586068 104.743 1.26628 109.114C1.37093 109.795 2.29183 110.823 2.37555 111.514C3.05576 116.923 -0.324371 121.536 2.64764 126.117C3.4011 127.28 4.79292 128.234 6.14289 128.538C10.6742 129.534 13.6671 129.953 18.4181 129.524C23.1691 129.094 29.1969 129.691 32.8596 132.752C36.8676 136.107 38.7826 141.925 40.0594 146.988C43.6906 161.317 51.7276 173.75 50.8381 188.499C50.566 193.111 49.2161 197.577 47.8766 201.99C45.5534 209.653 43.2197 217.337 40.0698 224.696C38.5838 228.176 36.9094 231.572 35.0676 234.885L35.8002 235C71.4852 233.04 107.264 232.61 142.991 233.721L141.987 233.438C148.778 233.868 155.56 234.298 162.351 234.717C162.571 234.455 162.78 234.193 163 233.92L162.885 233.941C156.648 218.752 146.225 205.659 134.954 193.719L134.965 193.73Z" fill="url(#paint0_radial_596_5338)"/>
<path d="M134.965 193.73C134.201 192.923 133.416 192.095 133.039 191.046C132.443 189.4 132.956 187.577 133.406 185.878C135.687 177.062 135.655 167.67 133.322 158.865L132.757 159.389C130.423 161.433 127.514 162.796 124.448 163.278C120.858 163.844 117.196 163.204 113.627 162.46C111.408 161.999 109.127 161.464 107.338 160.081C105.538 158.707 104.366 156.254 105.151 154.126C105.192 154.022 105.234 153.906 105.318 153.822C105.527 153.613 105.883 153.665 106.176 153.728C109.368 154.326 112.779 152.481 114.234 149.608C112.633 151.307 110.121 152.145 107.84 151.621C105.14 151.003 102.974 148.539 102.702 145.782C104.439 147.197 106.898 147.47 109.085 146.977C111.272 146.485 113.24 145.321 115.113 144.094C117.708 142.396 120.262 140.509 122.072 137.994C123.883 135.478 124.887 132.207 124.092 129.199C126.373 128.129 127.995 125.76 128.173 123.244C128.403 126.201 129.513 129.083 131.302 131.452C131.961 132.312 132.715 133.119 133.678 133.633C136.304 135.037 139.758 133.717 141.558 131.337C143.358 128.958 143.808 125.823 143.818 122.846L143.452 122.49C144.226 125.488 143.117 128.884 140.731 130.844C139.81 131.599 138.68 132.155 137.487 132.155C135.352 132.155 133.552 130.352 132.861 128.329C132.171 126.305 132.338 124.104 132.526 121.966C136.336 120.792 138.816 116.357 137.801 112.489C143.431 113.296 148.579 109.166 152.043 104.659C155.225 100.518 157.747 95.5913 157.799 90.3709C157.851 85.1401 154.921 79.6576 149.982 77.949C152.933 77.3934 155.989 76.4185 157.977 74.1647C159.965 71.911 160.373 68.0429 158.144 66.0302L158.029 66.1245C159.264 67.6131 159.264 69.9822 158.019 71.4707C156.773 72.9487 154.429 73.3576 152.765 72.3827C151.552 71.6803 150.777 70.4119 150.212 69.1226C148.914 66.1769 148.464 62.9273 147.439 59.8769C146.173 56.1136 144.006 52.6543 141.17 49.866C139.747 48.4718 138.136 47.2243 136.273 46.5115C134.483 45.8301 132.506 45.6519 130.622 46.0188L130.653 45.7568C131.804 44.415 132.558 42.7378 132.819 40.9872C131.668 43.524 129.23 45.8301 126.467 45.5366C123.736 45.2431 121.842 42.5281 121.277 39.8341C120.712 37.14 121.099 34.3412 120.89 31.6052C120.272 23.4497 114.38 16.4473 107.327 12.3276C100.274 8.20791 92.1218 6.46779 84.1267 4.80105L84.0325 4.5914C86.3034 4.07775 88.2289 2.24329 88.8568 0C83.7395 3.75279 77.0106 4.3503 70.6689 4.43416C64.3273 4.5285 57.7554 4.2874 51.9055 6.72986C46.0557 9.17232 41.1372 15.3047 42.4349 21.5209C40.4152 20.0638 37.1397 20.9758 36.1769 23.2715C38.4792 21.7725 42.0581 23.1247 42.7907 25.7768L42.393 25.6196C36.2606 27.6008 31.8968 33.0203 28.4957 38.5028C25.0947 43.9852 22.1959 49.9603 17.4135 54.2896C19.9564 58.1053 19.3076 63.42 16.817 67.2672C14.3264 71.1143 10.3183 73.714 6.19521 75.6952C3.4011 77.0475 0.0209678 78.84 3.81401e-05 81.9429C-0.0104267 84.3853 2.13486 86.1883 3.64179 88.1171C5.14873 90.0459 5.79755 93.4004 3.62086 94.5116C2.13486 95.8848 1.53837 96.6919 2.85693 98.2329C4.1755 99.7634 6.73938 102.017 6.83356 104.04C5.47314 103.841 4.61502 103.338 3.23367 103.369C2.00928 103.401 0.586068 104.743 1.26628 109.114C1.37093 109.795 2.29183 110.823 2.37555 111.514C3.05576 116.923 -0.324371 121.536 2.64764 126.117C3.4011 127.28 4.79292 128.234 6.14289 128.538C10.6742 129.534 13.6671 129.953 18.4181 129.524C23.1691 129.094 29.1969 129.691 32.8596 132.752C36.8676 136.107 38.7826 141.925 40.0594 146.988C43.6906 161.317 51.7276 173.75 50.8381 188.499C50.566 193.111 49.2161 197.577 47.8766 201.99C45.5534 209.653 43.2197 217.337 40.0698 224.696C38.5838 228.176 36.9094 231.572 35.0676 234.885L35.8002 235C71.4852 233.04 107.264 232.61 142.991 233.721L141.987 233.438C148.778 233.868 155.56 234.298 162.351 234.717C162.571 234.455 162.78 234.193 163 233.92L162.885 233.941C156.648 218.752 146.225 205.659 134.954 193.719L134.965 193.73Z" fill="url(#paint1_radial_596_5338)"/>
<path d="M134.965 193.73C134.201 192.923 133.416 192.095 133.039 191.046C132.443 189.4 132.956 187.577 133.406 185.878C135.687 177.062 135.655 167.67 133.322 158.865L132.757 159.389C130.423 161.433 127.514 162.796 124.448 163.278C120.858 163.844 117.196 163.204 113.627 162.46C111.408 161.999 109.127 161.464 107.338 160.081C105.538 158.707 104.366 156.254 105.151 154.126C105.192 154.022 105.234 153.906 105.318 153.822C105.527 153.613 105.883 153.665 106.176 153.728C109.368 154.326 112.779 152.481 114.234 149.608C112.633 151.307 110.121 152.145 107.84 151.621C105.14 151.003 102.974 148.539 102.702 145.782C104.439 147.197 106.898 147.47 109.085 146.977C111.272 146.485 113.24 145.321 115.113 144.094C117.708 142.396 120.262 140.509 122.072 137.994C123.883 135.478 124.887 132.207 124.092 129.199C126.373 128.129 127.995 125.76 128.173 123.244C128.403 126.201 129.513 129.083 131.302 131.452C131.961 132.312 132.715 133.119 133.678 133.633C136.304 135.037 139.758 133.717 141.558 131.337C143.358 128.958 143.808 125.823 143.818 122.846L143.452 122.49C144.226 125.488 143.117 128.884 140.731 130.844C139.81 131.599 138.68 132.155 137.487 132.155C135.352 132.155 133.552 130.352 132.861 128.329C132.171 126.305 132.338 124.104 132.526 121.966C136.336 120.792 138.816 116.357 137.801 112.489C143.431 113.296 148.579 109.166 152.043 104.659C155.225 100.518 157.747 95.5913 157.799 90.3709C157.851 85.1401 154.921 79.6576 149.982 77.949C152.933 77.3934 155.989 76.4185 157.977 74.1647C159.965 71.911 160.373 68.0429 158.144 66.0302L158.029 66.1245C159.264 67.6131 159.264 69.9822 158.019 71.4707C156.773 72.9487 154.429 73.3576 152.765 72.3827C151.552 71.6803 150.777 70.4119 150.212 69.1226C148.914 66.1769 148.464 62.9273 147.439 59.8769C146.173 56.1136 144.006 52.6543 141.17 49.866C139.747 48.4718 138.136 47.2243 136.273 46.5115C134.483 45.8301 132.506 45.6519 130.622 46.0188L130.653 45.7568C131.804 44.415 132.558 42.7378 132.819 40.9872C131.668 43.524 129.23 45.8301 126.467 45.5366C123.736 45.2431 121.842 42.5281 121.277 39.8341C120.712 37.14 121.099 34.3412 120.89 31.6052C120.272 23.4497 114.38 16.4473 107.327 12.3276C100.274 8.20791 92.1218 6.46779 84.1267 4.80105L84.0325 4.5914C86.3034 4.07775 88.2289 2.24329 88.8568 0C83.7395 3.75279 77.0106 4.3503 70.6689 4.43416C64.3273 4.5285 57.7554 4.2874 51.9055 6.72986C46.0557 9.17232 41.1372 15.3047 42.4349 21.5209C40.4152 20.0638 37.1397 20.9758 36.1769 23.2715C38.4792 21.7725 42.0581 23.1247 42.7907 25.7768L42.393 25.6196C36.2606 27.6008 31.8968 33.0203 28.4957 38.5028C25.0947 43.9852 22.1959 49.9603 17.4135 54.2896C19.9564 58.1053 19.3076 63.42 16.817 67.2672C14.3264 71.1143 10.3183 73.714 6.19521 75.6952C3.4011 77.0475 0.0209678 78.84 3.81401e-05 81.9429C-0.0104267 84.3853 2.13486 86.1883 3.64179 88.1171C5.14873 90.0459 5.79755 93.4004 3.62086 94.5116C2.13486 95.8848 1.53837 96.6919 2.85693 98.2329C4.1755 99.7634 6.73938 102.017 6.83356 104.04C5.47314 103.841 4.61502 103.338 3.23367 103.369C2.00928 103.401 0.586068 104.743 1.26628 109.114C1.37093 109.795 2.29183 110.823 2.37555 111.514C3.05576 116.923 -0.324371 121.536 2.64764 126.117C3.4011 127.28 4.79292 128.234 6.14289 128.538C10.6742 129.534 13.6671 129.953 18.4181 129.524C23.1691 129.094 29.1969 129.691 32.8596 132.752C36.8676 136.107 38.7826 141.925 40.0594 146.988C43.6906 161.317 51.7276 173.75 50.8381 188.499C50.566 193.111 49.2161 197.577 47.8766 201.99C45.5534 209.653 43.2197 217.337 40.0698 224.696C38.5838 228.176 36.9094 231.572 35.0676 234.885L35.8002 235C71.4852 233.04 107.264 232.61 142.991 233.721L141.987 233.438C148.778 233.868 155.56 234.298 162.351 234.717C162.571 234.455 162.78 234.193 163 233.92L162.885 233.941C156.648 218.752 146.225 205.659 134.954 193.719L134.965 193.73Z" fill="url(#paint2_radial_596_5338)" fill-opacity="0.4"/>
<path d="M134.965 193.73C134.201 192.923 133.416 192.095 133.039 191.046C132.443 189.4 132.956 187.577 133.406 185.878C135.687 177.062 135.655 167.67 133.322 158.865L132.757 159.389C130.423 161.433 127.514 162.796 124.448 163.278C120.858 163.844 117.196 163.204 113.627 162.46C111.408 161.999 109.127 161.464 107.338 160.081C105.538 158.707 104.366 156.254 105.151 154.126C105.192 154.022 105.234 153.906 105.318 153.822C105.527 153.613 105.883 153.665 106.176 153.728C109.368 154.326 112.779 152.481 114.234 149.608C112.633 151.307 110.121 152.145 107.84 151.621C105.14 151.003 102.974 148.539 102.702 145.782C104.439 147.197 106.898 147.47 109.085 146.977C111.272 146.485 113.24 145.321 115.113 144.094C117.708 142.396 120.262 140.509 122.072 137.994C123.883 135.478 124.887 132.207 124.092 129.199C126.373 128.129 127.995 125.76 128.173 123.244C128.403 126.201 129.513 129.083 131.302 131.452C131.961 132.312 132.715 133.119 133.678 133.633C136.304 135.037 139.758 133.717 141.558 131.337C143.358 128.958 143.808 125.823 143.818 122.846L143.452 122.49C144.226 125.488 143.117 128.884 140.731 130.844C139.81 131.599 138.68 132.155 137.487 132.155C135.352 132.155 133.552 130.352 132.861 128.329C132.171 126.305 132.338 124.104 132.526 121.966C136.336 120.792 138.816 116.357 137.801 112.489C143.431 113.296 148.579 109.166 152.043 104.659C155.225 100.518 157.747 95.5913 157.799 90.3709C157.851 85.1401 154.921 79.6576 149.982 77.949C152.933 77.3934 155.989 76.4185 157.977 74.1647C159.965 71.911 160.373 68.0429 158.144 66.0302L158.029 66.1245C159.264 67.6131 159.264 69.9822 158.019 71.4707C156.773 72.9487 154.429 73.3576 152.765 72.3827C151.552 71.6803 150.777 70.4119 150.212 69.1226C148.914 66.1769 148.464 62.9273 147.439 59.8769C146.173 56.1136 144.006 52.6543 141.17 49.866C139.747 48.4718 138.136 47.2243 136.273 46.5115C134.483 45.8301 132.506 45.6519 130.622 46.0188L130.653 45.7568C131.804 44.415 132.558 42.7378 132.819 40.9872C131.668 43.524 129.23 45.8301 126.467 45.5366C123.736 45.2431 121.842 42.5281 121.277 39.8341C120.712 37.14 121.099 34.3412 120.89 31.6052C120.272 23.4497 114.38 16.4473 107.327 12.3276C100.274 8.20791 92.1218 6.46779 84.1267 4.80105L84.0325 4.5914C86.3034 4.07775 88.2289 2.24329 88.8568 0C83.7395 3.75279 77.0106 4.3503 70.6689 4.43416C64.3273 4.5285 57.7554 4.2874 51.9055 6.72986C46.0557 9.17232 41.1372 15.3047 42.4349 21.5209C40.4152 20.0638 37.1397 20.9758 36.1769 23.2715C38.4792 21.7725 42.0581 23.1247 42.7907 25.7768L42.393 25.6196C36.2606 27.6008 31.8968 33.0203 28.4957 38.5028C25.0947 43.9852 22.1959 49.9603 17.4135 54.2896C19.9564 58.1053 19.3076 63.42 16.817 67.2672C14.3264 71.1143 10.3183 73.714 6.19521 75.6952C3.4011 77.0475 0.0209678 78.84 3.81401e-05 81.9429C-0.0104267 84.3853 2.13486 86.1883 3.64179 88.1171C5.14873 90.0459 5.79755 93.4004 3.62086 94.5116C2.13486 95.8848 1.53837 96.6919 2.85693 98.2329C4.1755 99.7634 6.73938 102.017 6.83356 104.04C5.47314 103.841 4.61502 103.338 3.23367 103.369C2.00928 103.401 0.586068 104.743 1.26628 109.114C1.37093 109.795 2.29183 110.823 2.37555 111.514C3.05576 116.923 -0.324371 121.536 2.64764 126.117C3.4011 127.28 4.79292 128.234 6.14289 128.538C10.6742 129.534 13.6671 129.953 18.4181 129.524C23.1691 129.094 29.1969 129.691 32.8596 132.752C36.8676 136.107 38.7826 141.925 40.0594 146.988C43.6906 161.317 51.7276 173.75 50.8381 188.499C50.566 193.111 49.2161 197.577 47.8766 201.99C45.5534 209.653 43.2197 217.337 40.0698 224.696C38.5838 228.176 36.9094 231.572 35.0676 234.885L35.8002 235C71.4852 233.04 107.264 232.61 142.991 233.721L141.987 233.438C148.778 233.868 155.56 234.298 162.351 234.717C162.571 234.455 162.78 234.193 163 233.92L162.885 233.941C156.648 218.752 146.225 205.659 134.954 193.719L134.965 193.73Z" fill="url(#paint3_radial_596_5338)"/>
</g>
<defs>
<filter id="filter0_i_596_5338" x="0" y="0" width="164" height="236" filterUnits="userSpaceOnUse" color-interpolation-filters="sRGB">
<feFlood flood-opacity="0" result="BackgroundImageFix"/>
<feBlend mode="normal" in="SourceGraphic" in2="BackgroundImageFix" result="shape"/>
<feColorMatrix in="SourceAlpha" type="matrix" values="0 0 0 0 0 0 0 0 0 0 0 0 0 0 0 0 0 0 127 0" result="hardAlpha"/>
<feOffset dx="1" dy="1"/>
<feGaussianBlur stdDeviation="2.5"/>
<feComposite in2="hardAlpha" operator="arithmetic" k2="-1" k3="1"/>
<feColorMatrix type="matrix" values="0 0 0 0 0 0 0 0 0 0 0 0 0 0 0 0 0 0 0.5 0"/>
<feBlend mode="normal" in2="shape" result="effect1_innerShadow_596_5338"/>
</filter>
<radialGradient id="paint0_radial_596_5338" cx="0" cy="0" r="1" gradientUnits="userSpaceOnUse" gradientTransform="translate(11.3606 143.836) rotate(50.2073) scale(153.581 128.868)">
<stop stop-color="#FF3D00" stop-opacity="0.85"/>
<stop offset="1" stop-color="#FF3D00" stop-opacity="0"/>
</radialGradient>
<radialGradient id="paint1_radial_596_5338" cx="0" cy="0" r="1" gradientUnits="userSpaceOnUse" gradientTransform="translate(171.891 201.067) rotate(-142.937) scale(138.655 135.933)">
<stop stop-color="#0085FF" stop-opacity="0.59"/>
<stop offset="1" stop-color="#364AFF" stop-opacity="0"/>
</radialGradient>
<radialGradient id="paint2_radial_596_5338" cx="0" cy="0" r="1" gradientUnits="userSpaceOnUse" gradientTransform="translate(81.9939 12.1552) rotate(86.3362) scale(100.486 79.2419)">
<stop stop-color="#FF003D"/>
<stop offset="1" stop-color="#FF003D" stop-opacity="0"/>
</radialGradient>
<radialGradient id="paint3_radial_596_5338" cx="0" cy="0" r="1" gradientUnits="userSpaceOnUse" gradientTransform="translate(113.112 16.2069) rotate(73.9559) scale(205.527 152.282)">
<stop stop-color="#FDFFB3" stop-opacity="0.85"/>
<stop offset="1" stop-color="#FFC700" stop-opacity="0"/>
</radialGradient>
</defs>
</svg>
