<svg width="54" height="76" viewBox="0 0 54 76" fill="none" xmlns="http://www.w3.org/2000/svg">
<g filter="url(#filter0_i_758_5367)">
<path d="M46.5754 56.3651C46.1243 55.9391 45.0491 54.8212 43.8517 53.1086C41.8237 50.219 41.031 46.4943 41.7056 43.031C40.1245 43.4318 38.5392 43.8283 36.9581 44.229C36.566 44.326 36.1022 44.4104 35.8029 44.1362C35.6131 43.9633 35.5541 43.6933 35.5077 43.4402C34.9428 40.2258 35.571 36.8132 37.2406 34.0081C37.4683 34.2527 37.7845 34.4172 38.1176 34.4594C38.126 33.3458 38.1302 32.2279 38.1387 31.1143L38.1851 31.4602C38.1977 31.0215 38.2104 30.587 38.2272 30.1483C38.3664 30.4562 38.5055 30.7599 38.6446 31.0679C38.4718 29.3299 39.0873 27.6131 39.8716 26.0523C40.6516 24.4915 41.6129 23.0151 42.22 21.3826C42.4013 20.8891 42.5531 20.3787 42.5573 19.8514C42.5615 19.4253 42.4688 19.0035 42.3802 18.5859C41.9881 16.8058 41.5918 15.0045 40.7486 13.3889C41.0563 13.2961 41.3388 13.1105 41.5454 12.8659C40.9467 12.6507 40.5335 12.0011 40.5925 11.3684C40.7528 11.3473 40.9172 11.3768 41.0606 11.4569C40.9931 10.3011 39.8674 9.54605 38.8976 8.9133C38.1007 8.39023 37.3292 7.82497 36.5955 7.21754C36.507 7.14582 36.4184 7.06568 36.3932 6.956C36.3636 6.81258 36.4606 6.67337 36.5534 6.55948C36.8232 6.22623 37.0888 5.88877 37.3587 5.55552C36.254 6.11656 34.7235 5.54286 34.2639 4.39126C34.1079 3.99896 34.0447 3.53917 33.7327 3.25232C33.505 3.04562 33.1888 2.97813 32.9232 2.82205C32.6618 2.66597 32.4383 2.33273 32.5859 2.06697L32.6533 1.78857C32.8178 1.72529 32.9653 1.61983 33.0792 1.48485C31.8312 1.96573 30.4314 1.63249 29.1581 1.22753L29.0948 1.19378C29.1032 1.02083 29.137 0.847881 29.196 0.683367C29.04 0.860536 28.8418 0.995522 28.6184 1.07567L28.5889 1.16004C27.9522 0.501979 27.0373 0.126549 26.1223 0.139204C25.7092 0.147641 25.2622 0.219352 24.9123 0C25.0767 0.232007 25.2411 0.459796 25.4056 0.691804C24.672 1.03349 23.8118 0.928029 23.0318 0.712895C22.2518 0.497761 21.4929 0.177169 20.6876 0.105458C19.1234 -0.0379648 17.6392 0.755078 16.0919 1.0124C15.1769 1.16425 14.0976 1.20644 13.579 1.96995C13.5326 1.6578 13.4904 1.34986 13.4441 1.03771C13.2206 1.45954 12.9929 1.88137 12.7695 2.3032C12.6387 2.34538 12.6514 2.57739 12.7863 2.60692C11.5004 3.2017 10.2313 3.8471 8.99168 4.53469C9.16033 4.20988 8.93266 3.7543 8.57428 3.68681C8.36346 4.28159 8.00508 4.82575 7.53708 5.24758C7.6214 5.04089 7.60454 4.79622 7.49491 4.60218C7.06907 5.26867 6.46193 5.81706 5.7536 6.17139C5.7536 5.88033 5.7536 5.58927 5.7536 5.2982C4.93986 5.89299 4.21045 6.60166 3.59487 7.39892C3.11844 8.01902 2.69681 8.71082 2.55346 9.47855C2.40589 10.2463 2.57032 11.1068 3.11844 11.6636C2.76005 11.4527 2.39746 11.246 2.03907 11.0351C2.06859 11.7944 2.5914 12.4693 3.23649 12.8743C3.88158 13.2793 4.63629 13.4649 5.37413 13.6462L5.80419 13.8487C5.68192 14.2537 5.55965 14.6586 5.43738 15.0636C4.99046 16.3713 4.54353 17.679 4.09661 18.9824C3.88579 19.6025 3.67077 20.2395 3.71714 20.8933C3.80569 22.1757 4.87662 23.2387 4.93143 24.5211C4.97359 25.5081 4.41283 26.4066 3.87315 27.2292C3.2913 28.1193 2.70946 29.0093 2.12761 29.8952C1.88729 30.2622 1.63431 30.684 1.73129 31.1101C1.87464 31.7513 2.64621 31.9664 3.266 32.1773C3.88579 32.3882 4.58148 32.9746 4.29899 33.5651C4.2231 33.7296 4.07974 33.852 3.99542 34.0081C3.74666 34.4678 4.04601 35.0415 4.42548 35.3959C4.80916 35.7544 5.28981 36.0244 5.54278 36.48C5.06213 36.7289 4.8218 37.3658 5.01575 37.872C5.16754 38.2728 5.53435 38.547 5.77468 38.9055C6.86247 40.5253 4.99889 42.9171 5.98549 44.6002L5.99814 44.537C6.2469 45.4355 7.16183 46.026 8.08097 46.161C9.00433 46.296 9.93613 46.0598 10.83 45.7982C12.2466 45.3806 13.6422 44.8871 15.0083 44.3176C15.2655 44.2122 15.666 44.1657 15.7293 44.4399C15.7461 44.5159 15.7293 44.596 15.7082 44.6677C15.2697 46.2454 14.3885 47.6923 14.1313 49.3079C14.0301 49.9406 14.0259 50.5945 13.8151 51.1977C13.4778 52.1552 12.664 52.8555 11.8798 53.5093L11.6564 53.4292C9.40488 52.9525 7.09437 52.75 4.79651 52.826C5.3404 54.315 5.88852 55.8083 6.43242 57.2974C6.53782 57.5842 6.64323 57.8837 6.5842 58.1832C6.49144 58.6641 6.02344 58.9594 5.5976 59.1998C5.04105 59.5162 4.48029 59.8326 3.92374 60.1447C3.92374 60.1447 3.57379 60.3936 3.17746 60.769C1.75237 62.1358 1.3982 68.1595 1.05669 71.1123C0.930197 72.188 0.706736 73.7193 0.272461 75.55H53.5449C52.124 63.9117 49.1937 58.7906 46.5754 56.3271V56.3651Z" fill="white"/>
<path d="M46.5754 56.3651C46.1243 55.9391 45.0491 54.8212 43.8517 53.1086C41.8237 50.219 41.031 46.4943 41.7056 43.031C40.1245 43.4318 38.5392 43.8283 36.9581 44.229C36.566 44.326 36.1022 44.4104 35.8029 44.1362C35.6131 43.9633 35.5541 43.6933 35.5077 43.4402C34.9428 40.2258 35.571 36.8132 37.2406 34.0081C37.4683 34.2527 37.7845 34.4172 38.1176 34.4594C38.126 33.3458 38.1302 32.2279 38.1387 31.1143L38.1851 31.4602C38.1977 31.0215 38.2104 30.587 38.2272 30.1483C38.3664 30.4562 38.5055 30.7599 38.6446 31.0679C38.4718 29.3299 39.0873 27.6131 39.8716 26.0523C40.6516 24.4915 41.6129 23.0151 42.22 21.3826C42.4013 20.8891 42.5531 20.3787 42.5573 19.8514C42.5615 19.4253 42.4688 19.0035 42.3802 18.5859C41.9881 16.8058 41.5918 15.0045 40.7486 13.3889C41.0563 13.2961 41.3388 13.1105 41.5454 12.8659C40.9467 12.6507 40.5335 12.0011 40.5925 11.3684C40.7528 11.3473 40.9172 11.3768 41.0606 11.4569C40.9931 10.3011 39.8674 9.54605 38.8976 8.9133C38.1007 8.39023 37.3292 7.82497 36.5955 7.21754C36.507 7.14582 36.4184 7.06568 36.3932 6.956C36.3636 6.81258 36.4606 6.67337 36.5534 6.55948C36.8232 6.22623 37.0888 5.88877 37.3587 5.55552C36.254 6.11656 34.7235 5.54286 34.2639 4.39126C34.1079 3.99896 34.0447 3.53917 33.7327 3.25232C33.505 3.04562 33.1888 2.97813 32.9232 2.82205C32.6618 2.66597 32.4383 2.33273 32.5859 2.06697L32.6533 1.78857C32.8178 1.72529 32.9653 1.61983 33.0792 1.48485C31.8312 1.96573 30.4314 1.63249 29.1581 1.22753L29.0948 1.19378C29.1032 1.02083 29.137 0.847881 29.196 0.683367C29.04 0.860536 28.8418 0.995522 28.6184 1.07567L28.5889 1.16004C27.9522 0.501979 27.0373 0.126549 26.1223 0.139204C25.7092 0.147641 25.2622 0.219352 24.9123 0C25.0767 0.232007 25.2411 0.459796 25.4056 0.691804C24.672 1.03349 23.8118 0.928029 23.0318 0.712895C22.2518 0.497761 21.4929 0.177169 20.6876 0.105458C19.1234 -0.0379648 17.6392 0.755078 16.0919 1.0124C15.1769 1.16425 14.0976 1.20644 13.579 1.96995C13.5326 1.6578 13.4904 1.34986 13.4441 1.03771C13.2206 1.45954 12.9929 1.88137 12.7695 2.3032C12.6387 2.34538 12.6514 2.57739 12.7863 2.60692C11.5004 3.2017 10.2313 3.8471 8.99168 4.53469C9.16033 4.20988 8.93266 3.7543 8.57428 3.68681C8.36346 4.28159 8.00508 4.82575 7.53708 5.24758C7.6214 5.04089 7.60454 4.79622 7.49491 4.60218C7.06907 5.26867 6.46193 5.81706 5.7536 6.17139C5.7536 5.88033 5.7536 5.58927 5.7536 5.2982C4.93986 5.89299 4.21045 6.60166 3.59487 7.39892C3.11844 8.01902 2.69681 8.71082 2.55346 9.47855C2.40589 10.2463 2.57032 11.1068 3.11844 11.6636C2.76005 11.4527 2.39746 11.246 2.03907 11.0351C2.06859 11.7944 2.5914 12.4693 3.23649 12.8743C3.88158 13.2793 4.63629 13.4649 5.37413 13.6462L5.80419 13.8487C5.68192 14.2537 5.55965 14.6586 5.43738 15.0636C4.99046 16.3713 4.54353 17.679 4.09661 18.9824C3.88579 19.6025 3.67077 20.2395 3.71714 20.8933C3.80569 22.1757 4.87662 23.2387 4.93143 24.5211C4.97359 25.5081 4.41283 26.4066 3.87315 27.2292C3.2913 28.1193 2.70946 29.0093 2.12761 29.8952C1.88729 30.2622 1.63431 30.684 1.73129 31.1101C1.87464 31.7513 2.64621 31.9664 3.266 32.1773C3.88579 32.3882 4.58148 32.9746 4.29899 33.5651C4.2231 33.7296 4.07974 33.852 3.99542 34.0081C3.74666 34.4678 4.04601 35.0415 4.42548 35.3959C4.80916 35.7544 5.28981 36.0244 5.54278 36.48C5.06213 36.7289 4.8218 37.3658 5.01575 37.872C5.16754 38.2728 5.53435 38.547 5.77468 38.9055C6.86247 40.5253 4.99889 42.9171 5.98549 44.6002L5.99814 44.537C6.2469 45.4355 7.16183 46.026 8.08097 46.161C9.00433 46.296 9.93613 46.0598 10.83 45.7982C12.2466 45.3806 13.6422 44.8871 15.0083 44.3176C15.2655 44.2122 15.666 44.1657 15.7293 44.4399C15.7461 44.5159 15.7293 44.596 15.7082 44.6677C15.2697 46.2454 14.3885 47.6923 14.1313 49.3079C14.0301 49.9406 14.0259 50.5945 13.8151 51.1977C13.4778 52.1552 12.664 52.8555 11.8798 53.5093L11.6564 53.4292C9.40488 52.9525 7.09437 52.75 4.79651 52.826C5.3404 54.315 5.88852 55.8083 6.43242 57.2974C6.53782 57.5842 6.64323 57.8837 6.5842 58.1832C6.49144 58.6641 6.02344 58.9594 5.5976 59.1998C5.04105 59.5162 4.48029 59.8326 3.92374 60.1447C3.92374 60.1447 3.57379 60.3936 3.17746 60.769C1.75237 62.1358 1.3982 68.1595 1.05669 71.1123C0.930197 72.188 0.706736 73.7193 0.272461 75.55H53.5449C52.124 63.9117 49.1937 58.7906 46.5754 56.3271V56.3651Z" fill="url(#paint0_radial_758_5367)"/>
<path d="M46.5754 56.3651C46.1243 55.9391 45.0491 54.8212 43.8517 53.1086C41.8237 50.219 41.031 46.4943 41.7056 43.031C40.1245 43.4318 38.5392 43.8283 36.9581 44.229C36.566 44.326 36.1022 44.4104 35.8029 44.1362C35.6131 43.9633 35.5541 43.6933 35.5077 43.4402C34.9428 40.2258 35.571 36.8132 37.2406 34.0081C37.4683 34.2527 37.7845 34.4172 38.1176 34.4594C38.126 33.3458 38.1302 32.2279 38.1387 31.1143L38.1851 31.4602C38.1977 31.0215 38.2104 30.587 38.2272 30.1483C38.3664 30.4562 38.5055 30.7599 38.6446 31.0679C38.4718 29.3299 39.0873 27.6131 39.8716 26.0523C40.6516 24.4915 41.6129 23.0151 42.22 21.3826C42.4013 20.8891 42.5531 20.3787 42.5573 19.8514C42.5615 19.4253 42.4688 19.0035 42.3802 18.5859C41.9881 16.8058 41.5918 15.0045 40.7486 13.3889C41.0563 13.2961 41.3388 13.1105 41.5454 12.8659C40.9467 12.6507 40.5335 12.0011 40.5925 11.3684C40.7528 11.3473 40.9172 11.3768 41.0606 11.4569C40.9931 10.3011 39.8674 9.54605 38.8976 8.9133C38.1007 8.39023 37.3292 7.82497 36.5955 7.21754C36.507 7.14582 36.4184 7.06568 36.3932 6.956C36.3636 6.81258 36.4606 6.67337 36.5534 6.55948C36.8232 6.22623 37.0888 5.88877 37.3587 5.55552C36.254 6.11656 34.7235 5.54286 34.2639 4.39126C34.1079 3.99896 34.0447 3.53917 33.7327 3.25232C33.505 3.04562 33.1888 2.97813 32.9232 2.82205C32.6618 2.66597 32.4383 2.33273 32.5859 2.06697L32.6533 1.78857C32.8178 1.72529 32.9653 1.61983 33.0792 1.48485C31.8312 1.96573 30.4314 1.63249 29.1581 1.22753L29.0948 1.19378C29.1032 1.02083 29.137 0.847881 29.196 0.683367C29.04 0.860536 28.8418 0.995522 28.6184 1.07567L28.5889 1.16004C27.9522 0.501979 27.0373 0.126549 26.1223 0.139204C25.7092 0.147641 25.2622 0.219352 24.9123 0C25.0767 0.232007 25.2411 0.459796 25.4056 0.691804C24.672 1.03349 23.8118 0.928029 23.0318 0.712895C22.2518 0.497761 21.4929 0.177169 20.6876 0.105458C19.1234 -0.0379648 17.6392 0.755078 16.0919 1.0124C15.1769 1.16425 14.0976 1.20644 13.579 1.96995C13.5326 1.6578 13.4904 1.34986 13.4441 1.03771C13.2206 1.45954 12.9929 1.88137 12.7695 2.3032C12.6387 2.34538 12.6514 2.57739 12.7863 2.60692C11.5004 3.2017 10.2313 3.8471 8.99168 4.53469C9.16033 4.20988 8.93266 3.7543 8.57428 3.68681C8.36346 4.28159 8.00508 4.82575 7.53708 5.24758C7.6214 5.04089 7.60454 4.79622 7.49491 4.60218C7.06907 5.26867 6.46193 5.81706 5.7536 6.17139C5.7536 5.88033 5.7536 5.58927 5.7536 5.2982C4.93986 5.89299 4.21045 6.60166 3.59487 7.39892C3.11844 8.01902 2.69681 8.71082 2.55346 9.47855C2.40589 10.2463 2.57032 11.1068 3.11844 11.6636C2.76005 11.4527 2.39746 11.246 2.03907 11.0351C2.06859 11.7944 2.5914 12.4693 3.23649 12.8743C3.88158 13.2793 4.63629 13.4649 5.37413 13.6462L5.80419 13.8487C5.68192 14.2537 5.55965 14.6586 5.43738 15.0636C4.99046 16.3713 4.54353 17.679 4.09661 18.9824C3.88579 19.6025 3.67077 20.2395 3.71714 20.8933C3.80569 22.1757 4.87662 23.2387 4.93143 24.5211C4.97359 25.5081 4.41283 26.4066 3.87315 27.2292C3.2913 28.1193 2.70946 29.0093 2.12761 29.8952C1.88729 30.2622 1.63431 30.684 1.73129 31.1101C1.87464 31.7513 2.64621 31.9664 3.266 32.1773C3.88579 32.3882 4.58148 32.9746 4.29899 33.5651C4.2231 33.7296 4.07974 33.852 3.99542 34.0081C3.74666 34.4678 4.04601 35.0415 4.42548 35.3959C4.80916 35.7544 5.28981 36.0244 5.54278 36.48C5.06213 36.7289 4.8218 37.3658 5.01575 37.872C5.16754 38.2728 5.53435 38.547 5.77468 38.9055C6.86247 40.5253 4.99889 42.9171 5.98549 44.6002L5.99814 44.537C6.2469 45.4355 7.16183 46.026 8.08097 46.161C9.00433 46.296 9.93613 46.0598 10.83 45.7982C12.2466 45.3806 13.6422 44.8871 15.0083 44.3176C15.2655 44.2122 15.666 44.1657 15.7293 44.4399C15.7461 44.5159 15.7293 44.596 15.7082 44.6677C15.2697 46.2454 14.3885 47.6923 14.1313 49.3079C14.0301 49.9406 14.0259 50.5945 13.8151 51.1977C13.4778 52.1552 12.664 52.8555 11.8798 53.5093L11.6564 53.4292C9.40488 52.9525 7.09437 52.75 4.79651 52.826C5.3404 54.315 5.88852 55.8083 6.43242 57.2974C6.53782 57.5842 6.64323 57.8837 6.5842 58.1832C6.49144 58.6641 6.02344 58.9594 5.5976 59.1998C5.04105 59.5162 4.48029 59.8326 3.92374 60.1447C3.92374 60.1447 3.57379 60.3936 3.17746 60.769C1.75237 62.1358 1.3982 68.1595 1.05669 71.1123C0.930197 72.188 0.706736 73.7193 0.272461 75.55H53.5449C52.124 63.9117 49.1937 58.7906 46.5754 56.3271V56.3651Z" fill="url(#paint1_radial_758_5367)"/>
<path d="M46.5754 56.3651C46.1243 55.9391 45.0491 54.8212 43.8517 53.1086C41.8237 50.219 41.031 46.4943 41.7056 43.031C40.1245 43.4318 38.5392 43.8283 36.9581 44.229C36.566 44.326 36.1022 44.4104 35.8029 44.1362C35.6131 43.9633 35.5541 43.6933 35.5077 43.4402C34.9428 40.2258 35.571 36.8132 37.2406 34.0081C37.4683 34.2527 37.7845 34.4172 38.1176 34.4594C38.126 33.3458 38.1302 32.2279 38.1387 31.1143L38.1851 31.4602C38.1977 31.0215 38.2104 30.587 38.2272 30.1483C38.3664 30.4562 38.5055 30.7599 38.6446 31.0679C38.4718 29.3299 39.0873 27.6131 39.8716 26.0523C40.6516 24.4915 41.6129 23.0151 42.22 21.3826C42.4013 20.8891 42.5531 20.3787 42.5573 19.8514C42.5615 19.4253 42.4688 19.0035 42.3802 18.5859C41.9881 16.8058 41.5918 15.0045 40.7486 13.3889C41.0563 13.2961 41.3388 13.1105 41.5454 12.8659C40.9467 12.6507 40.5335 12.0011 40.5925 11.3684C40.7528 11.3473 40.9172 11.3768 41.0606 11.4569C40.9931 10.3011 39.8674 9.54605 38.8976 8.9133C38.1007 8.39023 37.3292 7.82497 36.5955 7.21754C36.507 7.14582 36.4184 7.06568 36.3932 6.956C36.3636 6.81258 36.4606 6.67337 36.5534 6.55948C36.8232 6.22623 37.0888 5.88877 37.3587 5.55552C36.254 6.11656 34.7235 5.54286 34.2639 4.39126C34.1079 3.99896 34.0447 3.53917 33.7327 3.25232C33.505 3.04562 33.1888 2.97813 32.9232 2.82205C32.6618 2.66597 32.4383 2.33273 32.5859 2.06697L32.6533 1.78857C32.8178 1.72529 32.9653 1.61983 33.0792 1.48485C31.8312 1.96573 30.4314 1.63249 29.1581 1.22753L29.0948 1.19378C29.1032 1.02083 29.137 0.847881 29.196 0.683367C29.04 0.860536 28.8418 0.995522 28.6184 1.07567L28.5889 1.16004C27.9522 0.501979 27.0373 0.126549 26.1223 0.139204C25.7092 0.147641 25.2622 0.219352 24.9123 0C25.0767 0.232007 25.2411 0.459796 25.4056 0.691804C24.672 1.03349 23.8118 0.928029 23.0318 0.712895C22.2518 0.497761 21.4929 0.177169 20.6876 0.105458C19.1234 -0.0379648 17.6392 0.755078 16.0919 1.0124C15.1769 1.16425 14.0976 1.20644 13.579 1.96995C13.5326 1.6578 13.4904 1.34986 13.4441 1.03771C13.2206 1.45954 12.9929 1.88137 12.7695 2.3032C12.6387 2.34538 12.6514 2.57739 12.7863 2.60692C11.5004 3.2017 10.2313 3.8471 8.99168 4.53469C9.16033 4.20988 8.93266 3.7543 8.57428 3.68681C8.36346 4.28159 8.00508 4.82575 7.53708 5.24758C7.6214 5.04089 7.60454 4.79622 7.49491 4.60218C7.06907 5.26867 6.46193 5.81706 5.7536 6.17139C5.7536 5.88033 5.7536 5.58927 5.7536 5.2982C4.93986 5.89299 4.21045 6.60166 3.59487 7.39892C3.11844 8.01902 2.69681 8.71082 2.55346 9.47855C2.40589 10.2463 2.57032 11.1068 3.11844 11.6636C2.76005 11.4527 2.39746 11.246 2.03907 11.0351C2.06859 11.7944 2.5914 12.4693 3.23649 12.8743C3.88158 13.2793 4.63629 13.4649 5.37413 13.6462L5.80419 13.8487C5.68192 14.2537 5.55965 14.6586 5.43738 15.0636C4.99046 16.3713 4.54353 17.679 4.09661 18.9824C3.88579 19.6025 3.67077 20.2395 3.71714 20.8933C3.80569 22.1757 4.87662 23.2387 4.93143 24.5211C4.97359 25.5081 4.41283 26.4066 3.87315 27.2292C3.2913 28.1193 2.70946 29.0093 2.12761 29.8952C1.88729 30.2622 1.63431 30.684 1.73129 31.1101C1.87464 31.7513 2.64621 31.9664 3.266 32.1773C3.88579 32.3882 4.58148 32.9746 4.29899 33.5651C4.2231 33.7296 4.07974 33.852 3.99542 34.0081C3.74666 34.4678 4.04601 35.0415 4.42548 35.3959C4.80916 35.7544 5.28981 36.0244 5.54278 36.48C5.06213 36.7289 4.8218 37.3658 5.01575 37.872C5.16754 38.2728 5.53435 38.547 5.77468 38.9055C6.86247 40.5253 4.99889 42.9171 5.98549 44.6002L5.99814 44.537C6.2469 45.4355 7.16183 46.026 8.08097 46.161C9.00433 46.296 9.93613 46.0598 10.83 45.7982C12.2466 45.3806 13.6422 44.8871 15.0083 44.3176C15.2655 44.2122 15.666 44.1657 15.7293 44.4399C15.7461 44.5159 15.7293 44.596 15.7082 44.6677C15.2697 46.2454 14.3885 47.6923 14.1313 49.3079C14.0301 49.9406 14.0259 50.5945 13.8151 51.1977C13.4778 52.1552 12.664 52.8555 11.8798 53.5093L11.6564 53.4292C9.40488 52.9525 7.09437 52.75 4.79651 52.826C5.3404 54.315 5.88852 55.8083 6.43242 57.2974C6.53782 57.5842 6.64323 57.8837 6.5842 58.1832C6.49144 58.6641 6.02344 58.9594 5.5976 59.1998C5.04105 59.5162 4.48029 59.8326 3.92374 60.1447C3.92374 60.1447 3.57379 60.3936 3.17746 60.769C1.75237 62.1358 1.3982 68.1595 1.05669 71.1123C0.930197 72.188 0.706736 73.7193 0.272461 75.55H53.5449C52.124 63.9117 49.1937 58.7906 46.5754 56.3271V56.3651Z" fill="url(#paint2_radial_758_5367)"/>
</g>
<defs>
<filter id="filter0_i_758_5367" x="0.272461" y="0" width="54.2725" height="76.55" filterUnits="userSpaceOnUse" color-interpolation-filters="sRGB">
<feFlood flood-opacity="0" result="BackgroundImageFix"/>
<feBlend mode="normal" in="SourceGraphic" in2="BackgroundImageFix" result="shape"/>
<feColorMatrix in="SourceAlpha" type="matrix" values="0 0 0 0 0 0 0 0 0 0 0 0 0 0 0 0 0 0 127 0" result="hardAlpha"/>
<feOffset dx="1" dy="1"/>
<feGaussianBlur stdDeviation="2.5"/>
<feComposite in2="hardAlpha" operator="arithmetic" k2="-1" k3="1"/>
<feColorMatrix type="matrix" values="0 0 0 0 0 0 0 0 0 0 0 0 0 0 0 0 0 0 0.5 0"/>
<feBlend mode="normal" in2="shape" result="effect1_innerShadow_758_5367"/>
</filter>
<radialGradient id="paint0_radial_758_5367" cx="0" cy="0" r="1" gradientUnits="userSpaceOnUse" gradientTransform="translate(41.4375 21.167) rotate(86.1997) scale(65.7624 68.5557)">
<stop stop-color="#9BDBFF"/>
<stop offset="1" stop-color="#C9F2FF" stop-opacity="0"/>
</radialGradient>
<radialGradient id="paint1_radial_758_5367" cx="0" cy="0" r="1" gradientUnits="userSpaceOnUse" gradientTransform="translate(15.1242 46.2418) rotate(40.5479) scale(47.5884 44.9085)">
<stop stop-color="#FFA5E6"/>
<stop offset="1" stop-color="#FFABDD" stop-opacity="0"/>
</radialGradient>
<radialGradient id="paint2_radial_758_5367" cx="0" cy="0" r="1" gradientUnits="userSpaceOnUse" gradientTransform="translate(48.8634 71.1538) rotate(-109.577) scale(31.7976 43.6902)">
<stop stop-color="#B78BFF" stop-opacity="0.6"/>
<stop offset="1" stop-color="#9A5CFF" stop-opacity="0"/>
</radialGradient>
</defs>
</svg>
