<svg width="15" height="15" viewBox="0 0 15 15" fill="none" xmlns="http://www.w3.org/2000/svg">
<mask id="mask0_366_3766" style="mask-type:alpha" maskUnits="userSpaceOnUse" x="0" y="0" width="15" height="15">
<rect width="15" height="15" fill="#D9D9D9"/>
</mask>
<g mask="url(#mask0_366_3766)">
<path d="M6.65625 12.3751L5.57812 11.3907C4.47396 10.3803 3.47667 9.37756 2.58625 8.38256C1.69542 7.38798 1.25 6.29173 1.25 5.09381C1.25 4.11464 1.57813 3.29694 2.23438 2.64069C2.89062 1.98444 3.70833 1.65631 4.6875 1.65631C5.23958 1.65631 5.76042 1.77339 6.25 2.00756C6.73958 2.24214 7.15625 2.56256 7.5 2.96881C7.84375 2.56256 8.26042 2.24214 8.75 2.00756C9.23958 1.77339 9.76042 1.65631 10.3125 1.65631C11.2917 1.65631 12.1094 1.98444 12.7656 2.64069C13.4219 3.29694 13.75 4.11464 13.75 5.09381C13.75 6.29173 13.3073 7.39069 12.4219 8.39069C11.5365 9.39069 10.5312 10.3959 9.40625 11.4063L8.34375 12.3751C8.10417 12.6042 7.82292 12.7188 7.5 12.7188C7.17708 12.7188 6.89583 12.6042 6.65625 12.3751ZM6.90625 4.21881C6.60417 3.79173 6.28125 3.4661 5.9375 3.24194C5.59375 3.01819 5.17708 2.90631 4.6875 2.90631C4.0625 2.90631 3.54167 3.11464 3.125 3.53131C2.70833 3.94798 2.5 4.46881 2.5 5.09381C2.5 5.63548 2.69271 6.21089 3.07813 6.82006C3.46354 7.42964 3.92458 8.0209 4.46125 8.59381C4.9975 9.16673 5.54958 9.70319 6.1175 10.2032C6.685 10.7032 7.14583 11.1146 7.5 11.4376C7.85417 11.1146 8.31521 10.7032 8.88312 10.2032C9.45062 9.70319 10.0027 9.16673 10.5394 8.59381C11.0756 8.0209 11.5365 7.42964 11.9219 6.82006C12.3073 6.21089 12.5 5.63548 12.5 5.09381C12.5 4.46881 12.2917 3.94798 11.875 3.53131C11.4583 3.11464 10.9375 2.90631 10.3125 2.90631C9.82292 2.90631 9.40625 3.01819 9.0625 3.24194C8.71875 3.4661 8.39583 3.79173 8.09375 4.21881C8.02083 4.32298 7.93229 4.4011 7.82812 4.45319C7.72396 4.50527 7.61458 4.53131 7.5 4.53131C7.38542 4.53131 7.27604 4.50527 7.17188 4.45319C7.06771 4.4011 6.97917 4.32298 6.90625 4.21881Z" fill="#818181"/>
</g>
</svg>
