<svg width="73" height="115" viewBox="0 0 73 115" fill="none" xmlns="http://www.w3.org/2000/svg">
<path d="M0 0V115H72.5V0H0ZM51.57 81.155C50.2825 81.075 48.9975 80.9925 47.7125 80.9125L47.9025 80.965C41.1325 80.755 34.355 80.835 27.5925 81.2075L27.455 81.1875C27.805 80.5625 28.1225 79.92 28.4025 79.26C29 77.8675 29.4425 76.415 29.8825 74.965C30.1375 74.13 30.3925 73.285 30.445 72.4125C30.6125 69.62 29.09 67.27 28.4025 64.56C28.16 63.6 27.7975 62.5 27.0375 61.8675C26.3425 61.2875 25.2025 61.1775 24.3 61.2575C23.4 61.3375 22.8325 61.2575 21.9725 61.07C21.715 61.0125 21.4525 60.8325 21.31 60.6125C20.7475 59.7475 21.3875 58.875 21.26 57.8525C21.245 57.7225 21.07 57.5275 21.05 57.3975C20.9225 56.5725 21.19 56.3175 21.4225 56.3125C21.6825 56.3075 21.845 56.4 22.105 56.44C22.085 56.0575 21.6 55.63 21.35 55.34C21.1 55.05 21.2125 54.895 21.495 54.6375C21.9075 54.4275 21.7825 53.7925 21.4975 53.4275C21.2125 53.0625 20.805 52.7225 20.8075 52.26C20.81 51.6725 21.4525 51.3325 21.9825 51.0775C22.765 50.7025 23.525 50.21 23.995 49.4825C24.4675 48.755 24.59 47.75 24.1075 47.0275C25.0125 46.2075 25.565 45.08 26.2075 44.0425C26.85 43.005 27.6775 41.98 28.84 41.605L28.915 41.635C28.775 41.135 28.0975 40.8775 27.6625 41.1625C27.845 40.7275 28.465 40.555 28.8475 40.83C28.6 39.6525 29.5325 38.495 30.6425 38.0325C31.7525 37.5675 32.995 37.615 34.1975 37.5975C35.4 37.58 36.6725 37.4675 37.6425 36.7575C37.5225 37.1825 37.16 37.53 36.7275 37.6275L36.745 37.6675C38.26 37.985 39.805 38.3125 41.14 39.0925C42.4775 39.8725 43.5925 41.1975 43.71 42.74C43.75 43.26 43.6775 43.7875 43.7825 44.2975C43.89 44.8075 44.2475 45.32 44.765 45.3775C45.29 45.4325 45.75 44.9975 45.9675 44.5175C45.9175 44.8475 45.775 45.165 45.5575 45.42L45.55 45.47C45.905 45.4 46.28 45.4325 46.62 45.5625C46.9725 45.6975 47.2775 45.9325 47.5475 46.1975C48.085 46.725 48.495 47.3775 48.735 48.09C48.93 48.6675 49.015 49.2825 49.26 49.84C49.3675 50.0825 49.515 50.3225 49.7425 50.455C50.0575 50.64 50.5025 50.5625 50.7375 50.2825C50.9725 50.0025 50.975 49.5525 50.7375 49.2725L50.76 49.255C51.1825 49.635 51.105 50.3675 50.7275 50.795C50.35 51.2225 49.7725 51.405 49.2125 51.5125C50.1475 51.835 50.7025 52.875 50.6925 53.8625C50.6825 54.8525 50.205 55.7825 49.6025 56.565C48.945 57.4175 47.97 58.2 46.905 58.0475C47.095 58.7775 46.6275 59.6175 45.905 59.84C45.87 60.2425 45.8375 60.66 45.97 61.0425C46.1 61.425 46.4425 61.7675 46.8475 61.765C47.0725 61.765 47.2875 61.66 47.4625 61.5175C47.915 61.1475 48.1275 60.505 47.98 59.9375L48.05 60.005C48.05 60.57 47.9625 61.1625 47.6225 61.6125C47.2825 62.0625 46.6275 62.3125 46.13 62.0475C45.95 61.95 45.805 61.7975 45.68 61.635C45.34 61.1875 45.13 60.6425 45.0875 60.0825C45.055 60.56 44.7475 61.0075 44.315 61.2075C44.465 61.775 44.275 62.3925 43.9325 62.87C43.59 63.3475 43.105 63.7025 42.6125 64.025C42.2575 64.2575 41.885 64.4775 41.47 64.57C41.055 64.6625 40.59 64.6125 40.2625 64.3425C40.315 64.865 40.725 65.33 41.2375 65.4475C41.67 65.5475 42.145 65.3875 42.45 65.065C42.495 64.9775 42.53 64.885 42.5525 64.7875L42.595 64.8775C42.5525 64.945 42.5025 65.0075 42.4475 65.065C42.1725 65.6075 41.525 65.9575 40.92 65.845C40.865 65.835 40.7975 65.8225 40.7575 65.8625C40.7425 65.8775 40.7325 65.9 40.725 65.92C40.5775 66.3225 40.8 66.785 41.14 67.045C41.48 67.305 41.9125 67.4075 42.3325 67.495C43.0075 67.635 43.7025 67.7575 44.3825 67.65C44.9625 67.56 45.515 67.3 45.955 66.915L46.0625 66.8175C46.505 68.4825 46.5125 70.26 46.08 71.9275C45.9975 72.2475 45.8975 72.5925 46.0125 72.905C46.085 73.1025 46.2325 73.26 46.3775 73.4125C48.5125 75.67 50.4875 78.1475 51.67 81.02L51.6925 81.015C51.6525 81.065 51.61 81.115 51.57 81.165V81.155Z" fill="#FEFFFF"/>
</svg>
