<svg width="73" height="115" viewBox="0 0 73 115" fill="none" xmlns="http://www.w3.org/2000/svg">
<path d="M0 0V115H72.5V0H0ZM21.5 81.145C21.6775 80.55 22.8575 76.8025 23.1825 76.275C23.46 75.8225 23.8375 75.4425 24.2225 75.0775C25.4 73.9625 26.6825 72.96 28.05 72.085C28.29 71.9325 28.5375 71.7775 28.71 71.5525C28.8475 71.3725 28.93 71.1575 29.0375 70.96C29.2725 70.5275 29.6275 70.175 29.9825 69.8325C31.4475 68.4125 32.9575 67.04 34.51 65.7175L34.53 65.8V65.6125L34.58 65.64C34.5725 65.0675 34.56 64.4825 34.3575 63.9475C34.155 63.4125 33.72 62.9275 33.155 62.83C32.845 62.7775 32.525 62.8425 32.2225 62.93C31.545 63.1225 30.8925 63.41 30.295 63.785C29.77 64.115 29.1425 64.525 28.585 64.2525C27.79 63.8625 28.065 62.565 27.44 61.9375C27.22 61.7175 26.915 61.61 26.65 61.445C26.385 61.28 26.14 61.0075 26.1775 60.7C26.2075 60.4525 26.5175 60.2825 26.72 60.3625C26.4875 60.175 26.2575 59.9875 26.025 59.8C25.9575 59.745 25.8875 59.6875 25.8525 59.61C25.75 59.385 25.96 59.155 26.0375 58.92C26.2275 58.345 25.595 57.8525 25.045 57.595C24.495 57.3375 23.835 56.9375 23.915 56.3375C23.95 56.08 24.1225 55.8675 24.27 55.655C25.1525 54.405 25.3975 52.7275 24.9075 51.2775L24.86 51.3575C24.6075 51.1825 24.435 50.8975 24.4 50.5925C24.2975 50.87 24.2825 51.18 24.365 51.4675C23.89 50.9025 23.615 50.1975 23.385 49.4975C23.085 48.585 22.84 47.64 22.825 46.68C22.795 44.75 23.7025 42.8825 25.03 41.485C26.36 40.0875 28.085 39.12 29.875 38.3975L30.14 38.305L30.165 38.1675C30.31 37.7 30.695 37.3125 31.1625 37.17C30.9825 37.445 30.805 37.72 30.625 37.995C32.4975 37.3725 34.445 36.97 36.4125 36.8025C37.0125 36.7525 37.6175 36.7225 38.2125 36.815C40.1 37.105 41.5975 38.5625 42.6875 40.1325C44.355 42.535 45.3675 45.3325 46.14 48.1525C46.73 50.3075 47.1925 52.515 47.2225 54.75C47.25 56.985 46.825 59.2575 45.7325 61.205C45.7075 60.9025 45.595 60.6075 45.4175 60.36C45.235 60.8775 44.945 61.3575 44.5625 61.7525C44.5225 61.605 44.485 61.4575 44.445 61.31C44.41 61.4175 44.35 61.515 44.275 61.6C44.28 61.6 44.2825 61.595 44.285 61.5925C44.28 61.5975 44.275 61.6 44.27 61.605C44.1775 61.71 44.065 61.795 43.935 61.845C43.9425 61.8375 43.95 61.8325 43.9575 61.825C43.84 61.8875 43.715 61.9375 43.5875 61.97C43.575 61.9725 43.5575 61.97 43.545 61.96C43.79 62.6075 43.925 63.295 43.94 63.9875C43.94 63.9925 43.94 63.9975 43.94 64.005L43.9925 63.9775C44.26 64.815 45.315 65.04 46.1875 65.1525C47.06 65.265 48.1175 65.5675 48.2925 66.4275C48.3625 66.7675 48.265 67.12 48.1425 67.445C47.93 68.0175 47.6425 68.5625 47.2875 69.0625C47.185 69.2075 47.07 69.365 47.075 69.5425C47.0775 69.6575 47.13 69.765 47.1825 69.8675C48.2725 72.06 49.1275 74.365 49.7325 76.7375C50.205 78.5925 49.8475 79.6125 50.9975 81.14H21.4975L21.5 81.145Z" fill="#FEFFFF"/>
</svg>
