<svg width="158" height="250" viewBox="0 0 158 250" fill="none" xmlns="http://www.w3.org/2000/svg">
<path d="M0 0V250H157.637V0H0ZM44.8015 196.962C53.0965 178.81 56.6189 175.614 69.6702 160.511L69.5995 160.489C70.0235 159.913 70.23 159.174 70.1539 158.457C70.0833 157.766 69.768 157.12 69.6593 156.429C69.4853 155.375 69.7843 154.228 69.3386 153.261C68.8602 152.217 67.6317 151.696 66.4848 151.69C65.3378 151.69 64.2344 152.092 63.1472 152.446C61.5111 152.973 59.7825 153.391 58.0811 153.152C56.3797 152.913 54.6946 151.897 54.0913 150.288C53.5694 148.891 53.8738 147.185 52.9606 146.005C52.2757 145.125 50.9711 144.63 50.8244 143.527C50.732 142.842 51.1505 142.125 50.895 141.484C50.5526 140.614 49.2534 140.527 48.7914 139.717C48.3565 138.951 48.8838 137.995 48.8186 137.114C48.7099 135.685 47.1498 134.897 45.8235 134.348C44.4971 133.799 42.9697 132.864 43.0458 131.435C43.073 130.946 43.2958 130.495 43.5078 130.054C44.6059 127.788 45.5952 125.462 46.4595 123.098C47.1281 121.272 47.726 119.217 46.9541 117.429C46.1605 115.576 44.0351 114.402 43.6655 112.418C43.4643 113.413 43.6383 114.473 44.1438 115.353C40.1866 112.81 37.7187 108.207 37.4796 103.511C37.2404 98.8152 39.1429 94.1087 42.3391 90.6576C42.9914 89.9565 43.6926 89.2989 44.3993 88.6467L44.8015 88.7446C44.6602 87.1793 43.5894 85.7283 42.138 85.1304C43.535 84.7391 45.1603 85.4946 45.7691 86.8098C46.4431 84.2065 48.4489 81.9837 50.9711 81.0435C50.5254 81.8152 50.0851 82.5924 49.6394 83.3641C60.1195 78.375 71.5727 73.9783 83.0584 75.663C85.5969 76.038 88.3474 76.6739 90.6141 75.462C90.538 76.2826 90.0434 77.0543 89.3259 77.4674C96.3652 80.4402 102.654 85.5326 106.193 92.3043C109.726 99.0761 110.232 107.571 106.688 114.337C104.399 118.707 100.426 122.799 101.034 127.696C100.687 127.299 100.339 126.902 99.9908 126.5C99.0015 129.913 98.4688 133.457 98.4145 137.011C98.3818 139.163 98.5503 141.402 99.6158 143.266C100.681 145.13 102.866 146.511 104.959 146.033C103.725 148.897 104.057 152.234 105.128 155.163C106.198 158.092 107.954 160.712 109.601 163.364C116.57 174.576 120.598 184.217 123.995 196.967H44.8015V196.962Z" fill="#FEFFFF"/>
</svg>
