<svg width="73" height="115" viewBox="0 0 73 115" fill="none" xmlns="http://www.w3.org/2000/svg">
<path d="M0 0V115H72.5V0H0ZM22.2 81.315C22.415 78.3 23.425 76.58 24.3725 75.55C25.4475 74.3825 26.57 73.9625 27.25 72.475C27.8625 71.135 27.7425 69.7475 27.5275 68.7475C28.325 68.585 29.12 68.425 29.9175 68.2625L30.01 68.3925C31.395 68.245 32.4825 67.545 32.655 66.63C32.755 66.105 32.505 65.575 32.0075 64.515C31.585 63.615 31.365 63.1625 30.9275 63.005C30.525 62.86 30.2875 63.0875 29.295 63.4525C28.7825 63.6425 27.96 63.8 27.12 64.0175C26.305 64.23 25.26 64.345 24.81 63.555C24.425 62.8775 24.74 61.9 24.33 61.245C24.1975 61.035 24 60.8725 23.9175 60.6325C23.835 60.3925 23.98 60.0375 24.205 60.09C24.2025 59.5625 23.3275 59.37 23.44 58.8575C23.465 58.7375 23.545 58.6425 23.59 58.53C23.745 58.135 23.4225 57.705 23.0825 57.5C22.745 57.2925 22.3375 57.1525 22.1375 56.7825C21.8025 56.1625 22.265 55.4125 22.5725 54.775C23.1475 53.5825 23.1925 52.1575 23.0675 50.8075C22.9425 49.46 22.6625 48.1275 22.6375 46.7725C22.0225 48.21 22.065 49.9775 22.75 51.375C21.56 50.6125 20.69 49.255 20.425 47.75C20.16 46.245 20.5075 44.62 21.35 43.41C22.4075 41.8925 24.09 41.13 25.6925 40.4325L25.665 40.4575C28.26 38.1775 31.5575 36.9175 34.8575 36.94C38.1575 36.9625 41.4375 38.27 44.0075 40.585C45.0725 41.5425 46.0525 42.745 46.36 44.235C46.6475 45.6375 46.325 47.225 46.9975 48.45C47.3175 49.0375 47.8425 49.4775 48.085 50.11C48.44 51.0325 48.1075 52.1 47.675 52.9825C47.2425 53.8625 46.695 54.7225 46.6 55.72C46.4375 57.4225 47.605 58.885 48.6975 60.0825C49.79 61.2825 50.9775 62.71 50.865 64.4175C50.7125 66.7475 48.16 68.5675 48.7275 70.8175C48.9325 71.635 49.52 72.2475 50 72.9075C50.4775 73.5675 50.88 74.4425 50.6225 75.2425C50.465 75.735 50.065 76.185 50.17 76.695C50.245 77.065 50.515 77.29 50.605 77.3725C51.075 77.805 51.65 78.8225 52.1675 81.31H22.205L22.2 81.315Z" fill="#FEFFFF"/>
</svg>
