<svg width="158" height="250" viewBox="0 0 158 250" fill="none" xmlns="http://www.w3.org/2000/svg">
<path d="M0 0V250H157.637V0H0ZM43.3285 196.946C43.8177 195.315 47.0519 185.043 47.9434 183.598C48.7044 182.359 49.7372 181.315 50.7918 180.321C54.0206 177.266 57.5375 174.516 61.2828 172.12C61.9405 171.701 62.62 171.277 63.0929 170.658C63.4679 170.163 63.6908 169.576 63.9898 169.033C64.6312 167.848 65.6096 166.88 66.5772 165.94C70.5942 162.049 74.7308 158.283 78.987 154.658L79.0414 154.88V154.364L79.1827 154.44C79.161 152.87 79.1284 151.266 78.5739 149.799C78.0195 148.332 76.8291 147.005 75.2799 146.739C74.4264 146.592 73.5567 146.777 72.7196 147.011C70.8606 147.538 69.0722 148.332 67.4361 149.359C65.9956 150.261 64.2724 151.391 62.7504 150.641C60.5707 149.576 61.3263 146.016 59.6086 144.293C59.0052 143.69 58.1681 143.391 57.4451 142.94C56.7222 142.489 56.0481 141.745 56.146 140.897C56.2275 140.217 57.0755 139.755 57.6354 139.973C56.9994 139.457 56.3688 138.946 55.7329 138.429C55.548 138.283 55.3578 138.125 55.2599 137.908C54.9773 137.293 55.5589 136.658 55.7655 136.016C56.2819 134.44 54.5533 133.092 53.0476 132.386C51.5419 131.679 49.7263 130.587 49.9492 128.94C50.0416 128.234 50.5145 127.652 50.9276 127.071C53.3466 123.647 54.0152 119.049 52.6725 115.076L52.5421 115.299C51.8463 114.821 51.3788 114.038 51.281 113.201C50.9983 113.962 50.9603 114.815 51.1831 115.598C49.884 114.049 49.1284 112.12 48.4979 110.196C47.6716 107.696 47.0085 105.109 46.965 102.473C46.8834 97.1848 49.3676 92.0652 53.015 88.2337C56.6624 84.4022 61.386 81.75 66.2945 79.7717L67.0229 79.5163L67.0882 79.1413C67.485 77.8587 68.5449 76.7989 69.8223 76.4076C69.3331 77.163 68.8385 77.913 68.3493 78.6685C73.4861 76.962 78.8185 75.8587 84.2108 75.4022C85.8524 75.2609 87.5158 75.1848 89.1411 75.4348C94.3159 76.2337 98.4253 80.2283 101.404 84.5272C105.976 91.1141 108.748 98.7772 110.868 106.511C112.488 112.418 113.754 118.467 113.83 124.592C113.906 130.717 112.743 136.946 109.743 142.288C109.672 141.462 109.368 140.658 108.884 139.984C108.384 141.402 107.579 142.712 106.535 143.793C106.427 143.391 106.323 142.984 106.215 142.582C106.117 142.875 105.954 143.141 105.753 143.38C105.764 143.38 105.774 143.37 105.78 143.364C105.769 143.375 105.753 143.386 105.736 143.397C105.486 143.685 105.177 143.918 104.823 144.054C104.845 144.033 104.867 144.016 104.888 144C104.568 144.174 104.225 144.31 103.872 144.402C103.834 144.413 103.796 144.402 103.758 144.38C104.432 146.152 104.801 148.043 104.84 149.94C104.84 149.957 104.84 149.967 104.84 149.984L104.981 149.908C105.715 152.201 108.607 152.821 110.998 153.125C113.39 153.429 116.287 154.261 116.766 156.62C116.956 157.554 116.689 158.516 116.358 159.408C115.776 160.978 114.988 162.473 114.015 163.837C113.732 164.234 113.423 164.663 113.433 165.152C113.439 165.467 113.586 165.761 113.727 166.043C116.717 172.049 119.059 178.375 120.712 184.875C122.006 189.957 121.022 192.755 124.185 196.946H43.3285Z" fill="#FEFFFF"/>
</svg>
