<svg width="158" height="250" viewBox="0 0 158 250" fill="none" xmlns="http://www.w3.org/2000/svg">
<path d="M0 0V250H157.311V0H0ZM117.321 196.973C113.801 196.75 110.286 196.527 106.765 196.31L107.286 196.457C88.7666 195.88 70.2257 196.103 51.7227 197.12L51.343 197.06C52.2977 195.348 53.1656 193.582 53.9359 191.777C55.5686 187.962 56.7783 183.978 57.9826 180.005C58.6769 177.717 59.3767 175.397 59.5177 173.011C59.9788 165.359 55.8073 158.918 53.9304 151.489C53.2632 148.859 52.276 145.848 50.1984 144.109C48.2998 142.522 45.1753 142.217 42.7126 142.435C40.2498 142.652 38.6984 142.44 36.3496 141.924C35.6444 141.766 34.9284 141.277 34.5378 140.668C32.9973 138.299 34.7494 135.908 34.3968 133.098C34.3534 132.745 33.876 132.207 33.8218 131.853C33.4692 129.592 34.2069 128.891 34.8416 128.875C35.5522 128.859 36.0024 129.12 36.7076 129.223C36.6534 128.174 35.3244 127.005 34.6463 126.212C33.9683 125.418 34.272 124.995 35.0423 124.283C36.1706 123.707 35.8289 121.962 35.0532 120.967C34.2775 119.973 33.16 119.038 33.1654 117.766C33.1763 116.152 34.9284 115.223 36.3822 114.527C38.5194 113.5 40.597 112.152 41.888 110.158C43.1791 108.163 43.5154 105.408 42.1972 103.429C44.6762 101.185 46.1842 98.0924 47.9418 95.2446C49.7048 92.3967 51.9614 89.5924 55.1455 88.5652L55.3517 88.6467C54.972 87.2772 53.1168 86.5706 51.9234 87.3478C52.4224 86.1576 54.1203 85.6793 55.1672 86.4402C54.4946 83.2174 57.0441 80.0435 60.0764 78.7717C63.1087 77.5 66.5153 77.625 69.8026 77.5815C73.0898 77.5326 76.5723 77.2228 79.2303 75.2826C78.9049 76.4456 77.9068 77.3967 76.7296 77.663L76.7785 77.7717C80.9228 78.6413 85.1485 79.538 88.8046 81.6739C92.4607 83.8098 95.5147 87.4402 95.8348 91.6685C95.9432 93.0924 95.7425 94.538 96.0355 95.9348C96.3284 97.3315 97.3102 98.7391 98.726 98.8913C100.164 99.0435 101.422 97.8478 102.019 96.5326C101.883 97.4402 101.493 98.3098 100.896 99.0054L100.88 99.1413C101.851 98.9511 102.881 99.038 103.809 99.3967C104.774 99.7663 105.61 100.413 106.347 101.136C107.817 102.576 108.94 104.37 109.597 106.326C110.128 107.908 110.362 109.592 111.034 111.12C111.327 111.783 111.729 112.44 112.358 112.81C113.22 113.315 114.435 113.103 115.081 112.337C115.726 111.571 115.726 110.337 115.086 109.565L115.146 109.516C116.301 110.56 116.09 112.565 115.059 113.734C114.029 114.902 112.445 115.408 110.915 115.696C113.47 116.582 114.994 119.429 114.967 122.136C114.94 124.842 113.633 127.397 111.984 129.543C110.188 131.88 107.519 134.022 104.601 133.603C105.122 135.609 103.841 137.908 101.867 138.516C101.775 139.62 101.682 140.766 102.04 141.815C102.398 142.864 103.331 143.799 104.438 143.799C105.056 143.799 105.642 143.505 106.12 143.12C107.362 142.103 107.937 140.342 107.53 138.788L107.72 138.973C107.72 140.522 107.481 142.141 106.548 143.375C105.615 144.609 103.825 145.293 102.464 144.565C101.97 144.299 101.574 143.88 101.232 143.435C100.299 142.212 99.7296 140.717 99.6102 139.179C99.5234 140.484 98.6826 141.712 97.4947 142.266C97.9069 143.826 97.3862 145.516 96.4477 146.826C95.5093 148.13 94.1857 149.109 92.8404 149.989C91.8694 150.625 90.8496 151.228 89.7159 151.484C88.5822 151.739 87.3074 151.598 86.407 150.864C86.5534 152.293 87.6763 153.571 89.0704 153.891C90.2529 154.163 91.5548 153.728 92.3848 152.848C92.5041 152.609 92.6072 152.353 92.6668 152.087L92.7862 152.337C92.6723 152.522 92.5312 152.69 92.3848 152.848C91.6308 154.337 89.8624 155.293 88.2079 154.984C88.056 154.957 87.8716 154.924 87.7631 155.033C87.7197 155.076 87.698 155.13 87.6763 155.19C87.2695 156.293 87.8824 157.565 88.81 158.277C89.743 158.989 90.9256 159.272 92.0702 159.511C93.9145 159.897 95.8131 160.228 97.6791 159.935C99.263 159.685 100.776 158.978 101.986 157.918L102.279 157.647C103.494 162.207 103.51 167.082 102.322 171.652C102.095 172.533 101.823 173.473 102.133 174.332C102.328 174.87 102.735 175.304 103.131 175.723C108.973 181.908 114.376 188.701 117.609 196.576L117.668 196.565C117.554 196.701 117.446 196.837 117.332 196.978L117.321 196.973Z" fill="#FEFFFF"/>
</svg>