<svg width="73" height="115" viewBox="0 0 73 115" fill="none" xmlns="http://www.w3.org/2000/svg">
<path d="M0 0V115H72.5V0H0ZM50.415 51.3975C50.34 51.6575 50.195 51.89 50.065 52.13C49.735 52.7425 49.52 53.41 49.265 54.0575C48.91 54.9575 48.47 55.82 48.0325 56.6825C47.53 57.67 47.0075 58.6825 46.2275 59.455C46.3775 59.395 46.5275 59.335 46.68 59.2775L45.875 59.7725C45.9975 59.6725 46.115 59.5675 46.2275 59.455C44.49 60.145 42.835 61.0375 41.305 62.11C40.9225 62.38 40.54 62.665 40.2625 63.0425C39.985 63.42 39.82 63.905 39.9225 64.3625L39.8575 64.22C39.965 65.165 40.365 66.0575 40.8875 66.8525C41.41 67.6475 42.0525 68.355 42.6925 69.0575L42.7325 69.0025C43.3225 69.3275 44.1225 69.0875 44.6775 69.47C45.015 69.7025 45.1775 70.11 45.3275 70.49C45.9775 72.13 46.745 73.725 47.6225 75.2575C48.17 76.21 48.7625 77.15 49.115 78.1925C49.4675 79.235 49.555 80.415 49.0875 81.41L49.055 81.46H21.38L21.2325 81.34L26.675 72.4175C27.0525 71.7975 27.44 71.1675 27.9775 70.6775C28.4375 70.26 29.015 69.9375 29.3025 69.3875L29.385 69.5975C28.9575 67.1725 28.7425 64.71 28.7475 62.25L28.7575 62.46C28.9525 61.6625 28.5675 60.8075 27.96 60.2575C27.3525 59.7075 26.555 59.4125 25.7625 59.2075C24.97 59.0025 24.1525 58.87 23.385 58.5825C22.8925 58.3975 22.405 58.1325 22.115 57.695C21.62 56.9475 21.8425 55.9275 22.275 55.14C22.39 54.93 22.5225 54.7125 22.5225 54.4725C22.5225 54.215 22.37 53.9825 22.2825 53.74C22.165 53.41 22.1775 53.0075 22.4075 52.7425C22.6375 52.4775 23.1125 52.43 23.33 52.7075C23.3175 52.2 22.7675 51.765 22.905 51.2775C22.995 50.9575 23.345 50.7825 23.495 50.485C23.905 49.675 22.6075 48.785 22.92 47.9325C23.045 47.59 23.395 47.3875 23.7275 47.2375C24.51 46.8825 25.3475 46.64 26.0975 46.2175C26.8475 45.795 27.525 45.1375 27.7 44.295C27.79 43.8625 27.74 43.4075 27.845 42.9775C28.005 42.3225 28.5 41.8075 28.9775 41.3325C30.245 40.0675 31.6075 38.78 33.325 38.2675L33.425 37.965C33.4825 37.715 33.54 37.4675 33.5975 37.2175C33.7375 37.26 33.88 37.3 34.02 37.3425C34.1125 37.17 34.205 36.9975 34.295 36.8275C34.475 36.9 34.6525 36.97 34.8325 37.0425C35.425 36.36 36.5075 36.565 37.3875 36.7625C38.8275 37.085 40.3075 37.2325 41.7825 37.205C42.11 37.1975 42.4675 37.1925 42.7275 37.3925C42.9175 37.54 43.015 37.77 43.1475 37.97C44.1425 39.4675 46.905 39.16 47.525 40.845C47.685 41.2775 47.665 41.7875 47.945 42.15C48.165 42.435 48.525 42.5675 48.8225 42.77C49.45 43.1975 49.81 43.99 49.7175 44.7425C49.83 44.815 49.945 44.8875 50.0575 44.9625C50.0775 45.39 50.0975 45.8175 50.1175 46.245C50.4175 46.4725 50.45 46.905 50.4525 47.2825C50.465 48.39 50.475 49.5 50.4875 50.6075C50.49 50.875 50.4925 51.145 50.42 51.4025L50.415 51.3975Z" fill="#FEFFFF"/>
</svg>
