<svg width="73" height="115" viewBox="0 0 73 115" fill="none" xmlns="http://www.w3.org/2000/svg">
<path d="M0 0V115H72.5V0H0ZM23.145 81.15C26.17 74.5275 27.4575 73.36 32.215 67.85L32.19 67.8425C32.345 67.6325 32.42 67.3625 32.3925 67.1C32.3675 66.8475 32.2525 66.6125 32.2125 66.36C32.15 65.975 32.26 65.5575 32.0975 65.2025C31.9225 64.8225 31.475 64.6325 31.0575 64.63C30.64 64.63 30.2375 64.7775 29.84 64.905C29.2425 65.0975 28.6125 65.25 27.9925 65.1625C27.37 65.075 26.755 64.705 26.5375 64.1175C26.3475 63.6075 26.46 62.985 26.125 62.555C25.875 62.235 25.3975 62.055 25.345 61.65C25.3125 61.4 25.465 61.1375 25.3725 60.9025C25.2475 60.585 24.775 60.5525 24.605 60.2575C24.445 59.9775 24.64 59.6275 24.615 59.3075C24.575 58.785 24.005 58.5 23.5225 58.2975C23.04 58.0975 22.4825 57.7575 22.51 57.235C22.52 57.0575 22.6 56.89 22.6775 56.73C23.0775 55.9025 23.4375 55.055 23.755 54.1925C24 53.525 24.215 52.775 23.935 52.1225C23.645 51.445 22.87 51.0175 22.735 50.295C22.6625 50.6575 22.725 51.045 22.91 51.365C21.465 50.4375 20.565 48.7575 20.48 47.045C20.3925 45.33 21.085 43.615 22.2525 42.355C22.49 42.0975 22.7475 41.86 23.0025 41.6225L23.1475 41.6575C23.095 41.085 22.705 40.5575 22.175 40.3375C22.685 40.195 23.2775 40.47 23.5 40.95C23.745 40 24.4775 39.19 25.3975 38.8475C25.235 39.13 25.0725 39.4125 24.91 39.695C28.7325 37.875 32.9125 36.27 37.1 36.885C38.0275 37.02 39.03 37.2525 39.8575 36.8125C39.83 37.1125 39.6475 37.3925 39.3875 37.5425C41.955 38.6275 44.25 40.485 45.54 42.955C46.83 45.425 47.015 48.525 45.72 50.9925C44.885 52.5875 43.435 54.08 43.6575 55.8675C43.53 55.7225 43.405 55.5775 43.2775 55.4325C42.915 56.6775 42.7225 57.9725 42.7025 59.2675C42.69 60.0525 42.7525 60.87 43.14 61.55C43.5275 62.2325 44.325 62.735 45.09 62.56C44.64 63.605 44.7625 64.8225 45.1525 65.8925C45.5425 66.9625 46.1825 67.9175 46.785 68.885C49.3275 72.975 50.795 76.4925 52.0375 81.145H23.15L23.145 81.15Z" fill="#FEFFFF"/>
</svg>
