<svg width="73" height="115" viewBox="0 0 73 115" fill="none" xmlns="http://www.w3.org/2000/svg">
<path d="M0 0V115H72.5V0H0ZM22.2425 81.3825L22.25 81.34H22.2525C22.51 80.2525 22.6425 79.345 22.7175 78.71C22.9225 76.9575 23.1325 73.39 23.975 72.58C24.2075 72.355 24.4175 72.21 24.4175 72.21C24.7475 72.0225 25.08 71.835 25.41 71.65C25.6625 71.5075 25.94 71.3325 25.995 71.0475C26.03 70.87 25.965 70.6925 25.905 70.5225C25.5825 69.64 25.2575 68.755 24.935 67.8725C26.3 67.8275 27.6675 67.9475 29.0025 68.23L29.135 68.2775C29.5975 67.89 30.08 67.4775 30.2825 66.9075C30.41 66.55 30.41 66.1625 30.47 65.7875C30.6225 64.83 31.1475 63.9725 31.405 63.0375C31.4175 62.9925 31.43 62.9475 31.4175 62.9025C31.38 62.74 31.1425 62.7675 30.99 62.83C30.18 63.1675 29.355 63.46 28.5125 63.7075C27.9825 63.8625 27.43 64.0025 26.8825 63.9225C26.335 63.8425 25.7925 63.4925 25.6475 62.96L25.64 62.9975C25.055 62 26.16 60.5825 25.515 59.6225C25.3725 59.4125 25.1575 59.2475 25.065 59.01C24.95 58.71 25.0925 58.335 25.3775 58.185C25.225 57.915 24.94 57.7525 24.715 57.5425C24.4875 57.33 24.3125 56.9925 24.46 56.72C24.51 56.625 24.595 56.5525 24.64 56.4575C24.8075 56.1075 24.395 55.7575 24.0275 55.635C23.66 55.5125 23.2 55.3825 23.1175 55.0025C23.06 54.7475 23.21 54.5 23.3525 54.2825C23.6975 53.755 24.0425 53.2275 24.3875 52.7025C24.7075 52.2125 25.04 51.68 25.015 51.0975C24.9825 50.3375 24.35 49.7075 24.295 48.9475C24.2675 48.56 24.395 48.1825 24.52 47.815C24.785 47.04 25.05 46.265 25.315 45.4925C25.3875 45.2525 25.46 45.0125 25.5325 44.7725L25.2775 44.6525C24.84 44.545 24.3925 44.435 24.01 44.195C23.6275 43.955 23.3175 43.555 23.3 43.105C23.5125 43.23 23.7275 43.3525 23.94 43.4775C23.615 43.1475 23.5175 42.6375 23.605 42.1825C23.6925 41.7275 23.94 41.3175 24.2225 40.95C24.5875 40.4775 25.02 40.0575 25.5025 39.705C25.5025 39.8775 25.5025 40.05 25.5025 40.2225C25.92 40.0125 26.2825 39.6875 26.535 39.2925C26.6 39.4075 26.61 39.5525 26.56 39.675C26.8375 39.425 27.0525 39.105 27.175 38.75C27.3875 38.7875 27.5225 39.06 27.4225 39.2525C28.1575 38.845 28.91 38.4625 29.6725 38.11C29.5925 38.0925 29.585 37.955 29.6625 37.93C29.795 37.68 29.93 37.43 30.0625 37.18C30.09 37.365 30.115 37.5475 30.1425 37.7325C30.45 37.2775 31.0925 37.255 31.6325 37.165C32.55 37.0125 33.43 36.5425 34.3575 36.6275C34.835 36.6725 35.285 36.86 35.7475 36.9875C36.21 37.115 36.72 37.1775 37.155 36.975L36.8625 36.565C37.07 36.695 37.335 36.65 37.58 36.6475C38.1225 36.6375 38.665 36.8625 39.0425 37.2525L39.06 37.2025C39.19 37.155 39.31 37.075 39.4025 36.97C39.3675 37.0675 39.3475 37.17 39.3425 37.2725L39.38 37.2925C40.135 37.5325 40.965 37.73 41.705 37.445C41.6375 37.525 41.55 37.5875 41.4525 37.625L41.4125 37.79C41.325 37.95 41.4575 38.145 41.6125 38.2375C41.77 38.33 41.9575 38.37 42.0925 38.4925C42.28 38.66 42.315 38.9325 42.4075 39.1675C42.68 39.85 43.5875 40.1925 44.2425 39.86C44.0825 40.0575 43.925 40.2575 43.765 40.455C43.71 40.5225 43.6525 40.605 43.67 40.69C43.6825 40.755 43.7375 40.8025 43.79 40.845C44.225 41.205 44.6825 41.5425 45.155 41.85C45.73 42.2275 46.3975 42.6725 46.4375 43.3575C46.355 43.3125 46.255 43.2925 46.16 43.305C46.125 43.68 46.37 44.065 46.725 44.1925C46.6025 44.34 46.4375 44.45 46.2525 44.5025C46.7525 45.46 46.9875 46.5275 47.22 47.5825C47.275 47.83 47.3275 48.08 47.325 48.3325C47.3225 48.6425 47.2325 48.9475 47.125 49.24C46.765 50.21 46.195 51.085 45.7325 52.0075C45.27 52.9325 44.905 53.95 45.005 54.98C44.9225 54.7975 44.84 54.6175 44.7575 54.435C44.75 54.695 44.7425 54.9525 44.7325 55.2125L44.705 55.0075C44.7 55.6675 44.6975 56.33 44.6925 56.99C44.495 56.965 44.3075 56.8675 44.1725 56.7225C43.1825 58.385 42.81 60.4075 43.145 62.3125C43.1725 62.4625 43.2075 62.6225 43.32 62.725C43.4975 62.8875 43.7725 62.8375 44.005 62.78C44.9425 62.5425 45.8825 62.3075 46.82 62.07C46.42 64.1225 46.89 66.33 48.0925 68.0425C48.805 69.0575 49.44 69.72 49.7075 69.9725C51.26 71.4325 52.9975 74.4675 53.84 81.365H22.2525C22.25 81.38 22.2475 81.3925 22.2425 81.4075V81.3825Z" fill="#FEFFFF"/>
</svg>
