<svg width="69" height="100" viewBox="0 0 69 100" fill="none" xmlns="http://www.w3.org/2000/svg">
<path d="M68.4384 23.5635V23.6526V23.7428V23.8341V23.9263V24.0197V24.114V24.2094V24.3058V24.4033V24.5017V24.6012V24.7016V24.8031V24.9055V25.009V25.1134V25.2188V25.3252V25.4326V25.5409V25.6502V25.7604V25.8716V25.9837V26.0968V26.2108V26.3258V26.4416V26.5584V26.6762V26.7948V26.9143V27.0348V27.1561V27.2783V27.4014V27.5254V27.6503V27.7761V27.9027V28.0302V28.1586V28.2878V28.4178V28.5487V28.6805V28.8131V28.9465V29.0807V29.2158V29.3517V29.4883V29.6258V29.7641V29.9032V30.0431V30.1838V30.3253V30.4675V30.6105V30.7543V30.8989V31.0442V31.1902V31.337V31.4846V31.6329V31.7819V31.9317V32.0822V32.2334V32.3853V32.5379V32.6913V32.8453V33V33.1555V33.3116V33.4684V33.6259V33.784V33.9428V34.1023V34.2624V34.4232V34.5847V34.7468V34.9095V35.0728V35.2368V35.4014V35.5667V35.7325V35.899V36.066V36.2337V36.402V36.5708V36.7402V36.9103V37.0809V37.252V37.4238V37.5961V37.7689V37.9423V38.1163V38.2908V38.4658V38.6414V38.8175V38.9941V39.1712V39.3489V39.527V39.7057V39.8849V40.0645V40.2447V40.4253V40.6064V40.788V40.9701V41.1526V41.3356V41.5191V41.703V41.8873V42.0721V42.2573V42.443V42.6291V42.8156V43.0025V43.1898V43.3776V43.5657V43.7543V43.9432V44.1326V44.3223V44.5124V44.7028V44.8937V45.0849V45.2765V45.4684V45.6607V45.8533V46.0462V46.2395V46.4332V46.6271V46.8214V47.016V47.2109V47.4061V47.6016V47.7974V47.9935V48.1899V48.3866V48.5836V48.7808V48.9783V49.1761V49.3741V49.5724V49.7709V49.9697V50.1687V50.3679V50.5674V50.7671V50.967V51.1672V51.3675V51.5681V51.7689V51.9698V52.171V52.3723V52.5738V52.7755V52.9774V53.1795V53.3817V53.584V53.7865V53.9892V54.192V54.395V54.598V54.8012V55.0046V55.208V55.4116V55.6153V55.8191V56.023V56.227V56.431V56.6352V56.8394V57.0438V57.2482V57.4526V57.6571V57.8617V58.0663V58.271V58.4758V58.6805V58.8853V59.0901V59.295V59.4999V59.7047V59.9096V60.1145V60.3194V60.5243V60.7292V60.9341V61.1389V61.3437V61.5485V61.7533V61.958V62.1627V62.3673V62.5719V62.7764V62.9809V63.1853V63.3896V63.5938V63.798V64.0021V64.206V64.4099V64.6137V64.8174V65.021V65.2244V65.4277V65.631V65.834V66.037V66.2398V66.4424V66.645V66.8473V67.0495V67.2515V67.4534V67.6551V67.8566V68.0579V68.2591V68.46V68.6608V68.8614V69.0617V69.2618V69.4618V69.6614V69.8609V70.0602V70.2592V70.4579V70.6564V70.8547V71.0527V71.2505V71.448V71.6452V71.8422V72.0388V72.2352V72.4313V72.6271V72.8226V73.0178V73.2127V73.4073V73.6016V73.7955V73.9891V74.1824V74.3754V74.568V74.7602V74.9521V75.1437V75.3349V75.5257V75.7162V75.9063V76.096V76.2853V76.4742V76.6627V76.8509V77.0386V77.2259V77.4128V77.5993V77.7854V77.9711V78.1563V78.341V78.5254V78.7093V78.8927V79.0757V79.2582V79.4402V79.6218V79.8029V79.9835V80.1637V80.3433V80.5224V80.7011V80.8792V81.0569V81.234V81.4106V81.5867V81.7622V81.9372V82.1117V82.2856V82.459V82.6319V82.8041V82.9759V83.147V83.3176V83.4876V83.657V83.8258V83.9941V84.1617V84.3287V84.4952V84.661V84.8262V84.9908V85.1548V85.3181V85.4808V85.6429V85.8043V85.9651V86.1252V86.2846V86.4434V86.6016V86.759V86.9158V87.0719V87.2273V87.382V87.536V87.6893V87.8419V87.9938V88.145V88.2955V88.4452V88.5942V88.7425V88.89V89.0368V89.1828V89.3281V89.4726V89.6164V89.7594V89.9016V90.043V90.1837V90.3235V90.4626V90.6009V90.7383V90.875V91.0109V91.1459V91.2801V91.4135V91.546V91.6777V91.8086V91.9387V92.0678V92.1962V92.3236V92.4502V92.576V92.7008V92.8248V92.9479V93.0701V93.1914V93.3118V93.4313V93.5499V93.6676V93.7843V93.9002V94.0151V94.1291V94.2421V94.3542V94.4654V94.5756V94.6848V94.7931V94.9004V95.0068V95.1122V95.2165V95.32V95.4224V95.5238V95.6242V95.7236V95.8221V95.9194V96.0158V96.1112V96.2055V96.2988V96.3911V96.4823V96.5724V96.6615V96.7496V96.8366V96.9225V97.0074V97.0911V97.1738V97.2554V97.336V97.4154V97.4937V97.5709V97.647V97.722V97.7959V97.8686V97.9402V98.0107V98.0801V98.1483V98.2153V98.2812V98.346V98.4095V98.472V98.5332V98.5932V98.6521V98.7098V98.7663V98.8216V98.8757V98.9286V98.9803V99.0308V99.08V99.128V99.1748V99.2204V99.2647V99.3077V99.3496V99.3901V99.4294V99.4675V99.5H0.5V99.4634V99.4251V99.3855V99.3447V99.3025V99.2591V99.2145V99.1686V99.1215V99.0731V99.0235V98.9726V98.9206V98.8673V98.8128V98.7571V98.7002V98.6421V98.5828V98.5223V98.4606V98.3977V98.3337V98.2685V98.2021V98.1346V98.0659V97.996V97.9251V97.8529V97.7797V97.7053V97.6297V97.5531V97.4753V97.3964V97.3165V97.2354V97.1532V97.0699V96.9855V96.9001V96.8136V96.726V96.6373V96.5476V96.4568V96.3649V96.272V96.1781V96.0831V95.9871V95.8901V95.792V95.6929V95.5928V95.4917V95.3896V95.2865V95.1824V95.0773V94.9712V94.8641V94.7561V94.647V94.5371V94.4261V94.3142V94.2014V94.0876V93.9728V93.8572V93.7405V93.623V93.5045V93.3852V93.2649V93.1437V93.0216V92.8986V92.7747V92.6499V92.5243V92.3977V92.2703V92.142V92.0129V91.8829V91.752V91.6203V91.4877V91.3543V91.2201V91.0851V90.9492V90.8125V90.6749V90.5366V90.3975V90.2575V90.1168V89.9753V89.833V89.6899V89.546V89.4014V89.256V89.1098V88.9629V88.8152V88.6668V88.5176V88.3677V88.2171V88.0657V87.9137V87.7608V87.6073V87.4531V87.2982V87.1426V86.9862V86.8292V86.6715V86.5132V86.3541V86.1944V85.873V85.7113V85.549V85.2224V84.8932V84.5615V84.2274V84.0595V83.8909V82.5213V81.8229V81.4705V81.2935V81.116V80.9379V80.7594V80.4007V80.0401V79.8591V79.6775V79.4955V79.313V79.1301V78.9467V78.7628V78.5784V78.3936V78.2084V78.0227V77.8366V77.6501V77.4631V77.2757V77.0879V76.8997V76.7111V76.5221V76.3327V76.1429V75.9527V75.7621V75.5711V75.3798V75.1881V74.9961V74.8037V74.6109V74.4178V74.2243V74.0305V73.8364V73.6419V73.4472V73.2521V73.0566V72.8609V72.6649V72.4686V72.272V72.0751V71.8779V71.6804V71.4826V71.2846V71.0863V70.8878V70.689V70.49V70.2907V70.0911V69.8914V69.6914V69.4911V69.2907V69.09V68.8891V68.6881V68.4868V68.2853V68.0836V67.8818V67.6797V67.4775V67.2751V67.0726V66.8698V66.667V66.4639V66.2607V66.0574V65.854V65.6504V65.4466V65.2428V65.0388V64.8347V64.6305V64.4262V64.2218V64.0174V63.8128V63.6081V63.4034V63.1985V62.9937V62.7887V62.5837V62.3786V62.1735V61.9683V61.7631V61.5579V61.3526V61.1473V60.942V60.7366V60.5313V60.3259V60.1205V59.9152V59.7098V59.5045V59.2992V59.0939V58.8886V58.6834V58.4782V58.273V58.0679V57.8628V57.6578V57.4529V57.248V57.0432V56.8384V56.6338V56.4292V56.2247V56.0204V55.8161V55.6119V55.4078V55.2039V55.0001V54.7963V54.5928V54.3893V54.186V53.9829V53.7798V53.577V53.3743V53.1718V52.9694V52.7672V52.5652V52.3633V52.1617V51.9602V51.759V51.5579V51.3571V51.1565V50.956V50.7558V50.5559V50.3561V50.1566V49.9574V49.7584V49.5596V49.3611V49.1629V48.9649V48.7672V48.5697V48.3726V48.1757V47.9791V47.7829V47.5869V47.3912V47.1958V47.0008V46.8061V46.6116V46.4176V46.2238V46.0304V45.8373V45.6446V45.4523V45.2603V45.0686V44.8773V44.6865V44.4959V44.3058V44.116V43.9267V43.7377V43.5492V43.361V43.1733V42.9859V42.799V42.6125V42.4265V42.2409V42.0557V41.871V41.6867V41.5029V41.3196V41.1367V40.9542V40.7723V40.5908V40.4099V40.2294V40.0494V39.8699V39.6909V39.5124V39.3344V39.157V38.98V38.8036V38.6278V38.4525V38.2777V38.1034V37.9298V37.7566V37.5841V37.4121V37.2407V37.0698V36.8996V36.7299V36.5608V36.3923V36.2244V36.0572V35.8905V35.7244V35.559V35.3942V35.23V35.0665V34.9036V34.7414V34.5798V34.4188V34.2585V34.0989V33.94V33.7817V33.6241V33.4672V33.311V33.1555V33.0006V32.8465V32.6931V32.5404V32.3884V32.2372V32.0866V31.9368V31.7878V31.6395V31.4919V31.3451V31.199V31.0537V30.9092V30.7654V30.6225V30.4803V30.3388V30.1982V30.0584V29.9194V29.7812V29.6438V29.5072V29.3714V29.2365V29.1024V28.9691V28.8367V28.7051V28.5743V28.4444V28.3154V28.1873V28.06V27.9336V27.808V27.6834V27.5596V27.4367V27.3148V27.1937V27.0735V26.9543V26.836V26.7186V26.6021V26.4865V26.3719V26.1456V25.923V25.7043V25.5964V25.4894V25.2785V25.0716V24.9696V24.8686V24.6698V24.4749V24.3791V24.2842V24.0977V23.9154V23.8258V23.7373V23.5635C0.5 20.1095 2.54676 16.9307 5.75536 14.0751C8.95724 11.2256 13.2463 8.76206 17.5653 6.74123C21.8795 4.72271 26.1975 3.15774 29.4394 2.09698C31.0597 1.56684 32.4095 1.16318 33.3535 0.892253C33.8255 0.756799 34.1959 0.654553 34.4479 0.586293C34.5582 0.556393 34.6459 0.533016 34.7093 0.516227C34.7717 0.532107 34.8574 0.55412 34.965 0.582229C35.2133 0.647114 35.5785 0.744472 36.0438 0.873874C36.9746 1.1327 38.3055 1.5196 39.9031 2.0311C43.0998 3.05459 47.3574 4.57475 51.6109 6.56302C55.8693 8.55356 60.0972 11.0012 63.2533 13.871C66.4132 16.7442 68.4384 19.9834 68.4384 23.5635Z" stroke="white"/>
</svg>
