<svg width="74" height="104" viewBox="0 0 74 104" fill="none" xmlns="http://www.w3.org/2000/svg">
<path fill-rule="evenodd" clip-rule="evenodd" d="M61.3911 87.1288C67.6694 78.1547 71.5652 65.736 71.5652 52C71.5652 38.264 67.6694 25.8453 61.3911 16.8712C55.1119 7.89589 46.4753 2.39526 36.9802 2.39526C27.4852 2.39526 18.8485 7.89589 12.5693 16.8712C6.29103 25.8453 2.39526 38.264 2.39526 52C2.39526 65.736 6.29103 78.1547 12.5693 87.1288C18.8485 96.1041 27.4852 101.605 36.9802 101.605C46.4753 101.605 55.1119 96.1041 61.3911 87.1288ZM36.9802 102C56.2993 102 71.9605 79.6142 71.9605 52C71.9605 24.3858 56.2993 2 36.9802 2C17.6612 2 2 24.3858 2 52C2 79.6142 17.6612 102 36.9802 102Z" fill="white"/>
<path fill-rule="evenodd" clip-rule="evenodd" d="M62.8204 88.5339C69.4612 79.2009 73.5819 66.2855 73.5819 52C73.5819 37.7145 69.4612 24.7991 62.8204 15.4661C56.1786 6.13173 47.0433 0.411067 37 0.411067C26.9567 0.411067 17.8214 6.13173 11.1796 15.4661C4.53879 24.7991 0.418079 37.7145 0.418079 52C0.418079 66.2855 4.53879 79.2009 11.1796 88.5339C17.8214 97.8683 26.9567 103.589 37 103.589C47.0433 103.589 56.1786 97.8683 62.8204 88.5339ZM37 104C57.4345 104 74 80.7188 74 52C74 23.2812 57.4345 0 37 0C16.5655 0 0 23.2812 0 52C0 80.7188 16.5655 104 37 104Z" fill="white"/>
</svg>
