<svg width="106" height="139" viewBox="0 0 106 139" fill="none" xmlns="http://www.w3.org/2000/svg">
<path fill-rule="evenodd" clip-rule="evenodd" d="M82.5537 118.329C91.2805 105.855 96.6956 88.5931 96.6956 69.5C96.6956 50.4069 91.2805 33.145 82.5537 20.671C73.8256 8.19529 61.8206 0.549407 48.6225 0.549407C35.4244 0.549407 23.4195 8.19529 14.6914 20.671C5.96453 33.145 0.549407 50.4069 0.549407 69.5C0.549407 88.5931 5.96453 105.855 14.6914 118.329C23.4195 130.805 35.4244 138.451 48.6225 138.451C61.8206 138.451 73.8256 130.805 82.5537 118.329ZM48.6225 139C75.476 139 97.245 107.884 97.245 69.5C97.245 31.1162 75.476 0 48.6225 0C21.769 0 0 31.1162 0 69.5C0 107.884 21.769 139 48.6225 139Z" fill="white"/>
<path fill-rule="evenodd" clip-rule="evenodd" d="M90.8935 118.329C99.6204 105.855 105.035 88.5931 105.035 69.5C105.035 50.4069 99.6204 33.145 90.8935 20.671C82.1654 8.19529 70.1605 0.549407 56.9624 0.549407C43.7643 0.549407 31.7593 8.19529 23.0312 20.671C14.3044 33.145 8.88925 50.4069 8.88925 69.5C8.88925 88.5931 14.3044 105.855 23.0312 118.329C31.7593 130.805 43.7643 138.451 56.9624 138.451C70.1605 138.451 82.1654 130.805 90.8935 118.329ZM56.9624 139C83.8158 139 105.585 107.884 105.585 69.5C105.585 31.1162 83.8158 0 56.9624 0C30.1089 0 8.33984 31.1162 8.33984 69.5C8.33984 107.884 30.1089 139 56.9624 139Z" fill="white"/>
</svg>
